<?xml version="1.0" encoding="UTF-8"?>
<svg width="105px" height="36px" viewBox="0 0 105 36" version="1.1" xmlns="http://www.w3.org/2000/svg" xmlns:xlink="http://www.w3.org/1999/xlink">
    <!-- Generator: Sketch 59 (86127) - https://sketch.com -->
    <title>Group 15</title>
    <desc>Created with Sketch.</desc>
    <g id="Page-1" stroke="none" stroke-width="1" fill="none" fill-rule="evenodd">
        <g id="Desktop---hover" transform="translate(-274.000000, -1173.000000)" fill="#6F7878" stroke="#FFFFFF">
            <g id="Group-15" transform="translate(275.000000, 1174.000000)">
                <path d="M5.00663289,5.00149244 C11.6821434,-1.66716415 22.5043996,-1.66716415 29.1790172,5.00149244 C35.8545277,11.670149 35.8545277,22.4812937 29.1790172,29.1490583 C22.5043996,35.8177149 11.6821434,35.8177149 5.00663289,29.1490583 C-1.66887763,22.4812937 -1.66887763,11.670149 5.00663289,5.00149244" id="Fill-124"></path>
                <path d="M51.5149014,8.51129255 C56.2014366,3.82956915 63.7991903,3.82956915 68.4850986,8.51129255 C73.1716338,13.193016 73.1716338,20.7829688 68.4850986,25.464066 C63.7991903,30.1457894 56.2014366,30.1457894 51.5149014,25.464066 C46.8283662,20.7829688 46.8283662,13.193016 51.5149014,8.51129255" id="Fill-124-Copy"></path>
                <path d="M90.1968134,12.1945578 C93.1258979,9.26848072 97.8744939,9.26848072 100.803187,12.1945578 C103.732271,15.120635 103.732271,19.8643555 100.803187,22.7900412 C97.8744939,25.7161184 93.1258979,25.7161184 90.1968134,22.7900412 C87.2677289,19.8643555 87.2677289,15.120635 90.1968134,12.1945578" id="Fill-124-Copy-2"></path>
            </g>
        </g>
    </g>
</svg>