<?xml version="1.0" encoding="utf-8"?>
<!-- Generator: Adobe Illustrator 23.0.6, SVG Export Plug-In . SVG Version: 6.00 Build 0)  -->
<svg version="1.1" id="Layer_1" xmlns="http://www.w3.org/2000/svg" xmlns:xlink="http://www.w3.org/1999/xlink" x="0px" y="0px"
	 viewBox="0 0 1602.48 286.78" style="enable-background:new 0 0 1602.48 286.78;" xml:space="preserve">
<style type="text/css">
	.st0{fill:#FFFFFF;}
</style>
<path d="M646.2,158.32c0,1.92,0,3.83,0,5.75c0,23.66,0.15,47.32-0.1,70.98c-0.07,6.27-0.66,12.71-2.19,18.77
	c-5.52,21.9-21.84,33.77-44.44,32.99c-24.16-0.84-39.71-14.73-43.27-38.84c-0.7-4.76-1.1-9.62-1.1-14.43
	c-0.07-62.82-0.08-125.64-0.03-188.45c0.02-22.75,12.06-39.06,32.76-43.69c17.6-3.93,33.91-0.52,46.29,13.07
	c9.72,10.67,18.22,22.52,26.74,34.22c20.29,27.87,40.27,55.96,60.39,83.95c0.26,0.36,0.71,0.6,1.79,1.48
	c0.11-2.3,0.26-4.01,0.26-5.72c0.02-25.33-0.15-50.66,0.12-75.98c0.07-6.6,0.77-13.37,2.4-19.75c5.6-21.82,22.75-33.94,45.25-32.66
	c23.76,1.35,39.23,15.59,42.5,39.26c0.57,4.12,0.99,8.29,1,12.44c0.06,63.65,0.09,127.3,0.02,190.95
	c-0.03,26.02-17.67,43.82-43.42,44.22c-17.12,0.26-30.56-6.95-41.03-20.13c-16.16-20.35-32.46-40.6-48.27-61.23
	c-11.03-14.4-21.33-29.36-31.96-44.07c-0.83-1.14-1.7-2.25-2.55-3.37C646.97,158.15,646.59,158.24,646.2,158.32z"/>
<path d="M1320.93,158.52c0,1.79,0,3.59,0,5.38c0,24.16,0.04,48.32-0.02,72.47c-0.04,13.68-2.74,26.69-12.34,37.03
	c-13.32,14.34-30.26,16.02-47.95,11.29c-17.82-4.77-26.29-18.3-29.44-35.57c-0.95-5.2-1.21-10.59-1.21-15.9
	c-0.08-62.48,0.06-124.96-0.11-187.43c-0.05-19.16,6.97-34.15,24.98-41.74c18.72-7.88,36.56-5.08,52.22,8.39
	c2.51,2.16,4.88,4.6,6.84,7.26c25.05,33.88,50.05,67.81,74.98,101.79c2.9,3.95,5.34,8.24,9.18,12.12c0-1.72,0-3.44,0-5.16
	c0-25.66-0.19-51.32,0.13-76.97c0.08-6.75,0.93-13.7,2.78-20.18c6.05-21.19,23.29-32.81,45.27-31.27
	c24.55,1.72,39.98,16.83,42.41,41.62c0.37,3.81,0.55,7.65,0.55,11.48c0.03,62.81,0.05,125.62,0.01,188.43
	c-0.01,22.27-10.95,38.4-30.4,43.43c-18.14,4.68-35.21,1.69-48.3-12.45c-10.94-11.83-20.83-24.69-30.62-37.53
	c-18.96-24.9-37.52-50.1-56.26-75.17c-0.46-0.62-1.03-1.15-1.55-1.73C1321.69,158.24,1321.31,158.38,1320.93,158.52z"/>
<path d="M85.54,4.74c18.27,1,36.71,0.82,54.8,3.23c59.32,7.89,103.91,48.92,114.68,107c15.28,82.42-32.24,152.76-116.8,163.95
	c-30.34,4.02-61.52,1.7-92.32,2.23c-1.15,0.02-2.3-0.33-3.46-0.51c-24.55-3.69-42.23-23.47-42.3-48.24
	c-0.19-59.33-0.23-118.66,0.01-177.99C0.26,27.25,21.84,6.05,48.99,5.7c12.16-0.16,24.33-0.03,36.5-0.03
	C85.5,5.36,85.52,5.05,85.54,4.74z M91.05,143.15c0,15.16,0.08,30.32-0.06,45.48c-0.03,3.61,1.1,5.11,4.87,4.95
	c9.31-0.4,18.69,0.05,27.94-0.89c25.43-2.59,42.63-22.34,42.99-48.67c0.36-25.97-16.21-46.22-41.39-49.53
	c-9.52-1.25-19.28-0.53-28.91-1.1c-4.64-0.27-5.58,1.6-5.52,5.78C91.17,113.82,91.04,128.48,91.05,143.15z"/>
<path d="M938.94,86.71c0.98-1.28,1.95-2.58,2.94-3.85c16.35-21.05,32.41-42.34,49.15-63.07c12.18-15.08,28.23-21.95,47.5-16.75
	c18.58,5.02,30.46,17.55,34.51,36.47c3.5,16.35-2.02,30.57-12.56,43.02c-15.29,18.05-30.7,36-46.06,54
	c-1.51,1.77-2.98,3.55-4.75,5.66c1.25,1.51,2.34,2.91,3.52,4.24c17.1,19.35,34.33,38.59,51.29,58.07
	c14.81,17.01,17.14,37.87,6.75,56.56c-16.26,29.23-52.17,33.8-74.1,8.62c-18.7-21.47-36.18-44.01-54.19-66.08
	c-1.35-1.66-2.61-3.39-4.9-6.37c-0.17,3.11-0.33,4.79-0.34,6.46c-0.06,13.33,0.18,26.67-0.18,39.99
	c-0.54,19.88-12.85,36.3-31.3,41.21c-32.2,8.57-59.64-11.38-59.62-44.06c0.05-64.98-0.05-129.97,0.06-194.95
	c0.04-21.54,11.72-37.87,30.7-43.73c19.83-6.12,41.29,0.64,52.17,16.46c5.15,7.48,7.8,15.86,8,24.86
	c0.27,12.49,0.13,24.99,0.16,37.49c0,1.8,0,3.6,0,5.4C938.12,86.46,938.53,86.58,938.94,86.71z"/>
<path d="M522.98,111.55c0,19.66,0.04,39.32-0.01,58.98c-0.16,65.39-47.15,113.73-112.6,116.11c-21.62,0.79-42.65-1.67-62.41-10.82
	c-38.49-17.82-59.29-48.63-64.88-90.17c-0.93-6.9-1.07-13.95-1.08-20.93c-0.1-39.32-0.12-78.64,0-117.96
	c0.05-17.79,6.79-32.34,22.84-41.05c28.44-15.44,67.8,0.63,68.05,39.68c0.25,39.49,0.02,78.98,0.08,118.46
	c0.02,13.37,5.02,24.16,17.63,30.05c18.57,8.68,39.44-4.26,41.27-25.36c0.23-2.65,0.18-5.33,0.18-7.99
	c0.01-38.82-0.1-77.64,0.06-116.46c0.08-20.4,13.57-37.43,33.08-42.5c20.64-5.36,41.41,2.72,51.54,20.11
	c4.38,7.52,6.3,15.67,6.27,24.37C522.93,67.9,522.98,89.72,522.98,111.55z"/>
<path d="M1106.89,143.11c0-32.98-0.1-65.96,0.04-98.94c0.08-19.37,11.4-35.32,28.9-41.45c18.72-6.55,39.83-1.35,51.57,12.8
	c6.74,8.12,10.25,17.63,10.27,28.08c0.13,66.46,0.24,132.92-0.01,199.38c-0.1,25.79-19.83,44.21-45.84,43.87
	c-26.05-0.35-44.76-18.63-44.89-44.3C1106.76,209.4,1106.89,176.25,1106.89,143.11z"/>
<path d="M1516.57,62.74c1.07-10.08,1.38-20.32,3.35-30.22c4.55-22.86,23.81-35.35,47.76-31.8c21.92,3.25,36.68,21.74,34.6,44.04
	c-1.81,19.38-7.09,37.98-14.9,55.76c-5.12,11.65-13.26,20.45-26.45,22.94c-17.26,3.26-33.05-5.55-38.86-22.19
	c-2.17-6.21-3.23-12.92-3.91-19.5c-0.65-6.26-0.14-12.64-0.14-18.96C1517.53,62.79,1517.05,62.76,1516.57,62.74z"/>
<path class="st0" d="M91.05,143.15c0-14.66,0.12-29.32-0.08-43.98c-0.06-4.18,0.88-6.05,5.52-5.78c9.63,0.57,19.39-0.15,28.91,1.1
	c25.18,3.31,41.74,23.56,41.39,49.53c-0.36,26.32-17.56,46.08-42.99,48.67c-9.25,0.94-18.63,0.49-27.94,0.89
	c-3.77,0.16-4.9-1.34-4.87-4.95C91.12,173.47,91.05,158.31,91.05,143.15z"/>
<g>
	<g>
		<path d="M1529.21,281.31c-0.54,0-1.07,0-1.61,0c-0.07-0.01-0.13-0.03-0.2-0.03c-1.28-0.07-2.53-0.27-3.76-0.62
			c-4.04-1.14-7.3-3.41-9.77-6.8c-1.87-2.57-2.97-5.44-3.31-8.6c-0.04-0.36-0.07-0.73-0.1-1.09c0-0.55,0-1.1,0-1.65
			c0.01-0.04,0.02-0.08,0.03-0.12c0.04-0.47,0.07-0.94,0.13-1.4c0.27-2.05,0.89-3.99,1.83-5.83c2.8-5.45,8.33-9.16,14.43-9.68
			c2.43-0.21,4.81,0.07,7.13,0.84c6.73,2.24,11.48,8.13,12.24,15.18c0.21,1.91,0.12,3.81-0.32,5.68c-1.2,5.12-4.06,9.05-8.59,11.73
			c-2.17,1.28-4.53,2.03-7.04,2.3C1529.94,281.24,1529.57,281.27,1529.21,281.31z M1544.28,263.36c0.13-8.36-6.89-16.09-16.23-15.89
			c-8.94,0.19-15.53,7.7-15.54,15.88c0,8.59,7.1,15.93,15.96,15.91C1537.2,279.24,1544.42,271.89,1544.28,263.36z"/>
		<path d="M1529.23,281.81l-1.8-0.02c-1.39-0.08-2.69-0.29-3.94-0.65c-4.13-1.17-7.5-3.52-10.04-6.98c-1.91-2.62-3.05-5.59-3.4-8.85
			c-0.03-0.25-0.05-0.51-0.07-0.76l-0.03-0.33l0-1.75l0.01-0.06l0.05-0.51c0.02-0.32,0.05-0.64,0.09-0.96
			c0.28-2.09,0.91-4.1,1.88-5.99c2.88-5.6,8.56-9.42,14.83-9.95c2.5-0.21,4.96,0.08,7.33,0.87c6.87,2.28,11.8,8.41,12.58,15.6
			c0.22,2.01,0.11,3.98-0.33,5.84c-1.23,5.25-4.19,9.31-8.82,12.05c-2.18,1.29-4.62,2.08-7.24,2.36c-0.27,0.03-0.55,0.05-0.83,0.08
			L1529.23,281.81z M1528.41,245.91c-0.5,0-0.99,0.02-1.49,0.06c-5.93,0.5-11.31,4.11-14.03,9.41c-0.92,1.79-1.52,3.7-1.78,5.67
			c-0.04,0.3-0.06,0.6-0.09,0.91l-0.07,0.65l0.04,1.84c0.02,0.25,0.05,0.5,0.07,0.75c0.33,3.08,1.41,5.89,3.21,8.36
			c2.4,3.28,5.59,5.5,9.5,6.61c1.17,0.33,2.4,0.54,3.65,0.6c0.06,0,0.13,0.01,0.19,0.03l1.56,0l1.06-0.1
			c2.48-0.26,4.78-1.01,6.84-2.23c4.38-2.59,7.2-6.43,8.36-11.41c0.41-1.76,0.51-3.61,0.31-5.51c-0.74-6.81-5.41-12.6-11.91-14.76
			C1532.09,246.21,1530.26,245.91,1528.41,245.91z M1528.43,279.76c-4.35,0-8.45-1.71-11.56-4.81c-3.14-3.13-4.86-7.25-4.86-11.6
			c0-8.84,7.19-16.19,16.03-16.38c4.51-0.07,8.73,1.6,11.92,4.76c3.13,3.12,4.89,7.35,4.83,11.63c0.07,4.24-1.59,8.3-4.67,11.44
			c-3.13,3.19-7.26,4.95-11.64,4.96C1528.46,279.76,1528.45,279.76,1528.43,279.76z M1528.4,247.97c-0.11,0-0.23,0-0.34,0
			c-8.29,0.18-15.04,7.07-15.05,15.38c0,4.08,1.62,7.95,4.57,10.89c2.92,2.92,6.78,4.52,10.86,4.52c0.01,0,0.02,0,0.04,0
			c4.1-0.01,7.98-1.67,10.92-4.66c2.89-2.95,4.45-6.76,4.38-10.73v-0.02c0.06-4-1.59-7.98-4.53-10.91
			C1536.34,249.55,1532.5,247.97,1528.4,247.97z"/>
	</g>
	<g>
		<path d="M1521.48,255.77c0.07,0,0.14,0,0.21,0c2.26,0,4.53-0.01,6.79,0.02c1.12,0.02,2.25,0.05,3.36,0.18
			c2.55,0.3,3.63,2.03,3.96,3.81c0.25,1.37-0.01,2.65-0.83,3.79c-0.58,0.81-1.4,1.3-2.32,1.61c-0.51,0.17-1.03,0.28-1.55,0.41
			c-0.06,0.01-0.11,0.03-0.2,0.05c0.05,0.04,0.08,0.08,0.12,0.09c1.24,0.61,2.12,1.6,2.86,2.72c1.12,1.69,2.21,3.4,3.31,5.1
			c0.04,0.07,0.08,0.14,0.14,0.24c-0.32,0.01-0.6,0.03-0.88,0.03c-0.63,0.01-1.27,0-1.9,0.01c-0.13,0-0.2-0.04-0.28-0.15
			c-1.11-1.72-2.21-3.44-3.34-5.14c-0.38-0.58-0.83-1.12-1.29-1.63c-0.63-0.69-1.43-1.05-2.39-1.06c-1.09-0.01-2.18-0.03-3.28-0.05
			c-0.02,0-0.05,0.01-0.09,0.01c0,2.67,0,5.33,0,8.01c-0.8,0-1.59,0-2.39,0C1521.48,267.81,1521.48,261.8,1521.48,255.77z
			 M1523.87,263.78c0.07,0,0.13,0,0.19,0c1.56-0.01,3.12,0,4.69-0.03c0.74-0.02,1.48-0.07,2.2-0.18c1.4-0.22,2.35-1.27,2.46-2.67
			c0.08-0.95-0.33-2.17-1.77-2.78c-0.6-0.25-1.23-0.28-1.87-0.29c-1.91-0.02-3.82-0.03-5.73-0.04c-0.06,0-0.12,0-0.17,0
			C1523.87,259.8,1523.87,261.78,1523.87,263.78z"/>
		<path d="M1534.52,274.34c-0.3,0-0.53-0.13-0.7-0.38l-0.65-1.01c-0.89-1.38-1.78-2.76-2.69-4.12c-0.34-0.52-0.75-1.03-1.25-1.57
			c-0.54-0.59-1.22-0.89-2.02-0.89c-0.73,0-1.46-0.02-2.19-0.03l-0.67-0.01v8.01h-3.39v-19.05l2.72,0c1.59,0,3.19,0,4.78,0.02
			c1.08,0.01,2.24,0.05,3.41,0.19c2.39,0.28,3.94,1.78,4.39,4.21c0.28,1.54-0.03,2.94-0.91,4.17c-0.59,0.82-1.43,1.41-2.57,1.79
			c-0.21,0.07-0.43,0.13-0.65,0.19c0.75,0.54,1.45,1.31,2.13,2.33c0.79,1.2,1.57,2.4,2.35,3.61l0.96,1.49
			c0.04,0.06,0.07,0.11,0.1,0.17l0.46,0.81l-1.13,0.05c-0.21,0.01-0.4,0.02-0.6,0.02l-0.86,0
			C1535.23,274.33,1534.88,274.33,1534.52,274.34C1534.53,274.34,1534.53,274.34,1534.52,274.34z M1523.98,265.31l1.08,0.02
			c0.73,0.01,1.45,0.03,2.18,0.03c1.09,0.01,2.02,0.42,2.75,1.22c0.53,0.58,0.97,1.14,1.34,1.69c0.91,1.37,1.8,2.75,2.69,4.14
			l0.6,0.93c0.32,0,0.64,0,0.96,0l0.85,0c0,0,0.01,0,0.01,0l-0.65-1c-0.78-1.2-1.55-2.41-2.34-3.6c-0.84-1.27-1.66-2.05-2.66-2.54
			l-0.19-0.14l-0.67-0.62l1.53-0.44c0.34-0.08,0.69-0.16,1.02-0.28c0.93-0.32,1.61-0.79,2.08-1.43c0.72-1,0.97-2.15,0.74-3.41
			c-0.25-1.39-1.07-3.11-3.52-3.4c-1.13-0.13-2.26-0.17-3.31-0.18c-1.59-0.02-3.18-0.02-4.77-0.02l-1.72,0v17.05h1.39v-7.95
			L1523.98,265.31z M1523.87,264.28h-0.5v-6.99l1.95,0.01c1.49,0.01,2.97,0.02,4.46,0.03c0.66,0,1.36,0.03,2.06,0.33
			c1.67,0.7,2.17,2.15,2.07,3.28c-0.14,1.64-1.27,2.87-2.88,3.12c-0.7,0.11-1.44,0.17-2.27,0.19c-1.13,0.02-2.26,0.03-3.39,0.03
			L1523.87,264.28z M1524.37,258.3v4.99l0.99,0c1.12,0,2.25,0,3.37-0.03c0.78-0.02,1.48-0.07,2.14-0.18
			c1.16-0.18,1.94-1.03,2.04-2.22c0.03-0.38,0.02-1.65-1.47-2.28c-0.52-0.22-1.09-0.24-1.68-0.25c-1.49-0.01-2.97-0.02-4.46-0.03
			L1524.37,258.3z"/>
	</g>
</g>
</svg>
