<?xml version="1.0" encoding="UTF-8"?>
<svg width="96px" height="17px" viewBox="0 0 96 17" version="1.1" xmlns="http://www.w3.org/2000/svg" xmlns:xlink="http://www.w3.org/1999/xlink">
    <!-- Generator: Sketch 50.2 (55047) - http://www.bohemiancoding.com/sketch -->
    <title>Group</title>
    <desc>Created with Sketch.</desc>
    <defs>
        <polygon id="path-1" points="0.04745 0.0667772152 11.9401667 0.0667772152 11.9401667 12.9181823 0.04745 12.9181823"></polygon>
    </defs>
    <g id="Page-1" stroke="none" stroke-width="1" fill="none" fill-rule="evenodd">
        <g id="Desktop-HD-Copy-8" transform="translate(-665.000000, -75.000000)">
            <g id="Group" transform="translate(665.000000, 75.000000)">
                <g id="Group-3" transform="translate(84.000000, 0.000000)">
                    <mask id="mask-2" fill="white">
                        <use xlink:href="#path-1"></use>
                    </mask>
                    <g id="Clip-2"></g>
                    <path d="M4.76711667,12.9181823 C5.47395,12.3349924 6.57178333,11.733043 7.91861667,10.8459165 C10.51745,9.13287848 11.9402833,7.80013165 11.9402833,5.18285316 C11.9402833,2.1369038 9.70861667,0.0667772152 6.12861667,0.0667772152 C2.25428333,0.0667772152 0.04745,2.18478987 0.04745,6.01551139 L3.21061667,6.01551139 L3.21061667,5.87284051 C3.21061667,3.89782785 4.21578333,2.8507519 5.90795,2.8507519 C7.50161667,2.8507519 8.45811667,3.77852405 8.45811667,5.23024557 C8.45811667,7.41934684 6.64361667,8.15722025 4.14261667,9.77530886 C2.59295,10.7902962 1.48295,11.7585494 0.76145,12.9181823 L4.14661667,12.9181823 L4.76711667,12.9181823 Z" id="Fill-1" fill="#009AD7" mask="url(#mask-2)"></path>
                </g>
                <polygon id="Fill-4" fill="#009AD7" points="89 14.0087174 89 17 95 17 95 14 89 14"></polygon>
                <polygon id="Fill-6" fill="#009AD7" points="80.262662 2 77 2 77 17 88 17 88 14.2670362 80.262662 14.2670362"></polygon>
                <path d="M73.1754551,15.1979319 L73.1754551,14.6672272 L73.5307375,14.6672272 C73.7126446,14.6672272 73.9061423,14.7062834 73.9061423,14.9191232 C73.9061423,15.1825064 73.7086201,15.1979319 73.4880778,15.1979319 L73.1754551,15.1979319 Z M73.1754551,15.4193051 L73.4760044,15.4193051 L73.9294844,16.1630138 L74.2223066,16.1630138 L73.7327671,15.4073256 C73.9858273,15.3764745 74.1788421,15.2410907 74.1788421,14.9340565 C74.1788421,14.595843 73.9776174,14.4458541 73.5704995,14.4458541 L72.9154727,14.4458541 L72.9154727,16.1630138 L73.1754551,16.1630138 L73.1754551,15.4193051 Z M73.4916194,16.7931641 C74.3056942,16.7931641 75,16.1630138 75,15.3001673 C75,14.4458541 74.3056942,13.8170165 73.4916194,13.8170165 C72.6699786,13.8170165 71.9751898,14.4458541 71.9751898,15.3001673 C71.9751898,16.1630138 72.6699786,16.7931641 73.4916194,16.7931641 Z M72.2746122,15.3001673 C72.2746122,14.595843 72.8079382,14.0651382 73.4916194,14.0651382 C74.1667686,14.0651382 74.7010605,14.595843 74.7010605,15.3001673 C74.7010605,16.0166351 74.1667686,16.5456988 73.4916194,16.5456988 C72.8079382,16.5456988 72.2746122,16.0166351 72.2746122,15.3001673 Z M24.0674441,11.7621357 L23.6506674,11.7621357 C22.2311477,11.7652536 19.7380537,11.8348327 19.7475515,13.3142091 C19.7609128,15.3983001 24.0674441,14.7359858 24.0674441,12.2226049 L24.0674441,11.7621357 Z M26.9520409,9.3419645 L26.9520409,16.5870524 L24.3087528,16.5870524 L24.243395,15.4959405 C23.4322179,16.4972888 22.1157251,16.857656 20.7601144,16.857656 C18.7188907,16.857656 16.7900308,15.8543385 16.7496249,13.5178592 C16.6889355,9.84493606 20.8967862,9.58417853 23.5395914,9.58417853 L24.0674441,9.58417853 L24.0674441,9.43894857 C24.0674441,8.22426815 23.2612573,7.56818974 21.7430569,7.56818974 C20.6532238,7.56818974 19.5775568,8.00387963 18.7818338,8.74726011 L17.0521059,6.99580318 C18.6226247,5.7264769 20.2567306,5.25304364 21.997727,5.25304364 C25.4362552,5.25304364 26.9520409,6.83695278 26.9520409,9.3419645 Z M63.4321535,9.79324404 C63.3397511,8.39559027 62.2893579,7.51190287 60.8424716,7.56818974 C59.3862485,7.62299969 58.4163452,8.56838931 58.2154425,9.79324404 L63.4321535,9.79324404 Z M66.4355534,12.1064209 L58.2154425,12.1064209 C58.4496681,13.5203208 59.564775,14.3708596 60.9532257,14.4094235 C62.3032022,14.4460182 63.0583584,14.0393743 64.0458084,13.042949 L66.0020348,14.52971 C64.6118133,16.2363672 62.9434188,16.857656 61.0430524,16.857656 C57.7001462,16.857656 55.1959446,14.5279049 55.1959446,11.0546934 C55.1959446,7.58525631 57.6879117,5.25304364 60.9179711,5.25304364 C64.4782001,5.25304364 66.4355534,7.40277528 66.4355534,11.2187951 L66.4355534,12.106585 L66.4355534,12.1064209 Z M15.3096607,15.3613772 C13.276164,16.4455968 11.2449211,17.0711523 8.56219293,16.9935322 C3.58840044,16.8422305 0,13.7636835 0,8.56395856 C0,3.38704375 3.62285011,0.0792467594 8.56444665,0.00162667811 C11.0692921,-0.0366090068 13.3107747,0.596987471 15.0628787,2.13806608 L12.9522727,4.2659722 C11.8682348,3.34486963 10.2730861,2.80645211 8.36676347,2.89244138 C5.25711692,3.03685083 3.38282925,5.2894742 3.34145745,8.38656468 C3.30089054,11.7421153 5.36545631,14.0546357 8.59261811,14.1391481 C10.1111404,14.1768915 11.1990418,13.9737336 12.1404516,13.5524847 L12.1404516,10.122432 L8.78611582,10.122432 L9.01261438,7.30940144 L15.3096607,7.30940144 L15.3096607,15.3613772 Z M35.4105628,5.52299085 L35.17843,8.10677136 L34.3637113,8.10677136 C32.6769651,8.10677136 31.8379384,9.45552284 31.8379384,10.7515977 L31.8379384,16.5870524 L28.8396899,16.5870524 L28.8396899,5.52299085 L31.6785684,5.52299085 L31.737487,6.90390625 C32.3363319,5.95687562 33.3778711,5.52299085 34.6644215,5.52299085 L35.4105628,5.52299085 Z M42.3787339,14.0026155 L42.1689773,16.5200989 C41.4502025,16.712262 40.8117567,16.7811847 40.0393757,16.7811847 C37.2141804,16.7811847 36.3949542,15.4900329 36.3949542,12.8947653 L36.3949542,2.40292615 L39.3932028,2.40292615 L39.3932028,5.52315496 L42.3763192,5.52315496 L42.1689773,8.10677136 L39.3932028,8.10677136 L39.3932028,12.6701101 C39.3932028,13.7114992 39.6797468,14.2740396 40.7513893,14.2740396 C41.2174257,14.2740396 41.7356197,14.218081 42.3787339,14.0026155 Z M53.8443583,16.5870524 L50.8461098,16.5870524 L50.8461098,10.7381413 C50.8461098,9.51312252 50.7398631,7.9713875 49.0114231,7.9713875 C47.3467311,7.9713875 46.6834944,9.16883725 46.6834944,10.563209 L46.6834944,16.5870524 L43.6860508,16.5870524 L43.6860508,5.52299085 L46.4650448,5.52299085 L46.5287928,6.93754709 C47.1242571,5.99051646 48.2337298,5.25304364 49.8700893,5.25304364 C52.891036,5.25304364 53.8443583,7.40293938 53.8443583,9.6401372 L53.8443583,16.5870524 Z M74.6134875,5.52299085 L74.3974527,8.10677136 L73.3390106,8.10677136 C71.6487228,8.10677136 70.7702561,9.45749206 70.7702561,10.7515977 L70.7702561,16.5870524 L67.7744222,16.5870524 L67.7744222,5.52299085 L70.611852,5.52299085 L70.6764049,6.90390625 C71.2717081,5.95687562 72.3135693,5.52299085 73.598349,5.52299085 L74.6134875,5.52299085 Z" id="Fill-8" fill="#000000"></path>
            </g>
        </g>
    </g>
</svg>