<?xml version="1.0" encoding="utf-8"?>
<!-- Generator: Adobe Illustrator 23.0.6, SVG Export Plug-In . SVG Version: 6.00 Build 0)  -->
<svg version="1.1" id="Layer_1" xmlns="http://www.w3.org/2000/svg" xmlns:xlink="http://www.w3.org/1999/xlink" x="0px" y="0px"
	 viewBox="0 0 269.72 124.41" style="enable-background:new 0 0 269.72 124.41;" xml:space="preserve">
<polygon points="111.71,57.18 80.7,58.28 110.15,59.92 "/>
<polygon points="108,63.69 76.92,64.8 106.47,66.44 "/>
<polygon points="104.29,70.27 73.25,71.36 102.77,73 "/>
<polygon points="100.66,76.8 69.58,77.91 99.06,79.55 "/>
<polygon points="138.66,24.29 99.08,25.7 138.77,27.9 "/>
<polygon points="138.41,17.82 102.85,19.06 138.52,21.11 "/>
<polygon points="138.16,11.58 106.48,12.62 138.31,14.39 "/>
<polygon points="137.94,5.18 110.17,6.1 138.05,7.75 "/>
<polygon points="137.76,0 113.61,0 137.8,1.28 "/>
<polygon points="96.92,83.34 65.91,84.46 96.28,84.46 "/>
<path d="M202,0.21h-44.69l-1.27,2.24l22.36,1.19c0.26,0,0.26,0.37-0.11,0.37L154.74,4.8l-2.27,3.98l22.21,1.31
	c0.3,0.04,0.22,0.45-0.04,0.45l-23.59,0.78l-2.2,3.81l22.18,1.23c0.48,0.04,0.48,0.45,0,0.45l-23.55,0.83l-2.24,3.98l22.1,1.27
	c0.48,0.04,0.45,0.48,0,0.48l-23.55,0.84l-2.27,3.93l22.14,1.23c0.33,0.04,0.37,0.45-0.07,0.45l-67.87,2.27l64.4,3.58
	c0.41,0,0.37,0.52-0.07,0.52L92.06,38.6l64.4,3.58c0.3,0,0.37,0.48-0.07,0.48l-68.09,2.46l64.4,3.58c0.26,0.04,0.52,0.52-0.04,0.56
	l-67.98,2.42l64.4,3.58c0.19,0.04,0.37,0.52-0.07,0.52L114.79,57l0.11,3.09l30.49,1.69c0.22,0.04,0.34,0.48-0.07,0.48l-30.3,1.08
	l0.15,3.45l26.46,1.47c0.26,0.04,0.37,0.56-0.07,0.56l-26.24,0.92l0.11,3.79l22.55,1.25c0.26,0.04,0.33,0.52-0.11,0.52l-22.32,0.8
	l0.15,4.17l18.64,1.04c0.26,0.04,0.26,0.48-0.11,0.48l-18.45,0.67l0.07,1.79h60.15c15.95,0,30.26-11.63,32.95-20.87
	c2.68-9.24,2.68-17.59-10.14-21.77c7.16-1.64,19.6-9.71,22.06-20.87C223.1,10.61,219.37,0.25,202,0.21z M171.75,64.94h-18.49
	l10.44-18.49h13.72C191.57,46.45,184.72,64.94,171.75,64.94z M195.67,25.28c-0.6,2.24-5.07,7.9-10.73,7.9h-13.72l8.8-15.5h7.01
	C195.97,17.98,196.27,23.05,195.67,25.28z"/>
<path d="M269.72,111.04c0-7.16-5.95-13.16-13.12-13.16c-7.35,0-13.35,6.09-13.35,13.58c0,7.44,5.95,13.4,13.4,13.4
	c5.44,0,10.61-3.72,12.14-8.79H262c-1.35,2.14-3.12,3.12-5.54,3.12c-3.07,0-5.81-2.09-6.7-5.07h19.63
	C269.62,112.67,269.72,111.97,269.72,111.04z M249.58,109.25c0.88-3.49,3.67-5.72,7.12-5.72c3.44,0,6.14,2.19,6.98,5.72H249.58z"/>
<path d="M181.54,99.12v2.09c-1.95-2.09-4.78-3.28-7.81-3.28c-6.7,0-12.41,5.72-12.41,13.16c0,7.02,5.05,13.32,12.54,13.32
	c3.3,0,5.81-0.76,8.19-3.46v3.3h5.67V99.12H181.54z M174.61,119.08c-4.31,0-7.8-3.49-7.8-7.8s3.49-7.8,7.8-7.8
	c4.31,0,7.8,3.49,7.8,7.8S178.91,119.08,174.61,119.08z"/>
<path d="M12.37,97.88c-2.56,0-4.51,0.88-6.65,3.07v-2.47H0v25.77h6.19v-12.14c0-3.3,0.28-8.56,4.84-8.56c4.28,0,4.74,4.93,4.74,8.09
	v12.61h6.19v-13.81c0-3.63-0.28-5.35-1.26-7.4C19.26,99.97,15.86,97.88,12.37,97.88z"/>
<path d="M50.81,111.04c0-7.16-5.95-13.16-13.12-13.16c-7.35,0-13.35,6.09-13.35,13.58c0,7.44,5.95,13.4,13.4,13.4
	c5.44,0,10.6-3.72,12.14-8.79h-6.79c-1.35,2.14-3.12,3.12-5.54,3.12c-3.07,0-5.81-2.09-6.7-5.07h19.63
	C50.72,112.67,50.81,111.97,50.81,111.04z M30.67,109.25c0.88-3.49,3.67-5.72,7.12-5.72c3.44,0,6.14,2.19,6.98,5.72H30.67z"/>
<rect x="152.6" y="89.86" width="6.19" height="34.37"/>
<path d="M204.05,97.88c-2.56,0-4.51,0.88-6.65,3.07v-2.47h-5.72v25.77h6.19v-12.14c0-3.3,0.28-8.56,4.84-8.56
	c4.28,0,4.74,4.93,4.74,8.09v12.61h6.19v-13.81c0-3.63-0.28-5.35-1.26-7.4C210.93,99.97,207.54,97.88,204.05,97.88z"/>
<path d="M229.07,103.56c2.84,0,4.47,0.93,6,3.54h6.98c-1.91-5.54-6.79-9.21-12.75-9.21c-7.54,0-13.58,6-13.58,13.4
	c0,7.44,6.09,13.58,13.58,13.58c3.81,0,7.58-1.67,10.14-4.51c1.3-1.44,1.77-2.28,2.6-4.56h-6.98c-1.44,2.23-3.3,3.4-5.63,3.4
	c-4.33,0-7.54-3.35-7.54-7.81C221.91,106.86,224.98,103.56,229.07,103.56z"/>
<polygon points="74.46,114.21 70.08,98.49 65.1,98.49 60.67,114.21 55.43,98.49 49.98,98.49 58.58,124.25 62.54,124.25 
	67.57,107.56 72.45,124.25 76.61,124.25 84.86,98.49 79.75,98.49 "/>
<path d="M107.61,97.91c-3.02,0-5.85,1.19-7.81,3.28V89.86h-6.19v34.37h5.67v-3.3c2.37,2.7,4.88,3.46,8.19,3.46
	c7.49,0,12.54-6.3,12.54-13.32C120.02,103.63,114.3,97.91,107.61,97.91z M106.73,119.08c-4.31,0-7.8-3.49-7.8-7.8s3.49-7.8,7.8-7.8
	c4.31,0,7.8,3.49,7.8,7.8S111.04,119.08,106.73,119.08z"/>
<path d="M142.28,99.12v2.09c-1.95-2.09-4.78-3.28-7.81-3.28c-6.7,0-12.41,5.72-12.41,13.16c0,7.02,5.05,13.32,12.54,13.32
	c3.3,0,5.81-0.76,8.19-3.46v3.3h5.67V99.12H142.28z M135.35,119.08c-4.31,0-7.8-3.49-7.8-7.8s3.49-7.8,7.8-7.8s7.8,3.49,7.8,7.8
	S139.66,119.08,135.35,119.08z"/>
</svg>
