<?xml version="1.0" encoding="utf-8"?>
<!-- Generator: Adobe Illustrator 23.0.6, SVG Export Plug-In . SVG Version: 6.00 Build 0)  -->
<svg version="1.1" id="Layer_1" xmlns="http://www.w3.org/2000/svg" xmlns:xlink="http://www.w3.org/1999/xlink" x="0px" y="0px"
	 viewBox="0 0 275 36.08" style="enable-background:new 0 0 275 36.08;" xml:space="preserve">
<g>
	<path d="M11.27,14.67c-1.89-0.76-3.75-1.28-5.24-2.49C4.98,11.33,4.46,10,4.54,8.41c0.15-3.06,2.48-5.09,5.95-4.91
		c2.84,0.14,4.67,1.54,5.46,4.16l4.21-0.69c-1.11-4.16-4.49-6.69-9.53-6.95c-5.94-0.3-9.84,2.95-10.1,8.19
		c-0.14,2.76,0.67,4.99,2.4,6.55c2.12,1.95,4.52,2.71,6.78,3.62c4.28,1.69,6.56,2.98,6.38,6.54c-0.15,2.89-2.55,4.87-6.36,4.68
		C6.83,29.45,4.84,28.16,4,26.03l-4,0.88c1.38,3.84,4.73,6.18,9.44,6.42c6.11,0.31,10.61-3.33,10.87-8.41
		C20.58,19.68,17.56,17.17,11.27,14.67z"/>
	<polygon points="40.06,33.15 56.69,33.15 56.69,29.38 44.21,29.38 44.21,18.59 56.69,18.59 56.69,14.9 44.21,14.9 44.21,4.87 
		56.69,4.87 56.69,1.1 40.06,1.1 40.06,33.15 	"/>
	<path d="M78.91,32.28h4.15V21.24h3.48c6.7,0,11.22-4.36,11.22-10.45c0-6.29-4.48-10.57-12.02-10.57h-6.83V32.28L78.91,32.28z
		 M83.06,17.43V4h2.64c5.11,0,7.79,2.35,7.79,6.63c0,4.28-2.64,6.8-7.12,6.8H83.06L83.06,17.43z"/>
	<polygon points="117.38,33.59 121.53,33.59 121.53,18.94 138.32,18.94 138.32,33.59 142.47,33.59 142.47,1.53 138.32,1.53 
		138.32,15.17 121.53,15.17 121.53,1.53 117.38,1.53 117.38,33.59 	"/>
	<path d="M175.63,34.66c4.73,0,8.55-1.47,11.6-4.45c3.23-3.15,4.94-7.34,4.94-12.21c0-4.87-1.76-9.11-4.98-12.25
		c-2.97-2.89-6.87-4.4-11.56-4.4c-4.69,0-8.58,1.51-11.56,4.4c-3.23,3.15-4.98,7.39-4.98,12.25c0,4.86,1.72,9.06,4.94,12.21
		C167.09,33.19,170.94,34.66,175.63,34.66L175.63,34.66z M175.59,30.88c-3.48,0-6.32-1.14-8.54-3.4c-2.43-2.43-3.69-5.75-3.69-9.48
		c0-3.78,1.26-7.05,3.69-9.48c2.18-2.23,5.11-3.4,8.54-3.4c3.48,0,6.37,1.17,8.59,3.4c2.43,2.47,3.73,5.7,3.73,9.48
		c0,3.73-1.26,7.05-3.69,9.48C182,29.74,179.07,30.88,175.59,30.88L175.59,30.88z"/>
	<path d="M208.02,32.28h4.14V19.23l11.39,13.05h5.23l-11.27-12.46h0.25c5.74,0,9.63-4.2,9.63-9.86c0-6.04-4.27-9.73-12.1-9.73h-7.29
		V32.28L208.02,32.28z M212.16,16.67V4h2.81c5.44,0,8.17,2.18,8.17,6.08c0,4.2-2.76,6.59-7.96,6.59H212.16L212.16,16.67z"/>
	<path d="M244.97,32.28h4.44l2.85-7.43h15.04l2.85,7.43H275L261.51,0.22h-3.48L244.97,32.28L244.97,32.28z M253.72,21.07l5.11-12.85
		c0.12-0.33,0.46-1.34,0.96-2.97c0.5,1.71,0.84,2.68,0.96,2.97l5.03,12.85H253.72L253.72,21.07z"/>
</g>
</svg>
