<?xml version="1.0" encoding="utf-8"?>
<!-- Generator: Adobe Illustrator 23.0.6, SVG Export Plug-In . SVG Version: 6.00 Build 0)  -->
<svg version="1.1" id="Layer_1" xmlns="http://www.w3.org/2000/svg" xmlns:xlink="http://www.w3.org/1999/xlink" x="0px" y="0px"
	 viewBox="0 0 249.83 157.81" style="enable-background:new 0 0 249.83 157.81;" xml:space="preserve">
<style type="text/css">
	.st0{fill:#040000;}
	.st1{fill:#231F20;}
</style>
<polygon class="st0" points="49.61,61.73 35.56,61.73 35.56,56.66 69.77,56.66 69.77,61.73 55.65,61.73 55.65,102.87 49.61,102.87 
	"/>
<path class="st0" d="M49.87,61.47v41.14h5.52V61.47h14.13v-4.55h-33.7v4.55h13.8v0.26v-0.26H49.87z M49.35,103.13V61.99H35.3v-5.6
	h34.74v5.6H55.91v41.14H49.35z"/>
<g>
	<path class="st0" d="M96.67,61.48c-3.2,0-6.22,0.84-9.08,2.51c-2.86,1.67-5.1,3.92-6.71,6.74c-1.6,2.83-2.41,5.98-2.41,9.45
		c0,5.14,1.78,9.49,5.33,13.04c3.56,3.54,7.85,5.31,12.86,5.31c3.35,0,6.45-0.81,9.31-2.44c2.85-1.63,5.08-3.86,6.67-6.68
		c1.59-2.83,2.4-5.97,2.4-9.43c0-3.43-0.8-6.54-2.4-9.32c-1.6-2.78-3.85-5-6.75-6.67C103.01,62.31,99.93,61.48,96.67,61.48
		 M96.48,57.29c6.54,0,12.02,2.19,16.43,6.56c4.41,4.37,6.61,9.75,6.61,16.15c0,6.33-2.2,11.7-6.6,16.12
		c-4.4,4.41-9.76,6.62-16.09,6.62c-6.41,0-11.82-2.2-16.23-6.59C76.2,91.74,74,86.43,74,80.2c0-4.16,1-8.01,3.01-11.55
		c2.01-3.55,4.75-6.33,8.21-8.34C88.69,58.29,92.45,57.29,96.48,57.29"/>
	<path class="st0" d="M83.26,93.77c-3.7-3.67-5.57-8.27-5.57-13.59c0-3.59,0.84-6.89,2.52-9.84c1.67-2.95,4.01-5.3,6.99-7.04
		c2.97-1.73,6.15-2.61,9.48-2.61v0v1.56c-3.06,0-5.94,0.79-8.69,2.4c-2.75,1.61-4.87,3.75-6.42,6.46c-1.54,2.7-2.31,5.71-2.31,9.07
		c0.01,4.96,1.69,9.06,5.11,12.48c3.43,3.41,7.48,5.08,12.31,5.09c3.23,0,6.18-0.78,8.92-2.34c2.74-1.57,4.85-3.68,6.38-6.39
		c1.53-2.71,2.29-5.7,2.3-9.04c0-3.32-0.77-6.27-2.29-8.93c-1.53-2.66-3.67-4.77-6.46-6.38c-2.79-1.61-5.72-2.4-8.84-2.4V60.7
		c3.39,0,6.61,0.88,9.62,2.61c3.01,1.73,5.37,4.06,7.04,6.96c1.66,2.9,2.5,6.16,2.5,9.71c0,3.57-0.83,6.86-2.5,9.81
		c-1.66,2.95-4,5.29-6.97,6.98c-2.97,1.7-6.22,2.55-9.7,2.55h-0.03C91.45,99.32,86.94,97.44,83.26,93.77 M96.84,103.5
		c-6.59,0.01-12.24-2.28-16.78-6.82c-4.55-4.52-6.85-10.07-6.84-16.49c0-4.28,1.04-8.28,3.11-11.94c2.07-3.66,4.92-6.55,8.51-8.63
		c3.58-2.08,7.48-3.12,11.65-3.12v1.56c-3.9,0-7.51,0.97-10.86,2.91c-3.35,1.94-5.98,4.61-7.93,8.05
		c-1.94,3.43-2.91,7.14-2.91,11.17c0.01,6.05,2.11,11.12,6.39,15.39c4.28,4.25,9.44,6.35,15.68,6.36
		c6.14-0.01,11.26-2.12,15.54-6.39c4.26-4.29,6.36-9.41,6.37-15.57c-0.01-6.21-2.12-11.35-6.38-15.59
		c-4.28-4.23-9.51-6.32-15.88-6.33v-1.56c6.72-0.01,12.44,2.27,16.98,6.78c4.55,4.5,6.85,10.13,6.85,16.7
		c0.01,6.51-2.29,12.13-6.83,16.67c-4.52,4.54-10.12,6.85-16.61,6.85H96.84z"/>
	<polygon class="st0" points="163.25,102.89 157.78,73.32 147.72,102.99 146.14,102.99 135.79,73.32 130.46,102.89 124.51,102.89 
		133.11,56.87 135.96,56.87 146.93,90.42 157.04,56.87 159.89,56.87 169.21,102.89 	"/>
	<path class="st0" d="M146.33,102.72h1.21l10.31-30.43l5.62,30.34h5.42l-9.21-45.5h-2.44L146.94,91.3l-11.17-34.16h-2.45l-8.5,45.5
		h5.42l5.46-30.34L146.33,102.72z M145.96,103.25l-10.09-28.91l-5.19,28.82h-6.49l8.7-46.54h3.26l10.77,32.93l9.92-32.93h3.26
		l9.42,46.54h-6.28v-0.26l0.26-0.05l-0.26,0.05v0.26h-0.22l-5.33-28.81l-9.79,28.9H145.96z"/>
	<path class="st0" d="M185.36,103.13c-3.98,0-7.38-0.93-10.2-2.81l2.24-5.63c1.14,0.84,2.56,1.53,4.27,2.09
		c1.7,0.56,3.23,0.84,4.58,0.84c2.39,0,4.31-0.65,5.76-1.96c1.45-1.31,2.17-2.97,2.17-5c0-1.51-0.4-2.91-1.21-4.21
		c-0.8-1.3-2.83-2.71-6.07-4.25l-3.61-1.68c-3.06-1.43-5.19-3.12-6.41-5.09c-1.22-1.96-1.82-4.32-1.82-7.08
		c0-3.35,1.18-6.13,3.55-8.33c2.37-2.21,5.41-3.31,9.13-3.31c4.96,0,8.41,0.81,10.36,2.42l-1.81,5.33
		c-0.82-0.59-2.07-1.16-3.74-1.71c-1.68-0.55-3.23-0.82-4.66-0.82c-2.09,0-3.73,0.59-4.92,1.78c-1.2,1.19-1.79,2.7-1.79,4.56
		c0,1.14,0.21,2.19,0.64,3.12c0.43,0.94,1.03,1.73,1.79,2.36c0.76,0.63,2.33,1.52,4.7,2.66l3.68,1.75c3.06,1.45,5.21,3.18,6.45,5.19
		c1.23,2.01,1.85,4.57,1.85,7.67c0,3.37-1.35,6.23-4.06,8.58C193.52,101.96,189.9,103.13,185.36,103.13"/>
	<path class="st0" d="M185.36,103.39v-0.52c4.49,0,8.04-1.16,10.69-3.46c2.66-2.31,3.97-5.09,3.97-8.38c0-3.07-0.61-5.58-1.81-7.54
		c-1.2-1.95-3.3-3.66-6.34-5.09l-3.67-1.75c-2.38-1.15-3.95-2.04-4.76-2.7c-0.8-0.66-1.42-1.48-1.86-2.45
		c-0.45-0.98-0.67-2.06-0.67-3.23c0-1.91,0.63-3.52,1.87-4.75c1.25-1.24,2.97-1.85,5.1-1.85c1.46,0,3.05,0.28,4.74,0.84
		c1.51,0.49,2.68,1,3.52,1.55l1.64-4.83c-1.88-1.47-5.23-2.25-10.05-2.24c-3.67,0-6.63,1.08-8.95,3.24
		c-2.32,2.17-3.46,4.86-3.47,8.15c0,2.72,0.59,5.03,1.78,6.94c1.17,1.9,3.27,3.57,6.29,4.99l3.61,1.69
		c3.26,1.54,5.31,2.96,6.18,4.34c0.83,1.34,1.25,2.79,1.25,4.35c0,2.09-0.76,3.84-2.26,5.19c-1.5,1.36-3.5,2.03-5.93,2.03
		c-1.38,0-2.93-0.29-4.66-0.85c-1.59-0.52-2.95-1.17-4.07-1.93l-2.03,5.12c2.74,1.77,6.02,2.65,9.88,2.65V103.39
		c-4.02,0-7.48-0.95-10.34-2.86l-0.18-0.12l2.43-6.13l0.27,0.2c1.11,0.81,2.51,1.5,4.2,2.05c1.68,0.56,3.19,0.83,4.5,0.83
		c2.34,0,4.19-0.64,5.58-1.89c1.4-1.26,2.09-2.84,2.09-4.8c0-1.46-0.39-2.81-1.17-4.08c-0.74-1.21-2.74-2.63-5.96-4.14l-3.61-1.69
		c-3.09-1.44-5.27-3.16-6.52-5.18c-1.24-2.01-1.86-4.42-1.86-7.21c0-3.41,1.22-6.28,3.64-8.52c2.42-2.26,5.54-3.38,9.31-3.38
		c4.99,0,8.49,0.8,10.52,2.48l0.14,0.11l-1.99,5.83l-0.29-0.21c-0.78-0.56-2.01-1.13-3.67-1.67c-1.66-0.54-3.18-0.81-4.58-0.81
		c-2.04,0-3.6,0.57-4.74,1.7c-1.14,1.14-1.71,2.57-1.71,4.38c0,1.11,0.21,2.11,0.62,3.01c0.41,0.91,0.99,1.66,1.72,2.26
		c0.73,0.6,2.29,1.5,4.65,2.63l3.67,1.75c3.09,1.46,5.29,3.22,6.56,5.29c1.27,2.07,1.89,4.67,1.89,7.81c0,3.44-1.4,6.39-4.15,8.77
		C193.63,102.21,189.94,103.39,185.36,103.39"/>
	<rect class="st0" width="237.86" height="51.79"/>
	<rect x="0" y="106.86" class="st0" width="238.13" height="50.94"/>
	<path class="st1" d="M242.21,4.21V4.18c0-2.08,1.68-3.83,3.8-3.83c2.14,0,3.81,1.73,3.81,3.81v0.02c0,2.08-1.68,3.83-3.81,3.83
		C243.87,8.01,242.21,6.28,242.21,4.21 M249.39,4.18V4.16c0-1.86-1.45-3.39-3.37-3.39c-1.9,0-3.37,1.55-3.37,3.41v0.02
		c0,1.86,1.44,3.39,3.37,3.39C247.92,7.59,249.39,6.04,249.39,4.18 M244.6,2.19h1.71c0.78,0,1.42,0.42,1.42,1.18
		c0,0.63-0.42,1-0.94,1.16l1.07,1.49h-0.77l-0.96-1.4h-0.92v1.4h-0.61V2.19z M246.24,4.12c0.55,0,0.85-0.29,0.85-0.7
		c0-0.46-0.33-0.68-0.85-0.68h-1.03v1.38H246.24z"/>
</g>
</svg>
