<svg id="Layer_1" data-name="Layer 1" xmlns="http://www.w3.org/2000/svg" viewBox="0 0 100 100"><defs><style>.cls-1{fill:none;stroke:#51e980;stroke-linecap:round;stroke-linejoin:round;}</style></defs><title>Illustrations</title><path class="cls-1" d="M72.37,18.7a3.7,3.7,0,0,0-2.74-1.2H62a2.35,2.35,0,0,0-2.31,2,9.24,9.24,0,0,1-18.26,0,2.35,2.35,0,0,0-2.31-2H30.45a3.74,3.74,0,0,0-2.78,1.24L12.84,35.25a4,4,0,0,0,.31,5.66L21.09,48a2.52,2.52,0,0,0,3.58-.25l3.37-4a.58.58,0,0,1,1,.38L28.8,80.37a2.5,2.5,0,0,0,2.5,2.52H68.78a2.49,2.49,0,0,0,2.5-2.5V45a.57.57,0,0,1,1-.38l3,3.45a2.5,2.5,0,0,0,3.54.22L86,42a4,4,0,0,0,.4-5.58C81.54,30.48,77.69,24.59,72.37,18.7Z"/><path class="cls-1" d="M76.5.5h19a4,4,0,0,1,4,4v19"/><path class="cls-1" d="M99.5,76.5v19a4,4,0,0,1-4,4h-19"/><path class="cls-1" d="M.5,23.5V4.5a4,4,0,0,1,4-4h19"/><path class="cls-1" d="M24,99H5a4,4,0,0,1-4-4V76"/><rect class="cls-1" x="28.99" y="47.04" width="42.29" height="14.24"/></svg>