<svg xmlns="http://www.w3.org/2000/svg" viewBox="0 0 100 100"><defs><style>.cls-1,.cls-2{fill:none;stroke:#e42f25;stroke-linecap:round;stroke-linejoin:round;}.cls-1{stroke-width:1.02px;}.cls-2{stroke-width:1.03px;}.cls-3{fill:#e42f25;}</style></defs><title>MichaelKors</title><g id="Layer_1" data-name="Layer 1"><path class="cls-1" d="M86.22,42.1c3.56-.8,4.85-4.17,1.69-6.89L56.13,23.46a5.14,5.14,0,0,0-3.35-1.24H47.23a5.09,5.09,0,0,0-1.91.37,5.14,5.14,0,0,0-1.64,1.05L11.89,35.4c-3.34,3.19-1.08,6.87,3.54,6.87h6.39"/><path class="cls-1" d="M43.56,7.17A6.44,6.44,0,1,1,50,13.61V22.2"/><path class="cls-2" d="M71.71,83.65V97.11a2.59,2.59,0,0,1-2.57,2.62H42.52A2.59,2.59,0,0,1,40,97.47L28.26,42.2a2.61,2.61,0,0,1,2.55-3H50.08"/><path class="cls-1" d="M25.58,48.33v41.2a3.21,3.21,0,0,0,3.21,3.21H39"/><path class="cls-1" d="M77.53,77.71H57.59a3.15,3.15,0,0,1-3.16-3.16V44.19a7.29,7.29,0,0,1,7.27-7.27H73.42a7.29,7.29,0,0,1,7.27,7.27V74.55A3.15,3.15,0,0,1,77.53,77.71Z"/><circle class="cls-2" cx="67.56" cy="42.02" r="1.83"/><path class="cls-3" d="M67.52,49.59a.76.76,0,0,1,.77.76V52a6.82,6.82,0,0,1,2.44.49.86.86,0,0,1,.48,1.11h0a.87.87,0,0,1-.8.56.78.78,0,0,1-.33-.07,6,6,0,0,0-2.31-.44A2.62,2.62,0,0,0,65,56.07c0,1.28,1.29,2,3.39,3,2.37,1.13,3.35,2.28,3.33,4a4,4,0,0,1-3.57,4.19v1.79a.78.78,0,0,1-.78.77.77.77,0,0,1-.77-.77V67.33a8,8,0,0,1-3.06-.67.9.9,0,0,1-.47-1.1.88.88,0,0,1,.82-.58.84.84,0,0,1,.35.07,6.6,6.6,0,0,0,2.73.61c1.74,0,2.93-1,2.93-2.42s-1-2.19-2.79-2.93C64.59,59.32,63,58.19,63,56a4,4,0,0,1,3.72-4V50.35a.76.76,0,0,1,.76-.76m0-1a1.78,1.78,0,0,0-1.78,1.78v.92A4.89,4.89,0,0,0,62,56c0,3,2.38,4.3,4.71,5.22,2,.8,2.14,1.44,2.14,2,0,1-1,1.4-1.91,1.4a5.6,5.6,0,0,1-2.3-.51,1.77,1.77,0,0,0-.78-.17,1.89,1.89,0,0,0-.77,3.62,8.58,8.58,0,0,0,2.46.7v.77a1.8,1.8,0,0,0,3.59,0v-1a5,5,0,0,0,3.57-5c0-2.7-2-4-3.91-4.95S66,56.68,66,56.07a1.62,1.62,0,0,1,1.76-1.42,4.87,4.87,0,0,1,1.92.37,2,2,0,0,0,.72.14,1.89,1.89,0,0,0,.71-3.64A7.53,7.53,0,0,0,69.31,51v-.69a1.79,1.79,0,0,0-1.79-1.78Z"/><line class="cls-2" x1="25.58" y1="84.75" x2="36.82" y2="84.75"/></g><g id="Text"><line class="cls-2" x1="25.58" y1="81.88" x2="35.81" y2="81.88"/></g></svg>