<svg id="Layer_1" data-name="Layer 1" xmlns="http://www.w3.org/2000/svg" viewBox="0 0 100 100"><defs><style>.cls-1{fill:none;stroke:#e6d101;stroke-linecap:round;stroke-linejoin:round;}</style></defs><title>Illustrations</title><path class="cls-1" d="M42.92,11H96.43a3.22,3.22,0,0,1,3.07,3.34V39a3.21,3.21,0,0,1-3.07,3.34H88.19l-.14,10.39a1.37,1.37,0,0,1-2.46.91l-8.2-11.3H42.92A3.21,3.21,0,0,1,39.85,39V14.34A3.22,3.22,0,0,1,42.92,11Z"/><rect class="cls-1" x="53.48" y="23.82" width="6" height="6" rx="3" ry="3"/><rect class="cls-1" x="66.71" y="23.82" width="6" height="6" rx="3" ry="3"/><rect class="cls-1" x="79.94" y="23.82" width="6" height="6" rx="3" ry="3"/><path class="cls-1" d="M57.08,51.3H3.57A3.22,3.22,0,0,0,.5,54.65v24.6A3.22,3.22,0,0,0,3.57,82.6h8.24L12,93a1.37,1.37,0,0,0,2.46.91l8.2-11.3H57.08a3.22,3.22,0,0,0,3.07-3.35V54.65A3.22,3.22,0,0,0,57.08,51.3Z"/><rect class="cls-1" x="40.52" y="64.12" width="6" height="6" rx="3" ry="3" transform="translate(87.04 134.24) rotate(180)"/><rect class="cls-1" x="27.29" y="64.12" width="6" height="6" rx="3" ry="3" transform="translate(60.58 134.24) rotate(180)"/><rect class="cls-1" x="14.06" y="64.12" width="6" height="6" rx="3" ry="3" transform="translate(34.12 134.24) rotate(180)"/></svg>