<svg id="Layer_1" data-name="Layer 1" xmlns="http://www.w3.org/2000/svg" viewBox="0 0 100 100"><defs><style>.cls-1{fill:none;stroke:#51e980;stroke-linecap:round;stroke-linejoin:round;}</style></defs><title>Illustrations</title><path class="cls-1" d="M50,13.58,15.07,33.74,2,26.16a2.88,2.88,0,0,1,0-5L31.09,4.33a2.87,2.87,0,0,1,2.89,0Z"/><polygon class="cls-1" points="15.07 33.74 50 13.58 84.93 33.74 50 53.91 15.07 33.74"/><path class="cls-1" d="M15.07,53.91V70.14A6.81,6.81,0,0,0,18.48,76L50,94.24V53.91L32.54,64Z"/><path class="cls-1" d="M15.07,33.74,2,41.32a2.89,2.89,0,0,0,0,5L31.09,63.16a2.92,2.92,0,0,0,2.89,0l16-9.25Z"/><path class="cls-1" d="M50,53.91,67.46,64,98.05,46.33a2.89,2.89,0,0,0,0-5L84.93,33.74Z"/><path class="cls-1" d="M50,13.58,84.93,33.74l13.12-7.58a2.88,2.88,0,0,0,0-5L68.91,4.33a2.87,2.87,0,0,0-2.89,0Z"/><path class="cls-1" d="M84.93,63.09V53.91l-16,9.25a2.92,2.92,0,0,1-2.89,0L50,53.91V94.24l14.83-8.52"/><path class="cls-1" d="M84.93,69.09c-.19,0-.38,0-.58,0A12.78,12.78,0,0,0,71.57,81.78v.06A12.79,12.79,0,1,0,84.93,69.09Z"/><circle class="cls-1" cx="84.3" cy="88.08" r="1.28"/><rect class="cls-1" x="83.21" y="74" width="2.2" height="9.89" rx="1" ry="1"/></svg>