<svg id="Layer_1" data-name="Layer 1" xmlns="http://www.w3.org/2000/svg" viewBox="0 0 100 100"><defs><style>.cls-1{fill:none;stroke:#51e980;stroke-linecap:round;stroke-linejoin:round;}</style></defs><title>Illustrations</title><path class="cls-1" d="M93.93,49.34A43.94,43.94,0,0,0,50,6.06h-.66A43.94,43.94,0,0,0,6.06,50c0,.22,0,.44,0,.66A43.94,43.94,0,0,0,50,93.94h.66A43.94,43.94,0,0,0,93.94,50C93.94,49.78,93.93,49.56,93.93,49.34ZM50.66,85.78l-.66,0A35.79,35.79,0,0,1,14.22,50.66c0-.22,0-.44,0-.66A35.79,35.79,0,0,1,49.34,14.22l.66,0A35.79,35.79,0,0,1,85.78,49.34c0,.22,0,.44,0,.66A35.79,35.79,0,0,1,50.66,85.78Z"/><line class="cls-1" x1="50" y1="19.18" x2="50" y2="1"/><line class="cls-1" x1="49.63" y1="99.54" x2="49.63" y2="81.35"/><line class="cls-1" x1="19.02" y1="49.83" x2="0.83" y2="49.83"/><line class="cls-1" x1="99.37" y1="50.2" x2="81.19" y2="50.2"/></svg>