<svg id="Layer_1" data-name="Layer 1" xmlns="http://www.w3.org/2000/svg" viewBox="0 0 100 100"><defs><style>.cls-1,.cls-2{fill:none;}.cls-1{stroke:#e6d101;stroke-linecap:round;stroke-linejoin:round;}</style></defs><title>Illustrations</title><circle class="cls-1" cx="40.18" cy="42.06" r="10.01"/><path class="cls-1" d="M54.2,70.69a14,14,0,0,0-14-14h0a14,14,0,0,0-14,14v9.49a5,5,0,0,0,5,5h18a5,5,0,0,0,5-5Z"/><path class="cls-2" d="M81.63,11H21.46V71.2a7.33,7.33,0,0,0,7.34,7.34H89V18.37A7.33,7.33,0,0,0,81.63,11Z"/><path class="cls-1" d="M71.15,21.5H5.5a5,5,0,0,0-5,5V92.16A7.34,7.34,0,0,0,7.84,99.5H71.15a7.35,7.35,0,0,0,7.35-7.34V28.85A7.35,7.35,0,0,0,71.15,21.5Z"/><path class="cls-1" d="M83.5,88.77A7.32,7.32,0,0,0,89,81.68V18.37A7.33,7.33,0,0,0,81.63,11H16a5,5,0,0,0-5,5v.47"/><path class="cls-1" d="M94,78.3a7.34,7.34,0,0,0,5.48-7.1V7.89A7.33,7.33,0,0,0,92.11.55H26.46a5,5,0,0,0-5,5V6"/></svg>