<svg id="Layer_1" data-name="Layer 1" xmlns="http://www.w3.org/2000/svg" viewBox="0 0 100 100"><defs><style>.cls-1{fill:none;stroke:#51e980;stroke-linecap:round;stroke-linejoin:round;}</style></defs><title>Illustrations</title><path class="cls-1" d="M57,11.59V6.41a2.5,2.5,0,0,0-2.5-2.5H42.45A2.5,2.5,0,0,0,40,6.41v5.18a44.25,44.25,0,0,1,17.06,0Z"/><path class="cls-1" d="M57,11.59A44.37,44.37,0,1,0,92.85,55.13,44.38,44.38,0,0,0,57,11.59Z"/><path class="cls-1" d="M60.19,62.23,32.85,89.73a1.84,1.84,0,0,1-3.13-1.56L35.2,49.78A3.12,3.12,0,0,1,36.08,48l27.34-27.5a1.84,1.84,0,0,1,3.13,1.56L61.06,60.48A3.08,3.08,0,0,1,60.19,62.23Z"/><circle class="cls-1" cx="48.13" cy="55.13" r="7.94"/><line class="cls-1" x1="35.4" y1="0.5" x2="61.56" y2="0.5"/></svg>