<svg id="Layer_1" data-name="Layer 1" xmlns="http://www.w3.org/2000/svg" viewBox="0 0 100 100"><defs><style>.cls-1{fill:none;stroke:#51e980;stroke-linecap:round;stroke-linejoin:round;}</style></defs><title>Illustrations</title><circle class="cls-1" cx="50" cy="51.74" r="32.24"/><line class="cls-1" x1="49.69" y1="19.5" x2="49.42" y2="83.97"/><ellipse class="cls-1" cx="50" cy="51.74" rx="32.24" ry="17.22" transform="translate(-1.94 101.52) rotate(-89.76)"/><line class="cls-1" x1="25.35" y1="31.32" x2="74.82" y2="31.53"/><line class="cls-1" x1="25.18" y1="71.95" x2="74.65" y2="72.15"/><line class="cls-1" x1="17.76" y1="51.16" x2="82.24" y2="51.43"/><path class="cls-1" d="M12.18,62.68A11.44,11.44,0,0,1,.5,51.5C.5,45.32,5.67,41,12.18,40.32"/><path class="cls-1" d="M87.82,40.32C94.5,41.25,99.5,45,99.5,50.72a9.66,9.66,0,0,1-2.67,6.61"/><polyline class="cls-1" points="9.71 59.35 12.61 62.83 9.09 64.94"/></svg>