<svg id="Layer_1" data-name="Layer 1" xmlns="http://www.w3.org/2000/svg" viewBox="0 0 100 100"><defs><style>.cls-1{fill:none;stroke:#51e980;stroke-linecap:round;stroke-linejoin:round;}</style></defs><title>Illustrations</title><path class="cls-1" d="M40.13,56.63H59.27a0,0,0,0,1,0,0V79.2a3,3,0,0,1-3,3H43.13a3,3,0,0,1-3-3V56.63A0,0,0,0,1,40.13,56.63Z"/><path class="cls-1" d="M43.87,36.58H55.54a1,1,0,0,1,1,1v19a0,0,0,0,1,0,0H42.87a0,0,0,0,1,0,0v-19A1,1,0,0,1,43.87,36.58Z"/><path class="cls-1" d="M54.71,36.58h-10V27.11a1,1,0,0,1,.46-.85l8-5.1a1,1,0,0,1,1.53.84Z"/><line class="cls-1" x1="49.4" y1="0.5" x2="49.4" y2="8.85"/><line class="cls-1" x1="24.73" y1="7.43" x2="28.91" y2="14.66"/><line class="cls-1" x1="6.83" y1="25.77" x2="14.06" y2="29.94"/><line class="cls-1" x1="0.5" y1="50.6" x2="8.85" y2="50.6"/><line class="cls-1" x1="7.43" y1="75.27" x2="14.66" y2="71.09"/><line class="cls-1" x1="25.77" y1="93.17" x2="29.94" y2="85.94"/><line class="cls-1" x1="50.6" y1="99.5" x2="50.6" y2="91.15"/><line class="cls-1" x1="75.27" y1="92.57" x2="71.09" y2="85.34"/><line class="cls-1" x1="93.17" y1="74.23" x2="85.94" y2="70.06"/><line class="cls-1" x1="99.5" y1="49.4" x2="91.15" y2="49.4"/><line class="cls-1" x1="92.57" y1="24.73" x2="85.34" y2="28.91"/><line class="cls-1" x1="74.23" y1="6.83" x2="70.06" y2="14.06"/></svg>