<svg id="Layer_1" data-name="Layer 1" xmlns="http://www.w3.org/2000/svg" viewBox="0 0 100 100"><defs><style>.cls-1{fill:none;stroke:#51e980;stroke-linecap:round;stroke-linejoin:round;}</style></defs><title>Illustrations</title><polygon class="cls-1" points="48.99 41.65 52.43 34.33 56.15 41.51 64.17 42.51 58.49 48.27 60.02 56.21 52.79 52.59 45.71 56.49 46.91 48.5 41.01 42.97 48.99 41.65"/><path class="cls-1" d="M38,22.69H67.15a5.19,5.19,0,0,1,5.2,5.2V60.05a5.17,5.17,0,0,1-1.52,3.68L56.27,78.29a5.2,5.2,0,0,1-7.35,0L34.35,63.73a5.22,5.22,0,0,1-1.52-3.68V27.89A5.2,5.2,0,0,1,38,22.69Z"/><line class="cls-1" x1="49.4" y1="0.5" x2="49.4" y2="8.85"/><line class="cls-1" x1="24.73" y1="7.43" x2="28.91" y2="14.66"/><line class="cls-1" x1="6.83" y1="25.77" x2="14.06" y2="29.94"/><line class="cls-1" x1="0.5" y1="50.6" x2="8.85" y2="50.6"/><line class="cls-1" x1="7.43" y1="75.27" x2="14.66" y2="71.09"/><line class="cls-1" x1="25.77" y1="93.17" x2="29.94" y2="85.94"/><line class="cls-1" x1="50.6" y1="99.5" x2="50.6" y2="91.15"/><line class="cls-1" x1="75.27" y1="92.57" x2="71.09" y2="85.34"/><line class="cls-1" x1="93.17" y1="74.23" x2="85.94" y2="70.06"/><line class="cls-1" x1="99.5" y1="49.4" x2="91.15" y2="49.4"/><line class="cls-1" x1="92.57" y1="24.73" x2="85.34" y2="28.91"/><line class="cls-1" x1="74.23" y1="6.83" x2="70.06" y2="14.06"/></svg>