<svg id="Layer_1" data-name="Layer 1" xmlns="http://www.w3.org/2000/svg" viewBox="0 0 100 100"><defs><style>.cls-1{fill:none;stroke:#e6d101;stroke-linecap:round;stroke-linejoin:round;}</style></defs><title>Illustrations</title><path class="cls-1" d="M71.71,64.71H31.21a3.7,3.7,0,0,1-3.58-3.8V38.12a3.7,3.7,0,0,1,3.58-3.8h40.5a3.69,3.69,0,0,1,3.58,3.8V60.91A3.69,3.69,0,0,1,71.71,64.71Z"/><path class="cls-1" d="M28.81,35.32,50,53.32a2.25,2.25,0,0,0,3,0l21.17-18"/><polygon class="cls-1" points="50 8.06 56.52 0.5 60.85 9.49 69.11 3.87 70.97 13.68 80.39 10.39 79.66 20.34 89.61 19.61 86.32 29.03 96.13 30.89 90.51 39.15 99.5 43.48 91.94 50 99.5 56.52 90.51 60.85 96.13 69.11 86.32 70.97 89.61 80.39 79.66 79.66 80.39 89.61 70.97 86.32 69.11 96.13 60.85 90.51 56.52 99.5 50 91.94 43.48 99.5 39.15 90.51 30.89 96.13 29.03 86.32 19.61 89.61 20.34 79.66 10.39 80.39 13.68 70.97 3.87 69.11 9.49 60.85 0.5 56.52 8.06 50 0.5 43.48 9.49 39.15 3.87 30.89 13.68 29.03 10.39 19.61 20.34 20.34 19.61 10.39 29.03 13.68 30.89 3.87 39.15 9.49 43.48 0.5 50 8.06"/></svg>