<svg id="Layer_1" data-name="Layer 1" xmlns="http://www.w3.org/2000/svg" viewBox="0 0 100 100"><defs><style>.cls-1{fill:none;stroke:#51e980;stroke-linecap:round;stroke-linejoin:round;}</style></defs><title>Illustrations</title><path class="cls-1" d="M78.48,71.49H23.74a5,5,0,0,1-4.83-5.14V35.55a5,5,0,0,1,4.83-5.14H78.48a5,5,0,0,1,4.84,5.14v30.8A5,5,0,0,1,78.48,71.49Z"/><path class="cls-1" d="M20.5,31.76,49.11,56.1a3.08,3.08,0,0,0,4,0L81.73,31.76"/><polyline class="cls-1" points="95.54 47.65 99.5 51.47 96.22 54.87"/><line class="cls-1" x1="99.5" y1="51.51" x2="88.15" y2="51.51"/><polyline class="cls-1" points="4.46 54.25 0.5 50.43 3.78 47.03"/><line class="cls-1" x1="0.5" y1="50.4" x2="12.85" y2="50.4"/></svg>