<svg id="Layer_1" data-name="Layer 1" xmlns="http://www.w3.org/2000/svg" viewBox="0 0 100 100"><defs><style>.cls-1{fill:none;stroke:#e6d101;stroke-linecap:round;stroke-linejoin:round;}</style></defs><title>Illustrations</title><path class="cls-1" d="M18.74,6.08v-1a1,1,0,0,0-1-1H1.5a1,1,0,0,0-1,1V21.37a1,1,0,0,0,1,1H17.74a1,1,0,0,0,1-1V6.08Z"/><path class="cls-1" d="M2.6,11.37,10,18.79a1,1,0,0,0,1.42,0L27.57,2.66"/><path class="cls-1" d="M54.7,6.08v-1a1,1,0,0,0-1-1H37.47a1,1,0,0,0-1,1V21.37a1,1,0,0,0,1,1H53.7a1,1,0,0,0,1-1V6.08Z"/><path class="cls-1" d="M38.57,11.37,46,18.79a1,1,0,0,0,1.42,0L63.53,2.66"/><path class="cls-1" d="M90.67,6.08v-1a1,1,0,0,0-1-1H73.43a1,1,0,0,0-1,1V21.37a1,1,0,0,0,1,1H89.67a1,1,0,0,0,1-1V6.08Z"/><path class="cls-1" d="M74.54,11.37,82,18.79a1,1,0,0,0,1.41,0L99.5,2.66"/><path class="cls-1" d="M18.74,54.87V42.16a1,1,0,0,0-1-1H1.5a1,1,0,0,0-1,1V58.39a1,1,0,0,0,1,1H17.74a1,1,0,0,0,1-1V53.84"/><path class="cls-1" d="M2.6,48.39,10,55.81a1,1,0,0,0,1.42,0L27.57,39.68"/><path class="cls-1" d="M54.7,43.1v-.94a1,1,0,0,0-1-1H37.47a1,1,0,0,0-1,1V58.39a1,1,0,0,0,1,1H53.7a1,1,0,0,0,1-1V43.1Z"/><path class="cls-1" d="M38.57,48.39,46,55.81a1,1,0,0,0,1.42,0L63.53,39.68"/><path class="cls-1" d="M90.67,43.1v-.94a1,1,0,0,0-1-1H73.43a1,1,0,0,0-1,1V58.39a1,1,0,0,0,1,1H89.67a1,1,0,0,0,1-1V43.1Z"/><path class="cls-1" d="M74.54,48.39,82,55.81a1,1,0,0,0,1.41,0L99.5,39.68"/><path class="cls-1" d="M18.74,80.13v-.95a1,1,0,0,0-1-1H1.5a1,1,0,0,0-1,1V95.42a1,1,0,0,0,1,1H17.74a1,1,0,0,0,1-1V80.13Z"/><path class="cls-1" d="M2.6,85.42,10,92.84a1,1,0,0,0,1.42,0L27.57,76.71"/><path class="cls-1" d="M54.7,80.13v-.95a1,1,0,0,0-1-1H37.47a1,1,0,0,0-1,1V95.42a1,1,0,0,0,1,1H53.7a1,1,0,0,0,1-1V80.13Z"/><path class="cls-1" d="M38.57,85.42,46,92.84a1,1,0,0,0,1.42,0L63.53,76.71"/><path class="cls-1" d="M90.67,80.13v-.95a1,1,0,0,0-1-1H73.43a1,1,0,0,0-1,1V95.42a1,1,0,0,0,1,1H89.67a1,1,0,0,0,1-1V80.13Z"/><path class="cls-1" d="M74.54,85.42,82,92.84a1,1,0,0,0,1.41,0L99.5,76.71"/></svg>