<svg id="Layer_1" data-name="Layer 1" xmlns="http://www.w3.org/2000/svg" viewBox="0 0 100 100"><defs><style>.cls-1{fill:none;stroke:#51e980;stroke-linecap:round;stroke-linejoin:round;}</style></defs><title>Illustrations</title><path class="cls-1" d="M76.5.5h18a5,5,0,0,1,5,5v18"/><path class="cls-1" d="M99.5,76.5v18a5,5,0,0,1-5,5h-18"/><path class="cls-1" d="M.5,23.5V5.5a5,5,0,0,1,5-5h18"/><path class="cls-1" d="M24,99H6a5,5,0,0,1-5-5V76"/><line class="cls-1" x1="19.14" y1="55" x2="19.14" y2="70"/><line class="cls-1" x1="25.64" y1="55" x2="25.64" y2="70"/><line class="cls-1" x1="80.93" y1="55" x2="80.93" y2="70"/><line class="cls-1" x1="77.73" y1="55" x2="77.73" y2="70"/><line class="cls-1" x1="19.14" y1="31.28" x2="19.14" y2="45"/><line class="cls-1" x1="25.64" y1="31.28" x2="25.64" y2="45"/><line class="cls-1" x1="80.93" y1="31.28" x2="80.93" y2="45"/><line class="cls-1" x1="77.73" y1="31.28" x2="77.73" y2="45"/><line class="cls-1" x1="35.4" y1="55" x2="35.4" y2="62"/><line class="cls-1" x1="35.4" y1="66.93" x2="35.4" y2="70"/><line class="cls-1" x1="40.28" y1="55" x2="40.28" y2="62"/><line class="cls-1" x1="40.28" y1="66.93" x2="40.28" y2="70"/><line class="cls-1" x1="43.86" y1="55" x2="43.86" y2="62"/><line class="cls-1" x1="43.86" y1="66.93" x2="43.86" y2="70"/><line class="cls-1" x1="51.66" y1="55" x2="51.66" y2="62"/><line class="cls-1" x1="51.66" y1="66.93" x2="51.66" y2="70"/><line class="cls-1" x1="29.21" y1="55" x2="29.21" y2="62"/><line class="cls-1" x1="29.21" y1="66.93" x2="29.21" y2="70"/><line class="cls-1" x1="61.42" y1="55" x2="61.42" y2="62"/><line class="cls-1" x1="61.42" y1="66.93" x2="61.42" y2="70"/><line class="cls-1" x1="70.4" y1="55" x2="70.4" y2="62"/><line class="cls-1" x1="35.4" y1="31.28" x2="35.4" y2="44.81"/><line class="cls-1" x1="40.28" y1="31.28" x2="40.28" y2="44.81"/><line class="cls-1" x1="43.86" y1="31.28" x2="43.86" y2="44.81"/><line class="cls-1" x1="51.66" y1="31.28" x2="51.66" y2="44.81"/><line class="cls-1" x1="29.21" y1="31.28" x2="29.21" y2="44.81"/><line class="cls-1" x1="61.42" y1="31.28" x2="61.42" y2="44.81"/><line class="cls-1" x1="70.4" y1="31.28" x2="70.4" y2="44.81"/><line class="cls-1" x1="70.4" y1="66.93" x2="70.4" y2="70"/><line class="cls-1" x1="73.11" y1="55" x2="73.11" y2="62"/><line class="cls-1" x1="73.11" y1="31.28" x2="73.11" y2="44.81"/><line class="cls-1" x1="73.11" y1="66.93" x2="73.11" y2="70"/><line class="cls-1" x1="16.18" y1="50.26" x2="85" y2="50.26"/></svg>