<svg id="Layer_1" data-name="Layer 1" xmlns="http://www.w3.org/2000/svg" viewBox="0 0 100 100"><defs><style>.cls-1{fill:none;stroke:#51e980;stroke-linecap:round;stroke-linejoin:round;}</style></defs><title>Illustrations</title><path class="cls-1" d="M77.94,27.22C77.46,16,67.58.5,49.74.5S22,16,21.54,27.22a32.37,32.37,0,0,0,1,8.91c4,12.71,11.8,27.43,18.8,39.21,3.1,5.21,6,9.85,8.38,13.48,2.35-3.64,5.29-8.29,8.39-13.51,7-11.77,14.84-26.48,18.79-39.18A32.77,32.77,0,0,0,77.94,27.22Z"/><circle class="cls-1" cx="49.51" cy="27.17" r="14.7"/><path class="cls-1" d="M36,75.74C18.73,77.36,6.28,81.92,6.28,87.3,6.28,94,25.85,99.5,50,99.5S93.72,94,93.72,87.3c0-5.38-12.46-9.94-29.76-11.56"/></svg>