<svg id="Layer_1" data-name="Layer 1" xmlns="http://www.w3.org/2000/svg" viewBox="0 0 100 100"><defs><style>.cls-1{fill:none;stroke:#e6d101;stroke-linecap:round;stroke-linejoin:round;}</style></defs><title>Illustrations</title><g id="_Group_" data-name="&lt;Group&gt;"><path class="cls-1" d="M52.49,55.93H14L11.36,33.05H54.51A2.6,2.6,0,0,1,57.09,36l-2,17.67A2.6,2.6,0,0,1,52.49,55.93Z"/><polyline id="_Path_" data-name="&lt;Path&gt;" class="cls-1" points="53.71 63.77 14.76 63.77 13.97 55.93"/><circle id="_Path_2" data-name="&lt;Path&gt;" class="cls-1" cx="48.48" cy="67.69" r="3.92"/><circle id="_Path_3" data-name="&lt;Path&gt;" class="cls-1" cx="19.98" cy="67.69" r="3.92"/><line id="_Path_4" data-name="&lt;Path&gt;" class="cls-1" x1="10.63" y1="27.82" x2="3.51" y2="26.52"/><line id="_Path_5" data-name="&lt;Path&gt;" class="cls-1" x1="12.23" y1="40.9" x2="56.55" y2="40.9"/><line id="_Path_6" data-name="&lt;Path&gt;" class="cls-1" x1="11.36" y1="33.05" x2="10.63" y2="27.82"/></g><path class="cls-1" d="M34.24,28.09V7.25C34.24,3.52,36.68.5,39.69.5H76c3,0,5.44,3,5.44,6.75v85.5c0,3.73-2.44,6.75-5.44,6.75H39.69c-3,0-5.45-3-5.45-6.75V68.51"/><line class="cls-1" x1="53.32" y1="7.25" x2="62.32" y2="7.25"/><line class="cls-1" x1="44.03" y1="7.25" x2="45.83" y2="7.25"/><circle class="cls-1" cx="57.82" cy="90.77" r="4.5"/><line class="cls-1" x1="34.4" y1="13.27" x2="81.07" y2="13.27"/><line class="cls-1" x1="34.4" y1="82.65" x2="81.07" y2="82.65"/></svg>