<svg id="Layer_1" data-name="Layer 1" xmlns="http://www.w3.org/2000/svg" viewBox="0 0 100 100"><defs><style>.cls-1{fill:none;stroke:#e6d101;stroke-linecap:round;stroke-linejoin:round;}</style></defs><title>Illustrations</title><polyline class="cls-1" points="91.3 39.68 99 47.11 92.63 53.71"/><line class="cls-1" x1="98.99" y1="47.18" x2="74.05" y2="47.18"/><polyline class="cls-1" points="8.7 54.55 1 47.12 7.37 40.52"/><line class="cls-1" x1="1.01" y1="47.05" x2="28.95" y2="47.05"/><path class="cls-1" d="M64.78,86.41H38.11c-2.21,0-4-2.22-4-5V18.56c0-2.75,1.79-5,4-5H64.78c2.22,0,4,2.22,4,5V81.44C68.79,84.19,67,86.41,64.78,86.41Z"/><line class="cls-1" x1="48.14" y1="18.55" x2="54.76" y2="18.55"/><line class="cls-1" x1="41.3" y1="18.55" x2="42.63" y2="18.55"/><circle class="cls-1" cx="51.45" cy="79.99" r="3.31"/><line class="cls-1" x1="34.22" y1="22.98" x2="68.56" y2="22.98"/><line class="cls-1" x1="34.22" y1="74.02" x2="68.56" y2="74.02"/></svg>