<svg id="Layer_1" data-name="Layer 1" xmlns="http://www.w3.org/2000/svg" viewBox="0 0 100 100"><defs><style>.cls-1{fill:none;stroke:#e6d101;stroke-linecap:round;stroke-linejoin:round;}</style></defs><title>Illustrations</title><path class="cls-1" d="M57.49,41.35C64.94,46,68.12,48.26,70.86,54.86c1.72,4.16,2.62,5.35,3.1,9.81A38.83,38.83,0,0,0,86.65,89.19"/><path class="cls-1" d="M52.66,63V5.37C52.66,2.68,50.9.5,48.73.5H22.59c-2.17,0-3.93,2.18-3.93,4.87V67c0,2.69,1.76,4.87,3.93,4.87h7.15M52.43,59.73H43.26m-24.48,0h5.56M38.9,5.37h0ZM27,5.37h0ZM52.43,9.71h0Z"/><path class="cls-1" d="M54.3,68.5H52.45c-3,0-5.61-.19-7.84-2.41l-6.35-6.36-.6-.6a5.54,5.54,0,0,0-7.83,0,5.37,5.37,0,0,0-.49.6A5.52,5.52,0,0,0,29.83,67l4.91,4.91,9.86,9.86h0A60.27,60.27,0,0,0,59.25,94.68,24.75,24.75,0,0,1,64.8,99.5"/></svg>