<svg id="Layer_1" data-name="Layer 1" xmlns="http://www.w3.org/2000/svg" viewBox="0 0 100 100"><defs><style>.cls-1{fill:#e6d101;}.cls-2{fill:none;stroke:#e6d101;stroke-linecap:round;stroke-linejoin:round;}</style></defs><title>Illustrations</title><path class="cls-1" d="M94.5,1.5a4,4,0,0,1,4,4v89a4,4,0,0,1-4,4H5.5a4,4,0,0,1-4-4V5.5a4,4,0,0,1,4-4h89m0-1H5.5a5,5,0,0,0-5,5v89a5,5,0,0,0,5,5h89a5,5,0,0,0,5-5V5.5a5,5,0,0,0-5-5Z"/><polyline class="cls-2" points="16.5 37.72 20.91 42.13 30.03 33"/><line class="cls-2" x1="42.1" y1="37.56" x2="80.35" y2="37.56"/><polyline class="cls-2" points="16.5 57.63 20.91 62.03 30.03 52.9"/><line class="cls-2" x1="42.1" y1="57.47" x2="80.35" y2="57.47"/><line class="cls-2" x1="19.14" y1="73.24" x2="27.4" y2="81.5"/><line class="cls-2" x1="27.4" y1="73.24" x2="19.14" y2="81.5"/><line class="cls-2" x1="42.1" y1="77.59" x2="80.35" y2="77.59"/><line class="cls-2" x1="98.76" y1="17.5" x2="1.24" y2="17.5"/><circle class="cls-2" cx="12" cy="10" r="2.5"/><circle class="cls-2" cx="21" cy="10" r="2.5"/><circle class="cls-2" cx="30" cy="10" r="2.5"/></svg>