<?xml version="1.0" encoding="utf-8"?>
<!-- Generator: Adobe Illustrator 23.0.1, SVG Export Plug-In . SVG Version: 6.00 Build 0)  -->
<svg version="1.1" id="Layer_1" xmlns="http://www.w3.org/2000/svg" xmlns:xlink="http://www.w3.org/1999/xlink" x="0px" y="0px"
	 viewBox="0 0 353.9 407.5" style="enable-background:new 0 0 353.9 407.5;" xml:space="preserve">
<style type="text/css">
	.st0{fill:none;stroke:#FFFFFF;stroke-miterlimit:10;}
	.st1{fill:#FFFFFF;}
	.st2{font-family:'Helvetica-Bold';}
	.st3{font-size:10.09px;}
	.st4{fill:#FCFCFC;}
	.st5{font-size:8.98px;}
	.st6{opacity:0.25;fill:#FFFFFF;enable-background:new    ;}
	.st7{font-size:8.04px;}
</style>
<title>Dark Posts 1</title>
<rect x="1.8" class="st0" width="351.3" height="407.5"/>
<circle class="st0" cx="28.1" cy="49.6" r="14.9"/>
<text transform="matrix(1 0 0 1 51.69 46.5)" class="st1 st2 st3">Epiphany Candles</text>
<text transform="matrix(0.92 0 0 1 51.69 60.8401)" class="st4 st2 st5">Sponsored</text>
<text transform="matrix(1 0 0 1 10.84 85.85)" class="st1 st2 st3">Moonchild, you shine. Shop our Crystal Snow collection no</text>
<text transform="matrix(1 0 0 1 295.55 85.85)" class="st1 st2 st3">w</text>
<text transform="matrix(1 0 0 1 303.02 85.85)" class="st1 st2 st3">.</text>
<text transform="matrix(1 0 0 1 22.79 343.98)" class="st1 st2 st3">Moonchild Candle</text>
<text transform="matrix(1 0 0 1 22.79 364.29)" class="st1 st2 st3">$12.00</text>
<rect x="12.5" y="103.4" class="st0" width="248" height="269.5"/>
<line class="st0" x1="11.9" y1="326.2" x2="260.5" y2="326.2"/>
<rect x="270.2" y="103.4" class="st0" width="82.9" height="269.5"/>
<line class="st0" x1="270" y1="326.2" x2="353.1" y2="326.2"/>
<rect x="181.6" y="339.4" class="st0" width="62.1" height="20.3"/>
<text transform="matrix(1 0 0 1 188.03 352.64)" class="st1 st2 st3">Shop Now</text>
<circle class="st1" cx="329.5" cy="43.1" r="1.5"/>
<circle class="st1" cx="334" cy="43.1" r="1.5"/>
<circle class="st1" cx="338.5" cy="43.1" r="1.5"/>
<line class="st0" x1="1.8" y1="22.7" x2="353.1" y2="22.7"/>
<rect x="9.5" y="8.4" class="st6" width="133.8" height="8.4"/>
<rect x="282" y="337" class="st6" width="70.5" height="12"/>
<rect x="282.6" y="356.7" class="st6" width="34.7" height="8.4"/>
<text transform="matrix(1 -3.490651e-03 3.490651e-03 1 66.94 393.39)" class="st1 st2 st7">Like</text>
<rect x="52" y="389.7" transform="matrix(1 -3.490651e-03 3.490651e-03 1 -1.3663 0.188)" class="st1" width="2.4" height="3.6"/>
<polygon class="st1" points="57.9,389.7 60.3,389.7 60.3,390.9 59.1,393.3 55.5,393.3 55.5,389.7 56.7,388.5 56.7,386.1 57.9,386.1 
	"/>
<text transform="matrix(1 0 0 1 161.37 393.04)" class="st1 st2 st7">Share</text>
<polygon class="st1" points="151.8,384.1 155.2,387.5 151.8,390.9 "/>
<path class="st1" d="M148.8,390.5c0,1.8,1.3,3.3,3.1,3.5c-1.3-0.3-2.1-1.5-1.9-2.8c0.2-1.1,1.2-1.9,2.3-1.9v-2.4
	C150.4,386.9,148.8,388.5,148.8,390.5C148.8,390.5,148.8,390.5,148.8,390.5z"/>
<text transform="matrix(1 0 0 1 260.52 393.23)" class="st1 st2 st7">Comment</text>
<polygon class="st1" points="253.9,391.7 250.1,391.7 247.9,394.1 248.5,391.7 246.7,391.7 246.7,386.9 253.9,386.9 "/>
</svg>
