<?xml version="1.0" encoding="UTF-8"?>
<svg width="41px" height="41px" viewBox="0 0 41 41" version="1.1" xmlns="http://www.w3.org/2000/svg" xmlns:xlink="http://www.w3.org/1999/xlink">
    <!-- Generator: Sketch 52.6 (67491) - http://www.bohemiancoding.com/sketch -->
    <title>Fill 1 Copy</title>
    <desc>Created with Sketch.</desc>
    <g id="Page-1" stroke="none" stroke-width="1" fill="none" fill-rule="evenodd">
        <g id="Home" transform="translate(-515.000000, -512.000000)" fill="#FFFFFF">
            <path d="M553.736948,512 L517.263052,512 C516.013243,512 515,513.013243 515,514.263052 L515,550.736948 C515,551.986757 516.013243,553 517.263052,553 L536.900869,553 L536.900869,537.121585 L531.556761,537.121585 L531.556761,530.935245 L536.900869,530.935245 L536.900869,526.370664 C536.900869,521.076434 540.132986,518.19204 544.858603,518.19204 C547.120229,518.19204 549.065485,518.360202 549.632673,518.435732 L549.632673,523.970803 L546.354953,523.972228 C543.786931,523.972228 543.289572,525.19211 543.289572,526.98488 L543.289572,530.935245 L549.417483,530.935245 L548.618005,537.121585 L543.289572,537.121585 L543.289572,553 L553.736948,553 C554.986757,553 556,551.986757 556,550.736948 L556,514.263052 C556,513.013243 554.986757,512 553.736948,512" id="Fill-1-Copy"></path>
        </g>
    </g>
</svg>