<?xml version="1.0" encoding="utf-8"?>
<!-- Generator: Adobe Illustrator 23.0.1, SVG Export Plug-In . SVG Version: 6.00 Build 0)  -->
<svg version="1.1" id="Layer_1" xmlns="http://www.w3.org/2000/svg" xmlns:xlink="http://www.w3.org/1999/xlink" x="0px" y="0px"
	 viewBox="0 0 96 17" style="enable-background:new 0 0 96 17;" xml:space="preserve">
<style type="text/css">
	.st0{fill-rule:evenodd;clip-rule:evenodd;fill:#FEC10D;}
	.st1{fill-rule:evenodd;clip-rule:evenodd;fill:#FFFFFF;}
</style>
<title>Group</title>
<desc>Created with Sketch.</desc>
<path id="Fill-1" class="st0" d="M88.8,12.9c0.7-0.6,1.8-1.2,3.2-2.1c2.6-1.7,4-3,4-5.7c0-3-2.2-5.1-5.8-5.1C86.3,0.1,84,2.2,84,6
	h3.2V5.9c0-2,1-3,2.7-3c1.6,0,2.6,0.9,2.6,2.4c0,2.2-1.8,2.9-4.3,4.5c-1.5,1-2.7,2-3.4,3.1h3.4H88.8z"/>
<polygon id="Fill-4" class="st0" points="89,14 89,17 95,17 95,14 "/>
<polygon id="Fill-6" class="st0" points="79.5,0.6 76,0.6 76,17 88,17 88,14 79.5,14 "/>
<path id="Fill-8" class="st1" d="M73.2,15.2v-0.5h0.4c0.2,0,0.4,0,0.4,0.3s-0.2,0.3-0.4,0.3h-0.4V15.2z M73.2,15.4h0.3l0.5,0.7h0.3
	l-0.5-0.8c0.3,0,0.4-0.2,0.4-0.5s-0.2-0.5-0.6-0.5h-0.7V16h0.3L73.2,15.4L73.2,15.4z M73.5,16.8c0.8,0,1.5-0.6,1.5-1.5
	s-0.7-1.5-1.5-1.5S72,14.4,72,15.3C72,16.2,72.7,16.8,73.5,16.8z M72.3,15.3c0-0.7,0.5-1.2,1.2-1.2s1.2,0.5,1.2,1.2
	s-0.5,1.2-1.2,1.2S72.3,16,72.3,15.3z M24.1,11.8h-0.4c-1.4,0-3.9,0.1-3.9,1.6c0,2.1,4.3,1.4,4.3-1.1C24.1,12.3,24.1,11.8,24.1,11.8
	z M27,9.3v7.2h-2.6l-0.1-1.1c-0.8,1-2.1,1.4-3.5,1.4c-2,0-4-1-4-3.3c-0.1-3.7,4.1-3.9,6.8-3.9h0.5V9.4c0-1.2-0.8-1.9-2.3-1.9
	c-1.1,0-2.2,0.4-3,1.2L17.1,7c1.6-1.3,3.2-1.7,4.9-1.7C25.4,5.3,27,6.8,27,9.3z M63.4,9.8c-0.1-1.4-1.1-2.3-2.6-2.2
	c-1.5,0.1-2.4,1-2.6,2.2H63.4z M66.4,12.1h-8.2c0.2,1.4,1.3,2.3,2.7,2.3c1.3,0,2.1-0.4,3.1-1.4l2,1.5c-1.4,1.7-3.1,2.3-5,2.3
	c-3.3,0-5.8-2.3-5.8-5.8s2.5-5.8,5.7-5.8c3.6,0,5.5,2.1,5.5,6V12.1L66.4,12.1z M15.3,15.4c-2,1.1-4.1,1.7-6.7,1.6
	C3.6,16.8,0,13.8,0,8.6S3.6,0.1,8.6,0c2.5,0,4.7,0.6,6.5,2.1L13,4.3c-1.1-0.9-2.7-1.5-4.6-1.4c-3.1,0.1-5,2.4-5,5.5
	c0,3.4,2,5.7,5.3,5.8c1.5,0,2.6-0.2,3.5-0.6v-3.4H8.8L9,7.3h6.3V15.4z M35.4,5.5l-0.2,2.6h-0.8c-1.7,0-2.5,1.3-2.5,2.6v5.8h-3v-11
	h2.8l0.1,1.4c0.6-0.9,1.6-1.4,2.9-1.4H35.4z M42.4,14l-0.2,2.5c-0.7,0.2-1.4,0.3-2.1,0.3c-2.8,0-3.6-1.3-3.6-3.9V2.4h3v3.1h3
	l-0.2,2.6h-2.8v4.6c0,1,0.3,1.6,1.4,1.6C41.2,14.3,41.7,14.2,42.4,14z M53.8,16.6h-3v-5.8C50.8,9.5,50.7,8,49,8s-2.3,1.2-2.3,2.6v6
	h-3V5.5h2.8l0.1,1.4c0.6-0.9,1.7-1.7,3.3-1.7c3,0,4,2.1,4,4.4L53.8,16.6L53.8,16.6z M74.6,5.5l-0.2,2.6h-1.1c-1.7,0-2.6,1.4-2.6,2.6
	v5.8h-3v-11h2.8l0.1,1.4c0.6-0.9,1.6-1.4,2.9-1.4H74.6z"/>
</svg>
