<svg xmlns="http://www.w3.org/2000/svg" viewBox="0 0 135.19 189"><defs><style>.cls-1{fill:none;stroke:#fec10d;}.cls-1,.cls-5{stroke-miterlimit:10;}.cls-2{font-size:7.19px;}.cls-2,.cls-3,.cls-4,.cls-5{fill:#fec10d;}.cls-2,.cls-3{font-family:Helvetica-Bold, Helvetica;font-weight:700;}.cls-3{font-size:10.58px;}.cls-5{stroke:#000;}</style></defs><title>Icon - FB Dark Post</title><g id="Layer_2" data-name="Layer 2"><g id="Layer_1-2" data-name="Layer 1"><rect class="cls-1" x="0.52" y="0.5" width="134.17" height="188"/><text class="cls-2" transform="translate(8.55 12.54)">Suggested Post</text><text class="cls-2" transform="translate(40.55 48.54)">Sponsored</text><rect class="cls-1" x="0.52" y="20.5" width="134.17" height="146"/><polyline class="cls-1" points="128.94 8 124.69 12.24 120.45 8"/><rect class="cls-1" x="9.19" y="27.5" width="24" height="24"/><text class="cls-3" transform="translate(41.06 37.46)">Brand</text><line class="cls-1" x1="48.19" y1="167" x2="48.19" y2="189"/><line class="cls-1" x1="91.19" y1="167" x2="91.19" y2="189"/><rect class="cls-1" x="87.19" y="28.5" width="40" height="15"/><text class="cls-2" transform="translate(90.83 37.97)">Like page</text><rect class="cls-4" x="8.69" y="58" width="114" height="5"/><rect class="cls-4" x="8.69" y="67" width="101" height="5"/><rect class="cls-1" x="0.69" y="82" width="134" height="55.5"/><rect class="cls-4" x="0.69" y="137" width="134" height="24.5"/><line class="cls-1" x1="0.69" y1="83" x2="134.69" y2="137"/><line class="cls-1" x1="134.19" y1="81.5" x2="0.19" y2="137.5"/><polygon class="cls-5" points="99.15 139.49 87.22 128.12 88.03 144.58 91.61 140.44 94.44 146.63 96.51 145.68 93.68 139.5 99.15 139.49"/></g></g></svg>