<svg xmlns="http://www.w3.org/2000/svg" viewBox="0 0 208.82 461.5"><defs><style>.cls-1{fill:none;}.cls-1,.cls-3{stroke:#fff;stroke-miterlimit:10;}.cls-2,.cls-4,.cls-5,.cls-7{fill:#fff;}.cls-4{font-size:9.97px;}.cls-4,.cls-5,.cls-6{font-family:Helvetica-Bold, Helvetica;font-weight:700;}.cls-5,.cls-6{font-size:7.58px;}.cls-6{fill:#fec10d;}.cls-7{opacity:0.25;}</style></defs><title>Shoppable FB 2</title><g id="Layer_2" data-name="Layer 2"><g id="Layer_1-2" data-name="Layer 1"><rect class="cls-1" x="8.73" y="53.17" width="191.35" height="342.89"/><rect class="cls-1" x="0.5" y="0.5" width="207.82" height="460.5" rx="29.31" ry="29.31"/><circle class="cls-1" cx="104.41" cy="428.53" r="18.3"/><rect class="cls-1" x="73.71" y="28.84" width="61.4" height="5.9" rx="2.5" ry="2.5"/><circle class="cls-1" cx="55.55" cy="31.2" r="2.36"/><line class="cls-1" x1="8.31" y1="84.33" x2="200.78" y2="84.33"/><line class="cls-1" x1="8.9" y1="192.97" x2="200.19" y2="192.97"/><line class="cls-1" x1="8.9" y1="305.14" x2="201.37" y2="305.14"/><line class="cls-1" x1="8.9" y1="332.3" x2="201.37" y2="332.3"/><rect class="cls-1" x="39.01" y="64.85" width="133.43" height="14.17" rx="6" ry="6"/><polygon class="cls-2" points="183.07 66.83 186.41 70.17 183.07 73.5 183.07 66.83"/><path class="cls-2" d="M180.12,73.12a3.52,3.52,0,0,0,3.06,3.49,2.36,2.36,0,0,1,.48-4.67V69.57A3.54,3.54,0,0,0,180.12,73.12Z"/><polyline class="cls-1" points="28.39 76.07 23.28 70.96 28.39 65.85"/><circle class="cls-3" cx="168.31" cy="193.56" r="10.04"/><circle class="cls-3" cx="37.83" cy="222.48" r="16.53"/><text class="cls-4" transform="translate(66.17 221.89)">Epiphany Candles</text><circle class="cls-2" cx="163.59" cy="218.35" r="5.9"/><polygon points="162.93 221.25 160.5 218.82 161.43 217.89 162.93 219.39 165.75 216.58 166.67 217.5 162.93 221.25"/><text class="cls-5" transform="translate(65.15 234.52)">@epiphanycandles</text><text class="cls-5" transform="translate(53.54 260.52)">Shop Now</text><text class="cls-5" transform="translate(21.46 321.9)">Home</text><text class="cls-6" transform="translate(58.28 321.53) rotate(2.25)">Shop</text><text class="cls-5" transform="translate(93.32 321.9)">Posts</text><text class="cls-5" transform="translate(126.62 321.9)">Photos</text><text class="cls-5" transform="translate(164.34 321.9)">About</text><text class="cls-5" transform="translate(21.46 349.06)">About</text><rect class="cls-1" x="21.3" y="249.64" width="101.55" height="16.53" rx="0.93" ry="0.93"/><rect class="cls-1" x="128.75" y="249.64" width="27.1" height="16.53" rx="0.93" ry="0.93"/><rect class="cls-1" x="160.1" y="249.64" width="27.1" height="16.53" rx="0.93" ry="0.93"/><circle class="cls-1" cx="31.93" cy="287.43" r="9.45"/><rect class="cls-7" x="49.64" y="283.88" width="100.37" height="8.27"/><rect class="cls-7" x="38.42" y="360.49" width="100.37" height="8.27"/><rect class="cls-7" x="38.42" y="378.2" width="140.51" height="9"/></g></g></svg>