<svg xmlns="http://www.w3.org/2000/svg" viewBox="0 0 588.5 321"><defs><style>.cls-1,.cls-3{fill:none;stroke-miterlimit:10;}.cls-1{stroke:#fff;}.cls-2,.cls-6{font-size:8.44px;}.cls-10,.cls-2,.cls-4,.cls-5,.cls-8,.cls-9{fill:#fff;}.cls-11,.cls-12,.cls-2,.cls-4,.cls-6,.cls-8,.cls-9{font-family:Helvetica-Bold, Helvetica;font-weight:700;}.cls-3{stroke:#fec10d;}.cls-4{font-size:13.11px;}.cls-7{letter-spacing:-0.02em;}.cls-11,.cls-8,.cls-9{font-size:6.73px;}.cls-9{letter-spacing:0.14em;}.cls-10{opacity:0.25;}.cls-11,.cls-12{fill:#fec10d;}.cls-12{font-size:5.06px;}</style></defs><title>Shoppable FB 3</title><g id="Layer_2" data-name="Layer 2"><g id="Layer_1-2" data-name="Layer 1"><polyline class="cls-1" points="128.5 320.5 128.5 37 575.5 37 575.5 320.5"/><text class="cls-2" transform="translate(135.08 56.91)">Crystal Snow Collection</text><text class="cls-2" transform="translate(135.08 177.91)">Autumn Leaves Collection</text><rect class="cls-1" x="134" y="65.5" width="69.29" height="66.46"/><rect class="cls-1" x="209.18" y="65.5" width="69.29" height="66.46"/><rect class="cls-3" x="284.36" y="65.5" width="69.29" height="66.46"/><rect class="cls-1" x="359.54" y="65.5" width="69.29" height="66.46"/><rect class="cls-1" x="434.71" y="65.5" width="69.29" height="66.46"/><rect class="cls-1" x="134" y="308.2" width="69.29" height="12.3"/><rect class="cls-1" x="209.18" y="308.2" width="69.29" height="12.3"/><rect class="cls-1" x="284.36" y="308.2" width="69.29" height="12.3"/><rect class="cls-1" x="359.54" y="308.2" width="69.29" height="12.3"/><rect class="cls-1" x="434.71" y="308.2" width="69.29" height="12.3"/><rect class="cls-1" x="134" y="186.51" width="69.29" height="66.46"/><rect class="cls-1" x="209.18" y="186.51" width="69.29" height="66.46"/><rect class="cls-1" x="284.36" y="186.51" width="69.29" height="66.46"/><rect class="cls-1" x="359.54" y="186.51" width="69.29" height="66.46"/><circle class="cls-1" cx="65" cy="80.5" r="48.5"/><text class="cls-4" transform="translate(14.33 152.45)">Epiphany<tspan x="0" y="16.74">Candles</tspan></text><text class="cls-2" transform="translate(14.33 184.44)">@epiphanycandles</text><circle class="cls-5" cx="76" cy="165.5" r="5"/><polygon points="75.44 167.95 73.39 165.89 74.17 165.11 75.44 166.38 77.83 164 78.61 164.78 75.44 167.95"/><rect class="cls-5" x="12" y="278.5" width="97" height="20"/><text class="cls-2" transform="translate(17.78 210.51)">Home</text><text class="cls-2" transform="translate(17.78 230.71)">Posts</text><text class="cls-2" transform="translate(17.78 250.91)">Photos</text><text class="cls-2" transform="translate(17.78 271.11)">About</text><text class="cls-6" transform="translate(17.78 291.31)">Shop</text><text class="cls-2" transform="translate(17.78 311.51)"><tspan class="cls-7">V</tspan><tspan x="5.48" y="0">ideos</tspan></text><rect class="cls-1" x="0.5" y="0.5" width="587.5" height="320"/><rect class="cls-1" x="128" y="0.5" width="447" height="29"/><rect class="cls-1" x="136" y="6.5" width="35.5" height="17"/><rect class="cls-1" x="171.5" y="6.5" width="40.5" height="17"/><rect class="cls-1" x="212" y="6.5" width="38.5" height="17"/><rect class="cls-1" x="394.5" y="7" width="70" height="17"/><polygon class="cls-1" points="556.5 24.21 469 24 469 7 556.5 7.21 556.5 24.21"/><rect class="cls-1" x="250.5" y="6.5" width="20" height="17"/><text class="cls-8" transform="translate(152.53 17.64)">Like</text><text class="cls-8" transform="translate(185.53 17.64)">Follow</text><text class="cls-8" transform="translate(225.53 17.64)">Share</text><text class="cls-9" transform="translate(256.53 16.64)">...</text><text class="cls-2" transform="translate(408.87 18.1)">Shop Now</text><text class="cls-2" transform="translate(488.63 18.31)">Send Message</text><rect class="cls-5" x="142" y="14.5" width="2" height="3"/><polygon class="cls-5" points="147 14.5 149 14.5 149 15.5 148 17.5 145 17.5 145 14.5 146 13.5 146 11.5 147 11.5 147 14.5"/><path class="cls-1" d="M176,14.5a3,3,0,0,1,3,3"/><path class="cls-1" d="M176,12.5a5,5,0,0,1,5,5"/><path class="cls-5" d="M176.5,16.5a.5.5,0,1,0,.5.5.5.5,0,0,0-.5-.5Z"/><polygon class="cls-5" points="219.5 10.17 222.33 13 219.5 15.83 219.5 10.17"/><path class="cls-5" d="M217,15.5a3,3,0,0,0,2.6,3,2,2,0,0,1,.4-4v-2A3,3,0,0,0,217,15.5Z"/><path class="cls-1" d="M480,11.5c-1.93,0-3.5,1.27-3.5,2.84a2.58,2.58,0,0,0,.92,1.91l-.48,2.25,2.56-1.35a4,4,0,0,0,.5,0c1.93,0,3.5-1.28,3.5-2.85S481.93,11.5,480,11.5Z"/><line class="cls-1" x1="128" y1="157.5" x2="575" y2="157.5"/><text class="cls-2" transform="translate(135.08 300.1)">24/7=Summer Collection</text><line class="cls-1" x1="128" y1="279" x2="575" y2="279"/><rect class="cls-10" x="209" y="138.5" width="36" height="6"/><rect class="cls-10" x="209" y="147.5" width="16" height="3"/><rect class="cls-10" x="134" y="268.5" width="16" height="3"/><rect class="cls-10" x="210" y="268.5" width="16" height="3"/><rect class="cls-10" x="285" y="268.5" width="16" height="3"/><rect class="cls-10" x="360" y="268.5" width="16" height="3"/><rect class="cls-10" x="134" y="147.5" width="16" height="3"/><rect class="cls-10" x="359" y="147.5" width="16" height="3"/><rect class="cls-10" x="434" y="147.5" width="16" height="3"/><rect class="cls-10" x="134" y="138.5" width="36" height="6"/><rect class="cls-10" x="359" y="138.5" width="36" height="6"/><rect class="cls-10" x="434" y="138.5" width="36" height="6"/><rect class="cls-10" x="134" y="259.5" width="36" height="6"/><rect class="cls-10" x="210" y="259.5" width="36" height="6"/><rect class="cls-10" x="285" y="259.5" width="36" height="6"/><rect class="cls-10" x="360" y="259.5" width="36" height="6"/><text class="cls-11" transform="translate(284.53 143.64)">Moonchild Candle</text><text class="cls-12" transform="translate(284.53 151.2)">$12.00</text></g></g></svg>