<svg xmlns="http://www.w3.org/2000/svg" viewBox="0 0 208.82 461.5"><defs><style>.cls-1,.cls-7{font-size:7.58px;}.cls-1,.cls-3,.cls-4,.cls-5{fill:#fff;}.cls-1,.cls-3,.cls-7{font-family:Helvetica-Bold, Helvetica;font-weight:700;}.cls-12,.cls-2{fill:none;stroke-miterlimit:10;}.cls-2{stroke:#fff;}.cls-3{font-size:9.69px;}.cls-5{opacity:0.25;}.cls-6{fill:#fec10d;}.cls-7{letter-spacing:0.01em;}.cls-8{letter-spacing:0.08em;}.cls-9{letter-spacing:0.06em;}.cls-10{letter-spacing:0.08em;}.cls-11{letter-spacing:0.06em;}.cls-12{stroke:#000;}</style></defs><title>Shoppable IG 3</title><g id="Layer_2" data-name="Layer 2"><g id="Layer_1-2" data-name="Layer 1"><text class="cls-1" transform="translate(45.96 104.7)">epiphanycandles</text><rect class="cls-2" x="8.73" y="53.17" width="191.35" height="342.89"/><rect class="cls-2" x="0.5" y="0.5" width="207.82" height="460.5" rx="29.31" ry="29.31"/><circle class="cls-2" cx="104.41" cy="428.53" r="18.3"/><rect class="cls-2" x="73.71" y="28.84" width="61.4" height="5.9" rx="2.5" ry="2.5"/><circle class="cls-2" cx="55.55" cy="31.2" r="2.36"/><line class="cls-2" x1="8.31" y1="84.33" x2="200.78" y2="84.33"/><line class="cls-2" x1="8.31" y1="118.33" x2="200.78" y2="118.33"/><line class="cls-2" x1="8.31" y1="324.33" x2="200.78" y2="324.33"/><polyline class="cls-2" points="28.39 73.98 23.28 68.87 28.39 63.76"/><text class="cls-3" transform="translate(90.82 71.7)">Photo</text><circle class="cls-4" cx="182.41" cy="103.27" r="1.04"/><circle class="cls-4" cx="185.59" cy="103.27" r="1.04"/><circle class="cls-4" cx="188.76" cy="103.27" r="1.04"/><circle class="cls-2" cx="27.62" cy="101" r="9.5"/><path class="cls-2" d="M176.73,65.59a6.85,6.85,0,1,1,1.32,8.27"/><polyline class="cls-2" points="178.72 65.89 176.22 65.89 176.22 63.4"/><path class="cls-4" d="M26.21,344.32l-6.49-5.71a3.7,3.7,0,0,1-.7-1.95,4.1,4.1,0,0,1,3.18-3.92A4,4,0,0,1,25.68,334a4.22,4.22,0,0,1,3.73-1.58,4.36,4.36,0,0,1,3.46,4.24,3.64,3.64,0,0,1-.7,1.93ZM20.3,338l5.88,5.17L31.62,338a2.78,2.78,0,0,0,.47-1.38,3.49,3.49,0,0,0-2.8-3.3c-1.9-.34-3.28,1.6-3.29,1.62l-.29.41-.3-.4a3.46,3.46,0,0,0-3.07-1.33,3.25,3.25,0,0,0-2.54,3A2.62,2.62,0,0,0,20.3,338Z"/><path class="cls-2" d="M53.63,344.48l-1.08-3.81a5.18,5.18,0,1,0-2.32,2.13Z"/><circle class="cls-2" cx="24.62" cy="358" r="5.5"/><rect class="cls-5" x="37.12" y="354.5" width="126" height="7"/><text class="cls-1" transform="translate(18.03 377.98)">epiphanycandles Find your epiphany moment.</text><polygon class="cls-2" points="65.74 336.15 74.62 334.26 72.73 343.14 70.85 338.03 65.74 336.15"/><rect class="cls-6" x="17.12" y="297.5" width="141.5" height="18" rx="9" ry="9"/><text class="cls-7" transform="translate(42.99 309.95)">T<tspan class="cls-8" x="4.68" y="0">A</tspan><tspan class="cls-9" x="10.76" y="0">P</tspan><tspan class="cls-10" x="16.29" y="0"> </tspan><tspan class="cls-11" x="19.01" y="0">T</tspan><tspan class="cls-8" x="24.11" y="0">O VIEW PRODUCTS</tspan></text><rect x="26.62" y="304" width="9" height="6"/><circle class="cls-12" cx="31.12" cy="304.5" r="1.5"/></g></g></svg>