<svg xmlns="http://www.w3.org/2000/svg" viewBox="0 0 208.82 461.5"><defs><style>.cls-1{fill:none;stroke:#fff;stroke-miterlimit:10;}.cls-2{font-size:9.69px;}.cls-2,.cls-3,.cls-8{fill:#fff;}.cls-2,.cls-4,.cls-8{font-family:Helvetica-Bold, Helvetica;font-weight:700;}.cls-4,.cls-8{font-size:7.58px;}.cls-5{letter-spacing:-0.02em;}.cls-6{letter-spacing:-0.02em;}.cls-7{letter-spacing:0em;}</style></defs><title>Shoppable IG 5</title><g id="Layer_2" data-name="Layer 2"><g id="Layer_1-2" data-name="Layer 1"><rect class="cls-1" x="8.73" y="53.17" width="191.35" height="342.89"/><rect class="cls-1" x="0.5" y="0.5" width="207.82" height="460.5" rx="29.31" ry="29.31"/><circle class="cls-1" cx="104.41" cy="428.53" r="18.3"/><rect class="cls-1" x="73.71" y="28.84" width="61.4" height="5.9" rx="2.5" ry="2.5"/><circle class="cls-1" cx="55.55" cy="31.2" r="2.36"/><line class="cls-1" x1="8.31" y1="84.33" x2="200.78" y2="84.33"/><line class="cls-1" x1="8.31" y1="280.33" x2="199.78" y2="280.33"/><line class="cls-1" x1="8.31" y1="358.33" x2="199.78" y2="358.33"/><line class="cls-1" x1="8.31" y1="388.33" x2="199.78" y2="388.33"/><polyline class="cls-1" points="28.39 73.98 23.28 68.87 28.39 63.76"/><text class="cls-2" transform="translate(63.96 71.7)">epiphanycandles</text><circle class="cls-3" cx="179.33" cy="68.87" r="1.48"/><circle class="cls-3" cx="183.83" cy="68.87" r="1.48"/><circle class="cls-3" cx="188.33" cy="68.87" r="1.48"/><polyline class="cls-1" points="180.39 371.74 183.63 374.98 180.39 378.22"/><text class="cls-2" transform="translate(21.78 299.29)">Euphoria Candle</text><text class="cls-2" transform="translate(21.78 315.29)">$12.00</text><polygon class="cls-1" points="185.12 310.5 178.42 305.13 172.12 310.5 172.12 293.5 185.12 293.5 185.12 310.5"/><rect class="cls-3" x="21.12" y="325.5" width="167" height="21.5" rx="2.36" ry="2.36"/><text class="cls-4" transform="translate(74.21 339.69)"><tspan class="cls-5">V</tspan><tspan x="4.92" y="0">iew On </tspan><tspan class="cls-6" x="31.89" y="0">W</tspan><tspan class="cls-7" x="38.91" y="0">ebsite</tspan></text><text class="cls-8" transform="translate(22.93 376.42)">Description</text></g></g></svg>