<svg id="Layer_1" data-name="Layer 1" xmlns="http://www.w3.org/2000/svg" viewBox="0 0 27 21.29"><defs><style>.cls-1{opacity:0.4;}.cls-2{fill:none;stroke:#fff;stroke-linecap:round;stroke-linejoin:round;}</style></defs><title>ability-to-drive-organic-reach</title><g class="cls-1"><path class="cls-2" d="M1.32,20.79a11.45,11.45,0,0,1,22.89,0"/><path class="cls-2" d="M5.83,11.69S9.51,12,8.68,15.07s3.77,4.39,6.24-.36,5.42-2.48,5.42-2.48"/><path class="cls-2" d="M22,14a8.05,8.05,0,0,1-.77,3.85c-0.83,1.47.52,3.16,2.92,1.37"/><path class="cls-2" d="M3.71,20.79c0-.25.44-3.9,2.38-2.31a8.19,8.19,0,0,0,7,1.29c2.9-.68,3.39,1,3.39,1"/><line class="cls-2" x1="12.76" y1="9.35" x2="12.76" y2="0.5"/><polygon class="cls-2" points="12.76 0.5 17.97 2.58 12.76 4.66 12.76 0.5"/><line class="cls-2" x1="4.67" y1="12.7" x2="0.5" y2="8.53"/><polygon class="cls-2" points="0.5 8.53 3.93 7.06 2.46 10.49 0.5 8.53"/><line class="cls-2" x1="20.86" y1="12.7" x2="25.03" y2="8.53"/><polygon class="cls-2" points="25.03 8.53 26.5 11.96 23.07 10.49 25.03 8.53"/></g></svg>