<svg id="Layer_1" data-name="Layer 1" xmlns="http://www.w3.org/2000/svg" viewBox="0 0 19.54 21"><defs><style>.cls-1{opacity:0.6;}.cls-2{fill:none;stroke:#fff;stroke-linecap:round;stroke-linejoin:round;}</style></defs><title>adjust-sliders</title><g class="cls-1"><path class="cls-2" d="M18.58,12.45l-4,.11L17.5,18.9a1.13,1.13,0,0,1-.56,1.5h0a1.13,1.13,0,0,1-1.5-.56L12.55,13.5,9.87,16.44a0.47,0.47,0,0,1-.81-0.3L8.67,3.34A0.47,0.47,0,0,1,9.46,3l9.43,8.66A0.47,0.47,0,0,1,18.58,12.45Z"/><line class="cls-2" x1="0.5" y1="3.03" x2="6.2" y2="3.03"/><path class="cls-2" d="M3,5.57L0.5,3,3,0.5"/><line class="cls-2" x1="18.52" y1="3.03" x2="12.82" y2="3.03"/><path class="cls-2" d="M16,0.5L18.52,3,16,5.57"/></g></svg>