<svg id="Layer_1" data-name="Layer 1" xmlns="http://www.w3.org/2000/svg" viewBox="0 0 23.73 26"><defs><style>.cls-1{opacity:0.4;}.cls-2{fill:none;stroke:#fff;stroke-linecap:round;stroke-linejoin:round;}</style></defs><title>content-creation-budget</title><g class="cls-1"><line class="cls-2" x1="0.5" y1="15.95" x2="5.05" y2="15.95"/><line class="cls-2" x1="5.05" y1="22.77" x2="0.5" y2="21.63"/><path class="cls-2" d="M5,16a13.48,13.48,0,0,1,5.68,1.14"/><path class="cls-2" d="M5,22.77l6.34,2.64a1.13,1.13,0,0,0,.94,0l9.89-4.95a1.82,1.82,0,0,0,1-1.63h0a1.82,1.82,0,0,0-2.59-1.66l-4.8,2.78H9"/><path class="cls-2" d="M10.73,17.09h2.86a2.27,2.27,0,0,1,2.27,2.27v0.57"/><circle class="cls-2" cx="11.86" cy="7.32" r="6.82"/><path class="cls-2" d="M9.31,10.32a3.59,3.59,0,0,0,4,.4,1.76,1.76,0,0,0,.51-2.94A3.22,3.22,0,0,0,11.92,7a4.09,4.09,0,0,1-2-.68,1.46,1.46,0,0,1,.42-2.45,3.73,3.73,0,0,1,3.77.34"/><line class="cls-2" x1="11.86" y1="2.2" x2="11.86" y2="12.43"/></g></svg>