<svg id="Layer_1" data-name="Layer 1" xmlns="http://www.w3.org/2000/svg" viewBox="0 0 27.14 26"><defs><style>.cls-1{opacity:0.4;}.cls-2{fill:none;stroke:#fff;stroke-linecap:round;stroke-linejoin:round;}</style></defs><title>influencers</title><g class="cls-1"><path class="cls-2" d="M19.05,4.47c1-1.16.93-4,.93-4C18.54,2.72,14.1,2.56,14.1,2.56A4.54,4.54,0,0,0,9.59,7.14v3A3.4,3.4,0,0,0,13,13.57h2.26a3.4,3.4,0,0,0,3.38-3.43v-3C20.54,6.85,21,4.28,21,4.28A2.89,2.89,0,0,1,19.05,4.47Z"/><polyline class="cls-2" points="15.84 15.84 18.11 14.71 19.25 16.41"/><polyline class="cls-2" points="9.02 16.41 10.16 14.71 12.43 15.84"/><path class="cls-2" d="M6.75,25.5a9.58,9.58,0,0,1,0-7.39c1.26-2.27,3.29-2.27,4.55,0A2.1,2.1,0,0,0,13,19.25l-0.57-3.41"/><path class="cls-2" d="M21.52,25.5a9.58,9.58,0,0,0,0-7.39c-1.26-2.27-3.29-2.27-4.55,0a2.1,2.1,0,0,1-1.7,1.14l0.57-3.41"/><path class="cls-2" d="M9.59,7.14a4.54,4.54,0,0,1,4.55-.67,10.79,10.79,0,0,0,4.47.67"/><line class="cls-2" x1="13" y1="19.25" x2="13.57" y2="25.5"/><line class="cls-2" x1="15.27" y1="19.25" x2="14.7" y2="25.5"/><path class="cls-2" d="M15.56,17.55a2,2,0,0,1-2.84,0"/><path class="cls-2" d="M13.32,8.45L12.88,9.77a0.57,0.57,0,0,1-.54.39H11.62A0.57,0.57,0,0,1,11,9.59V9a0.57,0.57,0,0,1,.57-0.57h1.7Z"/><path class="cls-2" d="M15,8.45l0.44,1.31a0.57,0.57,0,0,0,.54.39h0.72a0.57,0.57,0,0,0,.57-0.57V9a0.57,0.57,0,0,0-.57-0.57H15Z"/><line class="cls-2" x1="13.32" y1="8.45" x2="14.95" y2="8.45"/><line class="cls-2" x1="3.91" y1="0.5" x2="3.91" y2="2.2"/><line class="cls-2" x1="3.91" y1="5.61" x2="3.91" y2="7.32"/><line class="cls-2" x1="6.14" y1="1.68" x2="5.29" y2="2.53"/><line class="cls-2" x1="2.53" y1="5.29" x2="1.68" y2="6.14"/><line class="cls-2" x1="6.14" y1="6.14" x2="5.29" y2="5.29"/><line class="cls-2" x1="2.53" y1="2.53" x2="1.68" y2="1.68"/><line class="cls-2" x1="7.32" y1="3.91" x2="5.61" y2="3.91"/><line class="cls-2" x1="2.2" y1="3.91" x2="0.5" y2="3.91"/><line class="cls-2" x1="23.94" y1="9.73" x2="23.94" y2="10.87"/><line class="cls-2" x1="23.94" y1="13.99" x2="23.94" y2="15.13"/><line class="cls-2" x1="25.73" y1="10.64" x2="25.16" y2="11.21"/><line class="cls-2" x1="22.71" y1="13.65" x2="22.15" y2="14.22"/><line class="cls-2" x1="25.73" y1="14.22" x2="25.16" y2="13.65"/><line class="cls-2" x1="22.71" y1="11.21" x2="22.15" y2="10.64"/><line class="cls-2" x1="26.64" y1="12.43" x2="25.5" y2="12.43"/><line class="cls-2" x1="22.38" y1="12.43" x2="21.24" y2="12.43"/></g></svg>