<svg id="Layer_1" data-name="Layer 1" xmlns="http://www.w3.org/2000/svg" viewBox="0 0 262.16 25.79"><defs><style>.cls-1,.cls-2,.cls-6{fill:none;stroke:#fff;stroke-miterlimit:10;}.cls-1,.cls-4{opacity:0.3;}.cls-2{opacity:0.9;}.cls-3{fill:#a1ce54;}.cls-5,.cls-6{opacity:0.2;}.cls-7{opacity:0.7;}.cls-8{fill:#fff;}</style></defs><title>intro-choices</title><line class="cls-1" x1="22.31" y1="4" x2="75.75" y2="4"/><line class="cls-2" y1="4" x2="22.31" y2="4"/><circle class="cls-3" cx="22.31" cy="4" r="4"/><line class="cls-1" x1="51.67" y1="21.79" x2="75.75" y2="21.79"/><line class="cls-2" y1="21.79" x2="51.67" y2="21.79"/><circle class="cls-3" cx="51.67" cy="21.79" r="4"/><g class="cls-4"><rect class="cls-5" x="135.36" y="3.09" width="126.31" height="19.44"/></g><rect class="cls-6" x="135.36" y="3.09" width="126.31" height="19.44"/><g class="cls-7"><path class="cls-8" d="M141.36,9.27h2.13a1.61,1.61,0,0,1,1.78,1.78,1.49,1.49,0,0,1-1,1.45v0a1.58,1.58,0,0,1,1.23,1.71c0,1.41-.8,2-2.25,2h-1.88V9.27Zm0.85,3h1a1.06,1.06,0,0,0,1.18-1.16,1,1,0,0,0-1.2-1.14h-1v2.29Zm0,3.25h1.17a1.14,1.14,0,0,0,1.21-1.28,1.22,1.22,0,0,0-1.36-1.32h-1v2.6Z"/><path class="cls-8" d="M146.57,11h0.82v0.78h0a1.27,1.27,0,0,1,1.13-.91,0.83,0.83,0,0,1,.36.06v0.8a2.26,2.26,0,0,0-.44,0,1.16,1.16,0,0,0-1.07,1.23v3.29h-0.82V11Z"/><path class="cls-8" d="M149.51,12.58a1.48,1.48,0,0,1,1.75-1.71c1.58,0,1.58,1,1.58,1.5v2.91c0,0.21,0,.42.25,0.42a0.3,0.3,0,0,0,.19,0v0.58a3,3,0,0,1-.48,0,0.61,0.61,0,0,1-.74-0.67h0a1.48,1.48,0,0,1-1.25.75,1.32,1.32,0,0,1-1.42-1.52,1.35,1.35,0,0,1,1-1.44l1.1-.33a0.63,0.63,0,0,0,.59-0.79,0.73,0.73,0,0,0-.84-0.77,0.89,0.89,0,0,0-.89,1v0h-0.82Zm2.52,0.8a6.55,6.55,0,0,1-1.39.61,0.83,0.83,0,0,0-.4.83,0.73,0.73,0,0,0,.74.89,1.06,1.06,0,0,0,1-1V13.38Z"/><path class="cls-8" d="M154.15,11h0.78v0.61h0a1.39,1.39,0,0,1,1.26-.75c1.37,0,1.37,1,1.37,1.65v3.69h-0.82v-3.6a0.83,0.83,0,0,0-.77-1,1,1,0,0,0-1,1v3.6h-0.82V11Z"/><path class="cls-8" d="M162.27,16.21h-0.78V15.57h0a1.18,1.18,0,0,1-1.13.78c-1.23,0-1.7-1.1-1.7-2.74,0-1.09.17-2.74,1.64-2.74a1.26,1.26,0,0,1,1.15.73h0V9.27h0.82v6.94Zm-1.82-.56c0.9,0,1-.85,1-2,0-1-.17-2-1-2s-1,.8-1,2S159.7,15.65,160.45,15.65Z"/><path class="cls-8" d="M166.09,9.27h3.59V10h-2.73v2.18h2.58V13h-2.58v2.49h2.85v0.76h-3.7V9.27Z"/><path class="cls-8" d="M170.38,11h0.89l0.94,1.86,1-1.86h0.89l-1.36,2.5,1.41,2.71h-0.89l-1-2.06-1,2.06h-0.89l1.43-2.71Z"/><path class="cls-8" d="M174.77,12.58a1.48,1.48,0,0,1,1.75-1.71c1.58,0,1.58,1,1.58,1.5v2.91c0,0.21,0,.42.25,0.42a0.3,0.3,0,0,0,.2,0v0.58a3,3,0,0,1-.48,0,0.61,0.61,0,0,1-.74-0.67h0a1.48,1.48,0,0,1-1.25.75,1.32,1.32,0,0,1-1.42-1.52,1.35,1.35,0,0,1,1-1.44l1.1-.33a0.63,0.63,0,0,0,.59-0.79,0.73,0.73,0,0,0-.83-0.77,0.89,0.89,0,0,0-.89,1v0h-0.82Zm2.52,0.8a6.55,6.55,0,0,1-1.39.61,0.83,0.83,0,0,0-.4.83,0.73,0.73,0,0,0,.74.89,1.06,1.06,0,0,0,1-1V13.38Z"/><path class="cls-8" d="M179.48,11h0.78v0.61h0a1.39,1.39,0,0,1,1.26-.75,1,1,0,0,1,1.13.83,1.45,1.45,0,0,1,1.23-.83c1.37,0,1.37,1,1.37,1.65v3.69h-0.82v-3.6a0.83,0.83,0,0,0-.7-1,1,1,0,0,0-1,1v3.6H182v-3.6a0.83,0.83,0,0,0-.7-1,1,1,0,0,0-1,1v3.6h-0.82V11Z"/><path class="cls-8" d="M186.61,11h0.78v0.64h0a1.18,1.18,0,0,1,1.13-.78c1.23,0,1.7,1.1,1.7,2.64,0,1.19-.35,2.84-1.7,2.84a1.18,1.18,0,0,1-1.09-.73h0v2.3h-0.82V11Zm1.82,4.65c0.76,0,1-.8,1-2.14,0-1.15-.19-1.94-1-1.94s-1,.86-1,2C187.38,14.62,187.56,15.65,188.43,15.65Z"/><path class="cls-8" d="M191.36,9.27h0.82v6.94h-0.82V9.27Z"/><path class="cls-8" d="M194.17,13.71c0,0.8,0,2,1,2a1,1,0,0,0,.88-1.21h0.82a1.76,1.76,0,0,1-1.75,1.85c-1.27,0-1.81-.88-1.81-2.67,0-1.3.25-2.81,1.86-2.81s1.74,1.39,1.74,2.51v0.33h-2.74Zm1.89-.64V12.78a1.05,1.05,0,0,0-.9-1.27c-0.86,0-1,1-1,1.36v0.19h1.86Z"/><path class="cls-8" d="M204.8,13.83c-0.08,1.31-.59,2.52-2.11,2.52-2,0-2.24-1.86-2.24-3.61s0.32-3.61,2.24-3.61c1.42,0,2,.8,2.05,2.16h-0.89c0-.79-0.27-1.46-1.16-1.46-1.19,0-1.34,1.3-1.34,2.91s0.16,2.91,1.34,2.91,1.19-1,1.21-1.82h0.89Z"/><path class="cls-8" d="M205.63,12.58a1.48,1.48,0,0,1,1.75-1.71c1.58,0,1.58,1,1.58,1.5v2.91c0,0.21,0,.42.25,0.42a0.3,0.3,0,0,0,.2,0v0.58a3,3,0,0,1-.48,0,0.61,0.61,0,0,1-.74-0.67h0a1.48,1.48,0,0,1-1.25.75,1.32,1.32,0,0,1-1.42-1.52,1.35,1.35,0,0,1,1-1.44l1.1-.33a0.63,0.63,0,0,0,.59-0.79,0.73,0.73,0,0,0-.83-0.77,0.89,0.89,0,0,0-.89,1v0h-0.82Zm2.52,0.8a6.55,6.55,0,0,1-1.39.61,0.83,0.83,0,0,0-.4.83,0.73,0.73,0,0,0,.74.89,1.06,1.06,0,0,0,1-1V13.38Z"/><path class="cls-8" d="M210.35,11h0.78v0.61h0a1.39,1.39,0,0,1,1.26-.75,1,1,0,0,1,1.13.83,1.45,1.45,0,0,1,1.23-.83c1.37,0,1.37,1,1.37,1.65v3.69h-0.82v-3.6a0.83,0.83,0,0,0-.7-1,1,1,0,0,0-1,1v3.6h-0.82v-3.6a0.83,0.83,0,0,0-.7-1,1,1,0,0,0-1,1v3.6h-0.82V11Z"/><path class="cls-8" d="M217.48,11h0.78v0.64h0a1.18,1.18,0,0,1,1.13-.78c1.23,0,1.7,1.1,1.7,2.64,0,1.19-.35,2.84-1.7,2.84a1.18,1.18,0,0,1-1.09-.73h0v2.3h-0.82V11Zm1.82,4.65c0.76,0,1-.8,1-2.14,0-1.15-.19-1.94-1-1.94s-1,.86-1,2C218.25,14.62,218.42,15.65,219.3,15.65Z"/><path class="cls-8" d="M222,12.58a1.48,1.48,0,0,1,1.75-1.71c1.58,0,1.58,1,1.58,1.5v2.91c0,0.21,0,.42.25,0.42a0.3,0.3,0,0,0,.2,0v0.58a3,3,0,0,1-.48,0,0.61,0.61,0,0,1-.74-0.67h0a1.48,1.48,0,0,1-1.25.75,1.32,1.32,0,0,1-1.42-1.52,1.35,1.35,0,0,1,1-1.44l1.1-.33a0.63,0.63,0,0,0,.59-0.79,0.73,0.73,0,0,0-.83-0.77,0.89,0.89,0,0,0-.89,1v0H222Zm2.52,0.8a6.55,6.55,0,0,1-1.39.61,0.83,0.83,0,0,0-.4.83,0.73,0.73,0,0,0,.74.89,1.06,1.06,0,0,0,1-1V13.38Z"/><path class="cls-8" d="M226.73,9.27h0.82v0.93h-0.82V9.27Zm0,1.73h0.82v5.21h-0.82V11Z"/><path class="cls-8" d="M232.29,15.88c0,1.56-.72,2.12-1.77,2.12a1.51,1.51,0,0,1-1.71-1.3h0.82a0.73,0.73,0,0,0,.84.66,1,1,0,0,0,1-1.17V15.51h0a1.24,1.24,0,0,1-1.18.7c-1.52,0-1.61-1.92-1.61-2.61,0-1.41.38-2.74,1.7-2.74a1.17,1.17,0,0,1,1.13.8h0V11h0.78v4.88Zm-2.77-2.27c0,0.85.13,1.91,0.94,1.91s1.06-.84,1.06-1.91-0.17-2-1-2S229.52,12.37,229.52,13.61Z"/><path class="cls-8" d="M233.55,11h0.78v0.61h0a1.39,1.39,0,0,1,1.26-.75c1.37,0,1.37,1,1.37,1.65v3.69h-0.82v-3.6a0.83,0.83,0,0,0-.77-1,1,1,0,0,0-1,1v3.6h-0.82V11Z"/><path class="cls-8" d="M240.48,12.53c0-.66-0.17-1-0.77-1a0.75,0.75,0,0,0-.85.8c0,0.61.64,0.73,1.28,0.94a1.43,1.43,0,0,1,1.27,1.47,1.52,1.52,0,0,1-1.68,1.63A1.6,1.6,0,0,1,238,14.5h0.82a1,1,0,0,0,1,1.21,0.82,0.82,0,0,0,.87-0.87c0-.7-0.64-0.85-1.27-1.06a1.41,1.41,0,0,1-1.28-1.48,1.46,1.46,0,0,1,1.66-1.44,1.42,1.42,0,0,1,1.58,1.66h-0.82Z"/></g><g id="_Group_" data-name="&lt;Group&gt;"><polygon id="_Path_" data-name="&lt;Path&gt;" class="cls-8" points="255.1 9.02 256.87 11.86 253.34 11.86 255.1 9.02"/><polygon id="_Path_2" data-name="&lt;Path&gt;" class="cls-8" points="255.1 16.59 256.87 13.75 253.34 13.75 255.1 16.59"/></g><g class="cls-7"><path class="cls-8" d="M103.92,10.87c1.51,0,1.88,1.27,1.88,2.74s-0.38,2.74-1.88,2.74S102,15.08,102,13.61,102.42,10.87,103.92,10.87Zm1,2.74c0-1.13-.17-2.1-1-2.1s-1,1-1,2.1,0.17,2.1,1,2.1S104.94,14.74,104.94,13.61Z"/><path class="cls-8" d="M106.81,11h0.82v0.78h0a1.27,1.27,0,0,1,1.13-.91,0.83,0.83,0,0,1,.36.06v0.8a2.24,2.24,0,0,0-.44,0,1.16,1.16,0,0,0-1.07,1.23v3.29h-0.82V11Z"/></g></svg>