<svg id="Layer_1" data-name="Layer 1" xmlns="http://www.w3.org/2000/svg" viewBox="0 0 379.83 27.58"><defs><style>.cls-1{fill:#a1ce54;}.cls-2{fill:#fff;}.cls-3{opacity:0.3;}.cls-4{fill:none;stroke:#fff;stroke-miterlimit:10;opacity:0.1;}</style></defs><title>video-logo</title><g id="_Group_" data-name="&lt;Group&gt;"><path id="_Compound_Path_" data-name="&lt;Compound Path&gt;" class="cls-1" d="M16.81,15.42c3.85-2.57,6.65-3.74,6.65-7.22a3.57,3.57,0,0,0-3.93-3.78c-2.61,0-4.16,1.66-4.16,4.8V9.45H10.5C10.5,3.36,13.9,0,19.87,0c5.52,0,9,3.29,9,8.12,0,4.16-2.19,6.27-6.2,9-3.17,2.15-5.48,3.25-6,4.8h12v4.5H10C10.12,21.24,12.28,18.48,16.81,15.42Z"/><path id="_Compound_Path_2" data-name="&lt;Compound Path&gt;" class="cls-2" d="M0,1.81H5V21.93H16.82v4.48H0V1.81Z"/></g><path class="cls-2" d="M39.94,2.14h2.31l5.41,22h0.07l5.41-22h2.31L49,26.41H46.33Z"/><path class="cls-2" d="M59.68,2.14h2.18V26.41H59.68V2.14Z"/><path class="cls-2" d="M67.61,2.14h5.85c7.07,0,8.8,4.22,8.8,12.14s-1.73,12.14-8.8,12.14H67.61V2.14Zm2.18,22.44h3.54c4.76,0,6.77-2.38,6.77-10.27S78.08,4,73.32,4H69.78v20.6Z"/><path class="cls-2" d="M86.92,2.14H99V4H89.09v8.84h9.21v1.84H89.09v9.93H99.26v1.84H86.92V2.14Z"/><path class="cls-2" d="M110.93,1.73c5,0,7.75,3.84,7.75,12.54s-2.79,12.54-7.75,12.54-7.75-3.84-7.75-12.54S106,1.73,110.93,1.73Zm0,23.25c3.47,0,5.58-2.86,5.58-10.71S114.4,3.57,110.93,3.57s-5.58,2.86-5.58,10.71S107.47,25,110.93,25Z"/><rect class="cls-3" x="223.13" y="1.33" width="104.58" height="25.76"/><path class="cls-2" d="M231.25,8.72H234c3.29,0,4.09,2,4.09,5.64S237.25,20,234,20h-2.72V8.72Zm1,10.43h1.64c2.21,0,3.15-1.11,3.15-4.77s-0.93-4.81-3.15-4.81h-1.64v9.58Z"/><path class="cls-2" d="M241.92,8.72h1V20h-1V8.72Z"/><path class="cls-2" d="M249.55,8.72h1.26L254.15,20h-1.08l-0.92-3.29h-4L247.29,20h-1.07Zm2.39,7.15L250.2,9.51h0l-1.74,6.36h3.51Z"/><path class="cls-2" d="M260.14,15.11V14.25h3.62V20H263V18.14h0a2.65,2.65,0,0,1-2.48,2.05c-2.31,0-3.6-1.79-3.6-5.83s1.3-5.83,3.6-5.83c2.15,0,3.11,1.41,3.24,3.35h-1a2.23,2.23,0,0,0-2.23-2.5c-1.61,0-2.59,1.33-2.59,5s1,5,2.59,5,2.36-1.36,2.36-4V15.11h-2.67Z"/><path class="cls-2" d="M267.68,8.72H269l4.32,9.83h0V8.72h1V20H273l-4.32-9.83h0V20h-1V8.72Z"/><path class="cls-2" d="M281.82,8.53c2.31,0,3.6,1.79,3.6,5.83s-1.3,5.83-3.6,5.83-3.6-1.79-3.6-5.83S279.51,8.53,281.82,8.53Zm0,10.81c1.61,0,2.59-1.33,2.59-5s-1-5-2.59-5-2.59,1.33-2.59,5S280.21,19.34,281.82,19.34Z"/><path class="cls-2" d="M294.19,11.61c0-1.39-.65-2.23-2-2.23a2,2,0,0,0-2.13,2c0,3.37,5.47,1.52,5.47,5.49a3.07,3.07,0,0,1-3.41,3.3c-2.12,0-3.29-1.14-3.29-3.35V16.51h1v0.43a2.34,2.34,0,1,0,4.68.11c0-3.35-5.47-1.44-5.47-5.53a2.85,2.85,0,0,1,3.11-3c2.1,0,3.07,1.07,3.07,3.08h-1Z"/><path class="cls-2" d="M301.16,9.57h-2.91V8.72h6.83V9.57h-2.91V20h-1V9.57Z"/><path class="cls-2" d="M308.42,8.72h1V20h-1V8.72Z"/><path class="cls-2" d="M320.23,16.18c-0.14,2.58-1.33,4-3.35,4-2.31,0-3.6-1.79-3.6-5.83s1.3-5.83,3.6-5.83,3.24,1.63,3.24,3.48h-1c0-1.53-.77-2.62-2.23-2.62-1.61,0-2.59,1.33-2.59,5s1,5,2.59,5c1.42,0,2.23-1.22,2.34-3.16h1Z"/><rect class="cls-4" x="223.13" y="1.33" width="104.58" height="25.76"/><rect class="cls-3" x="327.71" y="1.33" width="51.62" height="25.76"/><path class="cls-2" d="M337.95,9.57H335V8.72h6.83V9.57H339V20h-1V9.57Z"/><path class="cls-2" d="M348.22,8.53c2.31,0,3.6,1.79,3.6,5.83s-1.3,5.83-3.6,5.83-3.6-1.79-3.6-5.83S345.91,8.53,348.22,8.53Zm0,10.81c1.61,0,2.59-1.33,2.59-5s-1-5-2.59-5-2.59,1.33-2.59,5S346.61,19.34,348.22,19.34Z"/><path class="cls-2" d="M359,8.53c2.31,0,3.6,1.79,3.6,5.83s-1.3,5.83-3.6,5.83-3.6-1.79-3.6-5.83S356.73,8.53,359,8.53Zm0,10.81c1.61,0,2.59-1.33,2.59-5s-1-5-2.59-5-2.59,1.33-2.59,5S357.43,19.34,359,19.34Z"/><path class="cls-2" d="M366.46,8.72h1V19.15h4.68V20h-5.69V8.72Z"/><rect class="cls-4" x="327.71" y="1.33" width="51.62" height="25.76"/><rect class="cls-3" x="128.51" y="1.33" width="94.62" height="25.76"/><path class="cls-2" d="M137.54,8.9h3.05c2.18,0,3.1,1.28,3.1,3.19,0,1.74-.87,3.19-3.45,3.19h-1.69v4.9h-1V8.9Zm1,5.53h1.72a2.12,2.12,0,0,0,2.4-2.34c0-1.69-.85-2.34-2.4-2.34h-1.72v4.68Z"/><path class="cls-2" d="M147.23,8.9h1V19.33h4.68v0.85h-5.69V8.9Z"/><path class="cls-2" d="M159.15,8.9h1.26l3.34,11.29h-1.08l-0.92-3.29h-4l-0.92,3.29h-1.07ZM161.54,16L159.8,9.69h0L158,16h3.51Z"/><path class="cls-2" d="M168.05,9.75h-2.91V8.9H172V9.75h-2.91V20.19h-1V9.75Z"/><path class="cls-2" d="M175.28,8.9h5.6V9.75H176.3v4.11h4.28v0.85H176.3v5.47h-1V8.9Z"/><path class="cls-2" d="M187.67,8.71c2.31,0,3.6,1.79,3.6,5.83s-1.3,5.83-3.6,5.83-3.6-1.79-3.6-5.83S185.36,8.71,187.67,8.71Zm0,10.81c1.61,0,2.59-1.33,2.59-5s-1-5-2.59-5-2.59,1.33-2.59,5S186.06,19.52,187.67,19.52Z"/><path class="cls-2" d="M195.09,8.9h3.37a2.63,2.63,0,0,1,2.92,2.83,2.57,2.57,0,0,1-2,2.86v0c1.41,0.13,1.88.93,1.93,2.67l0,1.23a2.49,2.49,0,0,0,.47,1.66h-1.19a3.41,3.41,0,0,1-.3-1.58l0-.95c-0.06-2-.43-2.62-2.25-2.62H196.1v5.15h-1V8.9Zm1,5.28h1.74c1.6,0,2.53-.73,2.53-2.21S199.79,9.75,198,9.75H196.1v4.43Z"/><path class="cls-2" d="M205.29,8.9H207l2.72,10h0l2.72-10h1.66V20.19h-1V9.85h0L210.2,20.19h-0.95L206.33,9.85h0V20.19h-1V8.9Z"/><rect class="cls-4" x="128.51" y="1.33" width="94.62" height="25.76"/></svg>