<?xml version="1.0" encoding="UTF-8"?>
<svg width="43px" height="55px" viewBox="0 0 43 55" version="1.1" xmlns="http://www.w3.org/2000/svg" xmlns:xlink="http://www.w3.org/1999/xlink">
    <!-- Generator: Sketch 47.1 (45422) - http://www.bohemiancoding.com/sketch -->
    <title>L2 Gartner Logo</title>
    <desc>Created with Sketch.</desc>
    <defs></defs>
    <g id="Symbols" stroke="none" stroke-width="1" fill="none" fill-rule="evenodd">
        <g id="Menu---Default" transform="translate(-18.000000, -47.000000)">
            <g id="L2-Gartner-Logo" transform="translate(18.000000, 46.000000)">
                <g id="L2-Logo" transform="translate(0.000000, 0.714286)">
                    <path d="M24.8473306,23.6606184 C30.5426367,19.8634551 34.6750245,18.1320469 34.6750245,12.9948633 C34.6750245,9.5882102 32.4969429,7.41100612 28.8673918,7.41100612 C25.0140653,7.41100612 22.7254122,9.86814898 22.7254122,14.5024959 L22.7254122,14.8377204 L15.5215959,14.8377204 C15.5215959,5.84808776 20.5473306,0.877638776 29.3702286,0.877638776 C37.5226776,0.877638776 42.6045755,5.73576122 42.6045755,12.8834143 C42.6045755,19.0253939 39.3646571,22.1529857 33.4464531,26.1730469 C28.7559429,29.356802 25.3501673,30.9758837 24.5121061,33.2654143 L42.2140653,33.2654143 L42.2140653,39.9102306 L14.8511469,39.9102306 C14.9625959,32.2606184 18.146351,28.1835163 24.8473306,23.6606184" id="Fill-1" fill="#17D455"></path>
                    <polygon id="Fill-4" fill="#FFFFFF" points="0 3.54635918 7.37230612 3.54635918 7.37230612 33.2848082 24.8566327 33.2848082 24.8566327 39.9103184 0 39.9103184"></polygon>
                </g>
                <path d="M41.9538974,54.2205919 L41.9538974,53.9169299 L42.1575634,53.9169299 C42.2619054,53.9169299 42.3728229,53.9393086 42.3728229,54.0610144 C42.3728229,54.2117265 42.2595694,54.2205919 42.133165,54.2205919 L41.9538974,54.2205919 Z M41.9538974,54.3472899 L42.1262435,54.3472899 L42.3861469,54.7728298 L42.5540805,54.7728298 L42.2734125,54.3404041 C42.418505,54.3227593 42.5292495,54.2452946 42.5292495,54.0696216 C42.5292495,53.8760457 42.413833,53.790232 42.1804044,53.790232 L41.8048249,53.790232 L41.8048249,54.7728298 L41.9538974,54.7728298 L41.9538974,54.3472899 Z M42.1351549,55.1334714 C42.601839,55.1334714 43,54.7728298 43,54.2791208 C43,53.790232 42.601839,53.430365 42.1351549,53.430365 C41.6641449,53.430365 41.2657243,53.790232 41.2657243,54.2791208 C41.2657243,54.7728298 41.6641449,55.1334714 42.1351549,55.1334714 L42.1351549,55.1334714 Z M41.4374648,54.2791208 C41.4374648,53.8760457 41.7431368,53.5723838 42.1351549,53.5723838 C42.5222414,53.5723838 42.8285191,53.8760457 42.8285191,54.2791208 C42.8285191,54.6890817 42.5222414,54.991883 42.1351549,54.991883 C41.7431368,54.991883 41.4374648,54.6890817 41.4374648,54.2791208 L41.4374648,54.2791208 Z M13.7987606,52.2544495 L13.5597082,52.2544495 C12.7459095,52.256257 11.3165272,52.2961083 11.3219779,53.1427124 C11.3296781,54.3352398 13.7987606,53.9562648 13.7987606,52.5180019 L13.7987606,52.2544495 Z M15.4525734,50.8696373 L15.4525734,55.0154667 L13.9371046,55.0154667 L13.8995553,54.3911866 C13.4345151,54.9641678 12.6797223,55.1703102 11.9025211,55.1703102 C10.7321771,55.1703102 9.62637626,54.59621 9.60318913,53.2591678 C9.56840845,51.157462 11.9808209,51.0082132 13.4960302,51.0082132 L13.7987606,51.0082132 L13.7987606,50.9250676 C13.7987606,50.2300363 13.3364889,49.8545903 12.4660201,49.8545903 C11.8412656,49.8545903 11.2244708,50.1039409 10.7683421,50.5293086 L9.77657344,49.5270003 C10.6770644,48.8007249 11.6139799,48.5297703 12.6120644,48.5297703 C14.5834889,48.5297703 15.4525734,49.4361944 15.4525734,50.8696373 L15.4525734,50.8696373 Z M36.3677042,51.1278532 C36.314841,50.3280723 35.7125815,49.8223994 34.8829497,49.8545903 C34.0480402,49.8860066 33.4920684,50.426969 33.3769115,51.1278532 L36.3677042,51.1278532 Z M38.0896942,52.4515543 L33.3769115,52.4515543 C33.5111891,53.260631 34.1504789,53.7473681 34.9465412,53.7694025 C35.7204547,53.790318 36.1534829,53.5576654 36.7195775,52.9874385 L37.8412113,53.838174 C37.0441107,54.8148329 36.0875553,55.1703102 34.9980201,55.1703102 C33.0814487,55.1703102 31.645664,53.8372273 31.645664,51.849739 C31.645664,49.8644025 33.0743541,48.5297703 34.9262958,48.5297703 C36.9674547,48.5297703 38.0896942,49.7599111 38.0896942,51.9436435 L38.0896942,52.4516404 L38.0896942,52.4515543 Z M8.77762374,54.3141521 C7.61169215,54.934559 6.44714487,55.2925324 4.90900805,55.2481193 C2.05733803,55.1615309 0,53.3998955 0,50.4243869 C0,47.4620473 2.07715091,45.5691521 4.91030584,45.524739 C6.34643662,45.5028767 7.63159155,45.8654119 8.63607847,46.7472194 L7.42602213,47.9649659 C6.80446881,47.4378611 5.88996177,47.1297233 4.79705231,47.1789565 C3.0140664,47.2615856 1.93958551,48.5505997 1.91587928,50.322908 C1.89260563,52.243088 3.07618712,53.5663587 4.92648491,53.6147312 C5.79712676,53.6363352 6.42084306,53.520052 6.9605493,53.2790504 L6.9605493,51.3162648 L5.03740241,51.3162648 L5.16726761,49.7064604 L8.77762374,49.7064604 L8.77762374,54.3141521 Z M20.3020563,48.6842695 L20.1689899,50.1628141 L19.7018732,50.1628141 C18.7347626,50.1628141 18.2538028,50.9346216 18.2538028,51.6762179 L18.2538028,55.0155528 L16.5347545,55.0155528 L16.5347545,48.6842695 L18.1623521,48.6842695 L18.1961811,49.4744964 C18.5394889,48.9325872 19.1367304,48.6842695 19.8743058,48.6842695 L20.3020563,48.6842695 Z M24.297163,53.5365778 L24.1769014,54.9771647 C23.7648109,55.0871647 23.3987485,55.1265856 22.9559437,55.1265856 C21.3362193,55.1265856 20.866507,54.3877437 20.866507,52.9026576 L20.866507,46.8988783 L22.5853823,46.8988783 L22.5853823,48.6843556 L24.2957787,48.6843556 L24.1769014,50.162728 L22.5853823,50.162728 L22.5853823,52.7740661 C22.5853823,53.3700285 22.7496821,53.6919377 23.3641408,53.6919377 C23.6313119,53.6919377 23.9284185,53.659919 24.297163,53.5365778 L24.297163,53.5365778 Z M30.8707988,55.0155528 L29.1517505,55.0155528 L29.1517505,51.6685575 C29.1517505,50.9675872 29.090841,50.0853493 28.0998511,50.0853493 C27.1454588,50.0853493 26.7652072,50.7705684 26.7652072,51.5684557 L26.7652072,55.0155528 L25.0466781,55.0155528 L25.0466781,48.6842695 L26.6400141,48.6842695 L26.6764386,49.4936905 C27.0179296,48.9517812 27.6540181,48.5297703 28.5921449,48.5297703 C30.324171,48.5297703 30.8707988,49.7599972 30.8707988,51.040232 L30.8707988,55.0155528 Z M42.778338,48.6842695 L42.6545292,50.1628141 L42.0475976,50.1628141 C41.078497,50.1628141 40.5748692,50.9356545 40.5748692,51.6762179 L40.5748692,55.0155528 L38.8572918,55.0155528 L38.8572918,48.6842695 L40.4841107,48.6842695 L40.5210543,49.4744964 C40.8623722,48.9325872 41.4597002,48.6842695 42.1963239,48.6842695 L42.778338,48.6842695 Z" id="Gartner" fill="#E5E6E6"></path>
            </g>
        </g>
    </g>
</svg>