<?xml version="1.0" encoding="UTF-8"?>
<svg width="22px" height="30px" viewBox="0 0 22 30" version="1.1" xmlns="http://www.w3.org/2000/svg" xmlns:xlink="http://www.w3.org/1999/xlink">
    <!-- Generator: Sketch 47.1 (45422) - http://www.bohemiancoding.com/sketch -->
    <title>Page 1</title>
    <desc>Created with Sketch.</desc>
    <defs></defs>
    <g id="Year-End-Review-2017" stroke="none" stroke-width="1" fill="none" fill-rule="evenodd" stroke-linecap="round" stroke-linejoin="round">
        <g id="Default" transform="translate(-122.000000, -1207.000000)" stroke="#4D4D4D" stroke-width="2">
            <g id="Page-1" transform="translate(123.000000, 1208.000000)">
                <path d="M19.479,9.739 C19.479,4.36 15.119,0 9.74,0 C4.361,0 0,4.36 0,9.739 C0,11.046 0.247,12.038 0.416,12.556 C2.344,18.473 6.5,24.149 9.74,28 C12.979,24.149 17.136,18.473 19.064,12.556 C19.233,12.038 19.479,11.046 19.479,9.739 Z" id="Stroke-1"></path>
                <path d="M14.739,9.87 C14.739,12.559 12.559,14.74 9.869,14.74 C7.18,14.74 5,12.559 5,9.87 C5,7.181 7.18,5 9.869,5 C12.559,5 14.739,7.181 14.739,9.87 Z" id="Stroke-3"></path>
            </g>
        </g>
    </g>
</svg>