<?xml version="1.0" encoding="UTF-8"?>
<svg width="25px" height="25px" viewBox="0 0 25 25" version="1.1" xmlns="http://www.w3.org/2000/svg" xmlns:xlink="http://www.w3.org/1999/xlink">
    <!-- Generator: Sketch 47.1 (45422) - http://www.bohemiancoding.com/sketch -->
    <title>Page 1</title>
    <desc>Created with Sketch.</desc>
    <defs></defs>
    <g id="Year-End-Review-2017" stroke="none" stroke-width="1" fill="none" fill-rule="evenodd" stroke-linecap="round" stroke-linejoin="round">
        <g id="Default" transform="translate(-530.000000, -1210.000000)" stroke="#4D4D4D" stroke-width="2">
            <path d="M551.488,1212.11622 C550.461,1211.39822 549.176,1211.00022 547.949,1211.00022 C546.923,1211.00022 545.723,1211.24022 545.04,1211.61222 C544.332,1211.98622 543.547,1212.64522 543.03,1213.43122 C542.766,1213.83222 542.216,1213.84522 541.946,1213.44922 C541.463,1212.74422 540.77,1212.13122 540.161,1211.71822 C539.418,1211.24022 538.477,1211.00022 537.278,1211.00022 C535.196,1211.00022 533.653,1211.66422 532.54,1213.04622 C531.571,1214.24222 531,1215.94322 531,1217.56322 C531,1220.16622 532.399,1223.22222 535.196,1226.67522 C537.019,1228.94022 537.586,1229.53522 542.053,1233.81822 C542.301,1234.05622 542.696,1234.06322 542.943,1233.82322 C543.569,1233.21422 544.653,1232.13822 546.209,1230.60822 C549.007,1227.87122 550.833,1225.66522 552.259,1223.30122 C553.486,1221.28222 554,1219.60822 554,1217.61522 C554,1215.14522 553.114,1213.23222 551.488,1212.11622 Z" id="Page-1"></path>
        </g>
    </g>
</svg>