<?xml version="1.0" encoding="UTF-8"?>
<svg width="29px" height="29px" viewBox="0 0 29 29" version="1.1" xmlns="http://www.w3.org/2000/svg" xmlns:xlink="http://www.w3.org/1999/xlink">
    <!-- Generator: Sketch 47.1 (45422) - http://www.bohemiancoding.com/sketch -->
    <title>Group 5</title>
    <desc>Created with Sketch.</desc>
    <defs></defs>
    <g id="Year-End-Review-2017" stroke="none" stroke-width="1" fill="none" fill-rule="evenodd">
        <g id="Default" transform="translate(-936.000000, -925.000000)">
            <g id="Group-5" transform="translate(937.000000, 926.000000)">
                <g id="Group-3" transform="translate(3.000000, 3.000000)" stroke="#4D4D4D" stroke-width="2">
                    <path d="M20.0422,10.3074 L0.7762,10.3074 M10.4102,0.6494 L10.4102,19.8094 M17.3972,3.3194 L3.4232,17.2944 M17.3972,17.2944 L3.4232,3.3194" id="Stroke-2"></path>
                </g>
                <path d="M18.8064,13.3459 C18.7854,16.3249 16.3524,18.7249 13.3704,18.7039 C10.3904,18.6829 7.9914,16.2479 8.0124,13.2689 C8.0344,10.2879 10.4684,7.8879 13.4484,7.9089 C16.4294,7.9309 18.8274,10.3659 18.8064,13.3459" id="Fill-4" fill="#000000"></path>
                <g id="Group-53">
                    <path d="M18.8064,13.3459 C18.7854,16.3249 16.3524,18.7249 13.3704,18.7039 C10.3904,18.6829 7.9914,16.2479 8.0124,13.2689 C8.0344,10.2879 10.4684,7.8879 13.4484,7.9089 C16.4294,7.9309 18.8274,10.3659 18.8064,13.3459" id="Stroke-19" stroke="#4D4D4D" stroke-width="2"></path>
                    <path d="M3.8742,13.3074 C3.8742,14.2504 3.1102,15.0154 2.1662,15.0154 C1.2232,15.0154 0.4572,14.2504 0.4572,13.3074 C0.4572,12.3624 1.2232,11.5984 2.1662,11.5984 C3.1102,11.5984 3.8742,12.3624 3.8742,13.3074" id="Fill-21" fill="#000000"></path>
                    <path d="M3.8742,13.3074 C3.8742,14.2504 3.1102,15.0154 2.1662,15.0154 C1.2232,15.0154 0.4572,14.2504 0.4572,13.3074 C0.4572,12.3624 1.2232,11.5984 2.1662,11.5984 C3.1102,11.5984 3.8742,12.3624 3.8742,13.3074 Z" id="Stroke-23" stroke="#4D4D4D" stroke-width="2"></path>
                    <path d="M23.0822,21.4729 C23.0822,22.4159 22.3162,23.1809 21.3732,23.1809 C20.4312,23.1809 19.6652,22.4159 19.6652,21.4729 C19.6652,20.5299 20.4312,19.7649 21.3732,19.7649 C22.3162,19.7649 23.0822,20.5299 23.0822,21.4729" id="Fill-25" fill="#000000"></path>
                    <path d="M23.0822,21.4729 C23.0822,22.4159 22.3162,23.1809 21.3732,23.1809 C20.4312,23.1809 19.6652,22.4159 19.6652,21.4729 C19.6652,20.5299 20.4312,19.7649 21.3732,19.7649 C22.3162,19.7649 23.0822,20.5299 23.0822,21.4729 Z" id="Stroke-27" stroke="#4D4D4D" stroke-width="2"></path>
                    <path d="M7.1174,4.9363 C7.1174,5.8793 6.3534,6.6443 5.4094,6.6443 C4.4664,6.6443 3.7004,5.8793 3.7004,4.9363 C3.7004,3.9933 4.4664,3.2283 5.4094,3.2283 C6.3534,3.2283 7.1174,3.9933 7.1174,4.9363" id="Fill-29" fill="#000000"></path>
                    <path d="M7.1174,4.9363 C7.1174,5.8793 6.3534,6.6443 5.4094,6.6443 C4.4664,6.6443 3.7004,5.8793 3.7004,4.9363 C3.7004,3.9933 4.4664,3.2283 5.4094,3.2283 C6.3534,3.2283 7.1174,3.9933 7.1174,4.9363 Z" id="Stroke-31" stroke="#4D4D4D" stroke-width="2"></path>
                    <path d="M7.1936,21.6687 C7.1936,22.6107 6.4286,23.3777 5.4856,23.3777 C4.5426,23.3777 3.7776,22.6107 3.7776,21.6687 C3.7776,20.7247 4.5426,19.9607 5.4856,19.9607 C6.4286,19.9607 7.1936,20.7247 7.1936,21.6687" id="Fill-33" fill="#000000"></path>
                    <path d="M7.1936,21.6687 C7.1936,22.6107 6.4286,23.3777 5.4856,23.3777 C4.5426,23.3777 3.7776,22.6107 3.7776,21.6687 C3.7776,20.7247 4.5426,19.9607 5.4856,19.9607 C6.4286,19.9607 7.1936,20.7247 7.1936,21.6687 Z" id="Stroke-35" stroke="#4D4D4D" stroke-width="2"></path>
                    <path d="M23.4353,5.3665 C23.4353,6.3095 22.6693,7.0745 21.7273,7.0745 C20.7833,7.0745 20.0183,6.3095 20.0183,5.3665 C20.0183,4.4215 20.7833,3.6585 21.7273,3.6585 C22.6693,3.6585 23.4353,4.4215 23.4353,5.3665" id="Fill-37" fill="#000000"></path>
                    <path d="M23.4353,5.3665 C23.4353,6.3095 22.6693,7.0745 21.7273,7.0745 C20.7833,7.0745 20.0183,6.3095 20.0183,5.3665 C20.0183,4.4215 20.7833,3.6585 21.7273,3.6585 C22.6693,3.6585 23.4353,4.4215 23.4353,5.3665 Z" id="Stroke-39" stroke="#4D4D4D" stroke-width="2"></path>
                    <path d="M15.1189,1.9519 C15.1189,2.8959 14.3529,3.6609 13.4109,3.6609 C12.4659,3.6609 11.7009,2.8959 11.7009,1.9519 C11.7009,1.0079 12.4659,0.2439 13.4109,0.2439 C14.3529,0.2439 15.1189,1.0079 15.1189,1.9519" id="Fill-41" fill="#000000"></path>
                    <path d="M15.1189,1.9519 C15.1189,2.8959 14.3529,3.6609 13.4109,3.6609 C12.4659,3.6609 11.7009,2.8959 11.7009,1.9519 C11.7009,1.0079 12.4659,0.2439 13.4109,0.2439 C14.3529,0.2439 15.1189,1.0079 15.1189,1.9519 Z" id="Stroke-43" stroke="#4D4D4D" stroke-width="2"></path>
                    <path d="M15.1189,24.6091 C15.1189,25.5541 14.3529,26.3181 13.4109,26.3181 C12.4659,26.3181 11.7009,25.5541 11.7009,24.6091 C11.7009,23.6661 12.4659,22.9011 13.4109,22.9011 C14.3529,22.9011 15.1189,23.6661 15.1189,24.6091" id="Fill-45" fill="#000000"></path>
                    <path d="M15.1189,24.6091 C15.1189,25.5541 14.3529,26.3181 13.4109,26.3181 C12.4659,26.3181 11.7009,25.5541 11.7009,24.6091 C11.7009,23.6661 12.4659,22.9011 13.4109,22.9011 C14.3529,22.9011 15.1189,23.6661 15.1189,24.6091 Z" id="Stroke-47" stroke="#4D4D4D" stroke-width="2"></path>
                    <path d="M26.4577,13.3074 C26.4577,14.2504 25.6927,15.0154 24.7487,15.0154 C23.8047,15.0154 23.0407,14.2504 23.0407,13.3074 C23.0407,12.3624 23.8047,11.5984 24.7487,11.5984 C25.6927,11.5984 26.4577,12.3624 26.4577,13.3074" id="Fill-49" fill="#000000"></path>
                    <path d="M26.4577,13.3074 C26.4577,14.2504 25.6927,15.0154 24.7487,15.0154 C23.8047,15.0154 23.0407,14.2504 23.0407,13.3074 C23.0407,12.3624 23.8047,11.5984 24.7487,11.5984 C25.6927,11.5984 26.4577,12.3624 26.4577,13.3074 Z" id="Stroke-51" stroke="#4D4D4D" stroke-width="2"></path>
                </g>
            </g>
        </g>
    </g>
</svg>