<svg id="Layer_1" data-name="Layer 1" xmlns="http://www.w3.org/2000/svg" viewBox="0 0 100 100"><defs><style>.cls-1{fill:none;stroke:#e6d101;stroke-linecap:round;stroke-linejoin:round;}</style></defs><title>RotateScreen</title><path class="cls-1" d="M.81,45.94V7.46C.81,3.75,3.23.75,6.22.75h36c3,0,5.41,3,5.41,6.71V45.53"/><line class="cls-1" x1="19.77" y1="7.46" x2="28.71" y2="7.46"/><line class="cls-1" x1="10.53" y1="7.46" x2="12.32" y2="7.46"/><line class="cls-1" x1="0.97" y1="13.44" x2="47.35" y2="13.44"/><path class="cls-1" d="M1,93.73v-36c0-3,3-5.41,6.71-5.41h85c3.71,0,6.72,2.42,6.72,5.41v36c0,3-3,5.41-6.72,5.41h-85C4,99.14,1,96.72,1,93.73Z"/><line class="cls-1" x1="92.65" y1="71.24" x2="92.65" y2="80.18"/><line class="cls-1" x1="92.65" y1="62.01" x2="92.65" y2="63.8"/><circle class="cls-1" cx="9.64" cy="75.71" r="4.47"/><line class="cls-1" x1="86.66" y1="52.44" x2="86.66" y2="98.82"/><line class="cls-1" x1="17.71" y1="52.44" x2="17.71" y2="98.82"/><path class="cls-1" d="M57.93,24.52A18.11,18.11,0,0,1,76,42.63"/><polyline class="cls-1" points="72.7 40.16 76 43.1 79 39.73"/></svg>