<svg id="Layer_1" data-name="Layer 1" xmlns="http://www.w3.org/2000/svg" viewBox="0 0 30 29.71"><defs><style>.cls-1{fill:#fff;}</style></defs><title>instagram</title><path class="cls-1" d="M29.9,10.16S30.43-.06,20.93,0C10.76,0.08,8.58,0,8.58,0S0.66-.17.14,8c-0.29,8-.05,13-0.05,13s0,7.64,7.41,8.58c5.51,0.34,13.3.12,13.3,0.12s9.07,0,9.17-8.33C30.07,12.1,29.9,10.16,29.9,10.16ZM27,21.77c-0.28,5.07-5.52,5.08-5.52,5.08a132.1,132.1,0,0,1-14.24-.14c-4.72-.52-4.5-6.58-4.5-6.58s0-6.95.15-12.07c0.33-5.35,5.82-5.3,5.82-5.3s4.16-.14,11.54,0C27.42,2.58,27,8.82,27,8.82S27.27,16.56,27,21.77Z"/><path class="cls-1" d="M14.89,7.14a7.66,7.66,0,1,0,7.66,7.66A7.66,7.66,0,0,0,14.89,7.14ZM15,19.79a5,5,0,1,1,5-5A5,5,0,0,1,15,19.79Z"/><circle class="cls-1" cx="22.92" cy="6.89" r="1.81"/></svg>