<svg id="Layer_1" data-name="Layer 1" xmlns="http://www.w3.org/2000/svg" viewBox="0 0 33 31.02"><defs><style>.cls-1{fill:#fff;}</style></defs><title>snapchat</title><path class="cls-1" d="M32.43,23.3c-4.49-.74-6.51-5.34-6.59-5.54l0,0a1.46,1.46,0,0,1-.16-1.21,2.94,2.94,0,0,1,1.84-1.11L28,15.24c1.12-.44,1.68-1,1.67-1.61a1.34,1.34,0,0,0-1-1.15h0A1.84,1.84,0,0,0,28,12.35a1.52,1.52,0,0,0-.63.13,3.85,3.85,0,0,1-1.42.4,1.26,1.26,0,0,1-.55-0.14c0-.23,0-0.46,0-0.71v-0.1c0.14-2.24.32-5-.42-6.68A8.8,8.8,0,0,0,16.82,0H16.17A8.78,8.78,0,0,0,8,5.27C7.28,6.91,7.46,9.7,7.6,11.94c0,0.26,0,.54,0,0.8a1.32,1.32,0,0,1-.64.14,3.69,3.69,0,0,1-1.52-.41A1.22,1.22,0,0,0,5,12.37a1.64,1.64,0,0,0-1.6,1.1c-0.09.48,0.12,1.17,1.65,1.77L5.49,15.4a3,3,0,0,1,1.84,1.11,1.46,1.46,0,0,1-.16,1.21l0,0c-0.08.2-2.1,4.8-6.59,5.54A0.68,0.68,0,0,0,0,24a0.92,0.92,0,0,0,.07.31c0.34,0.79,1.76,1.36,4.34,1.76a3.21,3.21,0,0,1,.23.78c0.05,0.25.11,0.5,0.19,0.77a0.76,0.76,0,0,0,.8.58,4.16,4.16,0,0,0,.75-0.1,8.71,8.71,0,0,1,1.76-.2A7.75,7.75,0,0,1,9.4,28a6,6,0,0,1,2.36,1.22A7.45,7.45,0,0,0,16.3,31H16.7a7.45,7.45,0,0,0,4.53-1.77A6,6,0,0,1,23.6,28a7.73,7.73,0,0,1,1.26-.11,8.77,8.77,0,0,1,1.76.19,4.13,4.13,0,0,0,.75.09h0a0.74,0.74,0,0,0,.76-0.57c0.08-.26.13-0.51,0.19-0.77a3.19,3.19,0,0,1,.23-0.78c2.59-.4,4-1,4.34-1.76A0.91,0.91,0,0,0,33,24,0.68,0.68,0,0,0,32.43,23.3Z"/></svg>