<svg id="Layer_1" data-name="Layer 1" xmlns="http://www.w3.org/2000/svg" viewBox="0 0 70.99 60.67"><defs><style>.cls-1{fill:#fff;}</style></defs><title>youtube-facebook-instagram</title><path class="cls-1" d="M57.85,4.68a6.66,6.66,0,0,0-1.23-3.06A4.44,4.44,0,0,0,53.52.31C49.18,0,42.67,0,42.67,0h0S36.16,0,31.82.31a4.44,4.44,0,0,0-3.11,1.31,6.66,6.66,0,0,0-1.23,3.06,46.46,46.46,0,0,0-.31,5V12a46.45,46.45,0,0,0,.31,5,6.66,6.66,0,0,0,1.23,3.06,5.27,5.27,0,0,0,3.42,1.32c2.48,0.24,10.54.31,10.54,0.31s6.51,0,10.85-.32a4.44,4.44,0,0,0,3.11-1.31A6.66,6.66,0,0,0,57.85,17a46.51,46.51,0,0,0,.31-5V9.67A46.51,46.51,0,0,0,57.85,4.68ZM34,17.56H31.9V5.62H29.72v-2h6.54v2H34V17.56Zm7.47,0h-2V16.42a2.92,2.92,0,0,1-2.07,1.29,1.24,1.24,0,0,1-1.24-.8A4.17,4.17,0,0,1,36,15.38V7.18h2v8.41a0.38,0.38,0,0,0,.42.4,1.66,1.66,0,0,0,1.14-.92V7.18h2V17.56Zm7.16-3.11a8,8,0,0,1-.21,2.08,1.54,1.54,0,0,1-1.55,1.17,2.67,2.67,0,0,1-2-1.18v1H43V3.65h1.87V8.19a2.69,2.69,0,0,1,2-1.17,1.52,1.52,0,0,1,1.5,1.21,7.28,7.28,0,0,1,.25,2.07v4.15ZM52.74,16a0.81,0.81,0,0,0,.84-0.75c0-.1,0-0.55,0-1.3h2v0.29a11.82,11.82,0,0,1-.07,1.22,2.68,2.68,0,0,1-.44,1.13,2.6,2.6,0,0,1-2.27,1.12,2.69,2.69,0,0,1-2.27-1.06,3.84,3.84,0,0,1-.66-2.39V10.61a4.17,4.17,0,0,1,.63-2.49A2.69,2.69,0,0,1,52.74,7,2.63,2.63,0,0,1,55,8.12a4.07,4.07,0,0,1,.61,2.44v2.12H51.83v1.86C51.82,15.5,52.1,16,52.74,16Z"/><path class="cls-1" d="M45.85,8.75a1.46,1.46,0,0,0-1,.47v6.29a1.45,1.45,0,0,0,1,.47c0.54,0,.79-0.4.79-1.44V10.09C46.64,9,46.4,8.75,45.85,8.75Z"/><path class="cls-1" d="M53.59,10c0-1-.25-1.25-0.87-1.25S51.83,9,51.83,10v1.15h1.76V10Z"/><path class="cls-1" d="M23.6,15.07a1.66,1.66,0,0,1-1.14.92,0.38,0.38,0,0,1-.42-0.4V7.08h-2v8.3a4.17,4.17,0,0,0,.22,1.52,1.24,1.24,0,0,0,1.24.8,2.92,2.92,0,0,0,2.07-1.29v1.14h2V7.08h-2v8Z"/><path class="cls-1" d="M15.82,7a2.49,2.49,0,0,0-2.18,1,4.16,4.16,0,0,0-.62,2.5v3.73a3.87,3.87,0,0,0,.6,2.41,2.75,2.75,0,0,0,2.21,1.09A2.78,2.78,0,0,0,18,16.65a3.92,3.92,0,0,0,.58-2.41V10.5A4.18,4.18,0,0,0,18,8,2.62,2.62,0,0,0,15.82,7Zm0,9c-0.61,0-.93-0.51-0.83-1.55V10.3c-0.1-1,.22-1.52.83-1.52s0.94,0.49.83,1.52v4.15C16.75,15.48,16.43,16,15.82,16Z"/><path class="cls-1" d="M11.25,3.55L9.8,9,8.34,3.55H6.16c0.44,1.3,2.59,8.3,2.59,8.3v5.71h2.08V11.85l2.59-8.3H11.25Z"/><path class="cls-1" d="M28.34,30.67H1.66A1.66,1.66,0,0,0,0,32.32V59a1.66,1.66,0,0,0,1.66,1.66H16V49H12.11V44.52H16V41.18c0-3.87,2.37-6,5.82-6a32.08,32.08,0,0,1,3.49.18v4h-2.4c-1.88,0-2.24.89-2.24,2.2v2.89h4.48L24.6,49H20.7V60.67h7.64A1.66,1.66,0,0,0,30,59V32.32A1.66,1.66,0,0,0,28.34,30.67Z"/><path class="cls-1" d="M70.89,41s0.53-10.22-9-10.16c-10.17.07-12.35,0-12.35,0s-7.92-.18-8.44,8c-0.29,8-.05,13-0.05,13s0,7.64,7.41,8.58c5.51,0.34,13.3.12,13.3,0.12s9.07,0,9.17-8.33C71.06,42.91,70.89,41,70.89,41ZM68,52.58c-0.28,5.07-5.52,5.08-5.52,5.08a132.1,132.1,0,0,1-14.24-.14c-4.72-.52-4.5-6.58-4.5-6.58s0-6.95.15-12.07c0.33-5.35,5.82-5.3,5.82-5.3s4.16-.14,11.54,0c7.19-.14,6.81,6.1,6.81,6.1S68.25,47.37,68,52.58Z"/><path class="cls-1" d="M55.88,38a7.66,7.66,0,1,0,7.66,7.66A7.66,7.66,0,0,0,55.88,38ZM55.94,50.6a5,5,0,1,1,5-5A5,5,0,0,1,55.94,50.6Z"/><circle class="cls-1" cx="63.91" cy="37.7" r="1.81"/></svg>