<svg id="Layer_1" data-name="Layer 1" xmlns="http://www.w3.org/2000/svg" viewBox="0 0 52 21.7"><defs><style>.cls-1{fill:#fff;}</style></defs><title>you-tube</title><path class="cls-1" d="M51.69,4.68a6.66,6.66,0,0,0-1.23-3.06A4.44,4.44,0,0,0,47.35.31C43,0,36.51,0,36.51,0h0S30,0,25.65.31a4.44,4.44,0,0,0-3.11,1.31,6.66,6.66,0,0,0-1.23,3.06,46.46,46.46,0,0,0-.31,5V12a46.45,46.45,0,0,0,.31,5,6.66,6.66,0,0,0,1.23,3.06A5.27,5.27,0,0,0,26,21.39c2.48,0.24,10.54.31,10.54,0.31s6.51,0,10.85-.32a4.44,4.44,0,0,0,3.11-1.31A6.66,6.66,0,0,0,51.69,17,46.51,46.51,0,0,0,52,12V9.67A46.51,46.51,0,0,0,51.69,4.68ZM27.82,17.56H25.74V5.62H23.56v-2H30.1v2H27.82V17.56Zm7.47,0h-2V16.42a2.92,2.92,0,0,1-2.07,1.29,1.24,1.24,0,0,1-1.24-.8,4.17,4.17,0,0,1-.22-1.52V7.18h2v8.41a0.38,0.38,0,0,0,.42.4,1.66,1.66,0,0,0,1.14-.92V7.18h2V17.56Zm7.16-3.11a8,8,0,0,1-.21,2.08,1.54,1.54,0,0,1-1.55,1.17,2.67,2.67,0,0,1-2-1.18v1H36.84V3.65h1.87V8.19A2.69,2.69,0,0,1,40.7,7a1.52,1.52,0,0,1,1.5,1.21,7.28,7.28,0,0,1,.25,2.07v4.15ZM46.58,16a0.81,0.81,0,0,0,.84-0.75c0-.1,0-0.55,0-1.3h2v0.29a11.82,11.82,0,0,1-.07,1.22,2.68,2.68,0,0,1-.44,1.13,2.6,2.6,0,0,1-2.27,1.12,2.69,2.69,0,0,1-2.27-1.06,3.84,3.84,0,0,1-.66-2.39V10.61a4.17,4.17,0,0,1,.63-2.49A2.69,2.69,0,0,1,46.58,7,2.63,2.63,0,0,1,48.8,8.12a4.07,4.07,0,0,1,.61,2.44v2.12H45.67v1.86C45.66,15.5,45.93,16,46.58,16Z"/><path class="cls-1" d="M39.69,8.75a1.46,1.46,0,0,0-1,.47v6.29a1.45,1.45,0,0,0,1,.47c0.54,0,.79-0.4.79-1.44V10.09C40.48,9,40.23,8.75,39.69,8.75Z"/><path class="cls-1" d="M47.43,10c0-1-.25-1.25-0.87-1.25S45.67,9,45.67,10v1.15h1.76V10Z"/><path class="cls-1" d="M17.44,15.07A1.66,1.66,0,0,1,16.3,16a0.38,0.38,0,0,1-.42-0.4V7.08h-2v8.3a4.17,4.17,0,0,0,.22,1.52,1.24,1.24,0,0,0,1.24.8,2.92,2.92,0,0,0,2.07-1.29v1.14h2V7.08h-2v8Z"/><path class="cls-1" d="M9.65,7A2.49,2.49,0,0,0,7.47,8a4.16,4.16,0,0,0-.62,2.5v3.73a3.87,3.87,0,0,0,.6,2.41,2.75,2.75,0,0,0,2.21,1.09,2.78,2.78,0,0,0,2.22-1.09,3.92,3.92,0,0,0,.58-2.41V10.5A4.18,4.18,0,0,0,11.83,8,2.62,2.62,0,0,0,9.65,7Zm0,9C9,16,8.72,15.48,8.82,14.45V10.3c-0.1-1,.22-1.52.83-1.52s0.94,0.49.83,1.52v4.15C10.59,15.48,10.26,16,9.65,16Z"/><path class="cls-1" d="M5.09,3.55L3.64,9,2.18,3.55H0c0.44,1.3,2.59,8.3,2.59,8.3v5.71H4.67V11.85l2.59-8.3H5.09Z"/></svg>