<svg xmlns="http://www.w3.org/2000/svg" viewBox="0 0 588.5 321"><defs><style>.cls-1,.cls-7{fill:none;stroke-miterlimit:10;}.cls-1{stroke:#fff;}.cls-2{font-size:13.11px;}.cls-11,.cls-2,.cls-3,.cls-4,.cls-8,.cls-9{fill:#fff;}.cls-10,.cls-2,.cls-3,.cls-5,.cls-8,.cls-9{font-family:Helvetica-Bold, Helvetica;font-weight:700;}.cls-10,.cls-3,.cls-5{font-size:8.44px;}.cls-6{letter-spacing:-0.02em;}.cls-7{stroke:#fec10d;}.cls-8,.cls-9{font-size:6.73px;}.cls-9{letter-spacing:0.14em;}.cls-10{fill:#fec10d;}.cls-11{opacity:0.25;}</style></defs><title>FB Shop Now Button</title><g id="Layer_2" data-name="Layer 2"><g id="Layer_1-2" data-name="Layer 1"><rect class="cls-1" x="128" y="14.5" width="447" height="169"/><circle class="cls-1" cx="65" cy="80.5" r="48.5"/><text class="cls-2" transform="translate(14.33 152.45)">Epiphany<tspan x="0" y="16.74">Candles</tspan></text><text class="cls-3" transform="translate(14.33 184.44)">@epiphanycandles</text><circle class="cls-4" cx="76" cy="165.5" r="5"/><polygon points="75.44 167.95 73.39 165.89 74.17 165.11 75.44 166.38 77.83 164 78.61 164.78 75.44 167.95"/><rect class="cls-1" x="128" y="183.5" width="447" height="29"/><rect class="cls-4" x="12" y="197.5" width="97" height="20"/><text class="cls-5" transform="translate(17.78 210.51)">Home</text><text class="cls-3" transform="translate(17.78 230.71)">Posts</text><text class="cls-3" transform="translate(17.78 250.91)">Photos</text><text class="cls-3" transform="translate(17.78 271.11)">About</text><text class="cls-3" transform="translate(17.78 291.31)">Shop</text><text class="cls-3" transform="translate(17.78 311.51)"><tspan class="cls-6">V</tspan><tspan x="5.48" y="0">ideos</tspan></text><rect class="cls-1" x="136" y="189.5" width="35.5" height="17"/><rect class="cls-1" x="171.5" y="189.5" width="40.5" height="17"/><rect class="cls-1" x="212" y="189.5" width="38.5" height="17"/><rect class="cls-7" x="394.5" y="190" width="70" height="17"/><polygon class="cls-1" points="556.5 207.21 469 207 469 190 556.5 190.21 556.5 207.21"/><rect class="cls-1" x="250.5" y="189.5" width="20" height="17"/><text class="cls-8" transform="translate(152.53 200.64)">Like</text><text class="cls-8" transform="translate(136.53 233.64)">Create Post</text><text class="cls-8" transform="translate(185.53 200.64)">Follow</text><text class="cls-8" transform="translate(225.53 200.64)">Share</text><text class="cls-9" transform="translate(256.53 199.64)">...</text><text class="cls-10" transform="translate(408.87 201.1)">Shop Now</text><text class="cls-3" transform="translate(488.63 201.31)">Send Message</text><polyline class="cls-1" points="128 320.5 128 220.27 406 220.27 406 320.5"/><rect class="cls-1" x="413.5" y="220" width="161" height="21.5"/><polyline class="cls-1" points="413.5 320.5 413.5 248 574.5 248 574.5 320.5"/><rect class="cls-1" x="0.5" y="0.5" width="587.5" height="320"/><line class="cls-1" x1="135.5" y1="241" x2="398.5" y2="241"/><circle class="cls-1" cx="150" cy="262.5" r="12.5"/><polyline class="cls-4" points="176.74 262 172.5 266.24 168.26 262"/><rect class="cls-4" x="142" y="197.5" width="2" height="3"/><polygon class="cls-4" points="147 197.5 149 197.5 149 198.5 148 200.5 145 200.5 145 197.5 146 196.5 146 194.5 147 194.5 147 197.5"/><line class="cls-1" x1="136.5" y1="294" x2="396.5" y2="294"/><rect class="cls-1" x="137.5" y="301" width="41" height="12" rx="3.88" ry="3.88"/><rect class="cls-1" x="182.5" y="301" width="41" height="12" rx="3.88" ry="3.88"/><rect class="cls-1" x="227.5" y="301" width="41" height="12" rx="3.88" ry="3.88"/><path class="cls-1" d="M176,197.5a3,3,0,0,1,3,3"/><path class="cls-1" d="M176,195.5a5,5,0,0,1,5,5"/><path class="cls-4" d="M176.5,199.5a.5.5,0,1,0,.5.5.5.5,0,0,0-.5-.5Z"/><polygon class="cls-4" points="219.5 193.17 222.33 196 219.5 198.83 219.5 193.17"/><path class="cls-4" d="M217,198.5a3,3,0,0,0,2.6,3,2,2,0,0,1,.4-4v-2A3,3,0,0,0,217,198.5Z"/><path class="cls-1" d="M480,194.5c-1.93,0-3.5,1.27-3.5,2.84a2.58,2.58,0,0,0,.92,1.91l-.48,2.25,2.56-1.35a4,4,0,0,0,.5,0c1.93,0,3.5-1.28,3.5-2.85S481.93,194.5,480,194.5Z"/><rect class="cls-11" x="191" y="255" width="85" height="7"/></g></g></svg>