<svg xmlns="http://www.w3.org/2000/svg" viewBox="0 0 142.39 202.79"><defs><style>.cls-1,.cls-5{font-size:7.58px;font-family:Helvetica-Bold, Helvetica;font-weight:700;}.cls-1,.cls-3{fill:#fec10d;}.cls-2,.cls-4{fill:none;stroke-miterlimit:10;}.cls-2{stroke:#fec10d;}.cls-4{stroke:#000;}</style></defs><title>Icon - Shoppable IG Pages</title><g id="Layer_2" data-name="Layer 2"><g id="Layer_1-2" data-name="Layer 1"><text class="cls-1" transform="translate(37.73 21.7)">brand.handle</text><rect class="cls-2" x="0.5" y="0.5" width="141.39" height="201.79"/><line class="cls-2" x1="0.08" y1="35.33" x2="141.39" y2="35.33"/><line class="cls-2" x1="0.08" y1="157.33" x2="141.39" y2="157.33"/><circle class="cls-3" cx="126.18" cy="18.27" r="1.04"/><circle class="cls-3" cx="129.36" cy="18.27" r="1.04"/><circle class="cls-3" cx="132.53" cy="18.27" r="1.04"/><circle class="cls-2" cx="19.39" cy="18" r="9.5"/><path class="cls-3" d="M18,178.32l-6.48-5.71a3.62,3.62,0,0,1-.7-2A4.09,4.09,0,0,1,14,166.74,4,4,0,0,1,17.45,168a4.22,4.22,0,0,1,3.73-1.58,4.34,4.34,0,0,1,3.45,4.24,3.63,3.63,0,0,1-.69,1.93ZM12.07,172,18,177.18,23.39,172a2.88,2.88,0,0,0,.47-1.38,3.49,3.49,0,0,0-2.8-3.3c-1.91-.34-3.28,1.6-3.29,1.62l-.29.41-.31-.4a3.42,3.42,0,0,0-3.06-1.33,3.23,3.23,0,0,0-2.54,3A2.62,2.62,0,0,0,12.07,172Z"/><path class="cls-2" d="M45.4,178.48l-1.08-3.81a5.18,5.18,0,1,0-4.5,2.61A5.07,5.07,0,0,0,42,176.8Z"/><rect class="cls-3" x="38.39" y="185" width="57" height="7"/><text class="cls-1" transform="translate(9.8 190.98)">Brand</text><polygon class="cls-2" points="57.51 170.15 66.39 168.26 64.5 177.14 62.62 172.03 57.51 170.15"/><rect class="cls-3" x="8.89" y="127.5" width="18" height="18" rx="9" ry="9"/><rect x="13.39" y="134" width="9" height="6"/><circle class="cls-4" cx="17.89" cy="134.5" r="1.5"/><rect class="cls-3" x="34.39" y="77" width="74" height="30" rx="2.54" ry="2.54"/><text class="cls-5" transform="translate(39.73 89.7)">Candle</text><text class="cls-5" transform="translate(39.73 100.7)">$12.00</text><polyline class="cls-4" points="67.72 96.01 70.05 98.34 67.72 100.66"/></g></g></svg>