<svg xmlns="http://www.w3.org/2000/svg" viewBox="0 0 177.82 110.55"><defs><style>.cls-1{fill:none;stroke:#fec10d;stroke-miterlimit:10;}.cls-2,.cls-3,.cls-4{fill:#fec10d;}.cls-3{font-size:9.69px;}.cls-3,.cls-4{font-family:Helvetica-Bold, Helvetica;font-weight:700;}.cls-4{font-size:7.58px;}.cls-5{letter-spacing:-0.05em;}.cls-6{letter-spacing:-0.02em;}.cls-7{letter-spacing:-0.07em;}</style></defs><title>Icon - Influencers</title><g id="Layer_2" data-name="Layer 2"><g id="Layer_1-2" data-name="Layer 1"><circle class="cls-1" cx="24.27" cy="24.27" r="23.77"/><rect class="cls-1" x="59.5" y="29.19" width="96.55" height="16.53" rx="0.93" ry="0.93"/><rect class="cls-1" x="160.5" y="29.19" width="16.82" height="16.53" rx="0.93" ry="0.93"/><rect class="cls-2" x="2.84" y="75.43" width="33.98" height="8.12"/><rect class="cls-2" x="2.84" y="104.43" width="76.98" height="6.12"/><text class="cls-3" transform="translate(4.16 67.25)">Influencer</text><text class="cls-4" transform="translate(4.16 98.25)">Candle Influence<tspan class="cls-5" x="60.67" y="0">r</tspan><tspan x="63.21" y="0">, New</tspan><tspan class="cls-6" x="83.01" y="0"> </tspan><tspan class="cls-7" x="84.98" y="0">Y</tspan><tspan x="89.48" y="0">ork City</tspan></text><text class="cls-4" transform="translate(62.26 20.74)">posts</text><text class="cls-3" transform="translate(60.25 10.25)">2,785</text><text class="cls-4" transform="translate(96.51 20.74)">followers</text><text class="cls-3" transform="translate(103.71 11.25)">5.2k</text><text class="cls-4" transform="translate(137.29 20.74)">following</text><text class="cls-3" transform="translate(145.83 10.25)">813</text><circle class="cls-2" cx="59.85" cy="63.96" r="4.97"/><polygon points="59.3 66.4 57.25 64.35 58.03 63.57 59.3 64.84 61.66 62.47 62.45 63.25 59.3 66.4"/></g></g></svg>