<svg xmlns="http://www.w3.org/2000/svg" xmlns:xlink="http://www.w3.org/1999/xlink" viewBox="0 0 208.82 461.5"><defs><style>.cls-1,.cls-10,.cls-2,.cls-5,.cls-8,.cls-9{stroke:#fff;}.cls-1,.cls-10,.cls-13,.cls-15,.cls-2,.cls-5,.cls-8,.cls-9{stroke-miterlimit:10;}.cls-1,.cls-10,.cls-8,.cls-9{stroke-width:4px;}.cls-13,.cls-15,.cls-2,.cls-5,.cls-8,.cls-9{fill:none;}.cls-3{font-size:9.69px;fill:#fff;}.cls-11,.cls-12,.cls-16,.cls-3{font-family:Helvetica-Bold, Helvetica;font-weight:700;}.cls-4{letter-spacing:-0.05em;}.cls-13,.cls-5{stroke-width:2px;}.cls-6{opacity:0.25;}.cls-7{clip-path:url(#clip-path);}.cls-10,.cls-9{stroke-linecap:round;}.cls-11{font-size:13px;}.cls-11,.cls-12,.cls-14,.cls-16{fill:#fec10d;}.cls-12{font-size:10.6px;}.cls-13{stroke:#fec10d;}.cls-15{stroke:#000;}.cls-16{font-size:7.58px;}</style><clipPath id="clip-path"><ellipse class="cls-1" cx="107.71" cy="157.17" rx="49.82" ry="21.86"/></clipPath></defs><title>Influencers 2</title><g id="Layer_2" data-name="Layer 2"><g id="Layer_1-2" data-name="Layer 1"><rect class="cls-2" x="8.73" y="53.17" width="191.35" height="342.89"/><rect class="cls-2" x="0.5" y="0.5" width="207.82" height="460.5" rx="29.31" ry="29.31"/><text class="cls-3" transform="translate(49.96 80.7)">love.you<tspan class="cls-4" x="39.32" y="0">r</tspan><tspan x="42.57" y="0" xml:space="preserve">.candle  7h</tspan></text><circle class="cls-2" cx="104.41" cy="428.53" r="18.3"/><rect class="cls-2" x="73.71" y="28.84" width="61.4" height="5.9" rx="2.5" ry="2.5"/><circle class="cls-2" cx="55.55" cy="31.2" r="2.36"/><circle class="cls-2" cx="28.12" cy="77.5" r="11"/><line class="cls-5" x1="13.12" y1="58.5" x2="128.62" y2="58.5"/><g class="cls-6"><path class="cls-1" d="M157.53,157.17h0c0,12.08-22.31,21.86-49.82,21.86s-49.82-9.78-49.82-21.85V279.91a7.16,7.16,0,0,0,0,1.23C58.78,292.79,85.45,303,107.71,303c27.51,0,49.82-9.79,49.82-21.86a10.18,10.18,0,0,0-.09-1.23C157.47,188.41,157.5,248.68,157.53,157.17Z"/><ellipse cx="107.71" cy="157.17" rx="49.82" ry="21.86"/><g class="cls-7"><ellipse class="cls-1" cx="107.71" cy="175.17" rx="49.82" ry="21.86"/></g><ellipse class="cls-8" cx="107.71" cy="157.17" rx="49.82" ry="21.86"/><rect class="cls-1" x="84.19" y="208" width="47" height="62"/><line class="cls-9" x1="114.62" y1="160" x2="114.62" y2="168"/><path class="cls-10" d="M124,141c.17,7.87-4.36,17-8.92,17s-9.09-9.13-8.93-17c.21-9.72,7.57-15.9,8.93-17C116.48,125.1,123.84,131.28,124,141Z"/></g><text class="cls-11" transform="translate(26.75 311.67) rotate(-20.69)">swipe up for discount code!</text><text class="cls-12" transform="translate(26.23 235.65) rotate(-1.18)">@epiphanycandles</text><line class="cls-13" x1="27.48" y1="240.49" x2="122.48" y2="240.49"/><circle class="cls-14" cx="104.41" cy="358.75" r="9.25"/><polyline class="cls-15" points="100.24 360.05 104.43 357 108.61 360.05"/><text class="cls-16" transform="translate(87.55 382.63)">See More</text></g></g></svg>