<svg xmlns="http://www.w3.org/2000/svg" xmlns:xlink="http://www.w3.org/1999/xlink" viewBox="0 0 220.36 461.5"><defs><style>.cls-1,.cls-2{fill:none;}.cls-2,.cls-3{stroke:#fff;stroke-miterlimit:10;}.cls-12,.cls-4,.cls-5,.cls-7{fill:#fff;}.cls-4{opacity:0.25;}.cls-5{font-size:9.69px;}.cls-5,.cls-7{font-family:Helvetica-Bold, Helvetica;font-weight:700;}.cls-6{letter-spacing:-0.05em;}.cls-7{font-size:7.58px;}.cls-8{letter-spacing:-0.05em;}.cls-9{letter-spacing:0em;}.cls-10{letter-spacing:-0.02em;}.cls-11{letter-spacing:-0.07em;}.cls-13{clip-path:url(#clip-path);}</style><clipPath id="clip-path"><rect class="cls-1" x="183.62" y="216" width="16" height="48"/></clipPath></defs><title>Influencers 1</title><g id="Layer_2" data-name="Layer 2"><g id="Layer_1-2" data-name="Layer 1"><rect class="cls-2" x="8.73" y="53.17" width="191.35" height="342.89"/><rect class="cls-2" x="0.5" y="0.5" width="207.82" height="460.5" rx="29.31" ry="29.31"/><circle class="cls-2" cx="104.41" cy="428.53" r="18.3"/><rect class="cls-2" x="73.71" y="28.84" width="61.4" height="5.9" rx="2.5" ry="2.5"/><circle class="cls-2" cx="55.55" cy="31.2" r="2.36"/><line class="cls-2" x1="8.31" y1="84.33" x2="200.78" y2="84.33"/><polyline class="cls-2" points="28.39 73.98 23.28 68.87 28.39 63.76"/><circle class="cls-3" cx="40.08" cy="117.73" r="23.77"/><rect class="cls-2" x="75.3" y="122.64" width="96.55" height="16.53" rx="0.93" ry="0.93"/><rect class="cls-2" x="176.3" y="122.64" width="16.82" height="16.53" rx="0.93" ry="0.93"/><rect class="cls-4" x="18.64" y="168.88" width="33.98" height="8.12"/><rect class="cls-4" x="18.64" y="197.88" width="76.98" height="6.12"/><text class="cls-5" transform="translate(66.56 71.7)">love.you<tspan class="cls-6" x="39.32" y="0">r</tspan><tspan x="42.57" y="0">.candle</tspan></text><text class="cls-5" transform="translate(19.96 160.7)">Candace Lee</text><text class="cls-7" transform="translate(19.96 191.7)">Candle connoisseu<tspan class="cls-8" x="69.52" y="0">r</tspan><tspan class="cls-9" x="72.05" y="0">, New</tspan><tspan class="cls-10" x="91.86" y="0"> </tspan><tspan class="cls-11" x="93.83" y="0">Y</tspan><tspan x="98.33" y="0" xml:space="preserve">ork City  </tspan></text><text class="cls-7" transform="translate(78.07 114.19)">posts</text><text class="cls-5" transform="translate(76.05 103.7)">2,785</text><text class="cls-7" transform="translate(112.31 114.19)">followers</text><text class="cls-5" transform="translate(119.52 104.7)">5.2k</text><text class="cls-7" transform="translate(153.09 114.19)">following</text><text class="cls-5" transform="translate(161.64 103.7)">813</text><circle class="cls-12" cx="179.33" cy="68.87" r="1.48"/><circle class="cls-12" cx="183.83" cy="68.87" r="1.48"/><circle class="cls-12" cx="188.33" cy="68.87" r="1.48"/><line class="cls-2" x1="8.9" y1="271.3" x2="199.62" y2="271.3"/><line class="cls-2" x1="8.9" y1="297.3" x2="199.62" y2="297.3"/><line class="cls-2" x1="8.9" y1="370.3" x2="199.62" y2="370.3"/><line class="cls-2" x1="72.78" y1="297.5" x2="72.78" y2="370.69"/><line class="cls-2" x1="136.45" y1="297.8" x2="136.45" y2="371"/><line class="cls-2" x1="7.9" y1="360.3" x2="198.62" y2="360.3"/><rect class="cls-4" x="18.39" y="253.88" width="31.98" height="5.12"/><circle class="cls-2" cx="34.37" cy="232.5" r="14"/><rect class="cls-4" x="61.05" y="253.88" width="31.98" height="5.12"/><circle class="cls-2" cx="77.04" cy="232.5" r="14"/><rect class="cls-4" x="103.72" y="253.88" width="31.98" height="5.12"/><circle class="cls-2" cx="119.71" cy="232.5" r="14"/><rect class="cls-4" x="146.39" y="253.88" width="31.98" height="5.12"/><circle class="cls-2" cx="162.37" cy="232.5" r="14"/><g class="cls-13"><rect class="cls-4" x="188.39" y="253.88" width="31.98" height="5.12"/><circle class="cls-2" cx="204.37" cy="232.5" r="14"/></g><circle class="cls-12" cx="89.65" cy="157.42" r="4.97"/><polygon points="89.1 159.85 87.05 157.81 87.83 157.03 89.1 158.29 91.47 155.92 92.25 156.7 89.1 159.85"/></g></g></svg>