<?xml version="1.0" encoding="UTF-8"?>
<svg width="41px" height="41px" viewBox="0 0 41 41" version="1.1" xmlns="http://www.w3.org/2000/svg" xmlns:xlink="http://www.w3.org/1999/xlink">
    <!-- Generator: Sketch 52.6 (67491) - http://www.bohemiancoding.com/sketch -->
    <title>Group 3 Copy</title>
    <desc>Created with Sketch.</desc>
    <defs>
        <polygon id="path-1" points="1.3846576e-06 0.387895438 40.9998985 0.387895438 40.9998985 40.6451613 1.3846576e-06 40.6451613"></polygon>
    </defs>
    <g id="Page-1" stroke="none" stroke-width="1" fill="none" fill-rule="evenodd">
        <g id="Home" transform="translate(-884.000000, -512.000000)">
            <g id="Group-3-Copy" transform="translate(884.000000, 512.000000)">
                <g id="Group">
                    <mask id="mask-2" fill="white">
                        <use xlink:href="#path-1"></use>
                    </mask>
                    <g id="Clip-2"></g>
                    <path d="M36.8726667,29.8872 C36.4913667,36.7548774 29.3273,36.767071 29.3273,36.767071 C29.3273,36.767071 16.4177667,37.2886839 9.86323333,36.5746839 C3.4194,35.8715226 3.7105,27.6666194 3.7105,27.6666194 C3.7105,27.6666194 3.69546667,18.2518452 3.9114,11.3164258 C4.36376667,4.07345806 11.8681333,4.13713548 11.8681333,4.13713548 C11.8681333,4.13713548 17.5589333,3.94474839 27.6463,4.07345806 C37.4753667,3.88107097 36.9574,12.3433935 36.9574,12.3433935 C36.9574,12.3433935 37.2635333,22.8284903 36.8726667,29.8872 M40.8619667,14.1561677 C40.8619667,14.1561677 41.5863,0.304296774 28.6016,0.393716129 C14.7053333,0.491264516 11.7301,0.388296774 11.7301,0.388296774 C11.7301,0.388296774 0.903366667,0.1512 0.1968,11.2026194 C-0.1968,22.0982323 0.121633333,28.7559097 0.121633333,28.7559097 C0.121633333,28.7559097 0.121633333,39.1095871 10.2445333,40.3844903 C17.7803333,40.8519097 28.4225667,40.5484258 28.4225667,40.5484258 C28.4225667,40.5484258 40.8223333,40.4833935 40.9521667,29.2666839 C41.0984,16.7777806 40.8619667,14.1561677 40.8619667,14.1561677" id="Fill-1" fill="#FFFFFF" mask="url(#mask-2)"></path>
                    <path d="M20.43194,27.1954065 C16.68454,27.1954065 13.64644,24.1836 13.64644,20.4686323 C13.64644,16.7536645 16.68454,13.7418581 20.43194,13.7418581 C24.17934,13.7418581 27.21744,16.7536645 27.21744,20.4686323 C27.21744,24.1836 24.17934,27.1954065 20.43194,27.1954065 M20.35404,10.0675355 C14.5757733,10.0675355 9.89084,14.7105677 9.89084,20.4401806 C9.89084,26.1684387 14.5757733,30.811471 20.35404,30.811471 C26.1323067,30.811471 30.81724,26.1684387 30.81724,20.4401806 C30.81724,14.7105677 26.1323067,10.0675355 20.35404,10.0675355" id="Fill-4" fill="#FFFFFF" mask="url(#mask-2)"></path>
                    <path d="M33.7923367,9.7280129 C33.7923367,11.0814968 32.6853367,12.1789161 31.3200367,12.1789161 C29.9547367,12.1789161 28.8491033,11.0814968 28.8491033,9.7280129 C28.8491033,8.37452903 29.9547367,7.27710968 31.3200367,7.27710968 C32.6853367,7.27710968 33.7923367,8.37452903 33.7923367,9.7280129" id="Fill-6" fill="#FFFFFF" mask="url(#mask-2)"></path>
                </g>
            </g>
        </g>
    </g>
</svg>