<svg xmlns="http://www.w3.org/2000/svg" viewBox="0 0 208.82 461.5"><defs><style>.cls-1{fill:none;stroke:#fff;stroke-miterlimit:10;}.cls-2{font-size:9.69px;}.cls-2,.cls-3,.cls-4,.cls-5{fill:#fff;}.cls-2,.cls-5{font-family:Helvetica-Bold, Helvetica;font-weight:700;}.cls-4{opacity:0.25;}.cls-5{font-size:7.58px;}</style></defs><title>Shoppable IG 2</title><g id="Layer_2" data-name="Layer 2"><g id="Layer_1-2" data-name="Layer 1"><rect class="cls-1" x="8.73" y="53.17" width="191.35" height="342.89"/><rect class="cls-1" x="0.5" y="0.5" width="207.82" height="460.5" rx="29.31" ry="29.31"/><circle class="cls-1" cx="104.41" cy="428.53" r="18.3"/><rect class="cls-1" x="73.71" y="28.84" width="61.4" height="5.9" rx="2.5" ry="2.5"/><circle class="cls-1" cx="55.55" cy="31.2" r="2.36"/><line class="cls-1" x1="8.31" y1="84.33" x2="200.78" y2="84.33"/><polyline class="cls-1" points="28.39 73.98 23.28 68.87 28.39 63.76"/><text class="cls-2" transform="translate(63.96 71.7)">epiphanycandles</text><circle class="cls-3" cx="179.33" cy="68.87" r="1.48"/><circle class="cls-3" cx="183.83" cy="68.87" r="1.48"/><circle class="cls-3" cx="188.33" cy="68.87" r="1.48"/><rect class="cls-1" x="18.12" y="95.5" width="83" height="89.5" rx="5.9" ry="5.9"/><rect class="cls-1" x="108.12" y="95.5" width="83" height="89.5" rx="5.9" ry="5.9"/><rect class="cls-1" x="17.12" y="192.5" width="26" height="26"/><rect class="cls-4" x="49.62" y="193.5" width="41.5" height="7.5"/><rect class="cls-4" x="49.62" y="205.5" width="28" height="4.5"/><rect class="cls-1" x="107.12" y="192.5" width="26" height="26"/><rect class="cls-1" x="18.12" y="234.5" width="83" height="89.5" rx="5.9" ry="5.9"/><rect class="cls-1" x="108.12" y="234.5" width="83" height="89.5" rx="5.9" ry="5.9"/><path class="cls-1" d="M18.12,396.23V380.4a5.9,5.9,0,0,1,5.9-5.9h71.2a5.9,5.9,0,0,1,5.9,5.9v15.83"/><path class="cls-1" d="M108.12,396V380.4a5.9,5.9,0,0,1,5.9-5.9h71.2a5.9,5.9,0,0,1,5.9,5.9v15.83"/><rect class="cls-1" x="17.12" y="331.5" width="26" height="26"/><rect class="cls-4" x="49.62" y="332.5" width="41.5" height="7.5"/><rect class="cls-4" x="49.62" y="344.5" width="28" height="4.5"/><rect class="cls-1" x="107.12" y="331.5" width="26" height="26"/><rect class="cls-4" x="139.62" y="332.5" width="41.5" height="7.5"/><rect class="cls-4" x="139.62" y="344.5" width="28" height="4.5"/><text class="cls-5" transform="translate(138.96 198.7)">Moonchild<tspan x="0" y="9.1">Candle</tspan></text><text class="cls-5" transform="translate(138.96 218.7)">$12.00</text></g></g></svg>