<svg xmlns="http://www.w3.org/2000/svg" viewBox="0 0 208.82 461.5"><defs><style>.cls-1{fill:none;}.cls-1,.cls-2{stroke:#fff;stroke-miterlimit:10;}.cls-3,.cls-4,.cls-5,.cls-6{fill:#fff;}.cls-4{opacity:0.25;}.cls-5{font-size:9.69px;}.cls-5,.cls-6,.cls-7{font-family:Helvetica-Bold, Helvetica;font-weight:700;}.cls-6,.cls-7{font-size:7.58px;}.cls-7{fill:#fec10d;}</style></defs><title>Shoppable IG 1</title><g id="Layer_2" data-name="Layer 2"><g id="Layer_1-2" data-name="Layer 1"><rect class="cls-1" x="8.73" y="53.17" width="191.35" height="342.89"/><rect class="cls-1" x="0.5" y="0.5" width="207.82" height="460.5" rx="29.31" ry="29.31"/><circle class="cls-1" cx="104.41" cy="428.53" r="18.3"/><rect class="cls-1" x="73.71" y="28.84" width="61.4" height="5.9" rx="2.5" ry="2.5"/><circle class="cls-1" cx="55.55" cy="31.2" r="2.36"/><line class="cls-1" x1="8.31" y1="84.33" x2="200.78" y2="84.33"/><polyline class="cls-1" points="28.39 73.98 23.28 68.87 28.39 63.76"/><circle class="cls-2" cx="40.08" cy="117.73" r="23.77"/><circle class="cls-3" cx="113.65" cy="157.42" r="4.97"/><polygon points="113.1 159.85 111.05 157.81 111.83 157.03 113.1 158.29 115.47 155.92 116.25 156.7 113.1 159.85"/><rect class="cls-1" x="75.3" y="122.64" width="96.55" height="16.53" rx="0.93" ry="0.93"/><rect class="cls-1" x="176.3" y="122.64" width="16.82" height="16.53" rx="0.93" ry="0.93"/><rect class="cls-4" x="18.64" y="168.88" width="33.98" height="8.12"/><rect class="cls-4" x="18.64" y="201.88" width="76.98" height="6.12"/><text class="cls-5" transform="translate(63.96 71.7)">epiphanycandles</text><text class="cls-5" transform="translate(19.96 160.7)">Epiphany Candles</text><text class="cls-6" transform="translate(19.96 191.7)">Find your light. #thecandlesyoushouldlove</text><text class="cls-6" transform="translate(78.07 114.19)">posts</text><text class="cls-5" transform="translate(76.05 103.7)">2,013</text><text class="cls-6" transform="translate(112.31 114.19)">followers</text><text class="cls-5" transform="translate(120.86 104.7)">17k</text><text class="cls-6" transform="translate(153.09 114.19)">following</text><text class="cls-5" transform="translate(167.03 103.7)">7</text><circle class="cls-3" cx="179.33" cy="68.87" r="1.48"/><circle class="cls-3" cx="183.83" cy="68.87" r="1.48"/><circle class="cls-3" cx="188.33" cy="68.87" r="1.48"/><line class="cls-1" x1="8.9" y1="226.14" x2="199.62" y2="226.14"/><line class="cls-1" x1="8.9" y1="249.3" x2="199.62" y2="249.3"/><line class="cls-1" x1="8.9" y1="275.3" x2="199.62" y2="275.3"/><line class="cls-1" x1="8.9" y1="370.3" x2="199.62" y2="370.3"/><text class="cls-7" transform="translate(34.46 240.9)">Shop</text><text class="cls-6" transform="translate(151.32 240.9)">Email</text><text class="cls-6" transform="translate(97.26 240.9)">Call</text><line class="cls-1" x1="75.6" y1="232" x2="75.6" y2="243"/><line class="cls-1" x1="132.82" y1="232" x2="132.82" y2="243"/><line class="cls-1" x1="72.78" y1="275.5" x2="72.78" y2="369.61"/><line class="cls-1" x1="136.45" y1="275.89" x2="136.45" y2="370"/><line class="cls-1" x1="8.9" y1="338.3" x2="199.62" y2="338.3"/></g></g></svg>