<svg xmlns="http://www.w3.org/2000/svg" viewBox="0 0 436 271"><defs><style>.cls-1{stroke:#fec10d;}.cls-1,.cls-4{stroke-miterlimit:10;}.cls-2{font-size:5.46px;}.cls-10,.cls-2,.cls-3,.cls-5{fill:#fff;}.cls-2,.cls-3,.cls-5{font-family:Helvetica-Bold, Helvetica;font-weight:700;}.cls-3{font-size:8.44px;}.cls-4{fill:none;stroke:#fff;}.cls-5{font-size:6.73px;}.cls-6{letter-spacing:-0.02em;}.cls-7{letter-spacing:0em;}.cls-8{letter-spacing:-0.04em;}.cls-9{letter-spacing:-0.07em;}</style></defs><title>Shoppable FB 4</title><g id="Layer_2" data-name="Layer 2"><g id="Layer_1-2" data-name="Layer 1"><rect class="cls-1" x="0.5" y="0.5" width="435" height="270"/><text class="cls-2" transform="translate(267.33 55.38)">Epiphany Candles</text><text class="cls-2" transform="translate(284.37 112.38)">This will take you to store.epiphanycandles.com</text><text class="cls-2" transform="translate(269.37 146.38)">Product Details</text><text class="cls-3" transform="translate(269.33 71.38)">$12.00</text><line class="cls-4" y1="21.5" x2="436" y2="21.5"/><text class="cls-5" transform="translate(10.53 14.14)">Moonchild Candle</text><text class="cls-5" transform="translate(311.34 94.28)">Check Out on <tspan class="cls-6" x="45.62" y="0">W</tspan><tspan class="cls-7" x="51.86" y="0">ebsite</tspan></text><text class="cls-3" transform="translate(268.53 45.14)">Moonchild Candle</text><rect class="cls-4" x="13.5" y="39.5" width="20" height="20"/><rect class="cls-4" x="38.5" y="39.5" width="219" height="219"/><line class="cls-4" x1="269" y1="129.5" x2="425" y2="129.5"/><line class="cls-4" x1="269" y1="206.5" x2="425" y2="206.5"/><line class="cls-4" x1="269" y1="227.5" x2="425" y2="227.5"/><text class="cls-5" transform="translate(269.36 159.03)"><tspan class="cls-8">A</tspan><tspan x="4.61" y="0" xml:space="preserve"> woods</tspan><tspan class="cls-9" x="27.8" y="0">y</tspan><tspan x="31.04" y="0">, sophisticated scent from our Crystal </tspan><tspan x="0" y="10.08">Snow collection to light your winter nights.</tspan></text><text class="cls-2" transform="translate(398.53 198.14)">42 Shares</text><text class="cls-5" transform="translate(295.53 219.29)">Like</text><text class="cls-5" transform="translate(375.53 219.29)">Comment</text><rect class="cls-10" x="285" y="216.16" width="2" height="3"/><polygon class="cls-10" points="290 216.16 292 216.16 292 217.16 291 219.16 288 219.16 288 216.16 289 215.16 289 213.16 290 213.16 290 216.16"/><polygon class="cls-10" points="372 218 368.81 218 367 220 367.46 218 366 218 366 214 372 214 372 218"/><rect class="cls-4" x="268.5" y="83.5" width="157" height="17" rx="3.75" ry="3.75"/><line class="cls-4" x1="422.5" y1="11.11" x2="426" y2="14.61"/><line class="cls-4" x1="426" y1="11.11" x2="422.5" y2="14.61"/></g></g></svg>