<svg xmlns="http://www.w3.org/2000/svg" viewBox="0 0 208.82 461.5"><defs><style>.cls-1,.cls-7{font-size:9.69px;}.cls-1{fill:#fff;}.cls-1,.cls-4,.cls-7{font-family:Helvetica-Bold, Helvetica;font-weight:700;}.cls-2,.cls-3,.cls-6{fill:none;}.cls-2,.cls-3{stroke:#fff;}.cls-2,.cls-3,.cls-6,.cls-8{stroke-miterlimit:10;}.cls-3{stroke-width:2px;}.cls-4{font-size:7.58px;}.cls-4,.cls-7{fill:#fec10d;}.cls-5{letter-spacing:-0.07em;}.cls-6,.cls-8{stroke:#fec10d;}</style></defs><title>Stories 3</title><g id="Layer_2" data-name="Layer 2"><g id="Layer_1-2" data-name="Layer 1"><text class="cls-1" transform="translate(49.96 80.7)">Epiphany Candles</text><rect class="cls-2" x="8.73" y="53.17" width="191.35" height="342.89"/><rect class="cls-2" x="0.5" y="0.5" width="207.82" height="460.5" rx="29.31" ry="29.31"/><circle class="cls-2" cx="104.41" cy="428.53" r="18.3"/><rect class="cls-2" x="73.71" y="28.84" width="61.4" height="5.9" rx="2.5" ry="2.5"/><circle class="cls-2" cx="55.55" cy="31.2" r="2.36"/><circle class="cls-2" cx="28.12" cy="77.5" r="11"/><line class="cls-3" x1="13.12" y1="58.5" x2="192.62" y2="58.5"/><text class="cls-4" transform="translate(73.67 255.63)"><tspan class="cls-5">T</tspan><tspan x="4.07" y="0">ype something...</tspan></text><rect class="cls-6" x="27.12" y="182.69" width="154" height="97" rx="4.79" ry="4.79"/><text class="cls-7" transform="translate(61.03 221.42)">Ask us a question!</text><path d="M45.9,244.19a1.52,1.52,0,0,1,0-3h99.43a1.52,1.52,0,0,1,0,3Z"/><circle class="cls-8" cx="104.12" cy="183.69" r="18"/><rect class="cls-6" x="45.12" y="239.69" width="121" height="27" rx="4.08" ry="4.08"/></g></g></svg>