<svg xmlns="http://www.w3.org/2000/svg" viewBox="0 0 208.82 461.5"><defs><style>.cls-1,.cls-5{font-size:9.69px;font-family:Helvetica-Bold, Helvetica;font-weight:700;}.cls-1{fill:#fff;}.cls-2,.cls-3,.cls-4{fill:none;}.cls-2,.cls-3{stroke:#fff;}.cls-2,.cls-3,.cls-4,.cls-6,.cls-7{stroke-miterlimit:10;}.cls-3{stroke-width:2px;}.cls-4,.cls-6,.cls-7{stroke:#fec10d;}.cls-5,.cls-6{fill:#fec10d;}</style></defs><title>Stories 2</title><g id="Layer_2" data-name="Layer 2"><g id="Layer_1-2" data-name="Layer 1"><text class="cls-1" transform="translate(49.96 80.7)">Epiphany Candles</text><rect class="cls-2" x="8.73" y="53.17" width="191.35" height="342.89"/><rect class="cls-2" x="0.5" y="0.5" width="207.82" height="460.5" rx="29.31" ry="29.31"/><circle class="cls-2" cx="104.41" cy="428.53" r="18.3"/><rect class="cls-2" x="73.71" y="28.84" width="61.4" height="5.9" rx="2.5" ry="2.5"/><circle class="cls-2" cx="55.55" cy="31.2" r="2.36"/><circle class="cls-2" cx="28.12" cy="77.5" r="11"/><line class="cls-3" x1="13.12" y1="58.5" x2="128.62" y2="58.5"/><rect class="cls-4" x="27.12" y="177.19" width="154" height="91" rx="4.79" ry="4.79"/><text class="cls-5" transform="translate(52.95 199.92)">How much do you like <tspan x="21" y="13.63">our candles?</tspan></text><rect class="cls-4" x="43.62" y="234.69" width="121" height="5" rx="2.5" ry="2.5"/><path class="cls-6" d="M45.9,238.69a1.52,1.52,0,0,1,0-3h99.43a1.52,1.52,0,0,1,0,3Z"/><circle class="cls-7" cx="145.62" cy="236.69" r="8.5"/><path class="cls-4" d="M142.62,235a1.26,1.26,0,0,1,1.47-.28,1.07,1.07,0,0,1,.59.89c0,.3-.2.5-.89,1.17l-1.19,1.1-1.17-1.12c-.69-.67-.87-.88-.87-1.18a1.08,1.08,0,0,1,.59-.88A1.26,1.26,0,0,1,142.62,235Z"/><path class="cls-4" d="M148.62,235a1.26,1.26,0,0,1,1.47-.28,1.07,1.07,0,0,1,.59.89c0,.3-.2.5-.89,1.17l-1.19,1.1-1.17-1.12c-.69-.67-.87-.88-.87-1.18a1.08,1.08,0,0,1,.59-.88A1.26,1.26,0,0,1,148.62,235Z"/></g></g></svg>