<svg xmlns="http://www.w3.org/2000/svg" viewBox="0 0 247.88 199.16"><defs><style>.cls-1{fill:#fff;}.cls-2{stroke:#fff;stroke-miterlimit:10;}</style></defs><title>Knife</title><g id="Layer_2" data-name="Layer 2"><g id="Layer_1-2" data-name="Layer 1"><path class="cls-1" d="M77.08,40.34,8.55.77A5.7,5.7,0,0,0,0,5.71v18.5a9.91,9.91,0,0,0,4.94,8.56c18,.86,28.47,6.55,34.69,11.6,4.58,3.73,6.24,6.59,12.3,12.3A110.05,110.05,0,0,0,77.08,74.42Z"/><path class="cls-2" d="M239.53,160.28C227,132,203.11,119,175.38,102.58,151.53,88.47,117.55,67.57,75.6,39V94.84L247.38,198.27A94.3,94.3,0,0,0,239.53,160.28Z"/></g></g></svg>