<svg xmlns="http://www.w3.org/2000/svg" xmlns:xlink="http://www.w3.org/1999/xlink" viewBox="0 0 255.42 476.35"><defs><style>.cls-1{opacity:0.5;fill:url(#linear-gradient);}.cls-2{stroke:#fff;stroke-miterlimit:10;}.cls-3{fill:url(#linear-gradient-2);}</style><linearGradient id="linear-gradient" x1="44.74" y1="224.97" x2="254.56" y2="224.97" gradientUnits="userSpaceOnUse"><stop offset="0" stop-color="#fff"/><stop offset="1"/></linearGradient><linearGradient id="linear-gradient-2" x1="0.42" y1="72.68" x2="253.23" y2="72.68" gradientUnits="userSpaceOnUse"><stop offset="0" stop-color="#fff"/><stop offset="1" stop-color="#009ad7"/></linearGradient></defs><title>Bookshelf</title><g id="Layer_2" data-name="Layer 2"><g id="Layer_1-2" data-name="Layer 1"><path class="cls-1" d="M44.74.86,253.23,119.49l1.33,329.58L46.07,329.74"/><path class="cls-2" d="M45.72,330.44,44.4.86.5,26.16,1.83,355.71Z"/><path class="cls-2" d="M254.64,450.23l-43.9,25.26L1.83,355.71l43.89-25.27"/><path class="cls-2" d="M255.17,340.13l-43.9,25.27L2.36,245.61l43.89-25.26L255.17,340.13"/><path class="cls-2" d="M254.64,230l-43.9,25.26L1.83,135.52l43.89-25.27L254.64,230"/><path class="cls-3" d="M253.23,119.94l-43.89,25.27L.42,25.42,44.32.16Z"/><path class="cls-2" d="M254.64,450.23l-1.33-329.58-43.89,25.29,1.32,329.55Z"/></g></g></svg>