<svg xmlns="http://www.w3.org/2000/svg" xmlns:xlink="http://www.w3.org/1999/xlink" viewBox="0 0 215.33 328.32"><defs><style>.cls-1,.cls-3{stroke:#fff;stroke-miterlimit:10;}.cls-2,.cls-3{fill:none;}.cls-4{opacity:0.5;fill:url(#linear-gradient);}</style><linearGradient id="linear-gradient" y1="164.16" x2="215.33" y2="164.16" gradientUnits="userSpaceOnUse"><stop offset="0" stop-color="#fff"/><stop offset="1"/></linearGradient></defs><title>Clothing Rack</title><g id="Layer_2" data-name="Layer 2"><g id="Layer_1-2" data-name="Layer 1"><path class="cls-1" d="M63.57,22.83a10.09,10.09,0,0,0-3.21.38l-5,2.89L28.66,41.05a16,16,0,0,0-7.9,13.4v74.61L25.59,131l45.73-26.4V28.68a7.5,7.5,0,0,0-1.71-3.32A8.52,8.52,0,0,0,63.57,22.83Z"/><polygon class="cls-2" points="49.03 51.67 55.96 38.81 42.25 46.44 49.03 51.67"/><path class="cls-1" d="M59.59,29.18,49.25,34.94c0-2.91.09-2.92.14-5.82,4.71-2.79,7.72-5,7.82-11.69.11-6.95-4.43-12.68-10.12-12.77s-10.4,5.5-10.51,12.45l5.4-3a6.37,6.37,0,0,1,1.57-3A5.48,5.48,0,0,1,47,9.25c2.67-.14,4.9,2.69,5.65,5.05a8.36,8.36,0,0,1-.79,6.45,9.47,9.47,0,0,1-5.55,4.41l-.76.45-.23,11.5L36.69,42"/><line class="cls-3" x1="55.18" y1="25.84" x2="61.49" y2="29.47"/><polyline class="cls-3" points="61.24 29 49.03 51.67 32.52 39.12"/><line class="cls-3" x1="39.57" y1="44.71" x2="58.75" y2="33.64"/><line class="cls-3" x1="32.83" y1="68.09" x2="32.83" y2="126.99"/><line class="cls-3" x1="62.76" y1="51.19" x2="62.76" y2="109.13"/><path class="cls-1" d="M85.78,35.71a9.77,9.77,0,0,0-3.21.38l-5,2.89-26.69,15A16,16,0,0,0,43,67.32v74.61l4.83,1.94,45.73-26.41V41.56a7.44,7.44,0,0,0-1.71-3.32A8.49,8.49,0,0,0,85.78,35.71Z"/><polygon class="cls-2" points="71.24 64.55 78.17 51.68 64.46 59.32 71.24 64.55"/><path class="cls-1" d="M81.79,42.06,71.46,47.81c.05-2.9.09-2.91.14-5.82,4.71-2.79,7.71-5,7.82-11.69C79.53,23.35,75,17.62,69.3,17.54S58.9,23,58.79,30l5.4-3a6.24,6.24,0,0,1,1.57-3,5.48,5.48,0,0,1,3.47-1.86c2.67-.13,4.9,2.69,5.65,5.05a8.37,8.37,0,0,1-.79,6.46A9.47,9.47,0,0,1,68.54,38l-.77.45L67.55,50l-8.65,4.9"/><line class="cls-3" x1="77.39" y1="38.72" x2="83.7" y2="42.34"/><polyline class="cls-3" points="83.45 41.88 71.24 64.55 54.73 52"/><line class="cls-3" x1="61.78" y1="57.58" x2="80.96" y2="46.51"/><line class="cls-3" x1="55.04" y1="80.96" x2="55.04" y2="139.87"/><line class="cls-3" x1="84.97" y1="64.07" x2="84.97" y2="122"/><path class="cls-1" d="M108,48.58a10.05,10.05,0,0,0-3.21.38l-5,2.89L73.08,66.8a16,16,0,0,0-7.9,13.4v74.61L70,156.74l45.73-26.4V54.43A7.5,7.5,0,0,0,114,51.11,8.53,8.53,0,0,0,108,48.58Z"/><polygon class="cls-2" points="93.45 77.42 100.38 64.56 86.67 72.19 93.45 77.42"/><path class="cls-1" d="M104,54.93,93.67,60.69c0-2.91.09-2.92.13-5.83,4.72-2.78,7.72-5,7.83-11.68.1-7-4.43-12.68-10.12-12.77S81.11,35.91,81,42.86l5.39-3a6.41,6.41,0,0,1,1.58-3A5.52,5.52,0,0,1,91.44,35c2.67-.13,4.9,2.7,5.65,5.06a8.36,8.36,0,0,1-.79,6.45,9.5,9.5,0,0,1-5.55,4.41l-.77.45-.22,11.5-8.65,4.91"/><line class="cls-3" x1="99.6" y1="51.59" x2="105.91" y2="55.22"/><polyline class="cls-3" points="105.66 54.75 93.45 77.42 76.94 64.87"/><line class="cls-3" x1="83.98" y1="70.46" x2="103.16" y2="59.39"/><line class="cls-3" x1="77.25" y1="93.84" x2="77.25" y2="152.74"/><line class="cls-3" x1="107.18" y1="76.94" x2="107.18" y2="134.88"/><path class="cls-1" d="M130.2,61.46a9.77,9.77,0,0,0-3.21.38l-5,2.89q-13.35,7.47-26.69,15a16,16,0,0,0-7.9,13.39v74.61l4.82,1.94L138,143.21V67.3A7.45,7.45,0,0,0,136.24,64,8.49,8.49,0,0,0,130.2,61.46Z"/><polygon class="cls-2" points="115.66 90.3 122.59 77.43 108.88 85.07 115.66 90.3"/><path class="cls-1" d="M126.21,67.81l-10.33,5.75c0-2.9.09-2.91.13-5.82,4.72-2.79,7.72-5,7.83-11.69.1-6.95-4.44-12.68-10.12-12.76s-10.4,5.49-10.51,12.44l5.39-3a6.37,6.37,0,0,1,1.58-3,5.48,5.48,0,0,1,3.47-1.86c2.66-.14,4.89,2.69,5.65,5.05a8.38,8.38,0,0,1-.79,6.46,9.47,9.47,0,0,1-5.55,4.4l-.77.45L112,75.74l-8.65,4.9"/><line class="cls-3" x1="121.81" y1="64.47" x2="128.12" y2="68.09"/><polyline class="cls-3" points="127.87 67.63 115.66 90.3 99.15 77.75"/><line class="cls-3" x1="106.19" y1="83.33" x2="125.37" y2="72.26"/><line class="cls-3" x1="99.46" y1="106.71" x2="99.46" y2="165.62"/><line class="cls-3" x1="129.39" y1="89.82" x2="129.39" y2="147.75"/><path class="cls-4" d="M215.33,325l-5.79,3.35V135.64A30.9,30.9,0,0,0,194.16,109c-30.9-17.87-62-35.91-89.4-51.82l-.84-.49C76,40.45,47,23.67,18.08,6.92A8.19,8.19,0,0,0,5.79,14V207.62L0,211V14A14,14,0,0,1,21,1.9c29,16.76,57.89,33.54,85.85,49.77l.83.48c27.43,15.92,58.51,34,89.4,51.83a36.67,36.67,0,0,1,18.27,31.66Z"/></g></g></svg>