<svg xmlns="http://www.w3.org/2000/svg" viewBox="0 0 172.91 137.31"><defs><style>.cls-1,.cls-2{stroke:#fff;stroke-miterlimit:10;}.cls-2{fill:#fff;}</style></defs><title>Floating Shelves</title><g id="Layer_2" data-name="Layer 2"><g id="Layer_1-2" data-name="Layer 1"><polygon class="cls-1" points="42.14 136.73 1 113.15 130.76 38.23 171.91 61.81 42.14 136.73"/><path class="cls-1" d="M141.7,57.45l-26-15a5.07,5.07,0,0,0-5.08,0l-25.94,15a5.09,5.09,0,0,0-2.55,4.41v2.32a5.09,5.09,0,0,0,2.54,4.4l26,15a5.07,5.07,0,0,0,5.08,0l25.94-15a5.09,5.09,0,0,0,2.54-4.4V61.85A5.07,5.07,0,0,0,141.7,57.45Z"/><path class="cls-2" d="M141.7,49l-26-15a5.07,5.07,0,0,0-5.08,0L84.72,49a5.09,5.09,0,0,0-2.55,4.41v2.31a5.08,5.08,0,0,0,2.54,4.4l26,15a5.09,5.09,0,0,0,5.08,0l25.94-15a5.1,5.1,0,0,0,2.54-4.41V53.41A5.09,5.09,0,0,0,141.7,49Z"/><path class="cls-1" d="M141.7,40.56l-26-15a5.09,5.09,0,0,0-5.08,0l-25.94,15A5.06,5.06,0,0,0,82.17,45v2.32a5.08,5.08,0,0,0,2.54,4.4l26,15a5.07,5.07,0,0,0,5.08,0l25.94-15a5.08,5.08,0,0,0,2.54-4.4V45A5.07,5.07,0,0,0,141.7,40.56Z"/><polygon class="cls-1" points="42.14 99.07 1 75.49 130.76 0.58 171.91 24.16 42.14 99.07"/></g></g></svg>