<svg xmlns="http://www.w3.org/2000/svg" viewBox="0 0 52.09 127.27"><defs><style>.cls-1,.cls-3{stroke:#fff;stroke-miterlimit:10;}.cls-2,.cls-3{fill:none;}</style></defs><title>Front Shirt</title><g id="Layer_2" data-name="Layer 2"><g id="Layer_1-2" data-name="Layer 1"><path class="cls-1" d="M43.87,18.76a10.14,10.14,0,0,0-3.21.36l-5,2.87L8.86,36.8a16,16,0,0,0-8,13.35L.5,124.76l4.82,2,45.87-26.17.39-75.9a7.41,7.41,0,0,0-1.69-3.33A8.5,8.5,0,0,0,43.87,18.76Z"/><polygon class="cls-2" points="29.18 47.52 36.17 34.69 22.42 42.26 29.18 47.52"/><path class="cls-1" d="M39.85,25.09l-10.37,5.7c.06-2.91.11-2.92.17-5.82,4.73-2.77,7.74-5,7.88-11.65C37.68,6.37,33.17.62,27.48.5S17.05,5.94,16.91,12.89L22.32,10a6.36,6.36,0,0,1,1.59-3,5.46,5.46,0,0,1,3.48-1.83C30.05,5,32.27,7.8,33,10.17a8.34,8.34,0,0,1-.83,6.45A9.42,9.42,0,0,1,26.61,21l-.76.45L25.56,33,16.89,37.8"/><line class="cls-3" x1="35.46" y1="21.73" x2="41.75" y2="25.38"/><polyline class="cls-3" points="41.51 24.92 29.18 47.52 12.73 34.89"/><line class="cls-3" x1="19.75" y1="40.51" x2="38.99" y2="29.54"/><line class="cls-3" x1="12.89" y1="63.86" x2="12.58" y2="122.76"/><line class="cls-3" x1="42.91" y1="47.11" x2="42.61" y2="105.05"/></g></g></svg>