<svg xmlns="http://www.w3.org/2000/svg" xmlns:xlink="http://www.w3.org/1999/xlink" viewBox="0 0 915.1 561.56"><defs><style>.cls-1{opacity:0.5;fill:url(#linear-gradient);}.cls-2{stroke:#fff;stroke-miterlimit:10;}.cls-3{fill:url(#linear-gradient-2);}</style><linearGradient id="linear-gradient" y1="289.57" x2="911.39" y2="289.57" gradientUnits="userSpaceOnUse"><stop offset="0" stop-color="#fff"/><stop offset="1"/></linearGradient><linearGradient id="linear-gradient-2" x1="108.48" y1="259.85" x2="844.8" y2="259.85" gradientUnits="userSpaceOnUse"><stop offset="0" stop-color="#fff"/><stop offset="1" stop-color="#009ad7"/></linearGradient></defs><title>Phone</title><g id="Layer_2" data-name="Layer 2"><g id="Layer_1-2" data-name="Layer 1"><path class="cls-1" d="M228.17,551,12.29,426.18c-16.36-9.34-16.39-46-.06-55.42l594-342.39c24.87-14.33,52.11-14.39,77-.18L899.11,153c16.35,9.34,16.39,46,0,55.42l-594,342.39C280.3,565.1,253.06,565.16,228.17,551Z"/><path class="cls-2" d="M230.93,533.39,15.2,408.36c-16.34-9.36-16.34-46,0-55.42L609.61,11.25c24.88-14.3,52.13-14.33,77-.09l215.73,125c16.35,9.35,16.34,46,0,55.42L307.93,533.29C283.05,547.59,255.81,547.63,230.93,533.39Z"/><polygon class="cls-3" points="361.6 471.4 108.48 325.37 591.68 48.29 844.8 194.33 361.6 471.4"/><ellipse class="cls-2" cx="165.65" cy="424.66" rx="45.72" ry="25.66"/></g></g></svg>