<svg xmlns="http://www.w3.org/2000/svg" viewBox="0 0 63.06 77.23"><defs><style>.cls-1,.cls-2{stroke:#fff;stroke-miterlimit:10;}.cls-2{fill:#009ad7;}</style></defs><title>Stack Front Middle</title><g id="Layer_2" data-name="Layer 2"><g id="Layer_1-2" data-name="Layer 1"><path class="cls-1" d="M60,49.94,34.07,35A5.07,5.07,0,0,0,29,35L3,49.94A5.09,5.09,0,0,0,.5,54.34v2.32A5.06,5.06,0,0,0,3,61.06l26,15a5.07,5.07,0,0,0,5.08,0l26-15a5.07,5.07,0,0,0,2.54-4.4V54.34A5.07,5.07,0,0,0,60,49.94Z"/><path class="cls-1" d="M60,41.5l-25.95-15a5.07,5.07,0,0,0-5.08,0L3,41.49A5.1,5.1,0,0,0,.5,45.9v2.32A5.07,5.07,0,0,0,3,52.62l26,15a5.07,5.07,0,0,0,5.08,0l26-15a5.09,5.09,0,0,0,2.54-4.4V45.9A5.06,5.06,0,0,0,60,41.5Z"/><path class="cls-1" d="M60,33.05l-25.95-15a5.07,5.07,0,0,0-5.08,0L3,33.05A5.09,5.09,0,0,0,.5,37.45v2.32A5.06,5.06,0,0,0,3,44.17l26,15a5.07,5.07,0,0,0,5.08,0l26-15a5.1,5.1,0,0,0,2.54-4.41V37.45A5.07,5.07,0,0,0,60,33.05Z"/><path class="cls-2" d="M60,24.61l-25.95-15a5.09,5.09,0,0,0-5.08,0L3,24.61A5.07,5.07,0,0,0,.5,29v2.32A5.07,5.07,0,0,0,3,35.73l26,15a5.07,5.07,0,0,0,5.08,0l26-15a5.09,5.09,0,0,0,2.54-4.4V29A5.06,5.06,0,0,0,60,24.61Z"/><path class="cls-1" d="M60,16.17l-25.95-15a5.07,5.07,0,0,0-5.08,0L3,16.16A5.1,5.1,0,0,0,.5,20.57v2.31A5,5,0,0,0,3,27.28l26,15a5.07,5.07,0,0,0,5.08,0l26-15a5.1,5.1,0,0,0,2.54-4.41V20.57A5,5,0,0,0,60,16.17Z"/></g></g></svg>