<svg xmlns="http://www.w3.org/2000/svg" viewBox="0 0 63.06 77"><defs><style>.cls-1{stroke:#fff;stroke-miterlimit:10;}</style></defs><title>Stack Front Top</title><g id="Layer_2" data-name="Layer 2"><g id="Layer_1-2" data-name="Layer 1"><path class="cls-1" d="M60,49.72l-25.95-15a5.07,5.07,0,0,0-5.08,0L3,49.71A5.1,5.1,0,0,0,.5,54.12v2.31A5,5,0,0,0,3,60.83l26,15a5.07,5.07,0,0,0,5.08,0l26-15a5.1,5.1,0,0,0,2.54-4.41V54.12A5,5,0,0,0,60,49.72Z"/><path class="cls-1" d="M60,41.27l-25.95-15a5.07,5.07,0,0,0-5.08,0L3,41.27A5.09,5.09,0,0,0,.5,45.67V48A5.06,5.06,0,0,0,3,52.39l26,15a5.09,5.09,0,0,0,5.08,0l26-15A5.07,5.07,0,0,0,62.56,48V45.67A5.07,5.07,0,0,0,60,41.27Z"/><path class="cls-1" d="M60,32.83l-25.95-15a5.09,5.09,0,0,0-5.08,0L3,32.82A5.1,5.1,0,0,0,.5,37.23v2.32A5.07,5.07,0,0,0,3,44l26,15a5.07,5.07,0,0,0,5.08,0L60,44a5.09,5.09,0,0,0,2.54-4.4V37.23A5.06,5.06,0,0,0,60,32.83Z"/><path class="cls-1" d="M60,24.38,34.07,9.4A5.07,5.07,0,0,0,29,9.4L3,24.38A5.09,5.09,0,0,0,.5,28.78V31.1A5.06,5.06,0,0,0,3,35.5l26,15a5.07,5.07,0,0,0,5.08,0l26-15a5.1,5.1,0,0,0,2.54-4.41V28.78A5.07,5.07,0,0,0,60,24.38Z"/><path class="cls-1" d="M60,16.17l-25.95-15a5.07,5.07,0,0,0-5.08,0L3,16.16A5.1,5.1,0,0,0,.5,20.57v2.31A5,5,0,0,0,3,27.28l26,15a5.07,5.07,0,0,0,5.08,0l26-15a5.1,5.1,0,0,0,2.54-4.41V20.57A5,5,0,0,0,60,16.17Z"/></g></g></svg>