<svg xmlns="http://www.w3.org/2000/svg" viewBox="0 0 63.06 77.47"><defs><style>.cls-1,.cls-2{stroke:#fff;stroke-miterlimit:10;}.cls-2{fill:#fff;}</style></defs><title>Stack Back Top</title><g id="Layer_2" data-name="Layer 2"><g id="Layer_1-2" data-name="Layer 1"><path class="cls-1" d="M60,50.19l-25.95-15a5.07,5.07,0,0,0-5.08,0L3,50.18A5.1,5.1,0,0,0,.5,54.59v2.32A5.07,5.07,0,0,0,3,61.31l26,15a5.07,5.07,0,0,0,5.08,0l26-15a5.09,5.09,0,0,0,2.54-4.4V54.59A5.06,5.06,0,0,0,60,50.19Z"/><path class="cls-2" d="M60,41.74l-25.95-15a5.07,5.07,0,0,0-5.08,0L3,41.74A5.1,5.1,0,0,0,.5,46.15v2.31A5.06,5.06,0,0,0,3,52.86l26,15a5.09,5.09,0,0,0,5.08,0l26-15a5.1,5.1,0,0,0,2.54-4.41V46.15A5.08,5.08,0,0,0,60,41.74Z"/><path class="cls-1" d="M60,33.3l-25.95-15a5.09,5.09,0,0,0-5.08,0L3,33.3A5.07,5.07,0,0,0,.5,37.7V40A5.06,5.06,0,0,0,3,44.42l26,15a5.07,5.07,0,0,0,5.08,0l26-15A5.08,5.08,0,0,0,62.56,40V37.7A5.06,5.06,0,0,0,60,33.3Z"/><path class="cls-1" d="M60,24.86l-25.95-15a5.09,5.09,0,0,0-5.08,0L3,24.85A5.1,5.1,0,0,0,.5,29.26v2.31A5,5,0,0,0,3,36L29,51a5.07,5.07,0,0,0,5.08,0L60,36a5.1,5.1,0,0,0,2.54-4.41V29.26A5,5,0,0,0,60,24.86Z"/><path class="cls-1" d="M60,16.17l-25.95-15a5.07,5.07,0,0,0-5.08,0L3,16.16A5.1,5.1,0,0,0,.5,20.57v2.31A5,5,0,0,0,3,27.28l26,15a5.07,5.07,0,0,0,5.08,0l26-15a5.1,5.1,0,0,0,2.54-4.41V20.57A5,5,0,0,0,60,16.17Z"/></g></g></svg>