<svg xmlns="http://www.w3.org/2000/svg" viewBox="0 0 63.06 85.2"><defs><style>.cls-1,.cls-2{stroke:#fff;stroke-miterlimit:10;}.cls-2{fill:#009ad7;}</style></defs><title>Stack Back Bottom</title><g id="Layer_2" data-name="Layer 2"><g id="Layer_1-2" data-name="Layer 1"><path class="cls-1" d="M60,57.91l-25.95-15a5.07,5.07,0,0,0-5.08,0L3,57.91A5.09,5.09,0,0,0,.5,62.31v2.32A5.06,5.06,0,0,0,3,69L29,84a5.07,5.07,0,0,0,5.08,0L60,69a5.1,5.1,0,0,0,2.54-4.41V62.31A5.07,5.07,0,0,0,60,57.91Z"/><path class="cls-1" d="M60,49.47l-25.95-15a5.07,5.07,0,0,0-5.08,0L3,49.47A5.07,5.07,0,0,0,.5,53.87v2.32A5.07,5.07,0,0,0,3,60.59l26,15a5.07,5.07,0,0,0,5.08,0l26-15a5.09,5.09,0,0,0,2.54-4.4V53.87A5.06,5.06,0,0,0,60,49.47Z"/><path class="cls-1" d="M60,41,34.07,26A5.07,5.07,0,0,0,29,26L3,41A5.1,5.1,0,0,0,.5,45.43v2.31A5,5,0,0,0,3,52.14l26,15a5.09,5.09,0,0,0,5.08,0l26-15a5.1,5.1,0,0,0,2.54-4.41V45.43A5.08,5.08,0,0,0,60,41Z"/><path class="cls-2" d="M60,32.58l-25.95-15a5.09,5.09,0,0,0-5.08,0L3,32.58A5.08,5.08,0,0,0,.5,37V39.3A5.06,5.06,0,0,0,3,43.7l26,15a5.09,5.09,0,0,0,5.08,0l26-15a5.08,5.08,0,0,0,2.54-4.4V37A5.06,5.06,0,0,0,60,32.58Z"/><path class="cls-1" d="M60,24.86l-25.95-15a5.09,5.09,0,0,0-5.08,0L3,24.85A5.1,5.1,0,0,0,.5,29.26v2.31A5,5,0,0,0,3,36L29,51a5.07,5.07,0,0,0,5.08,0L60,36a5.1,5.1,0,0,0,2.54-4.41V29.26A5,5,0,0,0,60,24.86Z"/><path class="cls-1" d="M60,16.17l-25.95-15a5.07,5.07,0,0,0-5.08,0L3,16.16A5.1,5.1,0,0,0,.5,20.57v2.31A5,5,0,0,0,3,27.28l26,15a5.07,5.07,0,0,0,5.08,0l26-15a5.1,5.1,0,0,0,2.54-4.41V20.57A5,5,0,0,0,60,16.17Z"/></g></g></svg>