<?xml version="1.0" encoding="UTF-8"?>
<svg width="111px" height="110px" viewBox="0 0 111 110" version="1.1" xmlns="http://www.w3.org/2000/svg" xmlns:xlink="http://www.w3.org/1999/xlink">
    <!-- Generator: Sketch 54.1 (76490) - https://sketchapp.com -->
    <title>Fill 1 Copy 2</title>
    <desc>Created with Sketch.</desc>
    <g id="Page-1" stroke="none" stroke-width="1" fill="none" fill-rule="evenodd">
        <g id="SM-2" transform="translate(-327.000000, -318.000000)" fill="#FFFFFF">
            <path d="M333.125556,318 C329.744167,318 327,320.713333 327,324.063889 L327,421.8775 C327,425.228056 329.744167,427.941389 333.125556,427.941389 L386.2925,427.941389 L386.2925,385.370833 L371.821389,385.370833 L371.821389,368.772222 L386.2925,368.772222 L386.2925,356.541667 C386.2925,342.337778 395.049167,334.608889 407.834722,334.608889 C413.960278,334.608889 419.2225,335.061111 420.764167,335.256389 L420.764167,350.0975 L411.894444,350.0975 C404.936389,350.0975 403.59,353.376111 403.59,358.175833 L403.59,368.772222 L420.178333,368.772222 L418.02,385.370833 L403.59,385.370833 L403.59,427.941389 L431.874444,427.941389 C435.255833,427.941389 438,425.228056 438,421.8775 L438,324.063889 C438,320.713333 435.255833,318 431.874444,318 L333.125556,318 Z" id="Fill-1-Copy-2"></path>
        </g>
    </g>
</svg>