<?xml version="1.0" encoding="UTF-8"?>
<svg width="113px" height="111px" viewBox="0 0 113 111" version="1.1" xmlns="http://www.w3.org/2000/svg" xmlns:xlink="http://www.w3.org/1999/xlink">
    <!-- Generator: Sketch 54.1 (76490) - https://sketchapp.com -->
    <title>Group 21 Copy 2</title>
    <desc>Created with Sketch.</desc>
    <g id="Page-1" stroke="none" stroke-width="1" fill="none" fill-rule="evenodd">
        <g id="SM-2" transform="translate(-477.000000, -446.000000)" fill="#FFFFFF">
            <g id="Group-21-Copy-2" transform="translate(477.000000, 446.000000)">
                <path d="M112.62178,37.9624793 C112.62178,37.9624793 114.615878,-0.236926234 78.8328966,0.019445615 C40.529597,0.284973602 32.3316384,0.00113334 32.3316384,0.00113334 C32.3316384,0.00113334 2.49402352,-0.658108558 0.546085167,29.8226731 C-0.543283199,59.8639601 0.333750655,78.2220158 0.333750655,78.2220158 C0.333750655,78.2220158 0.333750655,106.761696 28.2326592,110.277653 C49.0045136,111.568668 78.3343721,110.73546 78.3343721,110.73546 C78.3343721,110.73546 112.510997,110.552337 112.871042,79.6229048 C113.268015,45.1866718 112.62178,37.9624793 112.62178,37.9624793 M101.626545,81.3351025 C100.574104,100.269995 80.8269946,100.306619 80.8269946,100.306619 C80.8269946,100.306619 45.2471159,101.744133 27.1894505,99.7755634 C9.42720694,97.8344623 10.2303853,75.2096466 10.2303853,75.2096466 C10.2303853,75.2096466 10.1842256,49.2519968 10.7843014,30.1339818 C12.0306127,10.1644459 32.7101478,10.3384125 32.7101478,10.3384125 C32.7101478,10.3384125 48.3952059,9.80735657 76.201795,10.1644459 C103.288293,9.63338996 101.857343,32.9632282 101.857343,32.9632282 C101.857343,32.9632282 102.706681,61.8691543 101.626545,81.3351025" id="Fill-1"></path>
                <path d="M55,29 C39.5390525,29 27,41.5320954 27,57.0044822 C27,72.4679046 39.5390525,85 55,85 C70.4609475,85 83,72.4679046 83,57.0044822 C83,41.5320954 70.4609475,29 55,29 M55.206146,75.2378742 C45.1766965,75.2378742 37.056338,67.1072515 37.056338,57.0761966 C37.056338,47.054106 45.1766965,38.9234833 55.206146,38.9234833 C65.2355954,38.9234833 73.3649168,47.054106 73.3649168,57.0761966 C73.3649168,67.1072515 65.2355954,75.2378742 55.206146,75.2378742" id="Fill-4"></path>
                <path d="M86,34 C82.1395664,34 79,30.8699187 79,27 C79,23.1300813 82.1395664,20 86,20 C89.8699187,20 93,23.1300813 93,27 C93,30.8699187 89.8699187,34 86,34 Z" id="Fill-6"></path>
            </g>
        </g>
    </g>
</svg>