<?xml version="1.0" encoding="UTF-8"?>
<svg width="149px" height="72px" viewBox="0 0 149 72" version="1.1" xmlns="http://www.w3.org/2000/svg" xmlns:xlink="http://www.w3.org/1999/xlink">
    <!-- Generator: Sketch 54.1 (76490) - https://sketchapp.com -->
    <title>Group 22</title>
    <desc>Created with Sketch.</desc>
    <g id="Page-1" stroke="none" stroke-width="1" fill="none" fill-rule="evenodd">
        <g id="E-5" transform="translate(-350.000000, -243.000000)" fill="#FFFFFF">
            <g id="Group-22" transform="translate(350.000000, 243.000000)">
                <path d="M87.4188601,64.2017067 C89.5140085,64.2017067 90.263769,66.1449183 90.263769,67.9089227 C90.263769,69.6733897 89.6169719,71.6161386 87.4963946,71.6161386 C85.3237116,71.6161386 84.5737951,69.7753312 84.5737951,67.9346779 C84.5737951,66.1959662 85.3497645,64.2017067 87.4188601,64.2017067 L87.4188601,64.2017067 Z M87.4446009,71.9230427 C89.8500435,71.9230427 91.763914,70.2611341 91.763914,67.8321195 C91.763914,65.5055092 89.772353,63.8692016 87.4704978,63.8692016 C85.1686426,63.8692016 83.099547,65.5821581 83.099547,67.9345237 C83.1255998,70.2868893 85.1170049,71.9230427 87.4446009,71.9230427 L87.4446009,71.9230427 Z M77.9786797,70.2611341 C77.9786797,71.3863461 78.0047325,71.4375482 79.1685305,71.5397981 L79.1685305,71.8207927 C78.5736831,71.8207927 77.9786797,71.7953459 77.3839882,71.7697448 L75.5474962,71.8207927 L75.5474962,71.5397981 C76.7114503,71.4375482 76.7630879,71.3863461 76.7630879,70.2611341 L76.7630879,68.8037253 L75.6769805,66.9374711 C75.5474962,66.7072159 74.6423547,64.9173021 74.2284731,64.5083023 C74.0214544,64.2783556 73.8145916,64.3548503 73.5301943,64.3038025 L73.5301943,64.0226537 L75.1596676,64.0737015 C75.7287741,64.0737015 76.2718279,64.0481005 76.8407785,64.0226537 L76.8407785,64.3038025 C76.581966,64.3038025 75.9356369,64.2783556 75.9356369,64.6873554 C75.9356369,64.9941052 76.090862,65.2498072 76.245775,65.5055092 L77.7975577,68.3436777 L78.5477862,67.141971 C78.8062867,66.732817 79.7376371,65.2242062 79.7376371,64.7897596 C79.7376371,64.3548503 79.1942714,64.3294035 78.8835092,64.3038025 L78.8835092,64.0226537 C79.3234436,64.0481005 79.7376371,64.0481005 80.1510506,64.0737015 C80.5391913,64.0737015 80.92702,64.0481005 81.3150047,64.0226537 L81.3150047,64.3038025 C80.6164138,64.3548503 80.3838102,64.8153606 80.0476192,65.3522114 L77.9785236,68.7272307 L77.9785236,70.2611341 L77.9786797,70.2611341 Z M61.5034494,65.9916205 L60.5465141,69.1875868 C60.23622,70.1335915 59.900029,71.0539952 59.563682,72 L59.1758533,72 L57.1067577,65.6847165 C57.0031704,65.4034135 56.8482573,64.7897596 56.6669794,64.5852597 C56.4599606,64.3039567 56.1496665,64.3039567 55.8134755,64.2785099 L55.8134755,63.9972068 L57.5204833,64.0482547 C58.1153307,64.0482547 58.7101781,64.0228079 59.2791287,63.9972068 L59.2791287,64.2785099 C58.891144,64.3039567 58.2187621,64.3039567 58.2187621,64.8409617 C58.2187621,65.1221105 58.5033154,65.9916205 58.5808499,66.2727693 L59.8482353,70.3123361 L61.736521,63.9716058 L62.1241937,63.9716058 L64.0898579,70.209932 L64.9174649,67.6532207 C65.072846,67.1421252 65.5382092,65.5055092 65.5382092,65.0453073 C65.5382092,64.3038025 65.0988989,64.3038025 64.5038954,64.2527546 L64.5038954,63.9716058 L65.7970217,64.0226537 C66.2110592,64.0226537 66.6246287,63.9970526 67.0385102,63.9716058 L67.0385102,64.2527546 C66.1592655,64.2271536 66.0040404,65.1474031 65.7970217,65.812259 L63.8315134,71.9998458 L63.4176319,71.9998458 L61.5034494,65.9916205 Z M47.9768715,66.2980619 C47.9768715,65.9148174 47.9768715,65.0454616 47.8475432,64.7385575 C47.6923182,64.3295577 47.2010581,64.3295577 46.8129174,64.3295577 L46.8129174,64.0228079 L52.7356509,64.0228079 L52.7356509,65.8124132 L52.4512536,65.8124132 C52.218338,64.4316534 51.6234906,64.3550045 50.3562612,64.3550045 L49.5027573,64.3550045 C49.1406695,64.3550045 49.1923072,64.3039567 49.1923072,64.8409617 L49.1923072,67.6276197 C50.8217804,67.7044228 51.054696,67.0395668 51.1320745,66.1959662 L51.4166278,66.1959662 C51.4166278,66.732817 51.390575,67.2699762 51.3648341,67.7810717 L51.4166278,69.2384804 L51.1581274,69.2384804 C51.0029023,68.0111726 50.3562612,67.9346779 49.218204,67.9346779 L49.218204,69.8777353 C49.218204,70.2356872 49.218204,70.772538 49.4252228,71.053841 C49.7355169,71.462995 50.4855894,71.4885961 50.9512646,71.462995 C52.1927532,71.4375482 52.9943074,71.2840962 53.1496885,69.8777353 L53.4340858,69.8777353 L53.3304984,71.7698991 L46.8645551,71.7698991 L46.8645551,71.4887503 C47.2525398,71.4887503 47.7439558,71.4887503 47.8990249,71.0795963 C48.0285091,70.7726922 48.0285091,69.8780438 48.0285091,69.5200918 L48.0285091,66.2982162 L47.9768715,66.2982162 L47.9768715,66.2980619 Z M36.6488734,64.9942595 C36.2866295,64.4828555 36.0022322,64.3038025 35.3555911,64.2783556 L35.3555911,63.9970526 L36.4934923,64.0481005 C36.8037864,64.0481005 37.1142366,64.0226537 37.4502715,63.9970526 L42.4939163,70.0566342 L42.4939163,66.7840191 C42.4939163,66.2727693 42.4939163,65.4544613 42.3903289,64.9688127 C42.2351039,64.3036482 41.9248097,64.3548503 41.3299623,64.2526004 L41.3299623,63.9714516 L42.6489854,64.0224994 C43.0628669,64.0224994 43.4765924,63.9968984 43.9162148,63.9714516 L43.9162148,64.2526004 C43.4765924,64.3036482 43.1662983,64.2526004 43.0112292,64.7640043 C42.881745,65.1470946 42.881745,66.3489556 42.881745,66.8349127 L42.881745,71.8975958 L42.5198132,71.8975958 C42.2610007,71.5905376 42.0025003,71.2581867 41.7438438,70.92599 L37.0625989,65.3519029 L37.0625989,69.3148208 C37.0625989,69.7494217 37.0625989,70.6445328 37.2437208,71.0277773 C37.4504275,71.4881334 37.8385682,71.4625323 38.2781906,71.5135802 L38.2781906,71.7948832 C37.8385682,71.7948832 37.373049,71.7692822 36.9075298,71.7438354 L35.5883507,71.7948832 L35.5883507,71.5135802 C36.0537139,71.4625323 36.4936483,71.4370855 36.6229765,70.9256816 C36.7262519,70.4909265 36.7262519,69.7492674 36.7262519,69.3146666 L36.7262519,64.9945679 L36.6488734,64.9942595 Z M139.81832,38.6847165 C140.180252,36.7159038 141.085549,34.9773463 143.361664,34.9773463 C145.275534,34.9773463 146.310004,36.1790531 146.310004,38.0709084 C146.310004,38.8381685 145.301431,38.6847165 144.835756,38.6847165 L139.81832,38.6847165 Z M147.991115,44.7697448 C147.085973,45.9714516 145.715313,46.9942595 144.16353,46.9942595 C140.930636,46.9942595 139.404439,43.798139 139.404439,40.9345237 L139.533923,39.4774234 L148.249927,39.4774234 C148.560066,39.4774234 149,39.6051202 149,39.1961204 C149,35.9235053 146.180832,34.2870435 143.206751,34.2870435 C139.249369,34.2870435 136.352355,37.6876639 136.352355,41.4716829 C136.352355,45.3325051 139.456232,47.9149716 143.232336,47.9149716 C145.50845,47.9149716 147.215146,47.1221105 148.637756,45.383553 L147.991115,44.7697448 Z M128.748666,42.5965865 C128.748666,44.9742447 127.869266,47.1221105 125.127944,47.1221105 C121.843101,47.1221105 120.9637,43.9770379 120.9637,41.2670288 C120.9637,38.6594239 121.843257,35.2330483 125.127944,35.2330483 C126.886434,35.2330483 128.748666,36.4089998 128.748666,38.301472 L128.748666,42.5965865 Z M133.843793,46.9432116 L133.843793,46.3297119 C132.860805,46.3297119 132.059095,46.3807598 131.645213,45.3323509 C131.334919,44.5394897 131.334919,43.0313416 131.334919,42.1874325 L131.334919,27 L126.472708,27.9460048 L126.472708,28.5340576 C128.645391,28.5852597 128.748666,29.5568655 128.748666,31.3720719 L128.748666,36.127851 C127.662559,34.8749422 126.084723,34.2614425 124.403612,34.2614425 C120.549662,34.2614425 117.911928,37.5598129 117.911928,41.2412735 C117.911928,44.9742447 120.575871,47.8890622 124.403612,47.8890622 C126.472708,47.8890622 127.843369,47.1730041 129.162392,45.6134997 C129.265823,46.4318077 129.447101,47.1986051 129.757395,47.8890622 L133.843793,46.9432116 Z M110.049427,44.9998458 C109.195924,45.8179996 107.902797,46.7131107 106.712946,46.7131107 C105.471302,46.7131107 104.773179,45.6647017 104.773179,44.5394897 C104.773179,42.1362304 108.212935,40.9601247 110.023375,40.0906147 L110.023375,44.9996916 L110.049427,44.9996916 L110.049427,44.9998458 Z M106.790325,40.7812259 C104.85087,41.650736 101.954011,42.7501928 101.954011,45.255702 C101.954011,46.9432116 103.505638,47.9149716 105.10937,47.9149716 C106.971759,47.9149716 108.730404,46.9176106 110.153171,45.7669517 C110.463465,46.9686584 111.523676,47.9149716 112.765164,47.9149716 C113.877325,47.9149716 115.015382,46.8921638 115.506486,45.8948027 L114.937535,45.5882071 C114.6015,45.9968984 114.290894,46.5596587 113.696203,46.5596587 C112.506352,46.5596587 112.635992,44.3354525 112.635992,43.5681923 L112.635992,38.6080676 C112.635992,35.1565536 111.083897,34.2870435 107.721831,34.2870435 C106.169893,34.2870435 102.134977,34.6960433 102.134977,36.9205579 C102.134977,37.5852597 102.626549,37.9945679 103.298931,37.9945679 C104.049159,37.9945679 104.462729,37.3294035 104.514367,36.664856 C104.617954,35.0797505 105.833546,34.9518995 107.359588,34.9518995 C109.842565,34.9518995 110.023375,36.3837072 110.023375,38.4290145 C110.023375,38.7615196 110.075324,39.1450726 109.790615,39.2983704 L106.790325,40.7812259 Z M87.263947,40.3464709 C87.263947,39.1190089 87.263947,38.0453073 87.9101201,36.97176 C88.5569173,35.8723032 89.6948184,35.2586493 90.9879447,35.2586493 C94.2991529,35.2586493 95.1777736,38.3778124 95.1777736,41.113731 C95.1777736,43.8235859 94.1952535,46.9942595 90.9104101,46.9942595 C89.8239907,46.9942595 88.6342958,46.6108607 87.936173,45.7925527 C87.263947,44.9998458 87.263947,43.5169902 87.263947,42.4941824 L87.263947,40.3464709 Z M86.9015472,34.3124904 C85.5049895,34.6448412 84.0048445,35.0283942 82.4788027,35.2330483 L82.4788027,35.8467022 C83.4614788,35.8467022 84.263345,35.7444523 84.5221574,36.8181538 C84.6772265,37.5086108 84.6772265,39.6051202 84.6772265,40.448875 L84.6772265,52.2356872 C84.6772265,54.2297925 84.8583484,54.9714516 82.5822341,55.1250578 L82.5822341,55.7129565 L86.2290092,55.5851055 L89.6172839,55.7129565 L89.6172839,55.1250578 C87.0569282,54.9968984 87.264103,54.2296383 87.264103,52.0567884 L87.264103,46.2271536 C88.5826581,47.4032592 89.8500435,47.94011 91.6345858,47.94011 C95.4626389,47.94011 98.2039604,44.8718406 98.2039604,41.2156725 C98.2039604,37.3038025 95.4626389,34.3376287 91.4533079,34.3376287 C89.4879557,34.3121819 88.091242,35.2071388 86.9012352,36.7923985 L86.9015472,34.3124904 Z M71.0214764,47.7357643 L70.7110262,47.7357643 L70.581698,43.4403413 L71.2025983,43.4403413 C71.6938583,45.383553 72.7283281,47.275254 74.9787016,47.275254 C76.3234656,47.275254 77.5131604,46.6107065 77.5131604,45.1532978 C77.5131604,43.4403413 75.754515,42.7500386 74.4612327,42.0848741 C72.7025873,41.1900715 70.8144576,40.1930188 70.8144576,37.9176106 C70.8144576,35.846548 72.4957245,34.3124904 74.590717,34.3124904 C75.5219114,34.3124904 76.6857094,34.5680381 77.5390573,35.053841 L78.1339047,34.3379372 L78.4961486,34.3379372 L78.4445109,38.0965094 L77.8493514,38.0965094 C77.3064537,36.5880528 76.6337597,35.0026389 74.7200452,35.0026389 C73.7111602,35.0026389 72.7799658,35.565245 72.7799658,36.6645475 C72.7799658,38.2243604 74.4351799,38.7868122 75.5989779,39.4006203 C77.6941264,40.4741676 79.582256,41.2668746 79.582256,43.9768837 C79.582256,46.4572545 77.4610547,47.94011 75.1333027,47.94011 C73.9955575,47.94011 72.7024313,47.5821581 71.7969777,46.8662543 L71.0214764,47.7357643 Z M48.882325,38.6847165 C49.2442569,36.7159038 50.1495544,34.9773463 52.4255128,34.9773463 C54.3393833,34.9773463 55.3740091,36.1790531 55.3740091,38.0709084 C55.3740091,38.8381685 54.3652802,38.6847165 53.899761,38.6847165 L48.882325,38.6847165 Z M57.1069137,44.7697448 C56.2016162,45.9714516 54.8307994,46.9942595 53.2790167,46.9942595 C50.0461231,46.9942595 48.5200812,43.798139 48.5200812,40.9345237 L48.6495654,39.4774234 L57.3655702,39.4774234 C57.6760203,39.4774234 58.1156427,39.6051202 58.1156427,39.1961204 C58.1156427,35.9235053 55.2964746,34.2870435 52.3222374,34.2870435 C48.3651681,34.2870435 45.4684655,37.6876639 45.4684655,41.4716829 C45.4684655,45.3325051 48.5720309,47.9149716 52.3481343,47.9149716 C54.6240926,47.9149716 56.3312564,47.1221105 57.7535549,45.383553 L57.1069137,44.7697448 Z M34.036568,35.616447 L34.036568,35.0795963 C35.5624539,34.2102404 37.0883397,33.0086879 37.7351368,31.295423 L38.2005001,31.295423 L38.2005001,34.8237401 L41.6663093,34.8237401 L41.6663093,35.6418939 L38.2005001,35.6418939 L38.2005001,44.2074473 C38.2005001,45.5621434 38.4852094,46.9941052 40.0886297,46.9941052 C41.1491524,46.9941052 41.6922061,46.3806056 42.2870536,45.6391007 L42.8301073,46.0223452 C42.2870536,47.4544613 40.7611677,47.9402642 39.3128164,47.9402642 C37.1143926,47.9402642 35.6144036,47.1219562 35.6144036,44.8462395 L35.6144036,35.616447 L34.036568,35.616447 Z M26.0963766,44.9998458 C25.2430287,45.8179996 23.9497465,46.7131107 22.7598956,46.7131107 C21.518407,46.7131107 20.8201282,45.6647017 20.8201282,44.5394897 C20.8201282,42.1362304 24.2600406,40.9601247 26.0706358,40.0906147 L26.0706358,44.9996916 L26.0963766,44.9996916 L26.0963766,44.9998458 Z M22.8377421,40.7812259 C20.8979748,41.650736 18.027013,42.7501928 18.027013,45.255702 C18.027013,46.9432116 19.5787957,47.9149716 21.1823721,47.9149716 C23.0446049,47.9149716 24.8032504,46.9176106 26.2258608,45.7669517 C26.536155,46.9686584 27.5965216,47.9149716 28.8381662,47.9149716 C29.9760674,47.9149716 31.0882277,46.8921638 31.5797997,45.8948027 L31.0108492,45.5882071 C30.6745022,45.9968984 30.364052,46.5596587 29.7693606,46.5596587 C28.5796657,46.5596587 28.708994,44.3354525 28.708994,43.5681923 L28.708994,38.6080676 C28.708994,35.1565536 27.1572113,34.2870435 23.7948334,34.2870435 C22.2430507,34.2870435 18.2082909,34.6960433 18.2082909,36.9205579 C18.2082909,37.5852597 18.6997069,37.9945679 19.3720889,37.9945679 C20.1223174,37.9945679 20.5360429,37.3294035 20.5876806,36.664856 C20.691112,35.0797505 21.9068597,34.9518995 23.4325896,34.9518995 C25.9155667,34.9518995 26.0965326,36.3837072 26.0965326,38.4290145 C26.0965326,38.7615196 26.1481703,39.1450726 25.863929,39.2983704 L22.8377421,40.7812259 Z M4.91416055,41.113731 L6.9573593,38.9660195 C7.44877536,38.4547698 9.25921451,36.5624518 9.25921451,35.8975958 C9.25921451,35.181692 8.12131333,35.1306441 7.65563812,35.1306441 L7.65563812,34.5424371 L10.3195812,34.6704423 L12.9059897,34.5424371 L12.9059897,35.1306441 C11.2765164,35.1818462 10.9660663,35.6930959 9.90585564,36.8437548 L7.11242837,39.9374711 L12.9576273,45.5878986 C13.7596495,46.3039567 13.9665123,46.7641585 15.0526198,46.9430574 L15.0526198,47.5311102 C14.4576163,47.5058176 13.8111312,47.4288603 13.1903869,47.4034135 L11.3022573,47.5311102 L5.53474883,41.4459277 L4.91400455,42.0595815 L4.91400455,43.9261443 C4.91400455,45.9207122 4.62960725,46.8153606 7.03489384,46.9688127 L7.03489384,47.5570197 L3.6208783,47.4290145 C2.48297712,47.4547698 1.37081679,47.5312645 0.180965912,47.5570197 L0.180965912,46.9688127 C2.45708028,46.8156691 2.3018552,46.0994568 2.3018552,44.1055058 L2.3018552,32.1905341 C2.3018552,31.5002313 2.3018552,29.8895248 1.96566422,29.327073 C1.57767954,28.636616 0.72417566,28.636616 0,28.5343661 L0,27.9463132 L4.91400455,27.0003084 L4.91400455,41.113731 L4.91416055,41.113731 Z" id="Fill-1"></path>
                <path d="M84.5047568,10.5745745 C84.5047568,10.5745745 84.8186587,7.61986568 78.742517,3.55065324 C78.742517,3.55065324 75.7832771,1.63290653 74.4213506,0.103805642 C74.369218,0.0519028212 74.3426777,0 74.2643207,0 C74.1854898,0 74.1595815,0.0519028212 74.1071328,0.103805642 C72.7452063,1.63290653 69.7856505,3.55065324 69.7856505,3.55065324 C63.7095089,7.61986568 64.0237267,10.5745745 64.0237267,10.5745745 C63.7617995,13.1145297 65.699713,15.576787 68.2926024,15.576787 C70.3617955,15.576787 71.8545276,14.4105369 72.4044482,13.892134 L72.6403091,13.6590403 C72.7450484,13.5292833 72.875854,13.3998389 72.9020783,13.3479361 C72.9020783,13.3479361 72.9807512,13.425634 72.9807512,13.4515854 C73.0330419,13.555391 73.0854905,13.6590403 73.0854905,13.7626896 C73.3474177,15.8878913 70.6760133,18.5574472 69.8902318,19.2831487 C69.8902318,19.2831487 69.6807532,19.5165551 69.6807532,19.827503 L69.6807532,20.2938467 L78.82119,20.2938467 L78.82119,19.827503 C78.82119,19.5163988 78.6117114,19.2831487 78.6117114,19.2831487 C77.8259299,18.5574472 75.1543676,15.8878913 75.4161368,13.7626896 C75.442835,13.6590403 75.4687434,13.5292833 75.521034,13.4515854 L75.599707,13.3479361 C75.6257733,13.425634 75.7570528,13.555391 75.8616341,13.6590403 L76.097021,13.892134 C76.6470997,14.4105369 78.1399898,15.576787 80.2090248,15.576787 C82.8287705,15.550992 84.7403017,13.1145297 84.5047568,10.5745745 L84.5047568,10.5745745 Z M107.106955,68.9938574 L107.106955,70.3933576 C107.106955,71.5334999 107.133179,71.5855591 108.285785,71.6892084 L108.285785,71.9743613 C107.70964,71.9743613 107.106955,71.9484098 106.531126,71.9226148 C105.902374,71.9484098 105.300163,71.9484098 104.697793,71.9743613 L104.697793,71.6892084 C105.090526,71.6892084 105.588314,71.6892084 105.74566,71.2744548 C105.87615,70.9636632 105.87615,70.0563019 105.87615,69.6936075 L105.87615,66.3243014 C105.87615,65.9354993 105.87615,65.054402 105.74566,64.7431414 C105.588314,64.3287005 105.090684,64.3287005 104.697793,64.3287005 L104.697793,64.043704 L106.426386,64.0954505 C107.05498,64.0954505 107.683574,64.0694991 108.285943,64.043704 L108.285943,64.3287005 C107.133495,64.4321935 107.107271,64.4840963 107.107271,65.6245514 L107.107271,68.5273573 C107.683574,67.9312566 110.014378,65.4949506 110.014378,64.7950442 C110.014378,64.3027491 109.464299,64.3546519 109.097633,64.3287005 L109.097633,64.043704 C109.56888,64.0694991 110.040918,64.0694991 110.538232,64.0954505 C110.956873,64.0954505 111.376304,64.0694991 111.795419,64.043704 L111.795419,64.3287005 C111.140443,64.3287005 110.983256,64.4840963 110.564456,65.0024992 L108.625911,67.3612635 L110.302687,69.2527462 C110.433335,69.4342497 111.716746,71.0671562 112.292891,71.4817535 C112.528594,71.6634133 112.712006,71.6374619 113,71.6634133 L113,71.9484098 C112.371564,71.9484098 111.716904,71.9226148 111.088311,71.8966634 L109.254821,71.9484098 L109.254821,71.6634133 C109.464299,71.6634133 110.276463,71.6892084 110.276463,71.3002499 C110.276463,71.0412048 109.516906,70.1601075 109.333652,69.9524962 L107.866986,68.190458 L107.106955,68.9938574 Z M97.1025374,64.8728985 C97.1025374,64.7431414 97.0763131,64.5098914 97.233343,64.4581449 C97.3379243,64.4063984 97.8619366,64.4581449 98.0189665,64.4581449 C99.1191238,64.4581449 99.7211772,65.1838464 99.7211772,66.2464472 C99.7211772,67.9568953 98.6214938,68.0086418 97.1025374,68.0086418 L97.1025374,64.8728985 Z M98.9094873,68.086496 C100.114384,67.9828467 101.109486,67.3348431 101.109486,66.0391486 C101.109486,64.3802907 99.7214931,64.0691864 98.3333423,64.0691864 C97.8358703,64.0691864 97.311858,64.0951378 96.7881616,64.1209329 C96.1071194,64.1209329 95.4001688,64.0951378 94.7192845,64.0691864 L94.7192845,64.3543392 C95.1120173,64.3543392 95.6099633,64.3283878 95.7407689,64.7689365 C95.8455081,65.0798844 95.8455081,65.961138 95.8455081,66.3497838 L95.8455081,69.7192462 C95.8455081,70.107892 95.8455081,70.9889893 95.7407689,71.3004063 C95.6099633,71.7150035 95.1121753,71.7150035 94.7192845,71.7150035 L94.7192845,71.9998437 C95.3214958,71.9998437 95.9240231,71.9740486 96.5262344,71.9480972 C97.1026954,71.9740486 97.6788403,71.9740486 98.228761,71.9998437 L98.228761,71.7150035 C97.8358703,71.7150035 97.3380823,71.7150035 97.2071187,71.3004063 C97.1026954,70.9889893 97.1026954,70.082097 97.1026954,69.7192462 L97.1026954,68.319746 C97.731131,68.319746 97.7049067,68.3974439 98.0981134,68.8379926 L100.08816,71.3004063 L100.664621,72 C100.952614,72 101.266832,71.9742049 101.58105,71.9482535 C101.947874,71.9742049 102.314383,71.9742049 102.654825,72 L102.654825,71.7151598 C102.052613,71.6115105 101.869201,71.4559584 101.476468,71.0150971 L98.9094873,68.086496 Z" id="Fill-4"></path>
            </g>
        </g>
    </g>
</svg>