<?xml version="1.0" encoding="UTF-8"?>
<svg width="346px" height="45px" viewBox="0 0 346 45" version="1.1" xmlns="http://www.w3.org/2000/svg" xmlns:xlink="http://www.w3.org/1999/xlink">
    <!-- Generator: Sketch 54.1 (76490) - https://sketchapp.com -->
    <title>Fill 1</title>
    <desc>Created with Sketch.</desc>
    <g id="Page-1" stroke="none" stroke-width="1" fill="none" fill-rule="evenodd">
        <g id="DA-5" transform="translate(-294.000000, -248.000000)" fill="#FEFEFE">
            <path d="M390.327658,266.951993 L389.016633,266.951993 L389.016633,255.569222 C389.016633,254.187738 388.92856,253.264233 388.826647,252.686727 C389.664596,252.665338 391.014625,252.651498 391.993491,252.651498 C397.096676,252.721956 399.444444,255.230771 399.507353,259.600436 C399.444444,264.584095 396.628633,266.860145 390.327658,266.951993 L390.327658,266.951993 Z M397.421287,269.799258 C403.023971,268.122102 406.385833,264.273324 406.358153,258.903404 C406.351862,252.531971 401.992262,248.873178 394.67216,248.865629 L382.116764,248.865629 L382.136895,249.521142 C382.136895,249.528691 382.570967,259.897367 382.570967,265.627127 C382.570967,273.871993 382.136895,289.703695 382.136895,289.731375 L382.116764,290.374305 L389.498516,290.374305 L389.431833,289.682305 C389.431833,289.676015 389.016633,285.235891 389.016633,276.276378 L389.016633,267.81888 L389.058153,267.889338 C397.769804,283.177505 401.117825,289.999367 401.125375,290.027047 L401.290196,290.374305 L409.10728,290.374305 L408.536065,289.428153 C408.528516,289.406764 401.319135,276.931891 397.421287,269.799258 L397.421287,269.799258 Z M530.494145,266.951993 L529.18312,266.951993 L529.18312,255.575513 C529.18312,254.187738 529.077433,253.264233 528.993135,252.686727 C529.824793,252.665338 531.178596,252.651498 532.185142,252.651498 C537.253098,252.721956 539.634836,255.244611 539.699004,259.600436 C539.634836,264.591644 536.80896,266.860145 530.494145,266.951993 L530.494145,266.951993 Z M537.605389,269.799258 C543.187942,268.129651 546.571193,264.267033 546.557353,258.903404 C546.542255,252.531971 542.186429,248.880727 534.842422,248.865629 L522.275702,248.865629 L522.310931,249.521142 C522.310931,249.53624 522.73368,259.889818 522.73368,265.619578 C522.73368,273.8808 522.310931,289.709985 522.310931,289.731375 L522.297091,290.380596 L529.668778,290.380596 L529.59832,289.682305 C529.59832,289.660916 529.18312,285.242182 529.18312,276.276378 L529.18312,267.769811 L529.23848,267.889338 C537.936291,283.177505 541.262924,290.006916 541.278022,290.027047 L541.452909,290.380596 L549.263702,290.380596 L548.698778,289.428153 C548.684938,289.414313 541.489396,276.946989 537.605389,269.799258 L537.605389,269.799258 Z M640,290.374305 L639.957222,289.716276 L637.808247,248.309513 L633.291375,248.309513 L633.134102,248.697033 C633.12152,248.739811 626.313498,265.56296 621.864567,276.065004 C621.534924,276.818655 621.231702,277.587404 620.94232,278.412771 C620.597578,277.559724 620.196218,276.735615 619.871607,276.009644 C615.036415,265.648516 607.522553,248.704582 607.508713,248.683193 L607.338858,248.309513 L602.815695,248.309513 L600.213775,290.374305 L605.437745,290.374305 L605.437745,289.759055 C605.437745,289.731375 605.641571,276.806073 606.393964,266.304029 C606.450582,265.323905 606.528589,264.189025 606.578916,262.991236 C606.987825,264.041818 607.403025,265.126371 607.776705,265.944189 C612.725135,276.663898 618.969491,290.950553 618.969491,290.978233 L619.560836,292.345876 L631.332385,264.478407 C631.458204,264.161345 631.58528,263.843025 631.712356,263.519673 C631.718647,263.843025 631.732487,264.139956 631.741295,264.421789 C632.325091,274.867215 632.669833,289.738924 632.669833,289.759055 L632.669833,290.374305 L640,290.374305 Z M486.9296,254.152509 L487.76,253.884516 C487.775098,253.884516 490.593425,252.933331 495.273862,252.933331 L497.234109,252.933331 C497.220269,253.320851 497.191331,253.842996 497.191331,254.475862 C497.191331,254.624327 497.203913,254.772793 497.203913,254.90616 C497.203913,254.89232 497.297018,262.081571 497.297018,264.075789 C497.297018,275.289964 496.748451,289.682305 496.748451,289.731375 L496.713222,290.374305 L504.330255,290.374305 L504.311382,289.731375 C504.311382,289.682305 503.774138,275.289964 503.774138,264.075789 C503.774138,262.081571 503.845855,254.89232 503.845855,254.89232 L503.845855,254.589098 C503.845855,253.913455 503.845855,253.34224 503.816916,252.933331 L505.783455,252.933331 C510.456342,252.933331 513.296058,253.898356 513.303607,253.884516 L514.135265,254.166349 L514.135265,248.865629 L486.9296,248.865629 L486.9296,254.152509 Z M472.030211,264.922545 C467.084298,262.040051 464.635876,260.467324 464.667331,257.387295 C464.681171,253.892065 468.117265,251.83368 471.423767,251.81984 C473.806764,251.806 475.750655,252.538262 477.104458,253.264233 C478.472102,254.004044 479.233302,254.737564 479.260982,254.723724 L480.317855,255.773047 L480.317855,249.521142 L479.888815,249.387775 C478.58408,248.958735 475.496502,248 471.905651,248 C471.623818,248 471.343244,248.006291 471.095382,248.02768 C464.53648,248.266735 458.863338,252.735796 458.863338,259.226756 C458.863338,259.635665 458.898567,260.016895 458.94512,260.418255 C459.518851,266.063716 463.16632,268.586371 468.73,271.773345 C473.100924,274.275869 475.441142,276.221018 475.94064,279.342567 C475.975869,279.659629 476.004807,279.976691 476.004807,280.315142 C476.018647,283.833018 473.029207,286.87656 469.193011,287.018735 L468.823105,287.018735 C463.547549,287.018735 460.544269,283.943738 460.50904,283.966385 L459.434553,282.901964 L459.434553,289.513709 L459.808233,289.682305 C461.164553,290.26736 464.723949,291.049949 468.623055,291.063789 C475.9268,291.049949 482.094407,285.678771 482.106989,278.166167 C482.123345,272.089149 478.555142,268.756225 472.030211,264.922545 L472.030211,264.922545 Z M317.872742,249.585309 C317.879033,249.606698 318.450247,253.348531 318.450247,263.660589 L318.450247,275.0572 C318.450247,275.847338 318.471636,276.671447 318.516931,277.425098 C318.076567,276.663898 317.636204,275.945476 317.231069,275.37552 C309.746145,265.020684 298.55336,249.16256 298.52568,249.141171 L298.334436,248.865629 L294.422749,248.865629 L294.441622,249.507302 C294.441622,249.521142 294.600153,255.266 294.600153,257.915731 C294.600153,273.444211 294.021389,289.697404 294.021389,289.731375 L294,290.380596 L299.572487,290.380596 L299.498255,289.682305 C299.498255,289.667207 299.07928,285.248473 299.07928,275.578087 L299.07928,264.584095 C299.07928,263.879513 299.036502,262.956007 298.986175,262.07528 C299.361113,262.674175 299.780087,263.280618 300.26952,263.977651 C307.828676,274.444465 318.806313,290.083665 318.827702,290.098764 L319.007622,290.380596 L322.919309,290.380596 L322.904211,289.731375 C322.904211,289.731375 322.780909,282.986262 322.780909,281.336785 C322.780909,264.230545 323.352124,249.55008 323.352124,249.521142 L323.373513,248.865629 L317.767055,248.865629 L317.872742,249.585309 Z M572.882291,287.018735 C565.050109,286.989796 560.977375,281.090182 560.906916,269.278371 C560.963535,258.163593 565.191025,252.123062 572.882291,252.080284 C580.586138,252.123062 584.828727,258.163593 584.899185,269.560204 C584.828727,281.083891 580.586138,286.989796 572.882291,287.018735 L572.882291,287.018735 Z M572.882291,248.161047 C561.441644,248.197535 553.492451,257.226247 553.478611,269.560204 C553.492451,281.865222 561.441644,291.0424 572.882291,291.07008 C584.44624,291.0424 592.284713,282.140764 592.313651,269.560204 C592.284713,256.964545 584.602255,248.197535 572.882291,248.161047 L572.882291,248.161047 Z M428.804116,286.588436 C426.572102,286.588436 425.137775,286.482749 424.374058,286.404742 C424.464647,285.919084 424.56656,285.220793 424.56656,284.353905 L424.56656,284.072073 C424.486036,280.710211 424.374058,274.930124 424.374058,269.560204 C424.374058,264.611775 424.436967,258.197564 424.486036,254.709884 L424.249498,254.589098 L424.472196,254.589098 C424.472196,253.800218 424.380349,253.152255 424.292276,252.686727 C425.123935,252.616269 426.769636,252.516873 429.483535,252.516873 C438.98784,252.58104 443.635564,258.220211 443.72112,268.988989 C443.635564,280.612073 438.843149,286.517978 428.804116,286.588436 L428.804116,286.588436 Z M432.432713,248.865629 L417.349629,248.865629 L417.363469,249.507302 C417.363469,249.528691 417.631462,262.265265 417.631462,269.560204 C417.631462,276.96712 417.363469,289.709985 417.363469,289.731375 L417.343338,290.380596 L430.620931,290.380596 C443.38896,290.351658 450.998444,281.993556 451.004735,268.840524 C450.998444,255.878735 444.484836,248.888276 432.432713,248.865629 L432.432713,248.865629 Z M352.739476,287.018735 C344.894713,286.975956 340.810655,281.098989 340.754036,269.270822 C340.810655,258.169884 345.039404,252.115513 352.739476,252.094124 C360.433258,252.115513 364.658233,258.156044 364.721142,269.552655 C364.658233,281.090182 360.443324,286.975956 352.739476,287.018735 L352.739476,287.018735 Z M352.739476,248.161047 C341.292538,248.197535 333.311891,257.226247 333.304342,269.552655 C333.311891,281.88032 341.286247,291.049949 352.739476,291.063789 C364.309716,291.049949 372.146931,282.126924 372.170836,269.552655 C372.146931,256.964545 364.425469,248.197535 352.739476,248.161047 L352.739476,248.161047 Z" id="Fill-1"></path>
        </g>
    </g>
</svg>