<?xml version="1.0" encoding="UTF-8"?>
<svg width="251px" height="69px" viewBox="0 0 251 69" version="1.1" xmlns="http://www.w3.org/2000/svg" xmlns:xlink="http://www.w3.org/1999/xlink">
    <!-- Generator: Sketch 54.1 (76490) - https://sketchapp.com -->
    <title>Group</title>
    <desc>Created with Sketch.</desc>
    <g id="Page-1" stroke="none" stroke-width="1" fill="none" fill-rule="evenodd">
        <g id="SM-5" transform="translate(-295.000000, -248.000000)" fill="#FFFFFF">
            <g id="Group-2-Copy" transform="translate(294.000000, 210.000000)">
                <g id="Group" transform="translate(1.000000, 38.000000)">
                    <path d="M67.9,0 L67.9,56.9 C36.2,54.2 11.7,31 11.7,2.7 L11.7,0.1 L9.1,0 L0,0 L0,68.5 L11.7,68.5 L11.7,38.1 C24.5,56 46.2,67.4 70.4,68.4 C70.5,68.4 73.7,68.5 73.7,68.5 L76.9,68.4 L79.5,68.4 L79.5,0 L77,0 L67.9,0 Z" id="Fill-1-Copy-3"></path>
                    <path d="M156.5,0 L156.5,2.6 C156.5,18.7 143.101,31.9 126.601,31.9 C110.101,31.9 96.7,18.8 96.7,2.6 L96.7,0 L85,0 L85,2.6 C85,22.7 100.5,39.7 120.8,42.5 L120.8,68.5 L132.4,68.5 L132.4,42.5 C152.601,39.7 168.2,22.7 168.2,2.6 L168.2,0 L165.601,0 L156.5,0 Z" id="Fill-4-Copy"></path>
                    <path d="M250.6,2.6 L250.6,-1.77635684e-13 L248,-1.77635684e-13 L238.9,-1.77635684e-13 L238.9,2.6 C238.9,16.9 226.5,28.5 211.3,28.5 C196.1,28.5 183.7,16.9 183.7,2.6 L183.7,-1.77635684e-13 L172,-1.77635684e-13 L172,2.6 C172,15.8 179.6,27.5 191.4,34.1 C188.7,35.6 186.1,37.3 183.8,39.4 C176.2,46.4 172,55.8 172,65.9 L172,68.4 L183.7,68.4 L183.7,65.9 C183.7,58.9 186.6,52.4 191.9,47.4 C197.1,42.6 204,39.9 211.3,39.9 C226.5,39.9 238.9,51.5 238.9,65.8 L238.9,68.3 L250.6,68.3 L250.6,65.8 C250.6,52.5 242.9,40.8 230.9,34.1 C242.9,27.6 250.6,15.9 250.6,2.6" id="Fill-6-Copy"></path>
                </g>
            </g>
        </g>
    </g>
</svg>