<?xml version="1.0" encoding="utf-8"?>
<!-- Generator: Adobe Illustrator 14.0.0, SVG Export Plug-In . SVG Version: 6.00 Build 43363)  -->
<!DOCTYPE svg PUBLIC "-//W3C//DTD SVG 1.1//EN" "http://www.w3.org/Graphics/SVG/1.1/DTD/svg11.dtd">
<svg version="1.1" id="Layer_1" xmlns="http://www.w3.org/2000/svg" xmlns:xlink="http://www.w3.org/1999/xlink" x="0px" y="0px"
	 width="792px" height="986.5px" viewBox="0 0 792 986.5" enable-background="new 0 0 792 986.5" xml:space="preserve">
<g>
	<rect x="228.083" y="949.375" fill="#3EA1BC" width="32.668" height="32.668"/>
	<rect x="359.917" y="885.543" fill="#3EA1BC" width="32.667" height="32.666"/>
	<polygon fill="#3EA1BC" points="-0.5,-3.394 -0.5,612 0,612 0,852.098 33.333,852.098 33.333,883.167 33.333,883.834 
		33.333,915.834 66,915.834 66,883.834 66,883.501 97.667,883.501 97.667,850.834 97.667,820.168 97.75,820.168 97.75,787.709 
		130.417,787.709 130.417,820.376 130.333,820.376 130.333,852.098 130.417,852.098 130.417,883.709 130.417,884.709 
		130.417,915.375 130.417,916.376 130.417,948.043 163.083,948.043 163.083,916.376 163.083,915.375 163.083,884.709 
		163.083,883.709 163.083,852.098 196.417,852.098 196.417,884.709 228.375,884.709 228.375,916.709 261.042,916.709 
		261.042,884.709 261.083,884.709 261.083,852.043 261.083,819.709 293.75,819.709 293.75,851.375 293.75,852.098 293.75,884.043 
		326.417,884.043 326.417,852.098 359.917,852.098 359.917,820.043 392.583,820.043 392.583,852.098 425.416,852.098 
		425.416,884.376 458.084,884.376 458.084,852.098 490.416,852.098 490.416,883.375 490.416,884.709 490.416,915.043 
		490.416,916.043 490.416,947.043 490.416,947.709 490.416,979.709 523.084,979.709 523.084,947.709 523.084,947.043 
		523.084,916.043 523.084,915.709 554.5,915.709 554.5,884.209 586.084,884.209 586.084,852.098 620.416,852.098 620.416,884.709 
		652.416,884.709 653.084,884.709 685.084,884.709 685.084,852.098 685.416,852.098 685.416,819.709 685.416,819.543 
		685.416,787.043 718.084,787.043 718.084,819.543 718.084,819.709 718.084,820.376 750.75,820.376 750.75,852.098 792,852.098 
		792,612 792,603 792,-3.394 	"/>
</g>
</svg>
