<?xml version="1.0" encoding="utf-8"?>
<!-- Generator: Adobe Illustrator 14.0.0, SVG Export Plug-In . SVG Version: 6.00 Build 43363)  -->
<!DOCTYPE svg PUBLIC "-//W3C//DTD SVG 1.1//EN" "http://www.w3.org/Graphics/SVG/1.1/DTD/svg11.dtd">
<svg version="1.1" id="Layer_1" xmlns="http://www.w3.org/2000/svg" xmlns:xlink="http://www.w3.org/1999/xlink" x="0px" y="0px"
	 width="792px" height="997.531px" viewBox="0 0 792 997.531" enable-background="new 0 0 792 997.531" xml:space="preserve">
<g id="Layer_2">
</g>
<g>
	<rect x="735.7" y="281.848" fill="#4BC5EC" width="56.303" height="56.304"/>
	<rect x="337.227" y="275.986" fill="#4BC5EC" width="56.306" height="56.307"/>
	<polygon fill="#4BC5EC" points="0,996.721 792,996.721 792,539.722 792.003,539.722 792.003,449.588 792.003,393.284 
		735.7,393.284 735.7,446.638 674.601,446.638 674.601,392.193 674.701,392.193 674.701,335.889 618.398,335.889 618.398,391.159 
		618.297,391.159 618.297,446.638 559.297,446.638 559.297,502.764 502.995,502.764 502.995,446.638 450.003,446.638 
		450.003,390.703 393.7,390.703 393.7,446.638 337.348,446.638 337.348,502.897 281.045,502.897 281.045,446.638 280.885,446.638 
		280.885,391.26 281.205,391.26 281.205,334.955 224.902,334.955 224.902,391.132 224.582,391.132 224.582,446.638 168.079,446.638 
		168.079,391.258 112.541,391.258 112.541,391.224 112.457,391.224 112.457,335.031 112.096,335.031 112.096,278.812 
		55.793,278.812 55.793,335.118 56.154,335.118 56.154,391.335 56.238,391.335 56.238,446.638 0.003,446.638 0.003,534.721 
		0,534.721 	"/>
</g>
</svg>
