<?xml version="1.0" encoding="utf-8"?>
<!-- Generator: Adobe Illustrator 14.0.0, SVG Export Plug-In . SVG Version: 6.00 Build 43363)  -->
<!DOCTYPE svg PUBLIC "-//W3C//DTD SVG 1.1//EN" "http://www.w3.org/Graphics/SVG/1.1/DTD/svg11.dtd">
<svg version="1.1" id="Layer_1" xmlns="http://www.w3.org/2000/svg" xmlns:xlink="http://www.w3.org/1999/xlink" x="0px" y="0px"
	 width="792px" height="1093.75px" viewBox="0 0 792 1093.75" enable-background="new 0 0 792 1093.75" xml:space="preserve">
<g>
	<rect x="228.083" y="839.375" fill="#3EA1BC" width="32.668" height="32.668"/>
	<rect x="359.917" y="775.543" fill="#3EA1BC" width="32.667" height="32.666"/>
	<polygon fill="#3EA1BC" points="-0.5,0 -0.5,502 0,502 0,742.098 33.333,742.098 33.333,773.167 33.333,773.834 33.333,805.834 
		66,805.834 66,773.834 66,773.501 97.667,773.501 97.667,740.834 97.667,710.168 97.75,710.168 97.75,677.709 130.417,677.709 
		130.417,710.376 130.333,710.376 130.333,742.098 130.417,742.098 130.417,773.709 130.417,774.709 130.417,805.375 
		130.417,806.376 130.417,838.043 163.083,838.043 163.083,806.376 163.083,805.375 163.083,774.709 163.083,773.709 
		163.083,742.098 196.417,742.098 196.417,774.709 228.375,774.709 228.375,806.709 261.042,806.709 261.042,774.709 
		261.083,774.709 261.083,742.043 261.083,709.709 293.75,709.709 293.75,741.375 293.75,742.098 293.75,774.043 326.417,774.043 
		326.417,742.098 359.917,742.098 359.917,710.043 392.583,710.043 392.583,742.098 425.416,742.098 425.416,774.376 
		458.084,774.376 458.084,742.098 490.416,742.098 490.416,773.375 490.416,774.709 490.416,805.043 490.416,806.043 
		490.416,837.043 490.416,837.709 490.416,869.709 523.084,869.709 523.084,837.709 523.084,837.043 523.084,806.043 
		523.084,805.709 554.5,805.709 554.5,774.209 586.084,774.209 586.084,742.098 620.416,742.098 620.416,774.709 652.416,774.709 
		653.084,774.709 685.084,774.709 685.084,742.098 685.416,742.098 685.416,709.709 685.416,709.543 685.416,677.043 
		718.084,677.043 718.084,709.543 718.084,709.709 718.084,710.376 750.75,710.376 750.75,742.098 792,742.098 792,502 792,493 
		792,0 	"/>
</g>
</svg>
