<?xml version="1.0" encoding="utf-8"?>
<!-- Generator: Adobe Illustrator 14.0.0, SVG Export Plug-In . SVG Version: 6.00 Build 43363)  -->
<!DOCTYPE svg PUBLIC "-//W3C//DTD SVG 1.1//EN" "http://www.w3.org/Graphics/SVG/1.1/DTD/svg11.dtd">
<svg version="1.1" id="Layer_1" xmlns="http://www.w3.org/2000/svg" xmlns:xlink="http://www.w3.org/1999/xlink" x="0px" y="0px"
	 width="792px" height="874.062px" viewBox="0 0 792 874.062" enable-background="new 0 0 792 874.062" xml:space="preserve">
<g id="Layer_2">
</g>
<g>
	<rect y="808.569" fill="#50C3E9" width="56.303" height="56.304"/>
	<rect x="398.471" y="814.429" fill="#50C3E9" width="56.304" height="56.305"/>
	<polygon fill="#50C3E9" points="792.003,0 0.003,0 0.003,606.999 0,606.999 0,697.133 0,753.437 56.303,753.437 56.303,700.083 
		117.403,700.083 117.403,754.528 117.302,754.528 117.302,810.832 173.605,810.832 173.605,755.563 173.706,755.563 
		173.706,700.083 232.706,700.083 232.706,643.957 289.008,643.957 289.008,700.083 342,700.083 342,756.019 398.303,756.019 
		398.303,700.083 454.655,700.083 454.655,643.823 510.958,643.823 510.958,700.083 511.118,700.083 511.118,755.461 
		510.798,755.461 510.798,811.767 567.101,811.767 567.101,755.589 567.421,755.589 567.421,700.083 623.924,700.083 
		623.924,755.463 679.462,755.463 679.462,755.497 679.546,755.497 679.546,811.69 679.907,811.69 679.907,867.909 736.21,867.909 
		736.21,811.604 735.849,811.604 735.849,755.386 735.765,755.386 735.765,700.083 792,700.083 792,612 792.003,612 	"/>
</g>
</svg>
