<?xml version="1.0" encoding="utf-8"?>
<!-- Generator: Adobe Illustrator 14.0.0, SVG Export Plug-In . SVG Version: 6.00 Build 43363)  -->
<!DOCTYPE svg PUBLIC "-//W3C//DTD SVG 1.1//EN" "http://www.w3.org/Graphics/SVG/1.1/DTD/svg11.dtd">
<svg version="1.1" id="Layer_1" xmlns="http://www.w3.org/2000/svg" xmlns:xlink="http://www.w3.org/1999/xlink" x="0px" y="0px"
	 width="792px" height="1093.75px" viewBox="0 0 792 1093.75" enable-background="new 0 0 792 1093.75" xml:space="preserve">
<g>
	<rect x="530.749" y="410" fill="#429EC6" width="32.668" height="32.668"/>
	<rect x="398.916" y="473.834" fill="#429EC6" width="32.667" height="32.666"/>
	<polygon fill="#429EC6" points="792,1092.043 792,830.043 791.5,830.043 791.5,539.945 758.167,539.945 758.167,508.876 
		758.167,508.209 758.167,476.209 725.5,476.209 725.5,508.209 725.5,508.542 693.833,508.542 693.833,541.209 693.833,571.875 
		693.75,571.875 693.75,604.334 661.083,604.334 661.083,571.667 661.167,571.667 661.167,539.945 661.083,539.945 661.083,508.334 
		661.083,507.334 661.083,476.668 661.083,475.667 661.083,444 628.417,444 628.417,475.667 628.417,476.668 628.417,507.334 
		628.417,508.334 628.417,539.945 595.083,539.945 595.083,507.334 563.125,507.334 563.125,475.334 530.458,475.334 
		530.458,507.334 530.417,507.334 530.417,540 530.417,572.334 497.75,572.334 497.75,540.668 497.75,539.945 497.75,508 
		465.083,508 465.083,539.945 431.583,539.945 431.583,572 398.917,572 398.917,539.945 366.084,539.945 366.084,507.667 
		333.416,507.667 333.416,539.945 301.084,539.945 301.084,508.668 301.084,507.334 301.084,477 301.084,476 301.084,445 
		301.084,444.334 301.084,412.334 268.416,412.334 268.416,444.334 268.416,445 268.416,476 268.416,476.334 237,476.334 
		237,507.834 205.416,507.834 205.416,539.945 171.084,539.945 171.084,507.334 139.084,507.334 138.416,507.334 106.416,507.334 
		106.416,539.945 106.084,539.945 106.084,572.334 106.084,572.5 106.084,605 73.416,605 73.416,572.5 73.416,572.334 
		73.416,571.667 40.75,571.667 40.75,539.945 -0.5,539.945 -0.5,830.043 -0.5,839.043 -0.5,1092.043 	"/>
</g>
</svg>
