<svg xmlns="http://www.w3.org/2000/svg" viewBox="0 0 64.5 64.49"><defs><style>.cls-1,.cls-2{stroke:#fff;stroke-miterlimit:10;}.cls-2{fill:#fff;}</style></defs><title>Beach ball</title><g id="Layer_2" data-name="Layer 2"><g id="Layer_1-2" data-name="Layer 1"><path class="cls-1" d="M51.81,7.25A31.14,31.14,0,0,0,44.65,3,60,60,0,0,1,46.42,9a54.18,54.18,0,0,1,.65,23A53.66,53.66,0,0,1,31.64,60c-1.53,1.5-2.94,2.73-4.08,3.65A31.74,31.74,0,0,0,51.81,7.25Z"/><path class="cls-1" d="M30.09.57a31.75,31.75,0,0,0-18.22,56,31.41,31.41,0,0,0,8.3,5c-.49-1.46-1.07-3.35-1.6-5.59a53.9,53.9,0,0,1,1.86-31.85A53.5,53.5,0,0,1,33.24,5a57.81,57.81,0,0,1,4.57-4A31.44,31.44,0,0,0,30.09.57Z"/><path class="cls-2" d="M46.42,9A60,60,0,0,0,44.65,3a30.38,30.38,0,0,0-3.58-1.28A30.06,30.06,0,0,0,37.81,1a57.81,57.81,0,0,0-4.57,4A53.5,53.5,0,0,0,20.43,24.17,53.9,53.9,0,0,0,18.57,56c.53,2.24,1.11,4.13,1.6,5.59q1.59.64,3.27,1.14a33.69,33.69,0,0,0,4.12.89c1.14-.92,2.55-2.15,4.08-3.65A53.66,53.66,0,0,0,47.07,31.92,54.18,54.18,0,0,0,46.42,9Z"/></g></g></svg>