<svg xmlns="http://www.w3.org/2000/svg" xmlns:xlink="http://www.w3.org/1999/xlink" viewBox="0 0 112.94 326.18"><defs><style>.cls-1{opacity:0.5;fill:url(#linear-gradient);}.cls-2{stroke:#fff;stroke-miterlimit:10;}</style><linearGradient id="linear-gradient" x1="712.26" y1="159.89" x2="818.71" y2="159.89" gradientTransform="matrix(-1, 0, 0, 1, 818.71, 0)" gradientUnits="userSpaceOnUse"><stop offset="0" stop-color="#fff"/><stop offset="1"/></linearGradient></defs><title>Phone base</title><g id="Layer_2" data-name="Layer 2"><g id="Layer_1-2" data-name="Layer 1"><path class="cls-1" d="M0,309.14c0,6.63,11.16,13.06,16.88,9.72L92.8,275.08a26.2,26.2,0,0,0,13.47-23.47l.17-241C106.45,4,95.28-2.43,89.57.91L13.65,44.69A26.24,26.24,0,0,0,.17,68.16Zm7.83-12.49L8.4,87.16,97.34,35.77l-.58,209.5Z"/><path class="cls-2" d="M5.64,315c0,6.62,11.15,13.07,16.87,9.74l76-43.7A26.19,26.19,0,0,0,112,257.63l.46-241c0-6.63-11.15-13.07-16.87-9.74L19.6,50.6A26.22,26.22,0,0,0,6.1,74.06Zm8.64-27.26L14.86,92,103.8,40.62l-.58,195.77Z"/><ellipse class="cls-2" cx="64.52" cy="278.61" rx="16.07" ry="9.02" transform="translate(-209.02 195.18) rotate(-60)"/></g></g></svg>