<svg xmlns="http://www.w3.org/2000/svg" xmlns:xlink="http://www.w3.org/1999/xlink" viewBox="0 0 874.02 431.5"><defs><style>.cls-1{fill:none;}.cls-1,.cls-4,.cls-5{stroke:#fff;stroke-miterlimit:10;}.cls-2{fill:url(#linear-gradient);}.cls-3{clip-path:url(#clip-path);}.cls-4{fill:url(#New_Gradient_Swatch);}.cls-5{fill:#fff;}</style><linearGradient id="linear-gradient" x1="0.61" y1="193.85" x2="819.69" y2="193.85" gradientUnits="userSpaceOnUse"><stop offset="0" stop-color="#fff"/><stop offset="1" stop-color="#009ad7"/></linearGradient><clipPath id="clip-path"><polygon class="cls-1" points="779.03 202.87 497.26 349.87 460.62 335.6 755.43 149.41 572.72 0.65 176.6 224.95 108.27 198.33 0.61 228.1 9.33 260.67 106.32 233.75 499.8 387.05 819.69 215.55 779.03 202.87"/></clipPath><linearGradient id="New_Gradient_Swatch" x1="524.99" y1="417.41" x2="524.99" y2="118.59" xlink:href="#linear-gradient"/></defs><title>Pool</title><g id="Layer_2" data-name="Layer 2"><g id="Layer_1-2" data-name="Layer 1"><polygon class="cls-2" points="779.03 202.87 497.26 349.87 460.62 335.6 755.43 149.41 572.72 0.65 176.6 224.95 108.27 198.33 0.61 228.1 9.33 260.67 106.32 233.75 499.8 387.05 819.69 215.55 779.03 202.87"/><g class="cls-3"><path class="cls-4" d="M289.39,417.41h278l306-118-45-126L687.05,211.68,572.72,118.59,176.6,342.89Z"/><line class="cls-1" x1="462.77" y1="336.51" x2="462.77" y2="417.93"/><line class="cls-1" x1="498.05" y1="350.08" x2="498.05" y2="431.5"/><line class="cls-1" x1="109.07" y1="191.78" x2="109.07" y2="273.19"/><line class="cls-1" x1="176.46" y1="216.2" x2="176.46" y2="297.61"/><line class="cls-1" x1="573.13" x2="573.13" y2="118.5"/><line class="cls-1" x1="778.93" y1="191.78" x2="778.93" y2="273.19"/></g><polygon class="cls-1" points="779.03 202.87 497.26 349.87 460.62 335.6 755.43 149.41 572.72 0.65 176.6 224.95 108.27 198.33 0.61 228.1 9.33 260.67 106.32 233.75 499.8 387.05 819.69 215.55 779.03 202.87"/><ellipse class="cls-5" cx="613.56" cy="390.8" rx="39.84" ry="24"/><ellipse class="cls-5" cx="820.05" cy="274.21" rx="39.84" ry="24"/></g></g></svg>