<svg xmlns="http://www.w3.org/2000/svg" xmlns:xlink="http://www.w3.org/1999/xlink" viewBox="0 0 274.76 327.99"><defs><style>.cls-1{fill:none;}.cls-1,.cls-3{stroke:#fff;stroke-miterlimit:10;}.cls-2,.cls-4{opacity:0.5;}.cls-2{fill:url(#linear-gradient);}.cls-4{fill:url(#linear-gradient-2);}</style><linearGradient id="linear-gradient" x1="64.27" y1="150.84" x2="274.76" y2="150.84" gradientUnits="userSpaceOnUse"><stop offset="0" stop-color="#fff"/><stop offset="1"/></linearGradient><linearGradient id="linear-gradient-2" x1="18.97" y1="176.32" x2="229.45" y2="176.32" xlink:href="#linear-gradient"/></defs><title>Slide</title><g id="Layer_2" data-name="Layer 2"><g id="Layer_1-2" data-name="Layer 1"><polyline class="cls-1" points="3.5 194.93 9.8 191.29 47.68 169.42"/><polyline class="cls-1" points="6.82 163.74 13.13 160.1 51.01 138.23"/><polyline class="cls-1" points="10.15 132.55 16.45 128.91 54.34 107.04"/><polyline class="cls-1" points="16.8 70.4 23.22 66.69 61.8 44.42"/><polyline class="cls-1" points="13.47 101.36 19.78 97.72 57.66 75.85"/><line class="cls-1" x1="63.5" y1="15.42" x2="44.5" y2="195.42"/><path class="cls-2" d="M70.31,1.54c26.24,41.81,140.26,223.9,166.51,265.71a3.28,3.28,0,0,0,1.13,1.09l35.17,20.31a3.27,3.27,0,0,1,1.64,2.83v6.93a3.27,3.27,0,0,1-4.84,2.87l-38.3-21a3.33,3.33,0,0,1-1.2-1.13c-28-44.6-137.57-217-165.65-261.75h0a3.17,3.17,0,0,1-.5-1.72V3.27A3.27,3.27,0,0,1,70.31,1.54Z"/><path class="cls-3" d="M63.56,15.82,231,279.53c11.44,6.57,28.13,15.11,40.53,22l-45.67,25.86-40.25-22.06C157.16,260.12,47.37,87.34,19,42.09"/><path class="cls-4" d="M25,27c26.25,41.81,140.26,223.9,166.51,265.71a3.19,3.19,0,0,0,1.13,1.09l35.17,20.31a3.27,3.27,0,0,1,1.64,2.83v6.93a3.27,3.27,0,0,1-4.84,2.87l-38.3-21a3.33,3.33,0,0,1-1.2-1.13C157.1,260,47.48,87.48,19.47,42.9a3.29,3.29,0,0,1-.5-1.75V28.75A3.26,3.26,0,0,1,25,27Z"/><line class="cls-1" x1="19.5" y1="42.42" x2="0.5" y2="222.42"/></g></g></svg>