<svg xmlns="http://www.w3.org/2000/svg" xmlns:xlink="http://www.w3.org/1999/xlink" viewBox="0 0 107.79 320.68"><defs><style>.cls-1{fill:none;}.cls-2{clip-path:url(#clip-path);}.cls-3{stroke:#fff;stroke-miterlimit:10;}</style><clipPath id="clip-path" transform="translate(-60.44 -36.56)"><polygon class="cls-1" points="0 255.48 87.58 255.48 109.38 144.89 211.49 144.89 211.49 0 0 0 0 255.48"/></clipPath></defs><title>Top Phone Layer</title><g id="Layer_2" data-name="Layer 2"><g id="Layer_1-2" data-name="Layer 1"><g class="cls-2"><path class="cls-3" d="M60.94,346.09c0,6.62,11.14,13.07,16.86,9.74l76-43.69a26.22,26.22,0,0,0,13.51-23.46l.45-241c0-6.62-11.15-13.07-16.87-9.74l-76,43.7a26.21,26.21,0,0,0-13.5,23.45Zm8.64-27.26.58-195.78,88.93-51.38-.58,195.77Z" transform="translate(-60.44 -36.56)"/></g></g></g></svg>