<?xml version="1.0" encoding="iso-8859-1"?>
<!-- Generator: Adobe Illustrator 19.2.1, SVG Export Plug-In . SVG Version: 6.00 Build 0)  -->
<svg version="1.1" id="Layer_1" xmlns="http://www.w3.org/2000/svg" xmlns:xlink="http://www.w3.org/1999/xlink" x="0px" y="0px"
	 viewBox="0 0 199.999 200" style="enable-background:new 0 0 199.999 200;" xml:space="preserve">
<g>
	<path d="M100,200c26.71,0,51.823-10.402,70.71-29.29s29.289-44,29.289-70.71c0-26.711-10.401-51.823-29.289-70.711
		C151.823,10.402,126.71,0,100,0C44.86,0,0,44.86,0,100c0,26.71,10.402,51.822,29.29,70.71S73.29,200,100,200z"/>
	<path style="fill:#FFFFFF;" d="M3.46,100c0-25.787,10.042-50.03,28.276-68.264C49.97,13.502,74.213,3.46,100,3.46
		s50.03,10.042,68.264,28.276C186.499,49.97,196.541,74.213,196.541,100c0,53.232-43.309,96.54-96.541,96.54
		c-25.787,0-50.03-10.042-68.264-28.276C13.502,150.03,3.46,125.786,3.46,100z"/>
</g>
<circle cx="100" cy="100" r="92.561"/>
<circle style="fill:#FFFFFF;" cx="100" cy="100" r="59.125"/>
<g>
	<path d="M44.679,100H100V44.679C69.447,44.679,44.679,69.447,44.679,100z"/>
	<path d="M100,100v55.321c30.553,0,55.321-24.769,55.321-55.321H100z"/>
</g>
<g>
	<g>
		<path style="fill:#FFFFFF;" d="M56.55,43.588c-1.959-1.905-4.989-2.479-7.833-0.716c0.544-1.408,0.322-2.845,0.033-3.637
			c-1.226-2.235-1.653-2.514-2.663-3.362c-3.269-2.743-6.709-0.401-9.169,2.531L25.028,52.572l18.689,15.682l12.537-14.941
			C59.119,49.899,59.561,46.515,56.55,43.588z"/>
	</g>
	<g>
		<polygon style="fill:#FFFFFF;" points="103.096,36.856 109.515,19.844 109.515,36.856 114.393,36.856 114.393,12.492 
			107.064,12.492 100.398,29.936 100.467,29.936 93.801,12.492 86.473,12.492 86.473,36.856 91.35,36.856 91.35,19.844 
			97.769,36.856 		"/>
	</g>
	<g>
		<polygon style="fill:#FFFFFF;" points="168.676,46.992 159.494,59.993 173.731,53.234 177.5,57.889 155.091,68.752 
			150.667,63.245 159.482,50.357 159.429,50.292 144.991,56.234 140.524,50.762 155.807,31.101 159.578,35.756 150.006,48.277 
			164.632,41.998 		"/>
	</g>
</g>
<path d="M39.515,41.911c0.827-0.986,2.697-0.946,3.899,0.063c1.322,1.109,1.326,2.682,0.438,3.74l-7.06,8.414l-4.417-3.707
	L39.515,41.911z"/>
<path d="M52.076,51.836l-7.443,8.871l-4.667-3.917l7.504-8.943c0.847-1.01,2.736-1.304,4.011-0.234
	C52.921,48.823,53.064,50.658,52.076,51.836z"/>
</svg>
