<?xml version="1.0" encoding="iso-8859-1"?>
<!-- Generator: Adobe Illustrator 19.0.0, SVG Export Plug-In . SVG Version: 6.00 Build 0)  -->
<!DOCTYPE svg PUBLIC "-//W3C//DTD SVG 1.1//EN" "http://www.w3.org/Graphics/SVG/1.1/DTD/svg11.dtd">
<svg version="1.1" id="Layer_1" xmlns="http://www.w3.org/2000/svg" xmlns:xlink="http://www.w3.org/1999/xlink" x="0px" y="0px"
	 viewBox="0 0 187.088 66.048" style="enable-background:new 0 0 187.088 66.048;" xml:space="preserve">
<g>
	<path style="fill-rule:evenodd;clip-rule:evenodd;" d="M35.759,0.441L35.09,0.905C22.989,0.51,11.315,1.807,3.655,11.256
		c-2.23,2.75-2.046,7.973,0.27,10.987c3.143,4.089,7.872,5.106,12.937,4.974c9.8-12.167,22.03-21.831,36.154-25.346
		c1.543-0.384,2.746,0.087,3.44,0.4c3.546,1.594-2.05,9.933-4.344,12.097c-8.694,8.201-19.43,11.333-30.349,13.833
		c-2.211,3.581-11.47,18.281-4.811,20.565c4.702,1.613,11.298-2.456,15.922-7.498c8.639-9.421,5.019-13.588-0.716-11.748
		c-3.749,1.202-8.31,5.629-11.928,10.326l-0.509-0.271c2.396-5.331,10.413-11.574,15.558-11.772
		c3.875-0.149,6.153,3.429,2.632,11.986c3.262-1.986,6.813-3.932,9.59-6.549c2.321-2.188,3.877-4.276,5.839-6.848
		c5.299-6.947,10.17-14.646,17.558-20.045c4.416-2.389,4.51,2.767,0.811,8.284c-3.817,5.693-10.504,11.26-12.457,12.501
		c-2.843,2.241-6.948,4.081-8.754,7.677c2.416-0.511,5.562-5.673,9.659-3.769c2.778,1.292,0.918,4.908-1.549,8.393
		c-4.494,6.344-6.917,9.06-4.521,8.827c1.294-0.125,6.403-3.439,9.768-7.811c3.038-3.947,6.62-7.691,9.667-9.036
		c3.585-1.581,6.391-0.72,7.451,0.707c1.24,1.667,0.191,3.922-0.405,6.994c-0.159,0.737,0.956,0.419,1.285,0.222
		c5.196-3.42,10.761-7.436,14.641-12.895c1.184-0.197,2.512-0.062,3.893-0.062c-0.611,1.923-6.717,7.419-6.121,8.795
		c0.369,0.853,4.168-2.793,6.949-4.063c3.467-1.583,4.004,1.435,1.963,4.754c-2.18,3.542-5.848,7.782-6.549,9.653
		c-0.131,0.724-0.027,1.876,0.781,1.788c1.461-0.16,2.637-0.955,3.814-1.802c1.613-1.159,3.16-2.545,4.834-3.724
		c1.803-4.573,12.088-15.224,17.783-9.737c0.279,0.27,0.465,0.799,0.879,0.929c0.697,0.219,1.533-0.873,2.059-1.596
		c0.508,0.024,1.447-0.04,2.277-0.003c0.471,0.021,1.205-0.298,1.508-0.177c0.301,0.122-0.006,0.663-0.232,0.939
		c-3.979,4.865-7.529,8.718-9.791,14.145c-0.441,1.059,0.625,1.664,1.504,1.115c3.74-2.343,6.332-5.751,8.867-9.167
		c1.793-2.413,3.238-4.702,4.928-6.996c0.785-1.066-1.402-1.986-1.092-3.414c0.293-1.344,2.146-1.872,2.957-1.219
		c1.863,1.502-0.082,2.772,0.697,3.563c1.434,1.458,4.234,2.463,3.459,5.252c-0.656,2.357-4.418,6.895-5.74,8.58
		c-3.113,3.97,1.562,3.892,6.635-1.073c1.242-3.549,9.158-12.352,15.098-11.983c1.67,0.104,3.912,0.473,4.65,2.708
		c6.432-7.55,13.842-18.931,20.42-27.161c1.381,0.263,3.047-0.532,4.166,0.191c-2.559,3.621-5.5,7.188-8.25,10.74
		c-4.32,5.58-8.434,11.305-12.549,16.974c-2.725,3.755-5.586,7.386-8.023,11.295c-0.861,1.38,0.234,2.222,1.436,1.622
		c3.998-1.993,7.48-6.813,10.082-10.429l0.939,0.037c-2.916,4.471-9.033,12.238-12.869,12.399c-1.559,0.064-2.771-0.658-3.189-3.997
		c-3.322,2.216-12.342,7.529-12.432-0.273c-2.266,1.497-6.344,4.595-8.693,4.093c-1.607-0.343-2.781-2.405-0.588-6.095
		c2.027-3.413,5.967-7.191,6.125-9.505c0.068-0.986-0.43-1.743-1.84-2.164c-1.494,1.573-14.539,22.41-19.066,17.109
		c-1.109-1.353-1.283-3.16-1.947-2.791c-2.932,1.636-6.324,4.611-9.891,2.56c-1.584-0.911-0.547-4.907-1.623-4.086
		c-2.947,2.25-7.533,6.241-10.348,4.909c-2.06-0.975-1.102-4.378,0.025-5.921c5.174-7.091,6.783-9.394,5.68-9.407
		c-1.25-0.017-5.962,3.084-10.524,8.091c-7.934,8.707-16.562,21.406-18.588,23.632c-0.637,0.637-3.144,0.737-4.492,0.339
		c3.94-4.918,7.718-10.231,11.713-15.269c3.574-4.507,7.093-8.617,10.159-13.334c0.262-0.477-0.387-0.795-0.798-0.462
		c-2.396,1.938-4.721,3.246-7.121,4.627c-0.703,0.405-1.469,0.651-2.175,1.126c-0.416,0.279-0.65,0.806-1.012,1.09
		c-2.726,2.146-4.364,3.946-8.578,5.416c-2.043,0.713-3.964,0.546-5.202-0.062c-1.391-0.683-1.302-2.814-1.533-3.755
		c-0.139-0.562-0.317-0.729-0.901-0.243c-5.173,4.302-7.021,5.323-9.387,4.448c-1.977-0.731-1.535-3.166,1.583-7.793
		c2.694-3.995,6.473-7.906,4.946-9.104c-1.08-0.848-5.372,1.544-10.575,6.936c-4.061,4.208-7.274,9.031-7.397,9.182
		c-1.381,0.131-3.095,0.487-4.607,0.356c0.413-0.479,8.193-10.943,9.344-12.246c-8.83,4.396-17.017,16.291-27.955,13.291
		c-8.829-2.421-4.779-14.849-0.844-21.503c-5.459-0.46-11.163-1.503-14.567-6.269c-2.187-3.061-1.932-7.969-0.097-10.811
		C7.994,1.309,24.43-1.14,35.759,0.441L35.759,0.441z M46.392,16.312c-5.649,4.6-15.583,9.463-23.456,9.822
		c3.812-4.374,9.58-10.141,15.535-14.629c1.402-1.057,9.899-6.515,14.42-8.045c1.043-0.353,1.833-0.668,2.322-0.477
		c0.724,0.282,0.299,1.063-0.007,2.18C54.579,7.452,52.386,11.432,46.392,16.312L46.392,16.312z M71.646,12.093
		c-3.688,5.74-10.295,12.691-16.28,16.243c4.718-6.656,9.25-13.838,15.133-19.56C74.764,4.628,73.009,9.971,71.646,12.093
		L71.646,12.093z M79.316,36.819c-0.461,1.142-3.189,0.3-4.048,0.875c-0.873,0.584-1.668,2.095-1.618,3.366
		c0.032,0.814,1.291,1.8,0.708,2.361c-4.75,4.569-7.999,5.552-9.704,4.898c-1.244-0.476-0.868-2.938,2.56-7.687
		c1.479-2.05,10.041-12.025,12.638-8.127C80.285,33.156,80.192,34.655,79.316,36.819L79.316,36.819z M160.762,35.765
		c-2.4,7.251-15.193,15.551-15.943,11.543c-0.598-3.196,7.77-12.984,12.951-14.953C160.971,31.139,161.652,33.077,160.762,35.765
		L160.762,35.765z M122.676,37.052c-1.119,2.527-3.385,4.905-5.67,6.745c-3.51,2.827-7.271,4.955-8.814,4.011
		c-2.18-1.333,1.357-6.93,5.643-11.006c2.635-2.505,5.627-4.849,7.674-4.863C124.226,31.919,123.299,35.646,122.676,37.052
		L122.676,37.052z"/>
</g>
</svg>
