<?xml version="1.0" encoding="iso-8859-1"?>
<!-- Generator: Adobe Illustrator 19.0.0, SVG Export Plug-In . SVG Version: 6.00 Build 0)  -->
<!DOCTYPE svg PUBLIC "-//W3C//DTD SVG 1.1//EN" "http://www.w3.org/Graphics/SVG/1.1/DTD/svg11.dtd">
<svg version="1.1"
	 id="svg4011" xmlns:cc="http://creativecommons.org/ns#" xmlns:svg="http://www.w3.org/2000/svg" xmlns:dc="http://purl.org/dc/elements/1.1/" xmlns:rdf="http://www.w3.org/1999/02/22-rdf-syntax-ns#"
	 xmlns="http://www.w3.org/2000/svg" xmlns:xlink="http://www.w3.org/1999/xlink" x="0px" y="0px"
	 viewBox="34.326 31.561 231.348 36.878" style="enable-background:new 34.326 31.561 231.348 36.878;" xml:space="preserve">
<g>
	<polygon points="43.05,60.316 43.095,52.226 59.061,52.226 59.05,45.306 43.071,45.294 43.05,38.761 60.21,38.815 60.21,32.202 
		34.326,32.202 34.326,67.001 61.663,67.013 61.662,60.337 	"/>
	<polygon points="99.812,32.216 89.35,32.202 83.081,42.669 76.652,32.202 66.091,32.202 77.655,48.339 64.227,67.001 
		74.741,67.001 83.081,54.221 90.882,67.001 101.651,67.001 88.217,48.339 	"/>
	<polygon points="180.43,52.214 196.182,52.214 196.182,45.294 180.43,45.294 180.43,38.815 197.342,38.815 197.342,32.202 
		171.64,32.202 171.64,67.001 198.889,67.001 198.889,60.315 180.43,60.315 	"/>
	<path d="M118.897,32.202l-14.48,0.002v34.795h8.829V55.788l5.547-0.002c7.125-0.002,14.896-2.358,14.896-12.461
		C133.688,33.284,125.918,32.2,118.897,32.202z M120.083,49.357H112.5V38.815h7.583c5.091,0,5.091,3.749,5.091,4.496
		C125.173,48.792,121.809,49.357,120.083,49.357z"/>
	<path d="M166.199,43.024c0-11.117-9.046-10.822-12.441-10.822h-16.653v34.799h8.682V54.632l5.723-0.062l6.687,12.432h9.847
		l-7.84-13.891C161.609,53.111,166.199,50.721,166.199,43.024z M152.283,48.339h-7.243v-9.524h7.243c2.436,0.14,5.41,0,5.41,4.754
		C157.693,47.409,155.334,48.339,152.283,48.339z"/>
	<path d="M217.035,38.568c5.217,0.593,8.447,4.636,8.447,4.636l6.383-4.984c-3.83-4.016-10.105-6.748-15.438-6.656
		c-8.611,0.148-14.352,3.9-14.193,12.218c0.078,4.204,2.398,8.239,10.516,9.482c6.187,0.946,12.422,0.985,10.305,5.501
		c-1.18,2.512-5.559,2.922-8.512,2.613c-2.949-0.309-6.34-2.771-7.779-4.315l-6.809,4.36c5.785,5.826,12.351,7.615,19.33,6.84
		c5.551-0.617,12.047-3.355,12.49-11.17c0.365-6.428-4.189-10.144-12.295-10.973c-2.877-0.293-8.543-0.785-8.689-3.966
		C210.678,39.757,214.648,38.298,217.035,38.568z"/>
	<path d="M250.844,38.574c5.217,0.593,8.449,4.636,8.449,4.636l6.381-4.984c-3.83-4.016-9.672-6.646-15.439-6.656
		c-8.609-0.013-14.35,3.899-14.191,12.219c0.08,4.203,2.398,8.238,10.516,9.481c6.188,0.946,12.422,0.985,10.303,5.501
		c-1.178,2.511-5.559,2.922-8.51,2.613c-2.949-0.309-6.34-2.771-7.779-4.315l-6.809,4.361c5.785,5.825,12.352,7.614,19.33,6.838
		c5.551-0.616,12.047-3.354,12.49-11.169c0.367-6.43-4.189-10.142-12.293-10.973c-2.877-0.293-8.543-0.785-8.691-3.965
		C244.484,39.763,248.457,38.305,250.844,38.574z"/>
</g>
</svg>
