<?xml version="1.0" encoding="utf-8"?>
<!-- Generator: Adobe Illustrator 19.0.0, SVG Export Plug-In . SVG Version: 6.00 Build 0)  -->
<svg version="1.1" id="Layer_1" xmlns="http://www.w3.org/2000/svg" xmlns:xlink="http://www.w3.org/1999/xlink" x="0px" y="0px"
	 viewBox="59.2 -11.5 140 40" style="enable-background:new 59.2 -11.5 140 40;" xml:space="preserve">
<style type="text/css">
	.st0{fill:#3F7298;}
	.st1{fill:#333333;}
</style>
<title>instagram-v-snapchat</title>
<path class="st0" d="M60-4.9V22c0,2.2,1.8,4,4,4h27c2.2,0,4-1.8,4-4V-4.9c0-2.2-1.8-4-4-4H64.1C61.8-8.9,60-7.1,60-4.9L60-4.9z
	 M84.2-3.5c0-0.7,0.6-1.4,1.4-1.4l0,0h4c0.7,0,1.3,0.6,1.3,1.4l0,0v4c0,0.7-0.6,1.4-1.3,1.4l0,0h-4c-0.7,0-1.4-0.6-1.4-1.3l0,0V-3.5
	z M77.5,1.9c3.7,0,6.7,3,6.7,6.7s-3,6.7-6.7,6.7s-6.7-3-6.7-6.7l0,0C70.8,4.9,73.8,1.9,77.5,1.9z M64,5.9h3
	c-1.5,5.8,1.9,11.6,7.7,13.2c5.8,1.5,11.6-1.9,13.2-7.7c0.5-1.8,0.5-3.7,0-5.5h3v14.8c0,0.7-0.6,1.3-1.3,1.3H65.4
	c-0.7,0-1.3-0.6-1.4-1.3L64,5.9L64,5.9z"/>
<path class="st1" d="M108,2.3h2.2v13.6H108V2.3z"/>
<path class="st1" d="M113,2.3h2.6l3.9,10.1l0,0V2.3h2.1v13.6H119l-3.9-10.4l0,0v10.4H113V2.3z"/>
<path class="st1" d="M126.4,11.7V12c0,1.6,0.7,2.5,2.2,2.5c1.1,0.1,2-0.7,2-1.8c0-0.1,0-0.1,0-0.2c0.1-1.2-0.8-2.2-1.9-2.4l-1.5-0.5
	c-2-0.8-2.8-1.8-2.8-3.7c0-2.5,1.7-3.8,4.2-3.8c3.5,0,3.9,2.1,3.9,3.6V6h-2.2V5.6c0.2-0.9-0.4-1.8-1.4-2c-0.2,0-0.4,0-0.5,0
	c-1-0.1-1.8,0.7-1.8,1.6c0,0.1,0,0.3,0,0.4c0,1.2,0.6,1.8,2,2.3l1.5,0.5c1.9,0.7,2.8,1.7,2.8,3.6c0,2.9-1.8,4.1-4.5,4.1
	c-3.4,0-4.1-2.2-4.1-4.1v-0.3L126.4,11.7L126.4,11.7z"/>
<path class="st1" d="M137.6,4.1h-3.2V2.3h8.6v1.8h-3.2v11.8h-2.2L137.6,4.1L137.6,4.1z"/>
<path class="st1" d="M146.4,2.3h2.8l3.6,13.6h-2.3l-0.8-3.3h-4l-0.9,3.3h-2.2L146.4,2.3z M149.3,10.8l-1.6-6.7l0,0l-1.7,6.7H149.3
	L149.3,10.8z"/>
<path class="st1" d="M161.2,14.3L161.2,14.3c-0.5,1.2-1.7,2-3,1.8c-3,0-4-2.2-4-7s1.4-7,4.5-7c2-0.2,3.8,1.3,4,3.4
	c0,0.2,0,0.4,0,0.6v0.2h-2.1V5.9c0.2-1-0.6-2-1.6-2.2c-0.1,0-0.2,0-0.3,0c-1.5,0-2.4,1-2.4,5.4s0.7,5.5,2.2,5.5
	c1.7,0,2.3-1.2,2.3-4.1h-2.3V8.7h4.3v7.1h-1.6V14.3L161.2,14.3z"/>
<path class="st1" d="M165.4,2.3h4.8c1.7-0.2,3.3,1.1,3.4,2.8c0,0.2,0,0.5,0,0.7c0,1.8-0.8,3.1-2.3,3.3l0,0c1.4,0.1,2.1,0.9,2.1,2.8
	c0,0.9,0,1.9,0.1,2.8c0,0.5,0.2,0.9,0.7,1.2h-2.5c-0.2-0.4-0.4-0.8-0.4-1.2c-0.1-0.8-0.1-1.6-0.1-2.6c0-1.5-0.5-2.1-2-2.1h-1.8v5.9
	h-2.2L165.4,2.3L165.4,2.3z M169.3,8.3c1.1,0.1,2.1-0.7,2.2-1.8c0-0.1,0-0.3,0-0.4c0-1.4-0.6-2.2-2-2.2h-1.8v4.4L169.3,8.3
	L169.3,8.3z"/>
<path class="st1" d="M179,2.3h2.8l3.6,13.6h-2.3l-0.8-3.3h-4l-0.9,3.3h-2.2L179,2.3z M181.8,10.8l-1.6-6.7l0,0l-1.6,6.7H181.8
	L181.8,10.8z"/>
<path class="st1" d="M187,2.3h3.4l2.4,10l0,0l2.4-10h3.4v13.6h-2V4.6l0,0l-2.7,11.3H192l-3-11.3l0,0v11.3H187V2.3L187,2.3z"/>
</svg>
