<svg id="Layer_1" data-name="Layer 1" xmlns="http://www.w3.org/2000/svg" viewBox="0 0 304 42"><defs><style>.cls-1{fill:#3f7298;}.cls-2{fill:#fff900;}.cls-3{fill:#fff;}.cls-4{fill:#030303;}.cls-5{fill:#333;}</style></defs><title>instagram-v-snapchat</title><path class="cls-1" d="M1.5,7.54V34.46a4,4,0,0,0,4,4H32.46a4,4,0,0,0,4-4V7.54a4,4,0,0,0-4-4H5.54A4,4,0,0,0,1.5,7.54ZM25.73,8.88a1.35,1.35,0,0,1,1.35-1.35h4a1.35,1.35,0,0,1,1.35,1.35v4a1.35,1.35,0,0,1-1.35,1.35h-4a1.35,1.35,0,0,1-1.35-1.35v-4ZM19,14.27A6.73,6.73,0,1,1,12.27,21,6.73,6.73,0,0,1,19,14.27Zm-13.46,4h3a10.77,10.77,0,1,0,20.83,0h3V33.12a1.35,1.35,0,0,1-1.35,1.35H6.89a1.35,1.35,0,0,1-1.35-1.35V18.31Z"/><rect class="cls-2" x="262.5" y="1" width="40" height="40" rx="6.37" ry="6.37"/><path class="cls-3" d="M290.36,23.29a1.9,1.9,0,0,1-.16-1.61,3.09,3.09,0,0,1,2.06-1.36l0.39-.13c1-.41,1.12-0.77,1.12-0.87a0.67,0.67,0,0,0-.51-0.48h0a1,1,0,0,0-.39-0.07,0.75,0.75,0,0,0-.31.06,4.07,4.07,0,0,1-1.54.42h0a1.47,1.47,0,0,1-1-.39l-0.08-.09V18.63c0-.29,0-0.59.05-0.9,0.12-2,.28-4.41-0.32-5.76a7.36,7.36,0,0,0-6.84-4.4h-0.59a7.35,7.35,0,0,0-6.83,4.4c-0.6,1.35-.45,3.8-0.32,5.76,0,0.31,0,.61.05,0.9v0.12l-0.08.09a1.51,1.51,0,0,1-1.14.39,4,4,0,0,1-1.64-.43,0.51,0.51,0,0,0-.21,0,0.91,0.91,0,0,0-.84.5c0,0.21.23,0.57,1.12,0.91l0.39,0.13a3.09,3.09,0,0,1,2.06,1.36,1.9,1.9,0,0,1-.16,1.61c-0.12.29-2.07,4.67-6.44,5.39a0.2,0.2,0,0,0,0,.07c0.07,0.17.55,0.78,3.48,1.23a1.23,1.23,0,0,1,.7,1.19c0,0.21.09,0.44,0.16,0.66s0,0.08.13,0.08a3.48,3.48,0,0,0,.56-0.08,8.45,8.45,0,0,1,1.71-.19,7.64,7.64,0,0,1,1.24.1,6,6,0,0,1,2.4,1.21,6.16,6.16,0,0,0,3.75,1.49h0.37a6.16,6.16,0,0,0,3.75-1.49,6,6,0,0,1,2.4-1.21,7.64,7.64,0,0,1,1.24-.1,8.59,8.59,0,0,1,1.71.18,3.25,3.25,0,0,0,.56.07h0c0.07,0,.08,0,0.1-0.07,0.07-.22.11-0.44,0.16-0.65a1.22,1.22,0,0,1,.7-1.18c2.93-.45,3.4-1.06,3.48-1.23a0.2,0.2,0,0,0,0-.07C292.43,28,290.48,23.57,290.36,23.29Z"/><path class="cls-4" d="M296.9,28.06c-4.07-.67-5.9-4.85-6-5v0a1.33,1.33,0,0,1-.14-1.1,2.67,2.67,0,0,1,1.67-1l0.43-.15c1-.4,1.52-0.89,1.51-1.46a1.21,1.21,0,0,0-.91-1h0a1.66,1.66,0,0,0-.62-0.12,1.38,1.38,0,0,0-.57.12,3.49,3.49,0,0,1-1.29.37,1.15,1.15,0,0,1-.5-0.13c0-.21,0-0.42,0-0.64V17.76c0.13-2,.29-4.56-0.38-6.05a8,8,0,0,0-7.4-4.77h-0.59a8,8,0,0,0-7.39,4.77c-0.66,1.49-.5,4-0.38,6,0,0.24,0,.49,0,0.73a1.19,1.19,0,0,1-.58.13,3.34,3.34,0,0,1-1.38-.37,1.11,1.11,0,0,0-.47-0.1,1.48,1.48,0,0,0-1.45,1c-0.08.43,0.11,1.06,1.5,1.61l0.43,0.15a2.67,2.67,0,0,1,1.67,1A1.33,1.33,0,0,1,274,23v0c-0.08.18-1.91,4.35-6,5a0.62,0.62,0,0,0-.52.65,0.83,0.83,0,0,0,.07.28c0.31,0.71,1.59,1.24,3.94,1.6a2.91,2.91,0,0,1,.21.71c0,0.22.1,0.46,0.17,0.7a0.69,0.69,0,0,0,.73.53,3.77,3.77,0,0,0,.68-0.1,7.9,7.9,0,0,1,1.59-.18,7,7,0,0,1,1.14.1,5.42,5.42,0,0,1,2.14,1.11,6.75,6.75,0,0,0,4.11,1.61h0.37a6.75,6.75,0,0,0,4.11-1.61,5.43,5.43,0,0,1,2.14-1.11,7,7,0,0,1,1.14-.1,8,8,0,0,1,1.59.17,3.74,3.74,0,0,0,.68.08h0A0.67,0.67,0,0,0,293,32c0.07-.24.12-0.47,0.17-0.69a2.89,2.89,0,0,1,.21-0.71c2.34-.36,3.63-0.89,3.94-1.6a0.83,0.83,0,0,0,.07-0.28A0.62,0.62,0,0,0,296.9,28.06Zm-0.12.68c-0.07.17-.55,0.78-3.48,1.23a1.22,1.22,0,0,0-.7,1.18c0,0.21-.09.43-0.16,0.65,0,0.07,0,.07-0.1.07h0a3.25,3.25,0,0,1-.56-0.07,8.59,8.59,0,0,0-1.71-.18,7.64,7.64,0,0,0-1.24.1,6,6,0,0,0-2.4,1.21,6.16,6.16,0,0,1-3.75,1.49h-0.37a6.16,6.16,0,0,1-3.75-1.49,6,6,0,0,0-2.4-1.21,7.64,7.64,0,0,0-1.24-.1,8.45,8.45,0,0,0-1.71.19,3.48,3.48,0,0,1-.56.08c-0.11,0-.11,0-0.13-0.08s-0.11-.45-0.16-0.66a1.23,1.23,0,0,0-.7-1.19c-2.93-.45-3.4-1.06-3.48-1.23a0.2,0.2,0,0,1,0-.07c4.38-.72,6.32-5.1,6.44-5.39a1.9,1.9,0,0,0,.16-1.61,3.09,3.09,0,0,0-2.06-1.36l-0.39-.13c-0.88-.35-1.16-0.7-1.12-0.91a0.91,0.91,0,0,1,.84-0.5,0.51,0.51,0,0,1,.21,0,4,4,0,0,0,1.64.43,1.51,1.51,0,0,0,1.14-.39l0.08-.09V18.63c0-.29,0-0.59-0.05-0.9-0.12-2-.28-4.41.32-5.76a7.35,7.35,0,0,1,6.83-4.4h0.59a7.36,7.36,0,0,1,6.84,4.4c0.6,1.35.45,3.8,0.32,5.76,0,0.31,0,.61-0.05.9v0.12l0.08,0.09a1.47,1.47,0,0,0,1,.39h0a4.07,4.07,0,0,0,1.54-.42,0.75,0.75,0,0,1,.31-0.06,1,1,0,0,1,.39.07h0a0.67,0.67,0,0,1,.51.48c0,0.1-.07.46-1.12,0.87l-0.39.13a3.09,3.09,0,0,0-2.06,1.36,1.9,1.9,0,0,0,.16,1.61c0.12,0.29,2.07,4.67,6.44,5.39A0.2,0.2,0,0,1,296.78,28.75Z"/><path class="cls-5" d="M49.47,14.69h2.17V28.26H49.47V14.69Z"/><path class="cls-5" d="M54.54,14.69h2.64L61.12,24.8h0V14.69h2.05V28.26H60.57L56.63,17.88h0V28.26H54.54V14.69Z"/><path class="cls-5" d="M67.88,24.06V24.4c0,1.65.72,2.49,2.22,2.49a1.92,1.92,0,0,0,2.05-2,2.28,2.28,0,0,0-1.94-2.41L68.74,22c-2-.76-2.83-1.79-2.83-3.72,0-2.47,1.67-3.84,4.22-3.84C73.6,14.43,74,16.59,74,18v0.3H71.79V18a1.7,1.7,0,0,0-1.9-2,1.73,1.73,0,0,0-1.82,2c0,1.16.59,1.75,2,2.3l1.46,0.53c1.92,0.68,2.75,1.73,2.75,3.59,0,2.89-1.75,4.08-4.48,4.08-3.36,0-4.12-2.24-4.12-4.14V24.06h2.17Z"/><path class="cls-5" d="M79.05,16.52H75.82V14.69h8.57v1.82H81.22V28.26H79.05V16.52Z"/><path class="cls-5" d="M87.91,14.69h2.77l3.57,13.56H92l-0.84-3.32h-4l-0.87,3.32H84.05Zm2.89,8.51-1.56-6.69h0L87.58,23.2h3.21Z"/><path class="cls-5" d="M102.67,26.68h0a2.84,2.84,0,0,1-3,1.84c-3,0-4-2.2-4-7s1.37-7,4.5-7a3.69,3.69,0,0,1,4,3.91v0.25h-2.05V18.26a1.92,1.92,0,0,0-1.9-2.2c-1.54,0-2.36,1-2.36,5.36s0.72,5.47,2.19,5.47c1.65,0,2.26-1.18,2.26-4.14H100V21.11h4.33v7.14h-1.63V26.68Z"/><path class="cls-5" d="M106.93,14.69h4.79a3.13,3.13,0,0,1,3.44,3.5c0,1.75-.78,3.1-2.26,3.32v0c1.35,0.13,2.05.87,2.13,2.77,0,0.87,0,1.94.08,2.75a1.4,1.4,0,0,0,.65,1.18h-2.45a2.29,2.29,0,0,1-.36-1.2c-0.08-.82-0.06-1.58-0.1-2.56,0-1.48-.49-2.13-2-2.13h-1.77v5.89h-2.17V14.69Zm3.89,6a2,2,0,0,0,2.17-2.2c0-1.44-.63-2.2-2.05-2.2h-1.84v4.41h1.73Z"/><path class="cls-5" d="M120.45,14.69h2.77l3.57,13.56h-2.26l-0.84-3.32h-4l-0.87,3.32H116.6Zm2.89,8.51-1.56-6.69h0l-1.61,6.69h3.21Z"/><path class="cls-5" d="M128.51,14.69h3.38l2.39,10h0l2.36-10H140V28.26h-2.05V17h0l-2.74,11.28h-1.82L130.6,17h0V28.26h-2.05V14.69Z"/><path class="cls-5" d="M147.11,19.44h1.49l1.49,7h0l1.58-7h1.49L151,28.26h-1.79Z"/><path class="cls-5" d="M155.43,25.53v0.22a1.36,1.36,0,0,0,1.44,1.62,1.25,1.25,0,0,0,1.33-1.28A1.48,1.48,0,0,0,157,24.52l-1-.33a2.35,2.35,0,0,1-1.84-2.42c0-1.6,1.09-2.49,2.74-2.49,2.26,0,2.49,1.41,2.49,2.32v0.2H158V21.6a1.1,1.1,0,0,0-1.23-1.27,1.13,1.13,0,0,0-1.18,1.27c0,0.75.38,1.14,1.32,1.49l1,0.35a2.25,2.25,0,0,1,1.79,2.33c0,1.88-1.14,2.65-2.91,2.65A2.42,2.42,0,0,1,154,25.74V25.53h1.41Z"/><path class="cls-5" d="M160.93,26.63h1.41v1.63h-1.41V26.63Z"/><path class="cls-5" d="M169.86,24.06V24.4c0,1.65.72,2.49,2.22,2.49a1.92,1.92,0,0,0,2.05-2,2.28,2.28,0,0,0-1.94-2.41L170.72,22c-2-.76-2.83-1.79-2.83-3.72,0-2.47,1.67-3.84,4.22-3.84,3.48,0,3.84,2.17,3.84,3.57v0.3h-2.17V18a1.7,1.7,0,0,0-1.9-2,1.73,1.73,0,0,0-1.82,2c0,1.16.59,1.75,2,2.3l1.46,0.53c1.92,0.68,2.75,1.73,2.75,3.59,0,2.89-1.75,4.08-4.48,4.08-3.36,0-4.12-2.24-4.12-4.14V24.06h2.17Z"/><path class="cls-5" d="M178.81,14.69h2.64l3.93,10.11h0V14.69h2.05V28.26h-2.64L180.9,17.88h0V28.26h-2.05V14.69Z"/><path class="cls-5" d="M193,14.69h2.77l3.57,13.56h-2.26l-0.84-3.32h-4l-0.87,3.32h-2.26Zm2.89,8.51-1.56-6.69h0l-1.62,6.69h3.21Z"/><path class="cls-5" d="M201.1,14.69h4.29c2.6,0,3.74,1.63,3.74,4a3.67,3.67,0,0,1-4,4h-1.9v5.6H201.1V14.69ZM203.26,21h1.54A2,2,0,0,0,207,18.68c0-1.46-.59-2.36-2.32-2.36h-1.39V21Z"/><path class="cls-5" d="M219.7,23.39v0.29c0,2.45-1,4.84-4.18,4.84-3.42,0-4.48-2.2-4.48-7s1.06-7,4.5-7c3.86,0,4.08,2.85,4.08,4.26v0.25h-2.17V18.7c0-1.25-.38-2.7-1.94-2.64s-2.32,1-2.32,5.36,0.72,5.47,2.32,5.47c1.8,0,2-2,2-3.27V23.39h2.17Z"/><path class="cls-5" d="M222,14.69h2.17v5.43h4V14.69h2.17V28.26h-2.17V21.95h-4v6.31H222V14.69Z"/><path class="cls-5" d="M235.87,14.69h2.77l3.57,13.56H240l-0.84-3.32h-4l-0.87,3.32H232Zm2.89,8.51-1.56-6.69h0l-1.62,6.69h3.21Z"/><path class="cls-5" d="M245.1,16.52h-3.23V14.69h8.57v1.82h-3.17V28.26H245.1V16.52Z"/></svg>