<?xml version="1.0" encoding="iso-8859-1"?>
<!-- Generator: Adobe Illustrator 19.0.0, SVG Export Plug-In . SVG Version: 6.00 Build 0)  -->
<!DOCTYPE svg PUBLIC "-//W3C//DTD SVG 1.1//EN" "http://www.w3.org/Graphics/SVG/1.1/DTD/svg11.dtd">
<svg version="1.1" id="Layer_1" xmlns="http://www.w3.org/2000/svg" xmlns:xlink="http://www.w3.org/1999/xlink" x="0px" y="0px"
	 viewBox="0 0 167.098 41.597" style="enable-background:new 0 0 167.098 41.597;" xml:space="preserve">
<g>
	<path style="fill-rule:evenodd;clip-rule:evenodd;" d="M97.764,11.965c-5.406,2.421-10.037,2.597-10.037,2.597l0,0V3.684h4.281
		L89.482,0L84.78,0.035l-1.018,1.446l-1.018-1.446L78.042,0l-2.526,3.684h4.281v10.878l0,0c0,0-4.632-0.175-10.037-2.597l0,0
		l-3.158,4.352l0,0c0,0,0.807,0.386,4.211,1.579l0,0l1.017-1.545l0,0c0,0,5.207,1.87,11.931,1.827
		c6.725,0.043,11.931-1.827,11.931-1.827l0,0l1.017,1.545l0,0c3.405-1.193,4.211-1.579,4.211-1.579l0,0L97.764,11.965L97.764,11.965
		L97.764,11.965z M83.376,17.264c-5.86,0.175-11.825-1.895-11.825-1.895l0,0l-1.018,1.474l0,0c-1.965-0.596-2.666-0.982-2.666-0.982
		l0,0l2.105-2.913l0,0c5.229,2.246,10.527,2.457,10.527,2.457l0,0V2.877h-3.614l1.509-2.106h3.895l1.088,1.579V17.264L83.376,17.264
		L83.376,17.264z M95.973,15.369c0,0-5.964,2.07-11.825,1.895l0,0V2.351l1.088-1.579h3.895l1.509,2.106h-3.616v12.527l0,0
		c0,0,5.299-0.21,10.527-2.457l0,0l2.106,2.913l0,0c0,0-0.701,0.386-2.667,0.982l0,0L95.973,15.369L95.973,15.369L95.973,15.369z"/>
	<path style="fill-rule:evenodd;clip-rule:evenodd;" d="M163.463,28.951c0,0-1.638,0.887-4.283,4.021l0,0h-1.59l0,0
		c0,0-0.42,0.117-0.42-0.422l0,0v-4.046l0,0c0,0-0.07-0.374,0.35-0.374l0,0h1.194l0,0c0,0,0.327-0.048,0.583,0.491l0,0l0.164,0.351
		l0,0c0,0,0.095,0.399,0.587,0.281c0,0,0.468,0.069,0.326-0.468c-0.14-0.538-0.023-0.071-0.023-0.071l0,0l-0.68-2.081l0,0
		c0,0-0.047-0.28-0.396-0.28l0,0l-0.328-0.025l0,0c0,0-0.35-0.021-0.281,0.398c0,0,0.094,0.444-0.398,0.444l0,0h-0.7l0,0
		c0,0-0.375,0.094-0.375-0.583l0,0v-1.194l0,0c0,0-0.069-0.351,0.444-0.351l0,0h2.434l0,0c0,0,0.562-0.188,0.912,0.608l0,0
		l0.188,0.396l0,0c0,0,0,0.398,0.561,0.281c0,0,0.609,0.072,0.422-0.49l0,0l-0.444-1.357l0,0c0,0-0.024-0.306-0.422-0.306l0,0
		h-6.948l0,0c0,0-0.396-0.092-0.396,0.353l0,0v0.233l0,0c0,0-0.07,0.209,0.396,0.327c0,0,0.516,0.024,0.516,0.702l0,0l-0.047,6.618
		l0,0c0,0,0,0.609-0.398,0.726c0,0-0.442-0.139-0.467,0.376c0,0-0.187,0.42,0.444,0.444l0,0h3.345l0,0c0,0,0.585-0.024,0.281,0.374
		c0,0-1.17,1.941-3.461,3.299c0,0-1.475,0.936-4.072,0.958l0,0H15.571l0,0c0,0-2.854,0.28-4.352-1.216l0,0L8.95,34.868l0,0
		c0,0-0.187-0.305,0.14-0.397c0,0,2.784-0.539,3.766-2.41c0.983-1.871,1.1-3.229,1.1-4.584l0,0v-6.27l0,0
		c0,0-0.094-0.445,0.468-0.468l0,0h0.561l0,0c0,0,0.281,0.117,0.281-0.445l0,0v-0.257l0,0c0,0,0.187-0.375-0.351-0.375l0,0h-4.842
		l0,0c0,0-0.351-0.117-0.375,0.328l0,0v0.304l0,0c0,0-0.14,0.421,0.421,0.421l0,0h0.398l0,0c0,0,0.632-0.093,0.608,0.702l0,0v7.579
		l0,0c0,0,0.305,3.953-3.228,4.468c0,0-2.316-3.392-3.767-4.21c0,0-2.036-1.543-3.626-0.117c0,0-1.567,1.777,0.819,3.836
		c0,0,2.41,1.918,6.269,1.802c0,0,2.059,3.111,2.503,3.626c0,0,1.521,1.824,2.784,2.339c1.263,0.515,1.474,0.843,5.849,0.843l0,0
		h129.105l0,0c0,0,3.324,0.211,5.218-0.913c0,0,1.545-0.726,3.228-2.642l0,0l3.393-4.071l0,0c0,0,3.485,0.093,5.357-1.124
		c0,0,1.918-0.981,2.059-2.549C167.229,28.714,165.707,27.874,163.463,28.951L163.463,28.951L163.463,28.951L163.463,28.951z
		 M3.921,33.183c-1.497-0.679-1.076-1.686-1.076-1.686c0.328-0.724,1.333-0.233,1.333-0.233c1.24,0.539,2.55,2.505,2.55,2.505
		C5.02,33.978,3.921,33.183,3.921,33.183L3.921,33.183L3.921,33.183L3.921,33.183z M163.439,32.41
		c-1.005,0.68-3.135,0.587-3.135,0.587c0.351-0.608,1.685-1.872,1.685-1.872c1.076-0.936,1.802-0.491,1.802-0.491
		C164.82,31.57,163.439,32.41,163.439,32.41L163.439,32.41L163.439,32.41L163.439,32.41z"/>
	<path style="fill-rule:evenodd;clip-rule:evenodd;" d="M24.975,33.394c0,0,0.023-0.259-0.375-0.352c0,0-0.445-0.023-0.702-0.678
		l0,0l-2.69-7.908l0,0c0,0,0.023-0.373-0.403-0.373l0,0h-2.129l0,0c0,0-0.298,0-0.485,0.445l0,0l-2.994,7.976l0,0
		c0,0,0.023,0.538-0.96,0.515c0,0-0.398,0.023-0.327,0.422l0,0v0.281l0,0c0,0-0.047,0.303,0.415,0.303l0,0h2.574l0,0
		c0,0,0.333,0.023,0.357-0.256l0,0v-0.283l0,0c0,0,0.093-0.351-0.304-0.42c0,0-0.702-0.094-0.468-0.727l0,0l0.374-0.864h4.211
		l0.397,1.007l0,0c0,0,0.164,0.49-0.164,0.561c0,0-0.492,0.023-0.492,0.281l0,0v0.351l0,0c0,0-0.14,0.351,0.486,0.351l0,0h3.322l0,0
		c0,0,0.38,0.117,0.38-0.303l0,0L24.975,33.394L24.975,33.394L24.975,33.394z M20.413,30.4h-2.667l0,0
		c-0.678,0-0.328-0.633-0.328-0.633l0,0l1.404-3.648l0,0c0.281-0.561,0.562,0,0.562,0l0,0l1.17,3.58l0,0
		C20.834,30.585,20.413,30.4,20.413,30.4L20.413,30.4L20.413,30.4L20.413,30.4z"/>
	<path style="fill-rule:evenodd;clip-rule:evenodd;" d="M87.201,32.949H85.61l0,0c0,0-0.42,0.117-0.42-0.42l0,0v-4.048l0,0
		c0,0-0.072-0.374,0.35-0.374l0,0h1.193l0,0c0,0,0.328-0.047,0.584,0.49l0,0l0.164,0.354l0,0c0,0,0.095,0.396,0.585,0.277
		c0,0,0.47,0.072,0.327-0.467c-0.139-0.537-0.021-0.069-0.021-0.069l0,0l-0.68-2.083l0,0c0,0-0.046-0.281-0.396-0.281l0,0
		l-0.328-0.021l0,0c0,0-0.351-0.023-0.281,0.396c0,0,0.094,0.445-0.397,0.445l0,0h-0.701l0,0c0,0-0.376,0.093-0.376-0.586l0,0
		v-1.193l0,0c0,0-0.068-0.351,0.445-0.351l0,0h2.434l0,0c0,0,0.562-0.187,0.912,0.608l0,0l0.187,0.399l0,0c0,0,0,0.397,0.562,0.281
		c0,0,0.608,0.068,0.42-0.492l0,0l-0.442-1.357l0,0c0,0-0.024-0.304-0.422-0.304l0,0h-6.948l0,0c0,0-0.398-0.094-0.398,0.351l0,0
		v0.234l0,0c0,0-0.07,0.211,0.398,0.328c0,0,0.515,0.023,0.515,0.701l0,0l-0.046,6.621l0,0c0,0,0,0.608-0.398,0.725
		c0,0-0.444-0.141-0.468,0.373c0,0-0.187,0.422,0.444,0.445l0,0h3.346h3.672l0,0c0,0,0.258,0.094,0.422-0.209l0,0l0.585-1.404l0,0
		c0,0,0.211-0.444-0.233-0.444l0,0H89.75l0,0c0,0-0.233-0.07-0.351,0.211l0,0l-0.259,0.444l0,0c0,0-0.045,0.397-0.723,0.42l0,0
		H87.201L87.201,32.949L87.201,32.949z"/>
	<path style="fill-rule:evenodd;clip-rule:evenodd;" d="M31.291,32.949H29.7l0,0c0,0-0.421,0.117-0.421-0.42l0,0v-4.048l0,0
		c0,0-0.07-0.374,0.351-0.374l0,0h1.193l0,0c0,0,0.328-0.047,0.584,0.49l0,0l0.164,0.354l0,0c0,0,0.093,0.396,0.585,0.277
		c0,0,0.468,0.072,0.327-0.467c-0.14-0.537-0.023-0.069-0.023-0.069l0,0l-0.678-2.083l0,0c0,0-0.047-0.281-0.398-0.281l0,0
		l-0.327-0.021l0,0c0,0-0.351-0.023-0.281,0.396c0,0,0.093,0.445-0.398,0.445l0,0h-0.702l0,0c0,0-0.375,0.093-0.375-0.586l0,0
		v-1.193l0,0c0,0-0.07-0.351,0.444-0.351l0,0h2.433l0,0c0,0,0.561-0.187,0.912,0.608l0,0l0.187,0.399l0,0c0,0,0,0.397,0.562,0.281
		c0,0,0.608,0.068,0.421-0.492l0,0l-0.444-1.357l0,0c0,0-0.023-0.304-0.422-0.304l0,0h-6.947l0,0c0,0-0.397-0.094-0.397,0.351l0,0
		v0.234l0,0c0,0-0.07,0.211,0.397,0.328c0,0,0.514,0.023,0.514,0.701l0,0l-0.046,6.621l0,0c0,0,0,0.608-0.398,0.725
		c0,0-0.444-0.141-0.467,0.373c0,0-0.188,0.422,0.444,0.445l0,0h3.345h3.673l0,0c0,0,0.257,0.094,0.421-0.209l0,0l0.585-1.404l0,0
		c0,0,0.211-0.444-0.234-0.444l0,0h-0.444l0,0c0,0-0.234-0.07-0.351,0.211l0,0l-0.257,0.444l0,0c0,0-0.047,0.397-0.725,0.42l0,0
		H31.291L31.291,32.949L31.291,32.949z"/>
	<path style="fill-rule:evenodd;clip-rule:evenodd;" d="M51.246,33.031h-1.591l0,0c0,0-0.421,0.117-0.421-0.42l0,0v-4.049l0,0
		c0,0-0.07-0.373,0.351-0.373l0,0h1.193l0,0c0,0,0.327-0.047,0.584,0.49l0,0l0.164,0.353l0,0c0,0,0.094,0.397,0.584,0.278
		c0,0,0.468,0.072,0.328-0.467c-0.141-0.537-0.023-0.07-0.023-0.07l0,0l-0.679-2.082l0,0c0,0-0.046-0.281-0.398-0.281l0,0
		l-0.327-0.022l0,0c0,0-0.351-0.022-0.281,0.397c0,0,0.094,0.445-0.398,0.445l0,0h-0.702l0,0c0,0-0.374,0.092-0.374-0.586l0,0
		v-1.193l0,0c0,0-0.07-0.35,0.445-0.35l0,0h2.433l0,0c0,0,0.562-0.188,0.913,0.608l0,0l0.187,0.398l0,0c0,0,0,0.397,0.562,0.28
		c0,0,0.608,0.07,0.421-0.491l0,0l-0.445-1.358l0,0c0,0-0.024-0.304-0.421-0.304l0,0h-6.948l0,0c0,0-0.398-0.095-0.398,0.351l0,0
		v0.234l0,0c0,0-0.07,0.211,0.398,0.327c0,0,0.515,0.024,0.515,0.702l0,0l-0.047,6.62l0,0c0,0,0,0.608-0.397,0.726
		c0,0-0.444-0.141-0.468,0.373c0,0-0.187,0.423,0.444,0.445l0,0h3.345h3.673l0,0c0,0,0.257,0.094,0.421-0.21l0,0l0.584-1.403l0,0
		c0,0,0.21-0.445-0.234-0.445l0,0h-0.444l0,0c0,0-0.234-0.07-0.352,0.211l0,0l-0.257,0.445l0,0c0,0-0.046,0.396-0.725,0.42l0,0
		H51.246L51.246,33.031L51.246,33.031z"/>
	<path style="fill-rule:evenodd;clip-rule:evenodd;" d="M40.04,23.942c0,0-4.513-0.019-4.843,5.009
		c-0.333,5.074,4.632,5.145,4.632,5.145s1.684,0.211,3.86-1.264c0,0,0.328-0.232,0.351-0.701l0,0l0.093-0.935l0,0
		c0,0-0.21-0.771,0.632-0.771c0,0,0.304-0.023,0.328-0.375l0,0v-0.164l0,0c0,0,0.024-0.303-0.515-0.303l0,0h-3.556l0,0
		c0,0-0.397-0.072-0.397,0.256l0,0v0.234l0,0c0,0-0.023,0.328,0.397,0.328c0,0,0.866-0.07,0.866,0.795c0,0,0.187,2.058-1.988,2.058
		s-2.129-2.036-2.199-4.655c-0.069-2.595,0.749-3.859,2.527-3.835c1.777,0.022,2.386,1.449,2.573,1.776c0,0,0.118,0.328,0.538,0.281
		l0,0l0.444-0.186l0,0c0,0,0.281,0.069,0.164-0.351l0,0l-0.608-1.919l0,0c0,0-0.006-0.351-0.333-0.28c0,0-0.205-0.024-0.322,0.211
		c0,0,0.076,0.537-0.795,0.162C41.888,24.456,41.186,23.942,40.04,23.942L40.04,23.942L40.04,23.942L40.04,23.942z"/>
	<path style="fill-rule:evenodd;clip-rule:evenodd;" d="M66.55,33.441c0,0,0.047-0.258-0.397-0.281l0,0l-0.199-0.012l0,0
		c0,0-0.57,0.053-1.088-0.76c0,0-1.304-2.475-2.123-3.035c0,0-0.257-0.193,0-0.287c0,0,1.099-0.211,1.755-0.842
		c0,0,0.749-0.305,0.725-1.824c0,0,0.164-2.225-3.07-2.247l0,0H56.21h0.001h-0.007l0,0c0,0-0.397-0.094-0.397,0.351l0,0v0.234l0,0
		c0,0-0.07,0.211,0.397,0.328c0,0,0.515,0.023,0.515,0.701l0,0l-0.046,6.621l0,0c0,0,0.052,0.711-0.491,0.729
		c0,0-0.474-0.055-0.439,0.402c0,0-0.158,0.484,0.474,0.506l0,0h3.272l0,0c0,0,0.482,0.088,0.491-0.237l0,0l-0.008-0.372l0,0
		c0,0,0.023-0.298-0.44-0.299c-0.149-0.042-0.458-0.178-0.496-0.588l0,0v-2.738l0,0c0,0-0.07-0.373,0.351-0.373l0,0l0.001-0.014
		l0.663,0.01l0,0c0,0,0.833-0.053,1.266,0.775l0,0l1.445,2.713l0,0c0,0,0.468,1.102,1.661,1.123l0,0h1.872l0,0
		c0,0,0.281,0.07,0.281-0.328l0,0L66.55,33.441L66.55,33.441L66.55,33.441z M61.138,28.484l-1.705-0.025l0,0l0,0
		c0,0-0.001,0-0.003,0l0,0h-0.046l0,0.003l0,0c-0.102-0.002-0.324-0.065-0.324-0.588l0,0v-2.505l0,0c0,0-0.069-0.346,0.436-0.35l0,0
		l1.961,0.047l0,0c0,0,1.576,0.005,1.591,1.496C63.061,27.99,62.284,28.484,61.138,28.484L61.138,28.484L61.138,28.484
		L61.138,28.484z"/>
	<path style="fill-rule:evenodd;clip-rule:evenodd;" d="M153.389,33.441c0,0,0.047-0.258-0.398-0.281l0,0l-0.199-0.012l0,0
		c0,0-0.57,0.053-1.088-0.76c0,0-1.303-2.475-2.122-3.035c0,0-0.257-0.193,0-0.287c0,0,1.101-0.211,1.755-0.842
		c0,0,0.748-0.305,0.725-1.824c0,0,0.164-2.225-3.069-2.247l0,0h-5.942l0,0h-0.006l0,0c0,0-0.397-0.094-0.397,0.351l0,0v0.234l0,0
		c0,0-0.071,0.211,0.397,0.328c0,0,0.515,0.023,0.515,0.701l0,0l-0.046,6.621l0,0c0,0,0.051,0.711-0.492,0.729
		c0,0-0.473-0.055-0.438,0.402c0,0-0.16,0.484,0.473,0.506l0,0h3.271l0,0c0,0,0.482,0.088,0.492-0.237l0,0l-0.01-0.372l0,0
		c0,0,0.023-0.298-0.439-0.299c-0.148-0.042-0.459-0.178-0.496-0.588l0,0v-2.738l0,0c0,0-0.07-0.373,0.352-0.373l0,0v-0.014
		l0.664,0.01l0,0c0,0,0.832-0.053,1.266,0.775l0,0l1.444,2.713l0,0c0,0,0.468,1.102,1.662,1.123l0,0h1.871l0,0
		c0,0,0.281,0.07,0.281-0.328l0,0L153.389,33.441L153.389,33.441L153.389,33.441z M147.977,28.484l-1.707-0.025h0.002l0,0
		c0,0-0.002,0-0.003,0l0,0h-0.047v0.003l0,0c-0.101-0.002-0.324-0.065-0.324-0.588l0,0v-2.505l0,0c0,0-0.07-0.346,0.437-0.35l0,0
		l1.961,0.047l0,0c0,0,1.575,0.005,1.591,1.496C149.901,27.99,149.122,28.484,147.977,28.484L147.977,28.484L147.977,28.484
		L147.977,28.484z"/>
	<path style="fill-rule:evenodd;clip-rule:evenodd;" d="M71.433,29.837c0.22,0,0.397-0.178,0.397-0.399l0,0v-0.84l0,0
		c0-0.219-0.177-0.399-0.397-0.399l0,0H67.62l0,0c-0.22,0-0.397,0.181-0.397,0.399l0,0v0.84l0,0c0,0.221,0.178,0.399,0.397,0.399
		l0,0H71.433L71.433,29.837L71.433,29.837z"/>
	<path style="fill-rule:evenodd;clip-rule:evenodd;" d="M73.603,24.083c0,0-0.29,0.023-0.29,0.285l0,0v0.299l0,0
		c0,0-0.043,0.359,0.413,0.281c0,0,0.754-0.07,0.754,0.701l0,0v6.799l0,0c0,0,0.07,0.51-0.526,0.527c0,0-0.386-0.018-0.403,0.279
		l0,0v0.395l0,0c0,0,0,0.354,0.315,0.375l0,0h6.316l0,0c0,0,0.21,0.1,0.456-0.393l0,0l0.631-1.385l0,0c0,0,0.158-0.387-0.211-0.387
		l0,0h-0.456l0,0c0,0-0.245,0-0.333,0.211l0,0l-0.228,0.439l0,0c0,0-0.236,0.533-0.825,0.455l0,0h-1.877l0,0
		c0,0-0.553,0.07-0.562-0.455l0,0v-6.896l0,0c0,0-0.07-0.631,0.474-0.648l0,0h0.263l0,0c0,0,0.254,0.035,0.246-0.334l0,0v-0.246l0,0
		c0,0,0.053-0.303-0.333-0.303l0,0H73.603L73.603,24.083L73.603,24.083z"/>
	<path style="fill-rule:evenodd;clip-rule:evenodd;" d="M126.192,24.083c0,0-0.29,0.023-0.29,0.285l0,0v0.299l0,0
		c0,0-0.043,0.359,0.412,0.281c0,0,0.755-0.07,0.755,0.701l0,0v6.799l0,0c0,0,0.07,0.51-0.526,0.527c0,0-0.386-0.018-0.403,0.279
		l0,0v0.395l0,0c0,0,0,0.354,0.316,0.375l0,0h6.315l0,0c0,0,0.211,0.1,0.457-0.393l0,0l0.633-1.385l0,0c0,0,0.156-0.387-0.212-0.387
		l0,0h-0.456l0,0c0,0-0.244,0-0.334,0.211l0,0l-0.227,0.439l0,0c0,0-0.236,0.533-0.824,0.455l0,0h-1.879l0,0
		c0,0-0.552,0.07-0.561-0.455l0,0v-6.896l0,0c0,0-0.071-0.631,0.473-0.648l0,0h0.264l0,0c0,0,0.255,0.035,0.246-0.334l0,0v-0.246
		l0,0c0,0,0.052-0.303-0.333-0.303l0,0H126.192L126.192,24.083L126.192,24.083z"/>
	<path style="fill-rule:evenodd;clip-rule:evenodd;" d="M97.656,19.568c0,0-6.246-0.328-6.314,7.369c0,0-0.281,6.713,6.176,7.041
		c0,0,1.496,0.094,2.83-0.748c0,0,0.42-0.188,0.515,0.164c0,0,0.069,0.467,0.562,0.42c0,0,0.49-0.023,0.537-0.468l0,0l0.865-2.644
		l0,0c0,0,0.164-0.443-0.209-0.443l0,0l-0.328-0.024l0,0c0,0-0.258,0-0.397,0.328c0,0-0.468,1.077-1.029,1.474
		c0,0-0.882,1.045-2.878,0.982c0,0-3.742,0.094-3.601-6.082c0,0-0.328-6.387,3.719-6.363c0,0,1.941-0.141,3.346,1.941
		c0,0,0.163,0.398,0.584,0.398l0,0h0.397l0,0c0,0,0.327,0.024,0.211-0.515l0,0l-0.632-2.433l0,0c0,0-0.07-0.304-0.327-0.304l0,0
		h-0.468l0,0c0,0-0.211,0.07-0.164,0.328c0,0,0.07,0.304-0.094,0.397c0,0-0.117,0.188-0.443,0
		C100.512,20.387,99.364,19.615,97.656,19.568L97.656,19.568L97.656,19.568L97.656,19.568z"/>
	<path style="fill-rule:evenodd;clip-rule:evenodd;" d="M106.518,30.908c0.003,0.02,0.007,0.03,0.007,0.03
		S106.523,30.927,106.518,30.908L106.518,30.908L106.518,30.908L106.518,30.908z"/>
	<path style="fill-rule:evenodd;clip-rule:evenodd;" d="M113.775,28.925c-0.117-4.959-4.937-4.941-4.937-4.941
		s-4.818-0.018-4.936,4.941c0,0-0.069,4.889,4.936,5.1C113.846,33.814,113.775,28.925,113.775,28.925L113.775,28.925L113.775,28.925
		L113.775,28.925z M111.155,31.007c-0.446,2.434-2.317,2.076-2.317,2.076s-1.871,0.357-2.313-2.076
		c-0.417-2.275-0.055-0.357-0.007-0.1c-0.046-0.254-0.379-2.242,0.123-4.58c0,0,0.42-1.572,2.197-1.525
		c1.779-0.047,2.2,1.525,2.2,1.525c0.502,2.338,0.169,4.326,0.122,4.58C111.209,30.65,111.572,28.732,111.155,31.007L111.155,31.007
		L111.155,31.007L111.155,31.007z"/>
	<path style="fill-rule:evenodd;clip-rule:evenodd;" d="M111.16,30.908c-0.004,0.02-0.005,0.03-0.005,0.03
		S111.156,30.927,111.16,30.908L111.16,30.908L111.16,30.908L111.16,30.908z"/>
	<path style="fill-rule:evenodd;clip-rule:evenodd;" d="M115.131,24.083c0,0-0.332,0.006-0.332,0.285l0,0v0.299l0,0
		c0,0-0.018,0.299,0.42,0.299l0,0l0.211-0.018l0,0c0,0,0.439-0.07,0.439,0.666l0,0v5.001l0,0c0,0,0.174,3.438,4.053,3.456
		c0,0,3.982,0.211,3.859-3.578l0,0v-4.966l0,0c0,0-0.088-0.579,0.51-0.597l0,0h0.176l0,0c0,0,0.228,0,0.228-0.264l0,0v-0.264l0,0
		c0,0,0.086-0.314-0.264-0.32l0,0h-2.334l0,0c0,0-0.315-0.012-0.315,0.252l0,0l-0.018,0.229l0,0c0,0-0.071,0.367,0.333,0.367
		c0,0,0.632-0.106,0.649,0.738l0,0v4.858l0,0c0,0,0.246,2.544-2.053,2.544c0,0-2.562,0.439-2.562-2.702l0,0v-4.877l0,0
		c0,0,0.072-0.544,0.562-0.561l0,0h0.141l0,0c0,0,0.227,0.035,0.246-0.299l0,0v-0.246l0,0c0,0,0.07-0.297-0.229-0.303l0,0H115.131
		L115.131,24.083L115.131,24.083z"/>
	<path style="fill-rule:evenodd;clip-rule:evenodd;" d="M133.224,24.083c0,0-0.276-0.012-0.406,0.257l0,0l-0.608,1.474l0,0
		c0,0-0.152,0.327,0.211,0.327l0,0h0.467l0,0c0,0,0.177,0.07,0.363-0.269l0,0l0.338-0.666l0,0c0,0,0.165-0.235,0.489-0.223l0,0
		h1.403l0,0c0,0,0.414-0.059,0.424,0.514l0,0v7.076l0,0c0,0,0.072,0.492-0.222,0.539l0,0h-0.374l0,0c0,0-0.209,0.022-0.222,0.256
		l0,0v0.376l0,0c0,0-0.051,0.28,0.276,0.28l0,0h3.639l0,0c0,0,0.248,0.047,0.248-0.256l0,0v-0.283l0,0c0,0,0.059-0.351-0.211-0.351
		l0,0l-0.434-0.011l0,0c0,0-0.455,0.117-0.407-0.668l0,0v-6.934l0,0c0,0-0.144-0.539,0.395-0.539l0,0h1.392l0,0
		c0,0,0.273-0.082,0.483,0.293l0,0l0.339,0.584l0,0c0,0,0.15,0.27,0.457,0.28l0,0h0.442l0,0c0,0,0.327,0,0.188-0.374l0,0
		l-0.621-1.473l0,0c0,0-0.023-0.211-0.494-0.211l0,0H133.224L133.224,24.083L133.224,24.083z"/>
</g>
</svg>
