<svg id="Layer_1" data-name="Layer 1" xmlns="http://www.w3.org/2000/svg" viewBox="0 0 29.49 27.02"><defs><style>.cls-1{fill:#a1ce54;}</style></defs><title>l2</title><g id="_Group_" data-name="&lt;Group&gt;"><path id="_Path_" data-name="&lt;Path&gt;" class="cls-1" d="M17.2,15.77c3.94-2.63,6.8-3.83,6.8-7.38a3.66,3.66,0,0,0-4-3.87c-2.67,0-4.25,1.7-4.25,4.91V9.66h-5C10.74,3.44,14.22,0,20.33,0,26,0,29.49,3.36,29.49,8.31c0,4.25-2.24,6.42-6.34,9.2-3.25,2.2-5.6,3.32-6.18,4.91H29.22V27H10.28c0.08-5.3,2.28-8.12,6.92-11.25"/></g><polygon id="_Path_2" data-name="&lt;Path&gt;" points="0 1.85 5.1 1.85 5.1 22.43 17.21 22.43 17.21 27.02 0 27.02 0 1.85"/></svg>