<?xml version="1.0" encoding="iso-8859-1"?>
<!-- Generator: Adobe Illustrator 19.0.0, SVG Export Plug-In . SVG Version: 6.00 Build 0)  -->
<!DOCTYPE svg PUBLIC "-//W3C//DTD SVG 1.1//EN" "http://www.w3.org/Graphics/SVG/1.1/DTD/svg11.dtd">
<svg version="1.1" id="Layer_1" xmlns="http://www.w3.org/2000/svg" xmlns:xlink="http://www.w3.org/1999/xlink" x="0px" y="0px"
	 viewBox="0 0 180.074 21.703" style="enable-background:new 0 0 180.074 21.703;" xml:space="preserve">
<g>
	<polygon style="fill-rule:evenodd;clip-rule:evenodd;" points="119.531,16.584 120.754,16.584 123.648,20.367 123.648,20.367 
		123.648,16.584 124.762,16.584 124.762,21.592 123.537,21.592 120.531,17.809 120.531,17.809 120.531,21.592 119.531,21.592 
		119.531,16.584 	"/>
	<polygon style="fill-rule:evenodd;clip-rule:evenodd;" points="128.434,16.584 132.775,16.584 132.775,17.363 129.436,17.363 
		129.436,18.697 132.551,18.697 132.551,19.477 129.436,19.477 129.436,20.812 132.775,20.812 132.775,21.592 128.434,21.592 
		128.434,16.584 	"/>
	<polygon style="fill-rule:evenodd;clip-rule:evenodd;" points="135.668,16.584 136.781,16.584 138.006,20.479 138.006,20.479 
		139.23,16.584 140.342,16.584 141.566,20.479 141.566,20.479 142.68,16.584 143.793,16.584 142.123,21.592 141.01,21.592 
		139.785,17.809 139.785,17.809 138.451,21.592 137.338,21.592 135.668,16.584 	"/>
	<polygon style="fill-rule:evenodd;clip-rule:evenodd;" points="151.139,19.699 148.912,16.584 150.248,16.584 151.584,18.809 
		153.029,16.584 154.365,16.584 152.139,19.699 152.139,21.592 151.139,21.592 151.139,19.699 	"/>
	<path style="fill-rule:evenodd;clip-rule:evenodd;" d="M160.152,20.924c-1.225,0-1.891-0.668-1.891-1.781
		c0-1.113,0.666-1.891,1.891-1.891c1.113,0,1.781,0.777,1.781,1.891C161.934,20.256,161.266,20.924,160.152,20.924L160.152,20.924z
		 M160.152,21.703c2.115,0,2.895-1.225,2.895-2.561c0-1.445-0.779-2.67-2.895-2.67c-2.113,0-3.004,1.225-3.004,2.67
		C157.148,20.479,158.039,21.703,160.152,21.703L160.152,21.703z"/>
	<path style="fill-rule:evenodd;clip-rule:evenodd;" d="M167.498,18.809v-1.445h1.893c0.557,0,0.891,0.223,0.891,0.779
		c0,0.555-0.334,0.666-0.891,0.666H167.498L167.498,18.809z M166.496,21.592h1.002v-2.004h1.781c0.779,0,0.891,0.557,0.891,1.225
		c0,0.445,0.111,0.668,0.111,0.779h1.225c-0.223-0.223-0.223-0.779-0.223-1.002c0-0.779-0.223-1.225-0.779-1.447l0,0
		c0.445-0.111,0.891-0.555,0.891-1.223c0-0.779-0.445-1.336-1.781-1.336h-3.117V21.592L166.496,21.592z"/>
	<polygon style="fill-rule:evenodd;clip-rule:evenodd;" points="174.844,16.584 175.957,16.584 175.957,18.92 178.516,16.584 
		179.963,16.584 177.627,18.588 180.074,21.592 178.629,21.592 176.736,19.254 175.957,20.033 175.957,21.592 174.844,21.592 
		174.844,16.584 	"/>
	<polygon style="fill-rule:evenodd;clip-rule:evenodd;" points="0,0 2.671,0 7.457,9.794 12.131,0 14.802,0 14.802,11.687 
		12.91,11.687 12.91,2.004 12.91,2.004 8.235,11.687 6.566,11.687 1.892,2.004 1.892,2.004 1.892,11.687 0,11.687 0,0 	"/>
	<path style="fill-rule:evenodd;clip-rule:evenodd;" d="M29.604,1.447L29.604,1.447l2.56,5.453h-5.119L29.604,1.447L29.604,1.447z
		 M22.704,11.687h2.114l1.67-3.562h6.232l1.67,3.562h2.226L30.718,0h-2.227L22.704,11.687L22.704,11.687z"/>
	<polygon style="fill-rule:evenodd;clip-rule:evenodd;" points="48.858,6.9 48.858,11.687 46.854,11.687 46.854,6.9 41.067,0 
		43.405,0 47.968,5.565 52.309,0 54.534,0 48.858,6.9 	"/>
	<path style="fill-rule:evenodd;clip-rule:evenodd;" d="M64.105,6.344h4.563c1.669,0,3.228,0.445,3.228,2.003
		c0,1.225-1.113,2.004-2.782,2.004h-5.009V6.344L64.105,6.344z M62.214,11.687h7.123c3.005,0,4.562-1.67,4.562-3.34
		c0-1.446-1.002-2.559-2.894-2.781l0,0c1.447-0.445,2.226-1.447,2.226-2.671c0-1.113-0.667-2.004-1.669-2.449
		C70.672,0,68.892,0,67.556,0h-5.342V11.687L62.214,11.687z M64.105,1.336h4.007c1.78,0,3.228,0.223,3.228,1.892
		c0,1.225-1.002,1.781-3.228,1.781h-4.007V1.336L64.105,1.336z"/>
	<polygon style="fill-rule:evenodd;clip-rule:evenodd;" points="82.804,0 93.043,0 93.043,1.336 84.807,1.336 84.807,5.009 
		92.486,5.009 92.486,6.344 84.807,6.344 84.807,10.351 93.154,10.351 93.154,11.687 82.804,11.687 82.804,0 	"/>
	<polygon style="fill-rule:evenodd;clip-rule:evenodd;" points="101.945,0 103.838,0 103.838,10.351 111.74,10.351 111.74,11.687 
		101.945,11.687 101.945,0 	"/>
	<polygon style="fill-rule:evenodd;clip-rule:evenodd;" points="119.42,0 121.422,0 121.422,10.351 129.324,10.351 129.324,11.687 
		119.42,11.687 119.42,0 	"/>
	<polygon style="fill-rule:evenodd;clip-rule:evenodd;" points="137.449,0 139.451,0 139.451,11.687 137.449,11.687 137.449,0 	"/>
	<polygon style="fill-rule:evenodd;clip-rule:evenodd;" points="148.689,0 150.805,0 158.707,9.46 158.707,9.46 158.707,0 
		160.598,0 160.598,11.687 158.484,11.687 150.582,2.337 150.582,2.337 150.582,11.687 148.689,11.687 148.689,0 	"/>
	<polygon style="fill-rule:evenodd;clip-rule:evenodd;" points="169.725,0 180.074,0 180.074,1.336 171.729,1.336 171.729,5.009 
		179.518,5.009 179.518,6.344 171.729,6.344 171.729,10.351 180.074,10.351 180.074,11.687 169.725,11.687 169.725,0 	"/>
</g>
</svg>
