<?xml version="1.0" encoding="iso-8859-1"?>
<!-- Generator: Adobe Illustrator 19.0.0, SVG Export Plug-In . SVG Version: 6.00 Build 0)  -->
<svg version="1.1" id="Layer_1" xmlns="http://www.w3.org/2000/svg" xmlns:xlink="http://www.w3.org/1999/xlink" x="0px" y="0px"
	 viewBox="0 0 300 150.001" style="enable-background:new 0 0 300 150.001;" xml:space="preserve">
<path d="M49.919,53.43c0,0-6.893,13.033-6.893,24.313c0,0-0.626,26.567,26.82,26.567h3.759c0,0,5.514,1.753,100.503-26.567h-24.059
	l-1.255-29.828l-11.277,29.828h-17.293l27.319-72.437h16.542l-7.52,20.804L174.36,5.307h52.134l-4.513,12.032h-17.795l-5.513,15.289
	h16.541l-5.263,13.535H193.66l-6.516,17.795h19.551l-1.505,5.263c0,0,70.929-18.296,78.448-20.301
	c0,0-202.151,95.799-235.235,95.799c0,0-31.944,0.195-31.944-25.871C16.459,118.846,12.825,94.536,49.919,53.43z M166.84,72.73
	l24.23-65.502l-25.732,27.403L166.84,72.73z M127.242,5.307l-26.903,72.437h16.709l27.07-72.437H127.242z M52.385,77.744h16.708
	l12.031-31.582l-1.337,31.582h17.711l27.07-72.437h-16.541L95.66,37.306l2.006-31.999H79.787L52.385,77.744z M64.947,94.439
	c0,0.64-0.16,1.234-0.479,1.789c-0.32,0.553-0.756,0.99-1.309,1.308c-0.553,0.318-1.15,0.478-1.789,0.478
	c-0.636,0-1.231-0.159-1.785-0.478c-0.553-0.318-0.989-0.756-1.309-1.308c-0.319-0.555-0.48-1.15-0.48-1.789
	c0-0.64,0.161-1.235,0.48-1.789c0.32-0.555,0.756-0.99,1.309-1.309c0.553-0.319,1.148-0.479,1.785-0.479
	c0.639,0,1.236,0.159,1.789,0.479c0.553,0.318,0.989,0.754,1.309,1.309C64.787,93.204,64.947,93.799,64.947,94.439z M64.251,94.439
	c0-0.798-0.283-1.478-0.846-2.041c-0.562-0.566-1.241-0.846-2.038-0.846c-0.794,0-1.474,0.279-2.038,0.846
	c-0.563,0.563-0.844,1.243-0.844,2.041c0,0.795,0.281,1.477,0.844,2.041c0.564,0.562,1.243,0.846,2.038,0.846
	c0.796,0,1.476-0.283,2.038-0.846C63.968,95.916,64.251,95.234,64.251,94.439z M59.747,92.525h1.708
	c0.484,0,0.834,0.097,1.052,0.291c0.216,0.198,0.325,0.459,0.325,0.788c0,0.257-0.082,0.481-0.248,0.668
	c-0.167,0.188-0.427,0.323-0.783,0.407c0.147,0.058,0.256,0.117,0.326,0.18c0.096,0.088,0.198,0.218,0.304,0.388
	c0.008,0.014,0.214,0.382,0.621,1.107h-1.127c-0.367-0.726-0.613-1.163-0.737-1.304c-0.125-0.142-0.251-0.215-0.376-0.215
	c-0.027,0-0.067,0.004-0.117,0.016v1.503h-0.947V92.525z M60.694,94.153h0.414c0.277,0,0.471-0.044,0.584-0.136
	c0.112-0.089,0.171-0.205,0.171-0.347c0-0.143-0.055-0.258-0.163-0.346c-0.11-0.091-0.292-0.135-0.553-0.135h-0.452V94.153z
	 M237.187,8.859c0,0.64-0.158,1.236-0.479,1.789c-0.319,0.553-0.756,0.989-1.307,1.309c-0.553,0.318-1.149,0.477-1.791,0.477
	c-0.636,0-1.23-0.159-1.783-0.477c-0.554-0.32-0.989-0.755-1.31-1.309c-0.321-0.553-0.481-1.149-0.481-1.789
	c0-0.639,0.16-1.234,0.481-1.789c0.32-0.554,0.756-0.99,1.31-1.31c0.553-0.318,1.147-0.477,1.783-0.477
	c0.642,0,1.238,0.159,1.791,0.477c0.551,0.32,0.987,0.756,1.307,1.31C237.029,7.624,237.187,8.22,237.187,8.859z M236.493,8.859
	c0-0.797-0.282-1.478-0.844-2.041c-0.563-0.564-1.243-0.847-2.039-0.847c-0.795,0-1.475,0.283-2.038,0.847
	c-0.562,0.563-0.844,1.244-0.844,2.041c0,0.795,0.281,1.477,0.844,2.04c0.564,0.563,1.243,0.847,2.038,0.847
	c0.796,0,1.476-0.284,2.039-0.847C236.21,10.336,236.493,9.654,236.493,8.859z M231.988,6.943h1.71c0.483,0,0.833,0.099,1.052,0.293
	c0.216,0.198,0.326,0.46,0.326,0.788c0,0.258-0.085,0.48-0.25,0.668c-0.164,0.188-0.425,0.324-0.78,0.408
	c0.148,0.057,0.252,0.116,0.323,0.178c0.097,0.087,0.199,0.218,0.305,0.389c0.007,0.012,0.215,0.381,0.62,1.106h-1.128
	c-0.366-0.728-0.612-1.162-0.737-1.305c-0.125-0.141-0.25-0.212-0.375-0.212c-0.029,0-0.066,0.004-0.117,0.013v1.504h-0.948V6.943z
	 M232.936,8.573h0.413c0.277,0,0.472-0.045,0.585-0.135c0.113-0.09,0.169-0.206,0.169-0.347c0-0.143-0.054-0.258-0.16-0.347
	c-0.11-0.089-0.293-0.134-0.554-0.134h-0.453V8.573z"/>
</svg>
