<?xml version="1.0" encoding="utf-8"?>
<!-- Generator: Adobe Illustrator 19.0.0, SVG Export Plug-In . SVG Version: 6.00 Build 0)  -->
<!DOCTYPE svg PUBLIC "-//W3C//DTD SVG 1.1//EN" "http://www.w3.org/Graphics/SVG/1.1/DTD/svg11.dtd">
<svg version="1.1" id="Layer_1" xmlns="http://www.w3.org/2000/svg" xmlns:xlink="http://www.w3.org/1999/xlink" x="0px" y="0px"
	 viewBox="0 0 250 68.5" enable-background="new 0 0 250 68.5" xml:space="preserve">
<g>
	<path d="M67.9,0v56.9C36.2,54.2,11.7,31,11.7,2.7V0.1L9.1,0H0v68.5h11.7V38.1c12.8,17.9,34.5,29.3,58.7,30.3c0.1,0,3.3,0.1,3.3,0.1
		l3.2-0.1h2.6V0H77H67.9z"/>
	<path d="M156.1,0v2.6c0,16.1-13.4,29.3-29.9,29.3c-16.5,0-29.9-13.1-29.9-29.3V0H84.6v2.6c0,20.1,15.5,37.1,35.8,39.9v26H132v-26
		c20.2-2.8,35.8-19.8,35.8-39.9V0h-2.6H156.1z"/>
	<path d="M250,2.6V0h-2.6h-9.1v2.6c0,14.3-12.4,25.9-27.6,25.9c-15.2,0-27.6-11.6-27.6-25.9V0h-11.7v2.6c0,13.2,7.6,24.9,19.4,31.5
		c-2.7,1.5-5.3,3.2-7.6,5.3c-7.6,7-11.8,16.4-11.8,26.5v2.5l11.7,0v-2.5c0-7,2.9-13.5,8.2-18.5c5.2-4.8,12.1-7.5,19.4-7.5
		c15.2,0,27.6,11.6,27.6,25.9v2.5H250v-2.5c0-13.3-7.7-25-19.7-31.7C242.3,27.6,250,15.9,250,2.6"/>
</g>
</svg>
