<?xml version="1.0" encoding="utf-8"?>
<!-- Generator: Adobe Illustrator 19.0.0, SVG Export Plug-In . SVG Version: 6.00 Build 0)  -->
<svg version="1.1" id="Layer_1" xmlns="http://www.w3.org/2000/svg" xmlns:xlink="http://www.w3.org/1999/xlink" x="0px" y="0px"
	 viewBox="55.4 -11 140 40" style="enable-background:new 55.4 -11 140 40;" xml:space="preserve">
<style type="text/css">
	.st0{fill:#F9ED23;}
	.st1{fill:#FFFFFF;}
	.st2{fill:#040404;}
	.st3{fill:#333333;}
</style>
<path class="st0" d="M159.2-11h27.3c3.5,0,6.4,2.9,6.4,6.4v27.3c0,3.5-2.9,6.4-6.4,6.4h-27.3c-3.5,0-6.4-2.9-6.4-6.4V-4.6
	C152.8-8.1,155.7-11,159.2-11z"/>
<path class="st1" d="M180.7,11.3c-0.3-0.5-0.3-1.1-0.2-1.6c0.5-0.7,1.2-1.2,2.1-1.4l0.4-0.1c1-0.4,1.1-0.8,1.1-0.9
	c-0.1-0.2-0.3-0.4-0.5-0.5l0,0c-0.1,0-0.3-0.1-0.4-0.1s-0.2,0-0.3,0.1c-0.5,0.2-1,0.4-1.5,0.4l0,0c-0.4,0-0.7-0.1-1-0.4l-0.1-0.1
	V6.6c0-0.3,0-0.6,0-0.9c0.1-2,0.3-4.4-0.3-5.8c-1.2-2.7-3.9-4.4-6.8-4.4h-0.6c-3,0-5.6,1.7-6.8,4.4c-0.6,1.4-0.5,3.8-0.3,5.8
	c0,0.3,0,0.6,0,0.9v0.1l-0.1,0.1c-0.3,0.3-0.7,0.4-1.1,0.4c-0.6,0-1.1-0.2-1.6-0.4c-0.1,0-0.1,0-0.2,0c-0.4,0-0.7,0.2-0.8,0.5
	c0,0.2,0.2,0.6,1.1,0.9l0.4,0.1c0.8,0.1,1.6,0.6,2.1,1.4c0.2,0.5,0.1,1.1-0.2,1.6c-0.1,0.3-2.1,4.7-6.4,5.4c0,0,0,0,0,0.1
	c0.1,0.2,0.5,0.8,3.5,1.2c0.5,0.2,0.7,0.7,0.7,1.2c0,0.2,0.1,0.4,0.2,0.7c0.1,0.2,0,0.1,0.1,0.1c0.2,0,0.4,0,0.6-0.1
	c0.6-0.1,1.1-0.2,1.7-0.2c0.4,0,0.8,0,1.2,0.1c0.9,0.2,1.7,0.6,2.4,1.2c1,0.9,2.4,1.4,3.8,1.5h0.4c1.4-0.1,2.7-0.6,3.8-1.5
	c0.7-0.6,1.5-1,2.4-1.2c0.4-0.1,0.8-0.1,1.2-0.1c0.6,0,1.1,0.1,1.7,0.2c0.2,0,0.4,0.1,0.6,0.1l0,0c0.1,0,0.1,0,0.1-0.1
	c0.1-0.2,0.1-0.4,0.2-0.6c0-0.5,0.2-1,0.7-1.2c2.9-0.5,3.4-1.1,3.5-1.2c0,0,0,0,0-0.1C182.8,16,180.8,11.6,180.7,11.3z"/>
<path class="st2" d="M187.2,16.1c-4.1-0.7-5.9-4.9-6-5l0,0c-0.2-0.3-0.3-0.7-0.1-1.1c0.4-0.5,1-0.9,1.7-1l0.4-0.1
	c1-0.4,1.5-0.9,1.5-1.5c-0.1-0.5-0.4-0.9-0.9-1l0,0c-0.2-0.1-0.4-0.1-0.6-0.1s-0.4,0-0.6,0.1c-0.4,0.2-0.8,0.3-1.3,0.4
	c-0.2,0-0.3,0-0.5-0.1c0-0.2,0-0.4,0-0.6V5.9c0.1-2,0.3-4.6-0.4-6.1C179.1-3.1,176.2-5,173-5h-0.6c-3.2,0-6.1,1.8-7.4,4.8
	c-0.7,1.5-0.5,4-0.4,6c0,0.2,0,0.5,0,0.7c-0.2,0.1-0.4,0.1-0.6,0.1c-0.5,0-1-0.1-1.4-0.4c-0.1-0.1-0.3-0.1-0.5-0.1
	c-0.7,0-1.2,0.4-1.5,1c-0.1,0.4,0.1,1.1,1.5,1.6l0.4,0.1c0.7,0.1,1.3,0.5,1.7,1c0.2,0.4,0.1,0.8-0.1,1.1l0,0c-0.1,0.2-1.9,4.4-6,5
	c-0.3,0.1-0.5,0.3-0.5,0.6c0,0.1,0,0.2,0.1,0.3c0.3,0.7,1.6,1.2,3.9,1.6c0.1,0.2,0.2,0.5,0.2,0.7s0.1,0.5,0.2,0.7
	c0.1,0.3,0.4,0.6,0.7,0.5c0.2,0,0.5,0,0.7-0.1c0.5-0.1,1.1-0.2,1.6-0.2c0.4,0,0.8,0,1.1,0.1c0.8,0.2,1.5,0.6,2.1,1.1
	c1.2,1,2.6,1.5,4.1,1.6h0.4c1.5-0.1,3-0.6,4.1-1.6c0.6-0.5,1.4-0.9,2.1-1.1c0.4-0.1,0.8-0.1,1.1-0.1c0.5,0,1.1,0.1,1.6,0.2
	c0.2,0,0.5,0.1,0.7,0.1l0,0c0.3,0,0.6-0.1,0.7-0.4c0.1-0.2,0.1-0.5,0.2-0.7c0-0.2,0.1-0.5,0.2-0.7c2.3-0.4,3.6-0.9,3.9-1.6
	c0-0.1,0.1-0.2,0.1-0.3C187.7,16.4,187.5,16.1,187.2,16.1z M187.1,16.7c-0.1,0.2-0.5,0.8-3.5,1.2c-0.5,0.2-0.7,0.7-0.7,1.2
	c0,0.2-0.1,0.4-0.2,0.6c0,0.1,0,0.1-0.1,0.1l0,0c-0.2,0-0.4,0-0.6-0.1c-0.6-0.1-1.1-0.2-1.7-0.2c-0.4,0-0.8,0-1.2,0.1
	c-0.9,0.2-1.7,0.6-2.4,1.2c-1,0.9-2.4,1.4-3.8,1.5h-0.4c-1.4-0.1-2.7-0.6-3.8-1.5c-0.7-0.6-1.5-1-2.4-1.2c-0.4-0.1-0.8-0.1-1.2-0.1
	c-0.6,0-1.1,0.1-1.7,0.2c-0.2,0-0.4,0.1-0.6,0.1c-0.1,0-0.1,0-0.1-0.1s-0.1-0.5-0.2-0.7c0-0.5-0.2-1-0.7-1.2
	c-2.9-0.5-3.4-1.1-3.5-1.2c0,0,0,0,0-0.1c4.4-0.7,6.3-5.1,6.4-5.4c0.3-0.5,0.3-1.1,0.2-1.6c-0.5-0.7-1.2-1.2-2.1-1.4L162.4,8
	c-0.9-0.4-1.2-0.7-1.1-0.9c0.2-0.3,0.5-0.5,0.8-0.5c0.1,0,0.1,0,0.2,0c0.5,0.3,1.1,0.4,1.6,0.4c0.4,0,0.8-0.1,1.1-0.4l0.1-0.1V6.4
	c0-0.3,0-0.6,0-0.9c-0.1-2-0.3-4.4,0.3-5.8c1.2-2.7,3.9-4.4,6.8-4.4h0.6c3,0,5.7,1.7,6.8,4.4c0.6,1.4,0.5,3.8,0.3,5.8
	c0,0.3,0,0.6,0,0.9v0.1l0.1,0.1c0.3,0.3,0.6,0.4,1,0.4l0,0c0.5,0,1.1-0.2,1.5-0.4c0.1,0,0.2-0.1,0.3-0.1c0.1,0,0.3,0,0.4,0.1l0,0
	c0.2,0.1,0.4,0.2,0.5,0.5c0,0.1-0.1,0.5-1.1,0.9l-0.4,0.1c-0.8,0.1-1.6,0.6-2.1,1.4c-0.2,0.5-0.1,1.1,0.2,1.6
	C180.8,11.6,182.7,15.9,187.1,16.7L187.1,16.7L187.1,16.7z"/>
<path class="st3" d="M60.2,12.1v0.3c0,1.6,0.7,2.5,2.2,2.5c1.1,0.1,2-0.7,2-1.8c0-0.1,0-0.1,0-0.2c0.1-1.2-0.8-2.2-1.9-2.4L61,10
	c-2-0.8-2.8-1.8-2.8-3.7c0-2.5,1.7-3.8,4.2-3.8c3.5,0,3.8,2.2,3.8,3.6v0.3h-2.1V6c0.2-0.9-0.4-1.8-1.4-2c-0.2,0-0.4,0-0.5,0
	c-1-0.1-1.8,0.7-1.8,1.6c0,0.1,0,0.3,0,0.4c0,1.2,0.6,1.8,2,2.3l1.5,0.5c1.9,0.7,2.8,1.7,2.8,3.6c0,2.9-1.8,4.1-4.5,4.1
	c-3.4,0-4.1-2.2-4.1-4.1v-0.3H60.2L60.2,12.1z"/>
<path class="st3" d="M69.1,2.7h2.6l3.9,10.1l0,0V2.7h2.1v13.6h-2.6L71.2,5.9l0,0v10.4h-2.1V2.7L69.1,2.7z"/>
<path class="st3" d="M83.3,2.7h2.8l3.6,13.6h-2.3L86.6,13h-4l-0.9,3.3h-2.3L83.3,2.7z M86.2,11.2l-1.6-6.7l0,0L83,11.2H86.2
	L86.2,11.2z"/>
<path class="st3" d="M91.4,2.7h4.3c2.6,0,3.7,1.6,3.7,4c0.2,2-1.3,3.8-3.3,4c-0.2,0-0.5,0-0.7,0h-1.9v5.6h-2.1V2.7z M93.6,9h1.5
	c1.1,0.1,2.1-0.7,2.2-1.8c0-0.2,0-0.4,0-0.6c0-1.5-0.6-2.4-2.3-2.4h-1.4V9L93.6,9z"/>
<path class="st3" d="M110,11.4v0.3c0,2.5-1,4.8-4.2,4.8c-3.4,0-4.5-2.2-4.5-7s1.1-7,4.5-7c3.9,0,4.1,2.9,4.1,4.3V7h-2.2V6.7
	c0-1.2-0.4-2.7-1.9-2.6s-2.3,1-2.3,5.4s0.7,5.5,2.3,5.5c1.8,0,2-2,2-3.3v-0.2h2.2V11.4z"/>
<path class="st3" d="M112.3,2.7h2.2v5.4h4V2.7h2.2v13.6h-2.2V10h-4v6.3h-2.2V2.7z"/>
<path class="st3" d="M126.2,2.7h2.8l3.6,13.6h-2.2l-0.8-3.3h-4l-0.9,3.3h-2.3L126.2,2.7z M129.1,11.2l-1.6-6.7l0,0l-1.6,6.7H129.1
	L129.1,11.2z"/>
<path class="st3" d="M135.4,4.5h-3.2V2.7h8.6v1.8h-3.2v11.8h-2.2C135.4,16.3,135.4,4.5,135.4,4.5z"/>
</svg>
