<svg xmlns="http://www.w3.org/2000/svg" xmlns:xlink="http://www.w3.org/1999/xlink" viewBox="0 0 456.66 575.62"><defs><style>.cls-1{opacity:0.5;fill:url(#linear-gradient);}.cls-2{fill:url(#New_Gradient_Swatch);}.cls-3{fill:#fff;}</style><linearGradient id="linear-gradient" y1="296.65" x2="440.71" y2="296.65" gradientTransform="translate(177.5 -70.53) rotate(30)" gradientUnits="userSpaceOnUse"><stop offset="0" stop-color="#fff"/><stop offset="1"/></linearGradient><linearGradient id="New_Gradient_Swatch" x1="15.95" y1="279.66" x2="456.66" y2="279.66" gradientTransform="translate(171.49 -80.69) rotate(30)" gradientUnits="userSpaceOnUse"><stop offset="0" stop-color="#fff"/><stop offset="1" stop-color="#009ad7"/></linearGradient></defs><title>Bullseye</title><g id="Layer_2" data-name="Layer 2"><g id="Layer_1-2" data-name="Layer 1"><ellipse class="cls-1" cx="220.35" cy="295.96" rx="183.71" ry="304.92" transform="translate(-118.46 149.83) rotate(-30)"/><ellipse class="cls-2" cx="236.31" cy="279.66" rx="183.71" ry="304.92" transform="translate(-108.17 155.62) rotate(-30)"/><path class="cls-3" d="M342.27,215.86C284.17,115.23,187.92,62,127.29,97s-62.68,145-4.58,245.59,154.35,153.84,215,118.83S400.37,316.49,342.27,215.86Zm-55.4,167.41c-34.81,20.1-90.07-10.44-123.42-68.22s-32.18-120.9,2.63-141,90.06,10.45,123.42,68.23S321.68,363.18,286.87,383.27Z"/><ellipse class="cls-3" cx="227.44" cy="278.76" rx="29.63" ry="49.18" transform="translate(-108.91 151.07) rotate(-30)"/></g></g></svg>