<svg xmlns="http://www.w3.org/2000/svg" xmlns:xlink="http://www.w3.org/1999/xlink" viewBox="0 0 160.08 167.27"><defs><style>.cls-1,.cls-3{opacity:0.5;}.cls-1{fill:url(#linear-gradient);}.cls-2,.cls-5{stroke:#fff;stroke-miterlimit:10;}.cls-4{fill:url(#linear-gradient-2);}.cls-5{fill:#fff;}</style><linearGradient id="linear-gradient" y1="87.97" x2="124.01" y2="87.97" gradientUnits="userSpaceOnUse"><stop offset="0" stop-color="#fff"/><stop offset="1"/></linearGradient><linearGradient id="linear-gradient-2" x1="101.87" y1="61.24" x2="160.08" y2="61.24" xlink:href="#linear-gradient"/></defs><title>Group 1</title><g id="Layer_2" data-name="Layer 2"><g id="Layer_1-2" data-name="Layer 1"><path class="cls-1" d="M0,91V18A9.36,9.36,0,0,1,14,9.93l100,57.74a19.91,19.91,0,0,1,10,17.24v73a9.36,9.36,0,0,1-14,8.1L78.54,147.86,59.06,158.47l-22.7-35L10,108.26A19.91,19.91,0,0,1,0,91Z"/><path class="cls-2" d="M7,82.86v-73A9.36,9.36,0,0,1,21,1.77L121,59.51a19.92,19.92,0,0,1,10,17.24v73a9.36,9.36,0,0,1-14,8.1L85.52,139.7,66.05,150.31l-22.71-35L16.94,100.1A19.91,19.91,0,0,1,7,82.86Z"/><g class="cls-3"><path class="cls-4" d="M156.27,104.8,104.73,75.73a5.6,5.6,0,0,1-2.86-4.89V19.89a2.55,2.55,0,0,1,3.83-2.2l51.57,29.68a5.6,5.6,0,0,1,2.81,4.86v50.36A2.55,2.55,0,0,1,156.27,104.8Z"/></g><path class="cls-5" d="M150.91,96.77,99.37,67.7a5.62,5.62,0,0,1-2.86-4.89V11.86a2.55,2.55,0,0,1,3.83-2.21l51.57,29.68a5.62,5.62,0,0,1,2.82,4.86V94.55A2.56,2.56,0,0,1,150.91,96.77Z"/><path class="cls-2" d="M120.24,59.79V43.84a1.85,1.85,0,0,1,3.07-1.38l12.8,11.22a1.84,1.84,0,0,1-.58,3.11l-12.8,4.72A1.84,1.84,0,0,1,120.24,59.79Z"/></g></g></svg>