<svg xmlns="http://www.w3.org/2000/svg" xmlns:xlink="http://www.w3.org/1999/xlink" viewBox="0 0 86.31 96.97"><defs><style>.cls-1{opacity:0.5;fill:url(#linear-gradient);}.cls-2{stroke:#fff;stroke-miterlimit:10;}</style><linearGradient id="linear-gradient" y1="49.39" x2="74.41" y2="49.39" gradientUnits="userSpaceOnUse"><stop offset="0" stop-color="#fff"/><stop offset="1"/></linearGradient></defs><title>Group 6</title><g id="Layer_2" data-name="Layer 2"><g id="Layer_1-2" data-name="Layer 1"><path class="cls-1" d="M0,51.22V7.42A5.62,5.62,0,0,1,8.43,2.56l60,34.65a11.92,11.92,0,0,1,6,10.34v43.8A5.61,5.61,0,0,1,66,96.21L47.13,85.32,35.44,91.7l-13.62-21L6,61.56A11.94,11.94,0,0,1,0,51.22Z"/><path class="cls-2" d="M11.39,49.92V6.13a5.62,5.62,0,0,1,8.43-4.87l60,34.65a11.94,11.94,0,0,1,6,10.34v43.8a5.62,5.62,0,0,1-8.43,4.87L58.52,84,46.83,90.4l-13.62-21L17.36,60.27A12,12,0,0,1,11.39,49.92Z"/></g></g></svg>