<?xml version="1.0" standalone="no"?>
<!DOCTYPE svg PUBLIC "-//W3C//DTD SVG 1.1//EN" "http://www.w3.org/Graphics/SVG/1.1/DTD/svg11.dtd">
<svg xmlns="http://www.w3.org/2000/svg">
<metadata>Copyright (C) 2016 by original authors @ fontello.com</metadata>
<defs>
<font id="l2icons" horiz-adv-x="1000" >
<font-face font-family="l2icons" font-weight="400" font-stretch="normal" units-per-em="1000" ascent="850" descent="-150" />
<missing-glyph horiz-adv-x="1000" />
<glyph glyph-name="linkedin" unicode="&#xe800;" d="M195 501v-553h-184v553h184z m12 171q0-41-29-68t-75-27h-1q-46 0-74 27t-28 68q0 41 29 68t75 27 74-27 29-68z m650-407v-317h-183v296q0 59-23 92t-71 33q-35 0-58-19t-36-48q-6-17-6-45v-309h-184q1 223 1 361t0 165l-1 27h184v-80h-1q11 18 23 31t31 29 49 24 64 9q95 0 153-63t58-186z" horiz-adv-x="857.1" />
<glyph glyph-name="facebook" unicode="&#xe801;" d="M535 843v-147h-87q-48 0-65-20t-17-60v-106h164l-22-165h-142v-424h-171v424h-142v165h142v122q0 104 58 161t155 57q82 0 127-7z" horiz-adv-x="571.4" />
<glyph glyph-name="twitter" unicode="&#xe802;" d="M904 622q-37-54-90-93 0-8 0-23 0-73-21-145t-64-139-103-117-144-82-181-30q-151 0-276 81 19-2 43-2 126 0 224 77-59 1-105 36t-64 89q19-3 34-3 24 0 48 6-63 13-104 62t-41 115v2q38-21 82-23-37 25-59 64t-22 86q0 49 25 91 68-83 164-133t208-55q-5 21-5 41 0 75 53 127t127 53q79 0 132-57 61 12 114 44-20-64-79-100 52 6 104 28z" horiz-adv-x="928.6" />
<glyph glyph-name="play-dark" unicode="&#xe803;" d="M500 850c-278 0-500-222-500-500 0-278 222-500 500-500 278 0 500 222 500 500 0 278-222 500-500 500z m-89-689v378l306-189-306-189z" horiz-adv-x="1000" />
<glyph glyph-name="more" unicode="&#xe804;" d="M133 477c-80 0-133-54-133-134s53-146 133-146 147 66 147 146-67 134-147 134z m880 0c-80 0-146-54-146-134s66-146 146-146 147 66 147 146-67 134-147 134z m-440 0c-80 0-146-67-146-147s66-147 146-147 147 67 147 147-67 147-147 147z" horiz-adv-x="1147" />
<glyph glyph-name="webinar-large" unicode="&#xe805;" d="M0 850v-1000h1000v1000h-1000z m965-965h-930v736h930v-736z m0 771h-930v159h930v-159z m-871 76c0 24 18 36 35 36 24 0 36-18 36-36 0-23-18-35-36-35-17 0-35 18-35 35z m112 0c0 24 18 36 35 36s41-12 41-36c0-23-17-35-35-35s-41 18-41 35z m288-747c147 0 265 118 265 265 0 147-118 265-265 265-147 0-265-118-265-265 0-147 118-265 265-265z m0 494c130 0 230-105 230-229s-106-229-230-229-229 106-229 229 100 229 229 229z m100-229l-153-106v212l153-106z" horiz-adv-x="1000" />
<glyph glyph-name="instagram" unicode="&#xe806;" d="M690 350q0 26-6 50l176 0 0-344q0-56-39-96t-95-40l-592 0q-56 0-95 40t-39 96l0 344 174 0q-4-32-4-50 0-106 76-183t184-77q106 0 183 77t77 183z m36 430q56 0 95-39t39-95l0-146-218 0q-78 110-212 110-138 0-212-110l-218 0 0 146q0 56 39 95t95 39l592 0z m64-166l0 72q0 24-24 24l-72 0q-24 0-24-24l0-72q0-8 7-16t17-8l72 0q24 0 24 24z m-200-264q0-66-47-113t-113-47-113 47-47 113q0 68 47 114t113 46 113-46 47-114z" horiz-adv-x="860" />
<glyph glyph-name="heart" unicode="&#xe807;" d="M500-79q-14 0-25 10l-348 336q-5 5-15 15t-31 36-38 55-30 67-13 77q0 123 71 192t196 70q34 0 70-12t67-33 54-38 42-38q20 20 42 38t54 38 67 33 70 12q125 0 196-70t71-192q0-123-128-251l-347-335q-10-10-25-10z" horiz-adv-x="1000" />
<glyph glyph-name="email" unicode="&#xe808;" d="M0 850v-1000h1351v1000h-1351z m1180-99l-504-478-505 478h1009z m72-802h-1153v739l577-550 576 550v-739z" horiz-adv-x="1351" />
<glyph glyph-name="inverse-download" unicode="&#xe809;" d="M496 850c-270 0-496-226-496-496s226-497 496-497 497 227 497 497-219 496-497 496z m0-832l-219 226 44 44 146-146v511h66v-511l146 146 44-44-227-226z" horiz-adv-x="1000" />
<glyph glyph-name="link" unicode="&#xe80a;" d="M107 343c0 94 80 174 173 174h227v120h-214c-160 0-293-134-293-294s133-293 293-293h227v120h-227c-106 0-186 80-186 173z m240-53h453v120h-453v-120z m520 347h-227v-107h227c93 0 173-80 173-173s-80-187-173-187h-227v-107h227c160 0 293 134 293 294s-133 280-293 280z" horiz-adv-x="1147" />
<glyph glyph-name="add" unicode="&#xe80b;" d="M7 843v-993h993v993h-993z m71-922v660h851v-660h-851z m461 362h177v-71h-177v-178h-71v178h-177v71h177v177h71v-177z" horiz-adv-x="1007" />
<glyph glyph-name="presentation" unicode="&#xe80c;" d="M803 622v236h-803v-803h236v-205h772v772h-205z m-724-488v645h645v-157h-488v-488h-157z m850-205h-614v126 488h488 126v-614z" horiz-adv-x="1016" />
<glyph glyph-name="news" unicode="&#xe80d;" d="M732 850h-469c-143 0-263-120-263-263v-469c0-148 120-263 263-263h469c148 0 263 119 263 263v469c5 143-115 263-263 263z m-536-244h455v-96h-455v96z m407-507h-407v96h407v-96z m191 206h-598v95h598v-95z" horiz-adv-x="1000" />
<glyph glyph-name="left-open" unicode="&#xe80e;" d="M555-99l-51-51-504 504 504 503 51-51-453-460 453-445z" horiz-adv-x="555" />
<glyph glyph-name="right-open" unicode="&#xe80f;" d="M555 346l-504-503-51 51 453 452-453 460 51 51 504-511z" horiz-adv-x="555" />
<glyph glyph-name="heart-empty" unicode="&#xe810;" d="M929 517q0 46-12 80t-31 55-46 33-52 18-55 4-62-14-62-36-48-40-34-34q-10-13-27-13t-27 13q-14 15-34 34t-48 40-62 36-62 14-55-4-52-18-46-33-31-55-12-80q0-93 105-198l324-312 324 312q105 105 105 198z m71 0q0-123-128-251l-347-335q-10-10-25-10t-25 10l-348 336q-5 5-15 15t-31 36-38 55-30 67-13 77q0 123 71 192t196 70q34 0 70-12t67-33 54-38 42-38q20 20 42 38t54 38 67 33 70 12q125 0 196-70t71-192z" horiz-adv-x="1000" />
<glyph glyph-name="search" unicode="&#xe811;" d="M1000-79l-316 317c51 66 76 143 76 229 5 210-168 383-377 383-209 0-383-173-383-383s174-382 383-382c86 0 168 30 229 76l317-316 71 76z m-898 546c0 153 128 281 281 281s280-128 280-281c0-153-127-280-280-280s-281 127-281 280z" horiz-adv-x="1000" />
<glyph glyph-name="play-circled" unicode="&#xe812;" d="M288 900c-275 0-494-219-494-494s219-494 494-494 493 219 493 494-218 494-493 494z m0-919c-232 0-419 194-419 419s194 419 419 419c237 0 418-194 418-419 0-231-193-419-418-419z m-113 619l331-200-331-200v400z" horiz-adv-x="1000" />
<glyph glyph-name="milan" unicode="&#xe813;" d="M974 544l52 100h-71v206h-878v-206h-77l58-81v-649l-10-6 0-52 17 0c3 0 109 0 109 0l16 0v301c0 6 4 32 17 45 12 13 38 13 48 0 13-13 13-39 13-39v-313h142v407l13 12v49h-7c13 29 45 77 110 77 64 0 90-51 100-80h-10v-49l13-13v-400h132v258c0 58 16 68 46 68 6 0 9-3 12-6 13-13 13-49 13-62v-261h155v64l-13 13v617z m-51 274v-174h-813v174h813z m32-933h-90l0 230c0 6 3 58-23 83-10 10-23 17-39 17-77 0-77-75-77-100v-226h-68v377l-13 13v3h16l4 20c-7 45-46 125-136 125-90 0-135-80-148-122l-7-19h20v-4l-17-13v-387h-77v275c0 3 0 38-23 61-12 13-29 19-48 19-19 0-35-6-48-19-23-26-23-61-23-68v-265c-19 0-55 0-77 0v7l9 6v623h852v-607l13-12v-17z m-13 668h-852v20l-29 38h46v0h829v0h35l-29-58z m-794-274h168v152h-168v-152z m33 119h103v-87h-103v87z m535-119h168v152h-168v-152z m32 119h104v-87h-104v87z m-22 394h-407v-116h407v116z m-32-84h-342v52h342v-52z m-581-116c-16 0-16-23 0-23 13 0 13 23 0 23z m61 0c-16 0-16-26 0-26 16 3 16 26 0 26z m62 0c-17 0-17-26 0-26 16 3 16 26 0 26z m64 0c-16 0-16-26 0-26 16 3 16 26 0 26z m61 0c-16 0-16-26 0-26 16 3 16 26 0 26z m65 0c-16 0-16-26 0-26 13 3 13 26 0 26z m61 0c-16 0-16-26 0-26 16 3 16 26 0 26z m61 0c-16 0-16-26 0-26 17 3 17 26 0 26z m65 0c-16 0-16-26 0-26 16 3 16 26 0 26z m61 0c-16 0-16-26 0-26 16 3 16 26 0 26z m65 0c-16 0-16-26 0-26 16 3 16 26 0 26z m61 0c-16 0-16-26 0-26 16 3 16 26 0 26z m65 0c-17 0-17-26 0-26 12 3 12 26 0 26z m61 0c-16 0-16-26 0-26 16 3 16 26 0 26z" horiz-adv-x="1026" />
<glyph glyph-name="minus" unicode="&#xe814;" d="M786 439v-107q0-22-16-38t-38-15h-678q-23 0-38 15t-16 38v107q0 23 16 38t38 16h678q22 0 38-16t16-38z" horiz-adv-x="785.7" />
<glyph glyph-name="plus" unicode="&#xe815;" d="M786 439v-107q0-22-16-38t-38-15h-232v-233q0-22-16-37t-38-16h-107q-22 0-38 16t-15 37v233h-232q-23 0-38 15t-16 38v107q0 23 16 38t38 16h232v232q0 22 15 38t38 16h107q23 0 38-16t16-38v-232h232q22 0 38-16t16-38z" horiz-adv-x="785.7" />
<glyph glyph-name="x" unicode="&#xe816;" d="M533 350l467-467-33-33-467 467-467-467-33 33 467 467-467 467 33 33 467-467 467 467 33-33-467-467z" horiz-adv-x="1000" />
<glyph glyph-name="ok" unicode="&#xe817;" d="M932 534q0-22-15-38l-404-404-76-76q-16-15-38-15t-38 15l-76 76-202 202q-15 16-15 38t15 38l76 76q16 16 38 16t38-16l164-165 366 367q16 16 38 16t38-16l76-76q15-16 15-38z" horiz-adv-x="1000" />
<glyph glyph-name="tokyo" unicode="&#xe818;" d="M891-150l-134 0 0 594-259 0 0-588-134 0 0 591-191 0v125l163 0 0 38-151 0-28 48-61 0-96 182 35-6c639-137 1185 6 1189 6l35 10-99-192h-61l-25-48-211 0v-3h35v-38l179 0 0-134-186 0 0-585z m-105 32l70 0 0 588 186 0 0 70-179 0v38h-32v68l223 0 26 44h61l57 109c-128-29-597-115-1137-6l54-103 58 0 25-51 192 0v-61h-32l0-41-163 0v-58l192 0 0-591 70 0 0 588 323 0 6-594z m-169 658h-150v112h150v-112z m-119 32h87v48h-87v-48z m298-32h-151v112h151v-112z m-119 32h87v48h-87v-48z" horiz-adv-x="1259" />
<glyph glyph-name="info-circled" unicode="&#xe819;" d="M571 82v89q0 8-5 13t-12 5h-54v286q0 8-5 13t-13 5h-178q-8 0-13-5t-5-13v-89q0-8 5-13t13-5h53v-179h-53q-8 0-13-5t-5-13v-89q0-8 5-13t13-5h250q7 0 12 5t5 13z m-71 500v89q0 8-5 13t-13 5h-107q-8 0-13-5t-5-13v-89q0-8 5-13t13-5h107q8 0 13 5t5 13z m357-232q0-117-57-215t-156-156-215-58-216 58-155 156-58 215 58 215 155 156 216 58 215-58 156-156 57-215z" horiz-adv-x="857.1" />
<glyph glyph-name="weibo" unicode="&#xe81a;" d="M377 134q11 18 6 38t-25 28q-19 8-41 0t-33-25q-13-19-8-38t24-29 42-1 35 27z m52 67q5 7 2 15t-10 10q-7 3-16 0t-12-10q-9-18 8-26 8-2 16 1t12 10z m97-60q-25-57-88-83t-125-7q-60 19-82 71t3 104q27 52 85 78t117 10q62-16 89-66t1-107z m174 90q-5 53-49 94t-117 61-153 12q-124-13-206-79t-74-148q5-53 50-94t116-61 153-12q125 13 206 79t74 148z m172-3q0-38-20-77t-61-77-94-65-126-47-151-17-154 19-134 51-96 85-36 111q0 64 39 137t110 144q94 94 191 131t137-3q36-36 11-117-2-8 0-11t5-4 8 0 8 2l3 1q78 33 138 33t85-34q25-35 0-99-1-8-3-11t3-7 7-5 9-3q32-10 58-26t44-46 19-65z m-41 349q23-27 30-61t-3-66q-5-12-17-19t-25-2q-12 5-19 17t-2 25q11 35-13 61t-60 20q-13-3-25 4t-14 21q-3 14 5 25t20 14q34 7 67-3t56-36z m101 91q48-54 63-125t-8-134q-5-15-19-23t-29-2-22 19-3 29q16 46 6 96t-45 88q-35 39-83 53t-96 5q-16-3-29 6t-17 24 5 29 25 16q68 14 136-6t116-75z" horiz-adv-x="1000" />
<glyph glyph-name="play-big" unicode="&#xe81b;" d="M500 994c-275 0-506-225-506-506s225-507 506-507c275 0 506 225 506 500-6 288-231 513-506 513z m0-975c-256 0-469 212-469 469s213 468 469 468 469-212 469-468-213-469-469-469z m-100 625v-150-156l131 75 132 75-132 75-131 81z" horiz-adv-x="1000" />
<glyph glyph-name="play-medium" unicode="&#xe81c;" d="M411 711l289-178-289-177v355z m589-178c0-277-222-500-500-500s-500 223-500 500 222 500 500 500 500-222 500-500z m-44 0c0 250-206 456-456 456s-456-206-456-456 206-455 456-455 456 205 456 455z" horiz-adv-x="1000" />
<glyph glyph-name="pin" unicode="&#xe81d;" d="M636 497c0 174-141 320-321 320s-320-141-320-320 320-642 320-642 321 462 321 642z" horiz-adv-x="636" />
<glyph glyph-name="gplus" unicode="&#xe81e;" d="M410 406q0-20 18-40t43-37 51-41 43-59 18-79q0-50-27-96-40-68-118-101t-166-32q-74 0-138 24t-95 76q-21 34-21 73 0 46 25 84t66 64q73 46 225 56-18 24-26 41t-9 41q0 20 12 48-26-3-38-3-83 0-139 54t-57 137q0 45 20 88t55 73q43 37 102 55t122 18h233l-77-49h-73q41-35 62-74t21-90q0-40-13-72t-33-52-39-36-33-34-14-37z m-81 53q21 0 43 10t37 24q30 32 30 89 0 32-10 69t-27 73-47 57-65 23q-24 0-46-11t-37-29q-26-33-26-89 0-26 5-55t18-57 29-52 42-37 54-15z m1-487q32 0 62 7t55 22 41 41 15 61q0 14-4 27t-8 24-15 23-16 19-22 20-20 16-23 16-21 15q-8 1-26 1-30 0-59-4t-60-14-54-25-38-42-15-59q0-39 19-69t51-46 67-25 71-8z m452 489h119v-60h-119v-122h-59v122h-118v60h118v121h59v-121z" horiz-adv-x="928.6" />
<glyph glyph-name="print" unicode="&#xe81f;" d="M675 119h-362v56h362v-56z m0 156h-362v-56h362v56z m0-200h-362v-56h362v56z m325 550v-556h-206v-219h-594v219h-200v556h200v225h600v-225h200z m-750 0h488v169h-488v-169z m488-237h-488v-476h488v476z m206 187h-150-594-144v-444h144v313h600v-313h150v444z" horiz-adv-x="1000" />
<glyph glyph-name="up-open-big" unicode="&#xe820;" d="M804 130l-372 358-370-358q-26-22-50 0-24 24 0 50l396 390q26 26 48 0l396-390q24-26 0-50-26-22-48 0z" horiz-adv-x="864" />
<glyph glyph-name="right-open-big" unicode="&#xe821;" d="M13-20l358 370-358 372q-26 26 0 48 26 26 48 0l392-394q24-26 0-50l-392-394q-22-26-48 0-26 22 0 48z" horiz-adv-x="465" />
<glyph glyph-name="left-open-big" unicode="&#xe822;" d="M452-20q26-26 0-48-26-26-48 0l-392 394q-24 24 0 50l392 394q22 26 48 0 26-22 0-48l-358-372z" horiz-adv-x="465" />
<glyph glyph-name="down-open-big" unicode="&#xe823;" d="M63 570l370-356 372 356q22 26 48 0 26-22 0-48l-396-392q-22-22-48 0l-396 392q-26 26 0 48 24 24 50 0z" horiz-adv-x="866" />
<glyph glyph-name="trending" unicode="&#xe824;" d="M1649 407l-122 122-588-587-382 381-473-473-84 84 550 550 381-382 519 511-122 123 443 114-122-443z" horiz-adv-x="1771" />
<glyph glyph-name="gear" unicode="&#xe825;" d="M924 250c-16 16-32 38-54 60 0 27 0 48 0 75 22 22 44 43 54 60 22 21 27 37 27 37 11 11 11 28 0 44l-86 146c0 16-16 21-33 21 0 0-16 0-48-5-22-6-49-11-81-16-11 5-22 16-33 21-10 6-21 11-38 17-5 27-16 54-21 75-11 27-16 43-16 43 0 11-17 22-33 22h-167c-17 0-27-11-33-22 0 0-5-16-16-43-11-21-22-48-27-75-22-11-49-28-65-38-32 5-59 10-81 16-27 5-43 5-43 5-16 0-33-5-38-21l-87-146c-5-11-5-27 0-44 0 0 11-16 27-37 17-17 33-38 55-60 0-27 0-48 0-75-22-22-44-44-55-60-21-22-27-38-27-38-5-11-5-27 0-38l87-146c5-10 22-21 38-21 0 0 16 0 48 5 22 6 49 11 76 16 11-5 22-16 33-21 10-6 21-11 32-17 5-27 16-54 22-75 10-27 16-43 16-43 5-17 21-22 38-22h167c16 0 27 11 38 22 0 0 5 16 16 43 6 21 16 48 22 75 22 11 49 22 65 38 27-5 54-16 75-16 27-5 49-5 49-5 16 0 33 5 38 21l86 146c6 11 6 33 0 44 0 0-5 10-27 32z m-108-157c-5 0-11 0-11 0-27 6-54 11-91 22-11 5-27 0-38-5-22-17-49-33-81-49-11-6-22-16-27-27-11-33-17-65-27-92 0-6-6-11-6-11h-113c0 5-6 11-6 11-11 21-16 54-27 86-5 11-11 22-27 27-16 6-27 11-43 17-11 5-27 16-38 27-11 11-21 11-38 5-27 0-59-5-86-11-6 0-11 0-11 0l-59 98c0 5 5 5 10 10 17 17 38 44 65 65 11 11 16 22 11 38-5 33-5 65 0 92 0 11 0 27-11 38-27 21-48 48-65 65-5 5-5 11-10 11l59 97c5 0 11 0 16 0 27-6 54-11 87-22 11-5 27 0 38 6 27 21 54 37 81 48 10 6 21 16 27 27 10 33 16 65 27 87 0 5 5 11 5 11h114c0 0 0-6 0-6 10-21 16-54 27-86 5-11 10-22 27-27 16-6 32-11 43-22 11-5 27-16 38-27 11-11 21-11 38-5 32 10 64 16 91 21 6 0 11 0 11 0l60-97c0-5-6-5-11-11-16-16-38-43-65-65-11-11-16-21-11-38 6-32 6-64 0-91 0-11 0-28 11-38 27-27 49-49 65-65 5-6 5-6 11-11l-60-103z m-335 417c-86 0-157-71-157-157 0-87 71-157 157-157s157 70 157 157c0 86-70 157-157 157z m0-238c-43 0-76 32-76 75 0 44 33 76 76 76s76-32 76-76c0-37-33-75-76-75z" horiz-adv-x="962" />
<glyph glyph-name="up-micro" unicode="&#xe826;" d="M471 231h-471l235 236z" horiz-adv-x="471" />
<glyph glyph-name="calendar" unicode="&#xe827;" d="M71-79h786v572h-786v-572z m215 679v161q0 8-5 13t-13 5h-36q-8 0-13-5t-5-13v-161q0-8 5-13t13-5h36q8 0 13 5t5 13z m428 0v161q0 8-5 13t-13 5h-35q-8 0-13-5t-5-13v-161q0-8 5-13t13-5h35q8 0 13 5t5 13z m215 36v-715q0-29-22-50t-50-21h-786q-29 0-50 21t-21 50v715q0 29 21 50t50 21h72v54q0 37 26 63t63 26h36q37 0 63-26t26-63v-54h214v54q0 37 27 63t63 26h35q37 0 63-26t27-63v-54h71q29 0 50-21t22-50z" horiz-adv-x="928.6" />
<glyph glyph-name="close" unicode="&#xe828;" d="M0 350q0 95 37 182t100 149 150 100 182 37 182-37 149-100 100-149 37-182-37-182-100-150-149-100-182-37-182 37-150 100-100 150-37 182z m261-155q0-22 15-38 15-15 37-15 22 0 37 15l119 119 118-119q15-15 37-15 22 0 37 15 15 16 15 38t-15 37l-118 118 118 119q15 15 15 37t-15 37-37 15-37-15l-118-119-119 119q-15 15-37 15t-37-15q-15-15-15-37t15-37l118-119-118-118q-15-15-15-37z" horiz-adv-x="937.5" />
<glyph glyph-name="lock-open" unicode="&#xe829;" d="M582 437v-356q0-32-32-32h-518q-32 0-32 32v356q0 33 32 33h389v194q0 51-37 74t-91 23q-53 0-92-25t-39-77v-125h-97v128h1q9 87 74 141t153 53 151-63 71-151h1l2-172q4 0 15 1t15 0 13-2 12-5 6-10 3-17z" horiz-adv-x="582" />
<glyph glyph-name="lock" unicode="&#xe82a;" d="M582 437v-356q0-32-32-32h-518q-32 0-32 32v356q0 10 3 17t7 10 12 5 13 2 16 0 14-1v127h1q9 87 74 141t153 53 151-62 71-152h1l2-107q4 0 15 1t15 0 13-2 12-5 6-10 3-17z m-161 162q0 51-37 74t-91 23q-53 0-92-25t-39-77v-124h259v129z" horiz-adv-x="582" />
<glyph glyph-name="circle" unicode="&#xe82b;" d="M857 350q0-117-57-215t-156-156-215-58-216 58-155 156-58 215 58 215 155 156 216 58 215-58 156-156 57-215z" horiz-adv-x="857.1" />
<glyph glyph-name="circle-empty" unicode="&#xe82c;" d="M429 654q-83 0-153-41t-110-111-41-152 41-152 110-111 153-41 152 41 110 111 41 152-41 152-110 111-152 41z m428-304q0-117-57-215t-156-156-215-58-216 58-155 156-58 215 58 215 155 156 216 58 215-58 156-156 57-215z" horiz-adv-x="857.1" />
<glyph glyph-name="youtube" unicode="&#xe82d;" d="M542 156v-118q0-37-22-37-13 0-25 12v168q12 12 25 12 22 0 22-37z m188-1v-25h-50v25q0 38 25 38t25-38z m-539 122h60v52h-174v-52h59v-318h55v318z m161-318h50v276h-50v-211q-17-23-32-23-10 0-11 11-1 2-1 20v203h-50v-218q0-28 5-41 7-21 32-21 27 0 57 34v-30z m240 83v110q0 41-5 55-10 31-40 31-28 0-52-30v121h-50v-370h50v27q25-31 52-31 30 0 40 31 5 15 5 56z m188 6v7h-51q0-29-1-34-4-20-22-20-26 0-26 38v49h100v57q0 44-15 65-22 28-59 28-38 0-60-28-15-21-15-65v-96q0-44 16-65 22-29 60-29 40 0 60 30 10 15 12 30 1 5 1 33z m-339 509v117q0 39-24 39t-24-39v-117q0-39 24-39t24 39z m401-419q0-131-14-195-8-33-33-56t-57-25q-102-12-309-12t-310 12q-32 3-57 25t-32 56q-15 62-15 195 0 131 15 195 7 33 32 56t57 26q103 11 310 11t309-11q33-4 57-26t33-56q14-62 14-195z m-557 712h57l-67-223v-151h-56v151q-8 42-34 119-21 57-37 104h60l39-147z m207-186v-97q0-46-16-66-21-29-59-29-38 0-59 29-15 21-15 66v97q0 45 15 65 21 29 59 29 38 0 59-29 16-20 16-65z m187 91v-279h-51v31q-30-35-58-35-25 0-33 21-4 13-4 42v220h51v-205q0-19 0-20 2-12 12-12 15 0 32 24v213h51z" horiz-adv-x="857.1" />
<glyph glyph-name="down-arrow" unicode="&#xe82e;" d="M861 228l-372-372-378 372 17 16 344-344v950h22v-950l345 344 22-16z" horiz-adv-x="1000" />
<glyph glyph-name="right-arrow" unicode="&#xe82f;" d="M622 728l372-372-372-373-16 17 344 344h-944v23h950l-345 344 11 17z" horiz-adv-x="1000" />
<glyph glyph-name="up-arrow" unicode="&#xe830;" d="M133 472l373 372 372-372-17-16-339 344v-950h-28v950l-344-344-17 16z" horiz-adv-x="1000" />
<glyph glyph-name="left-arrow" unicode="&#xe831;" d="M383-28l-377 378 377 378 17-17-350-350h956v-22h-956l344-345-11-22z" horiz-adv-x="1000" />
<glyph glyph-name="down-right-arrow" unicode="&#xe832;" d="M1000 606v-750h-744v55h655l-922 917 39 39 916-917v656h56z" horiz-adv-x="1000" />
<glyph glyph-name="up-right-arrow" unicode="&#xe833;" d="M256 872h744v-750h-56v650l-916-916-39 38 917 923h-650v55z" horiz-adv-x="1000" />
<glyph glyph-name="down-micro" unicode="&#xe834;" d="M235 231l-235 236h471z" horiz-adv-x="471" />
<glyph glyph-name="big-plus" unicode="&#xe835;" d="M1000 306h-456v-456h-88v456h-456v88h456v456h88v-456h456v-88z" horiz-adv-x="1000" />
<glyph glyph-name="small-x" unicode="&#xe836;" d="M561 350l183-183-61-61-183 183-183-183-61 61 183 183-183 183 61 61 183-183 183 183 61-61-183-183z" horiz-adv-x="1000" />
<glyph glyph-name="download" unicode="&#xe837;" d="M650 306l61-62-211-216-217 216 61 62 106-106v428h89v-428l111 106z m350 44c0-278-222-500-500-500s-500 222-500 500 222 500 500 500 500-222 500-500z m-89 0c0 228-183 411-411 411-228 0-411-183-411-411s183-411 411-411c228 0 411 183 411 411z" horiz-adv-x="1000" />
<glyph glyph-name="geneva" unicode="&#xe838;" d="M760-33c-20 0-33-4-45-7l20 32c2 4 2 6 0 10-2 4-6 6-8 6h-73v25h38c4 0 8 2 10 6 2 3 0 7-2 11l-67 58c-2 2-8 4-10 2-6-2-8-6-8-10v-63l-157 300 13 25 46 44 23-33c4-6 10-9 16-9 6 0 13 1 17 7l25 35 27-39c2-3 6-5 12-5 3 0 9 2 11 5l23 27 81-144c2-4 6-6 8-6 2 0 4 0 4 2 3 2 5 8 3 14l-171 309c-4 8-11 12-19 12-8 0-15-6-19-12l-21-38-145 306c-3 7-11 13-23 13-9 0-17-6-21-15l-265-635c-2-6 0-10 6-13 1 0 1 0 3 0 4 0 8 2 10 5l150 358c2 0 2 2 4 2l42 46 29-38c2-4 8-8 12-8 5 0 9 2 13 6l29 36 31-36c3-4 7-6 11-6 4 0 10 2 12 6l27 32 40-46c2-2 2-2 4-2l17-38-79-148-59 113c-6 10-18 18-29 16-12 0-21-8-27-18l-246-523c-2 0-4 2-6 2-15 10-33 21-67 21-6 0-10-4-10-9s4-10 10-10c29 0 42-8 57-17 16-10 33-21 68-21s52 11 67 21c15 9 29 17 58 17 29 0 42-8 57-17 16-10 33-21 68-21 34 0 52 11 67 21 15 9 29 17 58 17 29 0 42-10 57-17 16-10 33-21 68-21s52 11 67 21c15 9 29 17 58 17 5 0 9 4 9 10s-4 9-9 9z m-287 643c-4 4-8 4-11 4-4 0-8-4-10-6l-29-33-31 37c-3 3-7 5-11 5-4 0-10-2-12-5l-29-37-28 37c-2 3-6 5-12 7-4 0-10 0-13-4l-16-15 94 229c2 2 4 2 6 2 2 0 4 0 4-2l106-229-8 10z m100-54c2 0 2 2 0 0 2 2 4 0 4 0l83-148-23-27-29 38c-2 4-6 6-12 6-4 0-9-2-11-6l-31-38-25 36c-2 4-6 6-10 8-4 0-9 0-11-4l-10-7 75 142z m62-477l32-27h-21c-6 0-9-4-9-10v-32l0 0v69z m-287 381c2 4 6 5 10 7 4 0 7-2 9-5l106-202-19-37-48 54c-6 8-17 8-23 0l-50-56-41 56c-2 4-5 6-9 6-4 0-8-2-10-4-4-4-13-14-23-25 0 0-2-2-2-2l100 208z m94-514c-15-10-28-17-57-17-29 0-43 7-58 17-15 10-33 21-67 21-35 0-52-11-68-21-15-10-28-17-57-17-16 0-25 2-35 6 0 0 0 0 0 0l125 265c0 0 0 0 0 0 2 2 14 14 40 42 8 8 14 14 18 20l38-54c2-4 8-6 12-6 6 0 9 2 13 6l50 56 54-60c2-2 6-4 8-4 0 0 2 0 2 0 4 0 7 4 7 6l18 34 123-232h-66c-3 0-5-2-7-6-2-4-2-8 0-10l21-32c-12 5-27 9-48 9-33-2-50-13-66-23z m147-6c0 2 0 4-2 4l-27 42h148l-25-42c0 0 0-2 0-2-12-7-25-13-48-13-21 0-35 4-46 11z m9-71c-25 0-36 8-50 17-13 10-31 22-61 22s-48-12-62-22c-13-9-25-17-50-17-25 0-36 8-50 17-13 10-31 22-61 22-6 0-10-4-10-10s4-10 10-10c25 0 36-7 50-17 13-10 30-21 61-21 31 0 48 11 62 21 13 10 25 17 50 17s36-7 50-17c13-10 30-21 61-21 6 0 10 4 10 10s-4 9-10 9z" horiz-adv-x="769" />
<glyph glyph-name="kong" unicode="&#xe839;" d="M291-84v615h0l-88 72v203c0 6-4 10-10 10s-10-4-10-10v-111h-75v109c0 6-4 10-10 10s-10-4-10-10v-109h0l0 0v-84c0-2 0-2 0-4l-88-76v-681l387 0-96 66z m-110 77l90 82v-145l-90 63z m90 114l-110 90 110 89v-179z m0 209l-112 100 112 97v-197z m-14-16l-112-91-113 91 113 100 112-100z m2-209l-96-88-129 90 109 90 116-92z m-76 530l-32 26 32 30v-56z m-30 54l-8-8-7 8h15z m-45 0l28-28-28-24v52z m35-46l118-98-116-101-115 101 113 98z m-123-114l110-99-110-98v197z m0-229l110-89-110-90v179z m0-205l129-90-129-119v209z m145-102l158-109c-92 0-221 0-275 0l117 109z m30 851c12 0 12 20 0 20-12 0-12-20 0-20z m-99 0c12 0 12 20 0 20-12 0-12-20 0-20z" horiz-adv-x="386" />
<glyph glyph-name="london" unicode="&#xe83a;" d="M355 423h-37v58c0 2 0 2 0 4l-40 104c0 0 0 0 0 2 0 0 0 0 0 2v71c0 0 0 2 0 2 0 2 0 4 0 4l-90 174c-2 4-4 6-8 6-3 0-7-2-9-6l-81-176c0-2-2-4-2-6v-79l-47-102c0-2 0-2 0-3v-59h-31c-6 0-10-4-10-10v-345c0-6 4-10 10-10h8v-26c0-5 4-9 10-9h15l0-163c0-2 2-6 2-8 2 4 4 2 6 2 0 0 0 0 0 0l257 0c6 0 10 4 10 10v163h15c6 0 10 4 10 9v26h10c6 0 10 4 10 10v345c2 4-4 10-8 10z m-131 209c-6 0-10-4-10-9v-30h-24v30c0 5-4 9-10 9s-9-4-9-9v-30h-22v30c0 5-4 9-10 9s-10-4-10-9v-30h-19v61h149v-61h-24v30c-2 5-6 9-11 9z m-44 185l71-143h-61v21c0 6-4 10-10 10s-9-4-9-10v-21h-57l66 143z m-74-243h157l31-85c-147 0-206 0-227 0l39 85z m-47-104c27 0 151 0 237 0v-47h-19v19c0 6-4 10-10 10s-10-4-10-10v-19h-22v19c0 6-4 10-9 10s-10-6-10-12v-19h-24v19c0 6-4 10-10 10s-9-4-9-10v-19h-24v19c0 6-4 10-10 10s-10-4-10-10v-19h-23v19c0 6-4 10-10 10s-10-4-10-10v-19h-27v49z m27-447v-79h-23l0 79h23z m214-99v-19h0v-2h-235v2h-2l0 19h2v2h235l0-2 0 0z m-151-39h24v-15l-24 0v15z m-20-15l-23 0v15h23v-15z m61 15h24v-15l-24 0v15z m43 0h24v-15l-24 0v15z m0 59v79h24v-79h-24z m-19 0h-24v79h24v-79z m-43 0h-22v79h24v-79z m-42 0h-23v79h23v-79z m-68-59h23v-15l-23 0 0 15z m216-15v15h23v-15l-23 0z m23 74h-23v79h23v-79z m24 98h-287v16h287v-16z m21 36h-325v325h325v-325z m-221 433c11 0 11 19 0 19-14 0-14-19 0-19z m56 0c12 0 12 19 0 19-13 0-13-19 0-19z m57 0c12 0 12 19 0 19-13 0-13-19 0-19z m-88 27c12 0 12 20 0 20-12 0-12-20 0-20z m61 0c12 0 12 20 0 20-12 0-12-20 0-20z m-32-413c63 0 112 51 112 111s-51 112-112 112-111-51-111-112 49-111 111-111z m0 203c51 0 93-41 93-92 0-51-42-92-93-92s-92 41-92 92c0 51 42 92 92 92z m0-98h44c6 0 9 4 9 10s-3 10-9 10h-34v57c0 6-4 10-10 10s-9-4-9-10v-67c0-6 4-10 9-10z" horiz-adv-x="365" />
<glyph glyph-name="york" unicode="&#xe83b;" d="M377 376c-55 31-57 31-59 31-6 0-8-4-12-10 0 0 0 0 0 0 0 4-2 6-4 10-10 37-33 49-35 51 0 0-12 6-24 14l-2 2c-4 2-8 4-10 5 0 0 0 2 4 8 8 14 10 30 12 40l47 11c4 2 8 6 8 10 0 4-4 8-8 10l-35-2 37 22c4 1 6 7 4 11-2 4-6 8-12 6l-49-12 18 42c2 3 0 9-4 11-4 2-10 2-12-2l-37-39-12 47c-2 4-6 8-10 8-4 0-7-4-9-8l-6-49-45 35c-4 4-10 2-14 0-4-3-4-7-2-11l25-38-21 4c-2 0-4 0-6 0-4 20-12 40-18 57-2 14-8 28-8 36 10 25 6 37-3 49 0 0 0 0 0 0 3 2 11 5 21 11 2 2 4 6 4 8-2 26-2 28-8 30-2 2-4 2-6 2 0 0-2 2-2 2 10 15 6 41 4 62-2 6-6 8-10 10-1 0-5 0-9-4-6-6-14-12-20-16-12-7-23-17-21-39 0-4 0-6 0-8-12-2-22-7-24-7-2-2-4-6-4-8 0 0 0-14 0-24 0-4 2-8 8-10l4-2c4 0 6-2 8-2 2-2 4-5 6-7-6-8-6-14-4-18 0 0 0 0 0 0 0-4 0-6 2-10 0 0 0 0 0-2 0-8 4-15 7-19l6-40c2-21 8-55 20-96-33-49-10-76 0-88 2 0 2 0 2 0 2-4 6-14 8-20 2-5 4-9 6-13 2-6 2-6 0-16-4-14 4-23 7-31 6-8 10-14 8-26 0-86-4-420-4-422 0-1 0-1 0-3 0 0 0 0 0 0-9-6-17-10-21-14-4 0-8-4-8-10l-2-31c0-2 0-6 2-8s6-6 8-6c0 0 0 0 0 0l259 0c6 0 9 4 9 10v35c0 4-2 8-5 10l-24 10 0 312 27 52 8 12c0 0 0 0 0 0 10 2 22 8 32 32 4 7 6 17 4 25l9 18c0 0 0 6-5 10z m-163 198c0 0 0 0 0 0 0 0-2 0-2 0l6 5-4-5z m-22 4c-2 0-4 0-6 0l2 13 4-13z m-25-8c0 0-2 0-2-2 0 0 0 2 0 2l-2 4 4-4z m-24-53c2-20 8-36 8-38 0-1 2-3 4-3 2-2 2-2 0-2 0-2-4-4-6-4-4 0-12 9-12 37 0 4 0 8-2 10 2 0 4 0 8 0z m-82 298c2 2 6 4 8 6 2-30-4-36-6-36-2 0-2-2-4-2-4 0-10 0-14 0 0 2 0 6 0 10 0 10 4 12 16 22z m-41-55c4 2 23 6 45 2 2-2 6-2 8-4 2 0 4-2 7-2 0-2 0-6 0-8-5-2-11-4-11-6-2 0-4 0-6 0-14 10-24 8-32 4-3 2-7 4-11 4 0 4 0 8 0 10z m37-124l-6 45c0 2-2 6-4 8 0 0-4 4-4 8 0 2 0 6-2 8 0 0 0 0 0 0 0 2 0 6 0 8 0 0 0 0 0 0 4 6 4 12 0 17 2 0 6 0 12-2 0-5 4-11 6-15 4-6 10-10 0-32 0-2 0-2 0-3 0-12 6-28 14-46 7-21 17-45 17-66 0-22 8-34 16-43-4-6-10-16-18-26l-10 41c0 2-1 4-1 4-16 53-20 81-20 94z m6-155c0 0-2 0-2 0-2 10-2 20 4 32l8-30c-4-2-6-2-10-2z m23-45c-2 6-8 18-9 22 0 2-2 4-4 6 21 4 35 27 45 43 2-43 17-53 29-55 12-2 24 6 28 16 3 8 0 17-6 23-2 6-6 20-6 36 0 0 0 1 0 1 2 6 8 28 27 30 18 2 30-2 38-31 0 0 0-2 1-2 0-8-1-20-7-30-4-6-8-14-6-23 2-10 10-14 19-18l2 0c14-8 26-14 26-14 0 0 17-10 25-39 0 0 0-2 2-2 0 0 0-2 2-2 0 0 0 0 0 0l-12-174c0-2 0-2 0-4l0-300-180 0c0 0 0 2 0 2 0 0 0 13 0 33 2 0 2 2 2 2l78 108c4 4 2 10-2 14-3 3-9 1-13-2l-65-91c0 26 0 57 2 93 0 0 0 0 2 1l94 149c2 4 2 10-4 14 0 0-6 0-10-6l-78-123c0 27 0 57 0 84 0 0 2 0 2 2l100 167c2 4 2 10-4 13-4 2-10 2-14-3l-84-142c0 45 0 85 0 106 4 20-6 32-12 39-6 8-8 10-6 14 6 16 4 22 0 32 0 2-2 5-2 11z m226-566l-237 0 0 15c0 0 3 6 15 12l200 0 22-8v-19z m37 474c-2-4-2-8 2-12 0 0 0 0 0 0 0-2-2-4-2-5-6-16-12-18-18-18-2 0-3 0-3-2-2 0-4-2-4-4l-12-16-10-19 2 86c4 2 8 10 18 29 7-4 23-11 37-21l-10-18z" horiz-adv-x="382" />
<glyph glyph-name="paris" unicode="&#xe83c;" d="M484-136l-80 214h16c6 0 9 3 9 9v65c0 6-3 10-9 10h-47l-83 429 47 47c2 2 4 4 4 8v55c0 6-4 10-10 10h-33c-2 16-16 39-45 43v86c2 6-2 10-8 10s-10-4-10-10v-86c-31-2-43-26-47-43h-37c-6 0-10-4-10-10v-55c0-4 4-8 8-10l49-41c-8-25-25-114-84-433h-45c-6 0-10-4-10-10v-65c0-6 4-9 10-9h17l-84-210c0 0 0 0 0 0l-2-4c-2-4 0-6 2-10 2-2 4-4 8-4l392 0c39 0 59 0 69 0 2 0 4 0 7 0 2 0 2 2 4 2 2 0 2 2 2 4 0 4 0 6 0 8z m-409 131l23-20-57-62 34 82z m68 210l14-12c-8-6-14-12-20-17 2 9 4 19 6 29z m73 380c2 0 2 0 2 2 10 0 25 0 53 0l4-23h-65c4 10 6 17 6 21z m98-221l-59 64 37 44 22-108z m37-186c-6 3-12 9-18 15l12 12 6-27z m-118-287l-31 26c10 7 22 17 31 25 0-20 0-37 0-51z m-49 39l-58 49 41 46c19-18 41-40 62-57-15-14-31-28-45-38z m-6 108l36 40h19c0-32 0-63 0-89-17 16-37 34-55 49z m75 485c8-8 18-20 29-34l-29-33c0 12 0 22 0 29l0 38z m-20-69l-31 35c12 14 24 26 31 36 0-18 0-42 0-71z m0-171c-23 22-45 40-58 53l58 67c0-37 0-78 0-120z m20 120l61-67c-14-11-36-33-61-55 0 44 0 85 0 122z m84-241c0 0 0 0 0 0-2 0-2 0 0 0h-37l20 17c8-7 13-13 19-17h-2z m-37-65v45h28v-45h-28z m-82 0v45h15c0-15 0-31 0-45h-15z m35 12c0 12 0 21 0 33h27v-45h-27l0 12z m18 53h-18c0 25 0 51 0 76 18-15 35-31 51-45l-33-31z m-38 0h-17l-30 29c16 14 32 30 49 45-2-25-2-49-2-74z m-45 0h-33c0 0 0 0 0 0s0 0 0 0h0c6 4 12 10 18 16l15-16z m10-20v-45h-35v45h35z m-10-64l-23-26c-10 10-20 18-30 26h53z m65 0h22l37-44c-20-15-39-31-59-49l0 93z m47 0h65c-12-10-24-20-37-32l-28 32z m75 19h-30v45h12l16-37c2-2 2-6 2-8z m-57 110c-18 16-40 35-59 53 23 21 45 41 65 59l17-91-23-21z m-59 339h19l6-29c-9 10-19 21-25 29z m-51 0h18c-6-6-14-14-24-25 2 7 4 15 6 25z m-16-76l37-42-56-64c7 37 13 72 19 106z m-27-151c19-18 43-38 64-59-19-18-41-37-58-55l-24 23c6 30 12 61 18 91z m-34-177c0 0 0 0 0 0l12 0v-45h-29l17 45z m20-106l-41-45-30 24 26 63c14-12 29-26 45-42z m-39-72l57-47c-30-24-51-42-51-44-2-1-2-3-4-3-37 0-67 0-86 0l84 94z m72-59l44-35c-30 0-59 0-87 0 12 7 26 19 43 35z m69-20c0 12 0 28 0 51l0 8c12-12 25-23 35-33l-35-26z m49 12c12-12 22-20 27-27-21 0-45 0-68 0l41 27z m-43 69c21 17 45 37 67 55l47-53-67-46c-16 12-31 28-47 44z m80 66c18 14 34 28 47 40l28-75-28-18-47 53z m83-57l25-68-47 53 22 15z m-12 122h-14l-6 16c-4 10-8 21-10 29h30v-45z m-86 559h-22v35h22v-35z m-85 35v-35h-25v35h25z m20 0h25v-35h-25v35z m-16 45c26 0 34-15 37-25h-70c2 10 8 25 33 25z m-49-45v-35h-33v35h33z m116-55l-30-29c0 0 0 0 0 0-25 0-54 0-64 0l-36 29h130z m-232-539v45h34l-18-45h-16z m281-227c0 0 0 0 0 0 0 0-16 15-39 37l64 43 71-80c-22 0-55 0-96 0z" horiz-adv-x="484" />
<glyph glyph-name="francisco" unicode="&#xe83d;" d="M153 719c2 0 35 0 65 0 23 0 45 0 45 0 27 0 49 21 49 49 0 27-22 49-49 49-4 0-6 0-10-2-8 19-25 31-45 31-22 0-39-14-45-33-4 6-6 6-10 6-27 0-49-22-49-49s22-51 49-51z m0 80c4 0 10-2 14-4 2-2 6-2 10 0 3 2 5 4 5 8 0 16 12 27 26 27 14 0 25-11 27-25 0-4 2-6 6-8 2-2 6-2 10 0 20 10 41-6 41-27 0-16-14-30-29-30 0 0-22 0-45 0-30 0-65 0-65 0-16-2-29 12-29 30s13 29 29 29z m576-200c-3 0-5 0-9-2-8 20-26 31-45 31-22 0-40-13-46-33-3 2-7 2-11 2-28 0-49-21-49-49 0-27 21-49 49-49 2 0 35 0 64 0 24 0 46 0 46 0 27 0 49 22 49 49 1 30-20 51-48 51z m0-80c0 0-21 0-45 0-29 0-62 0-64 0-16 0-30 13-30 29s14 30 30 30c4 0 9-2 13-4 2-2 6-2 10 0 4 2 6 4 6 7 2 16 14 28 28 28 13 0 25-12 27-26 0-4 2-5 6-7 2-2 6-2 10 0 19 9 41-6 41-28-2-16-16-29-32-29z m-323-151c-2 0-4 0-6 0l-133-18c-4 0-8-4-8-10v-176c0-2 2-6 4-8 2-2 4-2 6-2 0 0 0 0 0 0l133 12c6 0 10 4 10 10 2 188 2 188-6 192z m-118-190l-11 0v156l11 2v-158z m104 9l-84-8v157l84 10c2-25 0-104 0-159z m14-53c-2 0-4 0-6 0l-100-11c0 0 0 0 0 0-2 0-2 0-4 0l-27-4c-4 0-8-4-8-10v-177c0-2 2-6 4-8 2-2 4-2 6-2 0 0 0 0 0 0l133 10c6 0 10 4 10 10 0 188 0 188-8 192z m-128-190v157l12 2v-155c0-2 0-2 0-4l-12 0z m114 8l-84-6c0 0 0 2 0 2v157l84 10c2-28 0-108 0-163z m341-82c0 0-31 0-70 0v378c19-16 41-33 65-51 1-2 3-2 5-2 4 0 6 2 8 4 4 4 2 10-2 14-29 21-53 41-76 61v82c19-16 41-31 65-45 1 0 3-2 5-2 4 0 6 2 8 4 2 4 2 10-4 14-209 125-241 337-241 339 0 4-2 6-6 8l-29 19c-2 2-6 2-8 2 0 0-2 0-2 0h-59c-6 0-10-4-10-10v-35l-78-16v16c0 4-2 8-6 10l-31 12c-2 0-2 0-4 0 0 0 0 0 0 0l-43-4c-6 0-10-4-10-10v0c-4-84-90-171-149-220 0 0-2 0-2-2-26-21-45-35-49-37-6-2-8-8-6-12 0-6 4-8 8-8 0 0 2 0 2 0 2 0 19 12 41 30v-135c-16-10-31-18-49-26-4-2-8-8-4-14 2-4 6-6 10-6 2 0 2 0 4 0 13 6 27 14 39 22v-380c-16 0-31 0-47 0 0 0 0 0 0 0-4 0-8-4-8-10 0-4 4-10 10-10l723 0c0 0 0 0 0 0 6 0 10 4 10 10 0 6-4 10-10 10z m-598 0c-21 0-41 0-60 0v392c19 12 41 27 60 41v-433z m0 458c-19-15-39-29-60-43v140c19 15 39 35 60 56v-153z m73-458c-18 0-35 0-53 0v449c18 13 35 29 53 43v-492z m0 519c-18-15-35-31-53-45v159c0 0 0 2 0 2 22 25 39 51 53 80v-196z m65 259l13-4v-12l-13-2v18z m166-776h-211v507c9 10 19 20 29 28v-6c0-2 2-6 4-8 2-2 4-2 6-2 0 0 0 0 2 0l133 14c6 0 8 4 8 10 2 94 2 141 2 163 12 13 19 25 27 35v-741z m-151 566v-23l-11-2v14c5 3 7 7 11 11z m-10 18v114l12 2v-104c-6-6-8-8-12-12z m114 100c0-35-2-90-2-129l-82-8v39c33 35 63 69 84 98z m-84-69v87l82 9c-21-27-49-60-82-96z m131 161c0 0 0 0 0 0-2-2-11-18-33-45 0 0 0 0 0 0-2 0-4 2-6 0l-133-18c-4 0-8-4-8-9v-144c-10-9-20-19-30-29v245l24 2v-35c0-2 2-6 4-8 2-2 6-2 8-2l131 25c4 0 8 6 8 10v36h37v-28z m38-775h-18v797l18-12v-785z m82-3c-20 0-41 0-63 0v545c12-18 32-41 63-75v-470z m0 500c-57 60-61 86-61 88 0 2 0 4-2 4v129c12-33 32-78 63-121v-100z m84-500c-19 0-41 0-65 0v451c18-18 40-36 65-57v-394z m0 419c-25 22-47 41-65 59v92c18-23 40-47 65-68v-83z" horiz-adv-x="778" />
<glyph glyph-name="shanghai" unicode="&#xe83e;" d="M52 405c11 0 11 19 0 19-12 0-12-19 0-19z m37 0c12 0 12 19 0 19-14 0-14-19 0-19z m36 0c12 0 12 19 0 19-12 0-12-19 0-19z m37 0c12 0 12 19 0 19-11 0-11-19 0-19z m38 0c12 0 12 19 0 19-14 0-14-19 0-19z m36 0c12 0 12 19 0 19-12 0-12-19 0-19z m37 0c12 0 12 19 0 19-14 0-14-19 0-19z m36 0c12 0 12 19 0 19-12 0-12-19 0-19z m38 0c11 0 11 19 0 19-14 0-14-19 0-19z m35 0c12 0 12 19 0 19-12 0-12-19 0-19z m38 0c12 0 12 19 0 19-12 0-12-19 0-19z m37 0c12 0 12 19 0 19-13 0-13-19 0-19z m-405-40c11 0 11 20 0 20-12 0-12-20 0-20z m37 0c12 0 12 20 0 20-14 0-14-20 0-20z m36 0c12 0 12 20 0 20-12 0-12-20 0-20z m37 0c12 0 12 20 0 20-11 0-11-20 0-20z m38 0c12 0 12 20 0 20-14 0-14-20 0-20z m36 0c12 0 12 20 0 20-12 0-12-20 0-20z m37 0c12 0 12 20 0 20-14 0-14-20 0-20z m36 0c12 0 12 20 0 20-12 0-12-20 0-20z m38 0c11 0 11 20 0 20-14 0-14-20 0-20z m35 0c12 0 12 20 0 20-12 0-12-20 0-20z m38 0c12 0 12 20 0 20-12 0-12-20 0-20z m37 0c12 0 12 20 0 20-13 0-13-20 0-20z m-405-38c11 0 11 20 0 20-12 0-12-20 0-20z m37 0c12 0 12 20 0 20-14 0-14-20 0-20z m36 0c12 0 12 20 0 20-12 0-12-20 0-20z m37 0c12 0 12 20 0 20-11 0-11-20 0-20z m38 0c12 0 12 20 0 20-14 0-14-20 0-20z m36 0c12 0 12 20 0 20-12 0-12-20 0-20z m37 0c12 0 12 20 0 20-14 0-14-20 0-20z m36 0c12 0 12 20 0 20-12 0-12-20 0-20z m38 0c11 0 11 20 0 20-14 0-14-20 0-20z m35 0c12 0 12 20 0 20-12 0-12-20 0-20z m38 0c12 0 12 20 0 20-12 0-12-20 0-20z m37 0c12 0 12 20 0 20-13 0-13-20 0-20z m-405-39c11 0 11 19 0 19-12 0-12-19 0-19z m37 0c12 0 12 19 0 19-14 0-14-19 0-19z m36 0c12 0 12 19 0 19-12 0-12-19 0-19z m37 0c12 0 12 19 0 19-11 0-11-19 0-19z m38 0c12 0 12 19 0 19-14 0-14-19 0-19z m36 0c12 0 12 19 0 19-12 0-12-19 0-19z m37 0c12 0 12 19 0 19-14 0-14-19 0-19z m36 0c12 0 12 19 0 19-12 0-12-19 0-19z m38 0c11 0 11 19 0 19-14 0-14-19 0-19z m35 0c12 0 12 19 0 19-12 0-12-19 0-19z m38 0c12 0 12 19 0 19-12 0-12-19 0-19z m37 0c12 0 12 19 0 19-13 0-13-19 0-19z m-11-78c39 44 63 99 63 151 4 135-59 220-194 271 0 8-14 220-14 220h-91l-12-224c-22-6-162-47-192-202-12-57-6-109 14-156l0 0c0 0 0-2 2-2 6-14 14-28 24-42 17-23 37-43 63-59v-317h115v38h53v-40h113v313c8 6 16 12 24 18 10 10 20 20 32 31-2-2 0-2 0 0l0 0z m-153 442c0-8 0-14 2-20-16-4-30-4-43-4-14 0-26 2-34 4l2 26h75c-2-2-2-4-2-6z m-10 178c2-22 4-59 6-99 2-20 2-37 4-55h-71l8 154h53z m-79-220l0 4c8-2 24-6 48-6 15 0 33 2 53 6 85-31 139-75 166-136-146-26-380-4-427 0 47 105 156 130 160 132z m-178-188c2 14 6 24 10 36 21-2 134-14 255-14 65 0 131 4 186 14 10-28 14-59 12-97 0-26-8-54-20-79-200-36-398-8-431 0-18 41-22 89-12 140z m33-182c-4 6-7 14-11 20 37-8 103-12 120-12 26-2 54-2 87-2 60 0 131 4 204 16-5-12-13-22-23-32-109-20-238-20-363 0-2 0-2 0-2 0-6 2-10 6-12 10z m68-370v285c24-12 47-22 75-28v-255h-75z m95 253c2 0 6-2 8-2 10-2 20-2 29-2 6 0 12 0 18 0v-160h-55v164z m0-214v30h55v-32h-55z m148-39h-73v253c26 4 50 14 73 28v-281z m30 325c-51-44-111-62-170-54-56 8-105 30-143 64 58-8 115-14 170-14 52 0 103 4 151 12 0-2-4-6-8-8z" horiz-adv-x="509" />
<glyph glyph-name="toronto" unicode="&#xe83f;" d="M292 368v33c0 6-4 10-10 10h-25v21c0 6-4 10-10 10h-33v149h0c12 0 21 10 21 22 0 12-9 21-21 21h-2l-18 206c0 6-4 10-10 10h0c-4 0-7-4-9-10l-16-208h0c-12 0-22-9-22-21 0-12 10-20 20-22v-149h-35c-6 0-10-4-10-10v-21h-24c-6 0-10-4-10-10v-33c-49-22-78-57-78-94 0-38 29-73 78-94v-20c0-6 4-10 10-10h16l31-53-11-235c0-2 0-6 2-8 2 0 3-2 7-2l104 0c2 0 6 2 8 4 2 2 2 4 2 8l-12 235 32 53h15c6 0 10 4 10 10v19c49 22 79 57 79 95s-30 74-79 94z m47-126h-310c-3 8-7 16-9 24h327c0-8-2-16-8-24z m-317 43c2 8 4 16 9 24h310c4-8 8-16 10-24h-329z m68 69c4 0 8 4 8 8v29h26c5 0 9 4 9 10v22h36c6 0 9 4 9 9v169c0 6-3 10-9 10h-12v2h10c6 0 10 4 10 10l7 104 10-104c0-6 4-10 10-10h12v-2h-10c-6 0-10-4-10-10v-169c0-5 4-9 10-9h33v-22c0-6 4-10 10-10h26v-29c0-4 2-8 5-10 18-8 34-16 46-25h-275c8 9 22 19 39 27z m188-159c-3-2-5-6-5-10v-15h-12c-4 0-6-2-8-4l-35-61c0-2-2-4-2-6l10-229-83 0 10 229c0 2 0 4-2 6l-33 61c-2 4-6 4-8 4h-12v15c0 4-2 8-6 10-19 8-33 18-45 28h275c-10-10-26-20-44-28z" horiz-adv-x="369" />
<glyph glyph-name="webinar" unicode="&#xe840;" d="M1115 813c22 0 41-19 41-44l0-560c0-18-12-37-30-40 15-4 22-23 30-41l96-193c7-18-4-44-41-44l-1133-4c-37 0-48 26-41 44l96 193c8 19 15 37 30 41-19 4-30 22-30 41l0 559c4 26 23 48 41 48l941 0m0 37l0 0-941 0c-41 0-74-37-74-81l0-560c0-18 4-33 15-44-4-8-8-11-8-19l-3-3-97-189c-11-23-7-45 4-63 15-23 37-34 71-34l1133 0c41 0 59 19 67 34 11 18 14 40 7 63l0 0 0 0-96 192-4 0c-4 4-4 11-7 19 7 11 11 29 11 44l0 560c0 44-34 81-78 81l0 0z m-345-941h-248c-15 0-26 11-26 26l0 4 34 78c3 7 7 18 26 18l181 0c15 0 22-11 22-18l34-82c3-15-8-26-23-26z m-229 37h215l-26 52-167 0-22-52z m-374 256l0 570 959 0 0-570-959 0z m37 533l0-496 885 0 0 496-885 0z" horiz-adv-x="1293" />
<glyph glyph-name="paulo" unicode="&#xe841;" d="M845 680c-2 10-14 12-31 12v0c-3 9-12 9-25 9-5 0-10 0-14 0a26 26 0 0 0-26-7 101 101 0 0 1-8-7 54 54 0 0 1-11-7 10 10 0 0 0-7 3c-1 0-114-6-146-3a116 116 0 0 1-34 10 9 9 0 0 0-5 3l-13 6a127 127 0 0 0-30 12l-13 2a93 93 0 0 0 3 37c0 7 0 15 0 24 0 32-6 52-19 64a51 51 0 0 0-41 12c-37-4-42-51-45-83 0-7-2-13-2-18a28 28 0 0 0 3-29 30 30 0 0 1 5-7l-4 0-5 0h-2a348 348 0 0 0-121-15l-9-2a32 32 0 0 0-10 4 9 9 0 0 0-6 0c-11 2-33 3-70 4-12 0-21 0-24 0a42 42 0 0 0-25-7l-10 4c-6 2-10 4-14 6a63 63 0 0 0-36 9 16 16 0 0 0-17-11 10 10 0 0 0 0-1 72 72 0 0 0-17-2 17 17 0 0 0-16-12c-2-11 9-20 20-27a36 36 0 0 0 22-6 24 24 0 0 1 15-3 69 69 0 0 0 43-5h12a175 175 0 0 0 22-44 78 78 0 0 0 85-38 84 84 0 0 1 48 0 14 14 0 0 0 6-1c2 0 16-5 30-9 0-11-3-32-4-70a100 100 0 0 0 0-11l8-105a44 44 0 0 0 8-34 22 22 0 0 0 4-3l-9-283a404 404 0 0 0-49-37 10 10 0 0 0-3-7c-20-146-16-149-13-153a10 10 0 0 0 8-4h237l102 0a10 10 0 0 0 12 11l-13 143c0 5 0 6-55 43l0 178a167 167 0 0 0 0 69 55 55 0 0 0 8 50c0 19 1 152 2 196a27 27 0 0 1 1 7 10 10 0 0 0 2 5 21 21 0 0 1 4 6c16 15 59 13 88 12l14 0c25 0 39 3 45 12a15 15 0 0 0 3 8l24 53a186 186 0 0 0 33 0 98 98 0 0 1 14 0 92 92 0 0 0 53 14c8 4 21 12 18 23z m-328-626c-15 0-45 0-106 0a10 10 0 0 0 1 4v145l105-50z m-181 185l17-8v-158a10 10 0 0 0 20 0v148l19-9a9 9 0 0 0 0-2v-152a10 10 0 0 0 2-4l-64 0z m155 452a121 121 0 0 1 26-10l10-5 3-118a47 47 0 0 0-3-16c-1-48-3-198-3-200a8 8 0 0 0 2-5 29 29 0 0 1-3-23l-12 13a10 10 0 0 0 2 5v131a10 10 0 1 0-20 0v-116l-14 16v330z m-94 54c1 5 1 12 2 20 3 25 7 63 28 65a32 32 0 0 1 25-6 68 68 0 0 1 14-49c0-10 0-18 0-24a64 64 0 0 1-3-30l0 0 0 0a13 13 0 0 0-5-12 12 12 0 0 0 3-5v-35c-49 0-63 12-69 24a16 16 0 0 0 16 5 22 22 0 0 0-2 22 43 43 0 0 0-11 12 51 51 0 0 1 2 13z m-78-267a73 73 0 0 1 0 8c2 57 4 76 4 77a10 10 0 0 0-6 10 298 298 0 0 0-44 13 82 82 0 0 0-27 4 146 146 0 0 0-31-3c-32-7-50 10-65 30a170 170 0 0 1-21 45 10 10 0 0 0-10 7h-21a52 52 0 0 1-30 2 43 43 0 0 0-24 6 18 18 0 0 1-12 2l-7 5a78 78 0 0 1 26-3 10 10 0 0 0 11 15 61 61 0 0 1 16-6c4-2 9-5 15-7l14-6a10 10 0 0 0 11 1 39 39 0 0 1 9 6l74-72a10 10 0 0 0 7-3 10 10 0 0 0 6 17l-60 59h5l15 0 74-71a10 10 0 0 0 7-3 10 10 0 0 0 7 17l-59 56c10 0 19-1 25-2l71-68a10 10 0 0 0 7-3 10 10 0 0 0 8 15l-57 54 2 0a325 325 0 0 1 110 15l0-1c5-15 15-44 90-45v-289a10 10 0 0 0 3-7l55-61a148 148 0 0 1 0-62 10 10 0 0 0 0-3v-52l-180 86 2 73c8 6 16 24 19 92a10 10 0 0 0-9 10 9 9 0 0 0-10-9 249 249 0 0 1-10-74 43 43 0 0 1-1 19z m171-608c-81 0-190 0-228 0 1 19 6 67 12 115a324 324 0 0 1 47 12h195l59-11 9-116h-94z m67 139l-39 8h-198c-1 0-17-3-33-7 14 10 26 20 31 23h5c146 2 187 2 198 0h0z m218 654a115 115 0 0 0-16 0 168 168 0 0 1-36 0 10 10 0 0 0-10-5l-28-63a10 10 0 0 0 0-3 68 68 0 0 1-28-3h-7a413 413 0 0 0 32 43 10 10 0 0 0-17 11 286 286 0 0 1-39-51 10 10 0 0 0-4-2h-14a424 424 0 0 0 30 42 10 10 0 0 0-16 11 285 285 0 0 1-39-51 10 10 0 0 0-6-5 84 84 0 0 0-28-9l-2 90a120 120 0 0 0 27-7c32-3 130 2 148 2a32 32 0 0 0 31 9 123 123 0 0 0 9 8l3 2a63 63 0 0 1 9 0h10a10 10 0 0 0 0-2 10 10 0 0 0 10-8h20a68 68 0 0 1-39-9z" horiz-adv-x="845" />
<glyph glyph-name="munich" unicode="&#xe842;" d="M1253 20h-27v261a8 8 0 0 0-8 8h-13l-6 53a8 8 0 0 0-9 7 8 8 0 0 0-7-9l7-58a8 8 0 0 0 0-2 8 8 0 0 0 8-8h11v-260a8 8 0 0 0 8-8h29v-138h-26v73a7 7 0 0 0-1 4l-17 26a26 26 0 0 0-21 13h0a26 26 0 0 0-22-13l-16-26a7 7 0 0 0-1-4c0-31 0-65 0-69a7 7 0 0 0 0-3h-7v72a7 7 0 0 0-1 4l-16 26a26 26 0 0 0-22 13h0a26 26 0 0 0-22-13l-16-26a7 7 0 0 0-1-4c0-31 0-65 0-69a7 7 0 0 0 0-3h-6v72a7 7 0 0 0-1 4l-16 26a26 26 0 0 0-22 13h0a26 26 0 0 0-21-13l-17-26a7 7 0 0 0-1-4c0-31 0-65 0-69a7 7 0 0 0 0-3h-6v72a7 7 0 0 0-1 4l-16 26a26 26 0 0 0-22 13h0a26 26 0 0 0-21-13l-17-26a7 7 0 0 0-1-4c0-31 0-65 0-69a7 7 0 0 0 0-2h-5v71a7 7 0 0 0-1 4l-17 26a26 26 0 0 0-21 13h0a26 26 0 0 0-22-13l-16-26a7 7 0 0 0-2-4c0-31 0-65 0-69a7 7 0 0 0 0-2h-5v71a7 7 0 0 0-1 4l-17 26a26 26 0 0 0-21 13h0a26 26 0 0 0-22-13l-16-26a7 7 0 0 0-1-4c0-31 0-65 0-69a7 7 0 0 0 0-2h-6v71a7 7 0 0 0-1 3l-16 27a26 26 0 0 0-22 13h0a26 26 0 0 0-22-13l-16-27a7 7 0 0 0-1-4c0-30 0-64 0-68a7 7 0 0 0 0-2h-6v71a7 7 0 0 0-1 4l-16 26a26 26 0 0 0-22 13h0a26 26 0 0 0-22-13l-16-26a7 7 0 0 0-1-4c0-31 0-65 0-69a7 7 0 0 0 0-1h-6v70a7 7 0 0 0-1 4l-16 26a26 26 0 0 0-22 13h0a26 26 0 0 0-21-13l-17-26a7 7 0 0 0-1-4c0-31 0-65 0-69a7 7 0 0 0 0-1h-17v476h170a8 8 0 0 0 8 7l8 45a8 8 0 1 0-17 3l-6-39h-164v135a8 8 0 0 0-8 9h-17v72a8 8 0 0 0-8 8h-19v62a8 8 0 0 0-8 8h-6v38a8 8 0 0 0 0 2l-14 43a8 8 0 0 0-8 5h0a8 8 0 0 0-8-6l-12-42a9 9 0 0 0 0-2v-38h-6a8 8 0 0 0-9-8c0-33 0-51 0-62h-19a8 8 0 0 0-8-8v-75h-12a8 8 0 0 0-8-8v-134h-142l-9 36a8 8 0 1 0-16-5l11-41a8 8 0 0 0 8-6h148v-474h-13v69a7 7 0 0 0-1 4l-16 26a26 26 0 0 0-22 13h0a26 26 0 0 0-21-13l-17-26a7 7 0 0 0-1-4c0-30 0-65 0-69h-3v69a7 7 0 0 0-1 4l-16 26a26 26 0 0 0-22 13h0a26 26 0 0 0-22-13l-16-26a7 7 0 0 0-1-4c0-30 0-63 0-69h-3v69a7 7 0 0 0-1 4l-17 26a26 26 0 0 0-21 13h0a26 26 0 0 0-22-13l-16-26a7 7 0 0 0-1-4c0-30 0-62 0-68h-13v136h27a8 8 0 0 0 8 8c1 168 1 226 0 248 8 0 23 0 36 0a8 8 0 0 0 6 2 8 8 0 0 0 3 6v80l11 40a8 8 0 1 0-16 4l-11-41a8 8 0 0 0 0-2v-74c-42 2-42 0-45-5a8 8 0 0 0 0-5c1-11 0-149 0-245h-27a8 8 0 0 0-8-8v-152a8 8 0 0 0 8-8l1246-5h0a8 8 0 0 0 8 8v154a8 8 0 0 0-9 8z m-98-152c1 7 0 55 0 69l16 25a12 12 0 0 1 9 6h0a12 12 0 0 1 10-7l15-24v-71h-51a7 7 0 0 0 1 2z m-84 0c1 7 0 55 0 69l16 25a12 12 0 0 1 9 6h0a12 12 0 0 1 10-6l15-25v-71h-50a7 7 0 0 0 0 2z m-84 0c1 7 0 55 0 69l16 25a12 12 0 0 1 9 6h0a12 12 0 0 1 10-6l15-25v-71h-50z m-84 0c1 7 0 55 0 69l15 25a12 12 0 0 1 10 6 13 13 0 0 1 9-7l16-24v-70h-50v0z m-83 0c1 6 0 55 0 69l15 25a12 12 0 0 1 10 6 12 12 0 0 1 9-7l15-24v-69h-49z m-84 69l16 25a11 11 0 0 1 19 0l15-25v-69h-49c-1 7-1 55-1 69z m-84 0l15 25a12 12 0 0 1 10 6h0a12 12 0 0 1 9-7l16-24v-69h-49c0 9-1 55-1 69z m-84 0l15 25a12 12 0 0 1 10 6h0a12 12 0 0 1 10-7l15-24v-68h-49c0 9-1 54-1 68z m-84 0l16 25a12 12 0 0 1 9 6h0a12 12 0 0 1 10-7l15-24v-68h-49c0 10-1 54-1 68z m-186 415v133h12a8 8 0 0 0 8 8v76h18a8 8 0 0 0 10 9c0 5 0 37 0 60h6a8 8 0 0 0 8 9v45l5 16 5-16v-45a8 8 0 0 0 8-8h6v-62a8 8 0 0 0 8-8h19v-72a8 8 0 0 0 8-8h17v-135a8 8 0 0 0 0-3v-482h-19v70a7 7 0 0 0-2 4l-14 17v6a7 7 0 0 0-1 3l-15 27a24 24 0 0 0-21 13h0a24 24 0 0 0-20-13l-17-27a7 7 0 0 0-1-3v-7l-14-16a7 7 0 0 0-2-5c0-21 1-53 0-69h-12v483z m27-482c0 18 0 55 0 66l15 17a7 7 0 0 0 2 4v7l14 25a11 11 0 0 1 9 6h0a11 11 0 0 1 9-6l14-25v-7a7 7 0 0 0 2-5l14-16v-67z m-120 67l16 25a12 12 0 0 1 9 6h0a12 12 0 0 1 9-7l15-24v-67h-49c1 12 0 54 0 67z m-82 0l16 25a12 12 0 0 1 10 6h0a12 12 0 0 1 9-7l16-24v-67h-50c1 13 0 54 0 67z m-82 0l16 25a12 12 0 0 1 9 6h0a12 12 0 0 1 10-7l15-24v-66h-49c1 12 1 53 1 66z m792 456l8-38a8 8 0 0 0 8-7h44a8 8 0 0 0 8 9v19h86v-21a8 8 0 0 0 9-8h29a8 8 0 0 0 8 7l6 40a8 8 0 0 0-16 3l-5-33h-14v21a8 8 0 0 0-9 8h-102a8 8 0 0 0-8-8v-20h-30l-6 31a8 8 0 0 0-16-3z m-188 5l8-44a8 8 0 0 0 8-7h150a8 8 0 0 0 8 6c0 3 4 26 5 40a8 8 0 0 0-7 9 8 8 0 0 0-9-7c-1-10-3-24-5-32h-136l-6 37a8 8 0 1 0-16-2z m-280 4a47 47 0 1 0-47 47 47 47 0 0 0 47-47z m0 78a31 31 0 1 1-30-31 31 31 0 0 1 30 31z m0-40a8 8 0 0 0 0 17 8 8 0 0 0 0-17z m-253 25a8 8 0 0 0 0 16 8 8 0 0 0 0-16z m-31-262a8 8 0 0 0 0-17 8 8 0 0 0 0 17z m81 0a8 8 0 0 0 0-17 8 8 0 0 0 0 17z m82 0a8 8 0 0 0 0-17 8 8 0 0 0 0 17z m240 0a8 8 0 0 0 0-17 8 8 0 0 0 0 17z m86 0a8 8 0 0 0 0-17 8 8 0 0 0 0 17z m86 0a8 8 0 0 0 0-17 8 8 0 0 0 0 17z m86 0a8 8 0 0 0 0-17 8 8 0 0 0 0 17z m85 0a8 8 0 0 0 0-17 8 8 0 0 0 0 17z m86 0a8 8 0 0 0 0-17 8 8 0 0 0 0 17z m86 0a8 8 0 0 0 0-17 8 8 0 0 0 0 17z m85 0a8 8 0 0 0 0-17 8 8 0 0 0 0 17z m86 0a8 8 0 0 0 0-17 8 8 0 0 0 0 17z m-1089-74a8 8 0 0 0 0-17 8 8 0 0 0 0 17z m81 0a8 8 0 0 0 0-17 8 8 0 0 0 0 17z m82 0a8 8 0 0 0 0-17 8 8 0 0 0 0 17z m240 0a8 8 0 0 0 0-17 8 8 0 0 0 0 17z m86 0a8 8 0 0 0 0-17 8 8 0 0 0 0 17z m86 0a8 8 0 0 0 0-17 8 8 0 0 0 0 17z m86 0a8 8 0 0 0 0-17 8 8 0 0 0 0 17z m85 0a8 8 0 0 0 0-17 8 8 0 0 0 0 17z m86 0a8 8 0 0 0 0-17 8 8 0 0 0 0 17z m86 0a8 8 0 0 0 0-17 8 8 0 0 0 0 17z m85 0a8 8 0 0 0 0-17 8 8 0 0 0 0 17z m86 0a8 8 0 0 0 0-17 8 8 0 0 0 0 17z m-1089-91a8 8 0 0 0 0 16 8 8 0 0 0 0-16z m81 0a8 8 0 0 0 0 16 8 8 0 0 0 0-16z m82 0a8 8 0 0 0 0 16 8 8 0 0 0 0-16z m240 0a8 8 0 0 0 0 16 8 8 0 0 0 0-16z m86 0a8 8 0 0 0 0 16 8 8 0 0 0 0-16z m86 0a8 8 0 0 0 0 16 8 8 0 0 0 0-16z m86 0a8 8 0 0 0 0 16 8 8 0 0 0 0-16z m85 0a8 8 0 0 0 0 16 8 8 0 0 0 0-16z m86 0a8 8 0 0 0 0 16 8 8 0 0 0 0-16z m86 0a8 8 0 0 0 0 16 8 8 0 0 0 0-16z m85 0a8 8 0 0 0 0 16 8 8 0 0 0 0-16z m86 0a8 8 0 0 0 0 16 8 8 0 0 0 0-16z m-1058 368a8 8 0 0 0 8 8v43a8 8 0 0 0-17 0v-43a8 8 0 0 0 9-8z m252 428a8 8 0 0 0 0 16 8 8 0 0 0 0-16z m0-86a8 8 0 0 0 8 8v69a8 8 0 1 0-16 0v-69a8 8 0 0 0 8-8z m278-283a8 8 0 0 0 0 16 8 8 0 0 0 0-16z m0-59a8 8 0 0 0 8 8v43a8 8 0 1 0-16 0v-43a8 8 0 0 0 8-8z m187 59a8 8 0 0 0 0 16 8 8 0 0 0 0-16z m0-59a8 8 0 0 0 8 8v43a8 8 0 1 0-16 0v-43a8 8 0 0 0 8-8z m211 59a8 8 0 0 0 0 16 8 8 0 0 0 0-16z m0-59a8 8 0 0 0 8 8v43a8 8 0 0 0-16 0v-43a8 8 0 0 0 8-8z m140 5a8 8 0 0 0 0 16 8 8 0 0 0 0-16z m0-59a8 8 0 0 0 9 8v42a8 8 0 0 0-17 0v-42a8 8 0 0 0 8-8z m-134 43l10-42a8 8 0 0 0 8-6h43l44-44a8 8 0 0 0 11 0 8 8 0 0 0 4 4l12 32a8 8 0 0 0-16 6l-8-22-38 38a8 8 0 0 0-5 2h-41l-8 36a8 8 0 0 0-16-4z m-783-122a8 8 0 0 0-8 9h-126a8 8 0 0 0 0-17h126a8 8 0 0 0 8 8z m909 9h-691a8 8 0 0 0 0-17h691a8 8 0 0 0 0 17z" horiz-adv-x="1262" />
<glyph glyph-name="seoul" unicode="&#xe843;" d="M1612-131l-203 310c-3 8-3 8-85 8v40a12 12 0 0 0-12 12h-53v79l89 20a22 22 0 0 0 16 20 22 22 0 0 0-14 22l-147 57v116l183-3h0a12 12 0 0 0 9 3c4 5 29 29 24 51a33 33 0 0 0-29 22 505 505 0 0 1-286 167 12 12 0 0 0-9 5h-575a12 12 0 0 0-10-5 499 499 0 0 1-285-166 28 28 0 0 0-22-17 68 68 0 0 0 15-54 11 11 0 0 0 10-6l183 3v-116l-154-58a20 20 0 0 0-12-21 20 20 0 0 0 15-18l95-22v-79h-53a12 12 0 0 0-12-12v-40a660 660 0 0 0-77 0c-5-1-5-1-211-317a12 12 0 0 0 10-20h691a12 12 0 0 0 12 12v153s-7 68 26 103a78 78 0 0 1 60 25h11a78 78 0 0 1 61-25c33-37 26-104 26-105v-152a12 12 0 0 0 12-12h691a12 12 0 0 0 10 20z m-1378 706a43 43 0 0 1-9 24 8 8 0 0 1 5 2 518 518 0 0 0 296 171h561a528 528 0 0 0 297-171 15 15 0 0 1 10-5 40 40 0 0 1-13-22l-191 2h-770z m944-22v-27h-50v27h50z m-75 0v-27h-130v27h130z m-154 0v-27h-269v27h269z m-293 0v-27h-130v27h130z m-155 0v-27h-65v27h65z m-223-192l150 57a12 12 0 0 0 8 11v73h742v-73a12 12 0 0 0 8-11l149-57-91-21a12 12 0 0 0-9-12v-35h-856v35a12 12 0 0 0-9 12z m956-92v-29h-106v29h106z m-131 0v-29h-130v29h130z m-155 0v-29h-268v29h268z m-292 0v-29h-130v29h130z m-155 0v-29h-122v29h122z m422-395v138c0 3 8 79-32 123a101 101 0 0 0-79 32h-10a101 101 0 0 0-79-32c-41-45-33-121-33-122v-139h-655c65 100 168 259 188 289 14 0 53 0 79 0a12 12 0 0 0 8 4 12 12 0 0 0 4 8v40h52a12 12 0 0 0 4 0h873a12 12 0 0 0 4 0h53v-40a12 12 0 0 0 12-12h79c11-18 50-78 188-289h-656z m-393 952a12 12 0 0 0 0 24 12 12 0 0 0 0-24z m550 0a12 12 0 0 0 0 24 12 12 0 0 0 0-24z" horiz-adv-x="1614" />
<glyph glyph-name="triangle" unicode="&#xe844;" d="M577 850l288-500 289-500h-577-577l289 500 288 500z" horiz-adv-x="1154" />
<glyph glyph-name="menu" unicode="&#xe845;" d="M1000 714v-113h-1000v113h1000z m-1000-418h1000v113h-1000v-113z m0-310h1000v113h-1000v-113z" horiz-adv-x="1000" />
<glyph glyph-name="closed-eye" unicode="&#xe846;" d="M900 239c-33-33-83-67-139-100l39-72-50-28-44 78c-56-23-117-39-184-45v-78h-55v78c-61 6-117 17-178 45l-45-78-50 28 39 72c-44 22-83 55-127 89l-56-56-39 39 56 56c-17 16-39 39-56 55l39 39c144-161 300-239 456-233 244 11 416 228 422 233l44-33c0 0-16-22-39-45l56-55-33-45-56 56z" horiz-adv-x="1000" />
<glyph glyph-name="open-eye" unicode="&#xe847;" d="M978 361c-161 172-328 256-500 250-272-11-450-244-461-255l-11-17 16-17c150-166 311-250 478-250 6 0 11 0 22 0 272 11 456 245 461 256l17 16-22 17z m-300-200c28 39 44 83 44 133 0 123-100 223-222 223s-222-100-222-223c0-50 16-94 44-133-83 33-166 95-244 178 50 55 200 205 405 211 150 6 300-67 439-217-33-33-122-122-244-172z" horiz-adv-x="1000" />
<glyph glyph-name="left" unicode="&#xe848;" d="M39 350l411-483-22-17-428 500 428 500 22-17-411-483z" horiz-adv-x="450" />
<glyph glyph-name="right" unicode="&#xe849;" d="M0 833l22 17 428-500-428-500-22 17 411 483-411 483z" horiz-adv-x="450" />
</font>
</defs>
</svg>
