<svg xmlns="http://www.w3.org/2000/svg" xmlns:xlink="http://www.w3.org/1999/xlink" viewBox="0 0 255.27 125.19"><defs><style>.cls-1{fill:none;}.cls-2{isolation:isolate;}.cls-3{clip-path:url(#clip-path);}.cls-4{fill:#fff;}</style><clipPath id="clip-path" transform="translate(-33 -28.22)"><polygon class="cls-1" points="0 95.5 164.34 0 290.35 72.75 126.01 168.25 0 95.5"/></clipPath></defs><title>Black cards</title><g id="Layer_2" data-name="Layer 2"><g id="Layer_1-2" data-name="Layer 1"><g class="cls-2"><g class="cls-3"><polyline points="136.5 86.63 113 75.99 69.06 79.78 61.99 52.89 52.27 48.48 1.41 86.23 85.62 124.38 136.5 86.63"/><polyline class="cls-4" points="137.9 86.53 114.36 75.87 113 75.99 136.5 86.63 85.62 124.38 1.41 86.23 52.27 48.48 61.99 52.89 61.77 52.05 52.5 47.85 52.1 47.67 0 86.33 85.41 125.02 85.8 125.19 137.9 86.53"/><polyline points="135.67 10.9 53.82 17.97 69.9 79.13 151.76 72.06 146.05 50.35 118.85 33.78 138.8 22.8 135.67 10.9"/><polyline class="cls-4" points="136.51 10.24 52.67 17.49 61.77 52.05 61.99 52.89 69.06 79.78 113 75.99 114.36 75.87 152.9 72.55 147.25 51.09 146.05 50.35 151.76 72.06 69.9 79.13 53.82 17.97 135.67 10.9 138.8 22.8 139.69 22.31 136.51 10.24"/><polyline points="180.19 0.82 120.26 33.8 193.93 78.69 253.86 45.71 180.19 0.82"/><path class="cls-4" d="M226.93,106.92,153.26,62l59.93-33,73.67,44.89-59.93,33m-13.7-78.7L172.69,50.54l-.89.48-20,11,27.2,16.57,1.21.73,46.29,28.21.35.22L288.27,74,213.58,28.44l-.35-.22" transform="translate(-33 -28.22)"/></g></g></g></g></svg>