<svg xmlns="http://www.w3.org/2000/svg" viewBox="0 0 84.26 141.84"><defs><style>.cls-1,.cls-2,.cls-3{stroke:#fff;stroke-miterlimit:10;}.cls-2,.cls-4{fill:#fff;}.cls-3{fill:none;}</style></defs><title>Blog icon</title><g id="Layer_2" data-name="Layer 2"><g id="Layer_1-2" data-name="Layer 1"><path class="cls-1" d="M59.51,19,28.26.91A3,3,0,0,0,23.7,3.55V85.28a5.61,5.61,0,0,0,2.81,4.87l52.27,30.18a3,3,0,0,0,4.56-2.63V60.22Z"/><path class="cls-2" d="M59.86,19.76V43.11A5.64,5.64,0,0,0,62.67,48L82.9,59.66Z"/><path class="cls-1" d="M53.43,29.26l-31.25-18a3.05,3.05,0,0,0-4.57,2.64V95.58a5.65,5.65,0,0,0,2.82,4.88l52.26,30.17A3,3,0,0,0,77.26,128V70.53Z"/><path class="cls-2" d="M53.77,30.06V53.41a5.65,5.65,0,0,0,2.82,4.88L76.81,70Z"/><path class="cls-1" d="M47.35,39.56l-31.26-18a3,3,0,0,0-4.56,2.64v81.73a5.63,5.63,0,0,0,2.82,4.88l52.26,30.17a3,3,0,0,0,4.56-2.63V80.83Z"/><line class="cls-3" x1="58.04" y1="66.43" x2="24.67" y2="47.16"/><line class="cls-3" x1="58.04" y1="79.34" x2="24.67" y2="60.08"/><line class="cls-3" x1="58.04" y1="92.26" x2="24.67" y2="72.99"/><line class="cls-3" x1="58.04" y1="105.17" x2="24.67" y2="85.9"/><path class="cls-2" d="M47.69,40.36V63.71a5.65,5.65,0,0,0,2.82,4.88L70.73,80.27Z"/><path class="cls-4" d="M7.39,52.7,0,56.89,22.59,95.33l8.05,4.77-.65-9C22.57,78.3,7.39,52.7,7.39,52.7Z"/></g></g></svg>