<svg xmlns="http://www.w3.org/2000/svg" xmlns:xlink="http://www.w3.org/1999/xlink" viewBox="0 0 961.51 544.43"><defs><style>.cls-1{stroke:#fff;}.cls-1,.cls-2{stroke-miterlimit:10;}.cls-2{stroke:#000;fill:url(#linear-gradient);}.cls-3,.cls-4,.cls-5,.cls-6,.cls-7{opacity:0.5;}.cls-3{fill:url(#linear-gradient-2);}.cls-4{fill:url(#linear-gradient-3);}.cls-5{fill:url(#linear-gradient-4);}.cls-6{fill:url(#linear-gradient-5);}.cls-7{fill:url(#linear-gradient-6);}</style><linearGradient id="linear-gradient" x1="103.96" y1="272.08" x2="857.96" y2="272.08" gradientUnits="userSpaceOnUse"><stop offset="0" stop-color="#fff"/><stop offset="1" stop-color="#009ad7"/></linearGradient><linearGradient id="linear-gradient-2" x1="358.05" y1="254.84" x2="595.77" y2="254.84" gradientUnits="userSpaceOnUse"><stop offset="0" stop-color="#fff"/><stop offset="1"/></linearGradient><linearGradient id="linear-gradient-3" x1="406.04" y1="74.75" x2="559.01" y2="74.75" xlink:href="#linear-gradient-2"/><linearGradient id="linear-gradient-4" x1="86.87" y1="262.38" x2="239.84" y2="262.38" xlink:href="#linear-gradient-2"/><linearGradient id="linear-gradient-5" x1="405.1" y1="450.45" x2="558.07" y2="450.45" xlink:href="#linear-gradient-2"/><linearGradient id="linear-gradient-6" x1="722.45" y1="262.38" x2="875.43" y2="262.38" xlink:href="#linear-gradient-2"/></defs><title>Board</title><g id="Layer_2" data-name="Layer 2"><g id="Layer_1-2" data-name="Layer 1"><polygon class="cls-1" points="480.75 0.57 1.01 272.21 480.75 543.86 960.49 272.21 480.75 0.57"/><path class="cls-2" d="M481,54.42,104,272.08,481,489.74,858,272.08ZM451.06,302v118.6L245.64,302ZM245.64,242.19l205.42-118.6v118.6Zm265.21,0V123.59l205.42,118.6ZM716.27,302,510.85,420.58V302ZM481.83,106.83h-1.75l.88-.5Zm-1.75,330.5h1.75l-.87.51Z"/><ellipse class="cls-1" cx="476.91" cy="264.26" rx="118.86" ry="71.61"/><ellipse class="cls-3" cx="476.91" cy="254.84" rx="118.86" ry="71.61"/><ellipse class="cls-1" cx="482.52" cy="84.17" rx="76.49" ry="46.08"/><ellipse class="cls-4" cx="482.52" cy="74.75" rx="76.49" ry="46.08"/><ellipse class="cls-1" cx="163.36" cy="271.79" rx="76.49" ry="46.08"/><ellipse class="cls-5" cx="163.36" cy="262.38" rx="76.49" ry="46.08"/><ellipse class="cls-1" cx="481.58" cy="459.87" rx="76.49" ry="46.08"/><ellipse class="cls-6" cx="481.58" cy="450.45" rx="76.49" ry="46.08"/><ellipse class="cls-1" cx="798.94" cy="271.79" rx="76.49" ry="46.08"/><ellipse class="cls-7" cx="798.94" cy="262.38" rx="76.49" ry="46.08"/></g></g></svg>