<svg xmlns="http://www.w3.org/2000/svg" viewBox="0 0 46.23 48.57"><defs><style>.cls-1,.cls-3{fill:#fff;}.cls-1,.cls-2{stroke:#fff;stroke-miterlimit:10;}</style></defs><title>Die</title><g id="Layer_2" data-name="Layer 2"><g id="Layer_1-2" data-name="Layer 1"><path class="cls-1" d="M25.67.59,4.4,9.08a.32.32,0,0,0-.08.56L22.75,24.17a.35.35,0,0,0,.33,0l22.18-8.64a.33.33,0,0,0,.08-.57L27,.78A1.32,1.32,0,0,0,25.67.59Z"/><path class="cls-2" d="M42.44,38.58l3.28-22.65a.33.33,0,0,0-.45-.36L23.08,24.21a.36.36,0,0,0-.21.27L19.51,47.69a.33.33,0,0,0,.44.36l21.66-8.43A1.32,1.32,0,0,0,42.44,38.58Z"/><path class="cls-2" d="M.51,32.51,3.8,9.86a.33.33,0,0,1,.53-.21L22.75,24.17a.32.32,0,0,1,.12.3L19.51,47.69a.33.33,0,0,1-.53.21L1,33.73A1.33,1.33,0,0,1,.51,32.51Z"/><ellipse class="cls-3" cx="25.94" cy="40.84" rx="2.71" ry="1.65" transform="translate(-22.09 35.05) rotate(-50.7)"/><ellipse class="cls-3" cx="39.96" cy="22.89" rx="2.71" ry="1.65" transform="translate(-3.06 39.31) rotate(-50.7)"/><ellipse class="cls-3" cx="33.01" cy="31.4" rx="2.71" ry="1.65" transform="translate(-12.19 37.06) rotate(-50.7)"/><ellipse class="cls-3" cx="7.29" cy="18.53" rx="1.62" ry="2.69" transform="translate(-6.35 4.02) rotate(-21.75)"/><ellipse class="cls-3" cx="15.69" cy="39.35" rx="1.62" ry="2.69" transform="translate(-13.47 8.62) rotate(-21.75)"/><ellipse cx="24.54" cy="11.12" rx="1.55" ry="2.57" transform="translate(10.01 33.81) rotate(-81.75)"/></g></g></svg>