<svg xmlns="http://www.w3.org/2000/svg" viewBox="0 0 210.1 429.7"><defs><style>.cls-1,.cls-2{stroke:#fff;}.cls-1,.cls-2,.cls-4{stroke-miterlimit:10;}.cls-2{fill:#fff;}.cls-3,.cls-4{fill:none;}.cls-4{stroke:#000;}</style></defs><title>Product page</title><g id="Layer_2" data-name="Layer 2"><g id="Layer_1-2" data-name="Layer 1"><polygon class="cls-1" points="209.59 310.45 206.87 35.7 0.5 154.1 0.5 428.84 209.59 310.45"/><path class="cls-1" d="M207,28.29V.86L183.75,13.94a3.32,3.32,0,0,0-1.55,1.88l-3.3,10a4.85,4.85,0,0,1-2.2,2.71L2.62,129.05a4.11,4.11,0,0,0-2.06,3.56v25.84L207,39.28ZM167.13,53.76,11.73,143.27a3.59,3.59,0,0,1-5.38-3.11h0A8.24,8.24,0,0,1,10.48,133l155.4-89.51a3.58,3.58,0,0,1,5.37,3.11A8.23,8.23,0,0,1,167.13,53.76Zm22.53-34.65c-.75,1.27-2,1.94-2.78,1.5s-.81-1.84-.06-3.11,2-1.95,2.78-1.5S190.41,17.83,189.66,19.11Zm6.28-3.54c-.75,1.28-2,1.95-2.78,1.51s-.81-1.84-.06-3.11,2-2,2.78-1.51S196.69,14.3,195.94,15.57ZM202.22,12c-.75,1.27-2,2-2.78,1.5s-.81-1.83-.05-3.11,2-1.94,2.77-1.5S203,10.77,202.22,12Z"/><path class="cls-2" d="M99.27,183.19a15,15,0,0,0-4.91.55l-7.69,4.38L45.72,210.77A24.44,24.44,0,0,0,33.54,231.2l-.6,114.12,7.37,3,70.16-40,.6-116.1a11.34,11.34,0,0,0-2.59-5.09C105.27,183.51,100.69,183.27,99.27,183.19Z"/><polygon class="cls-3" points="76.8 227.18 87.5 207.56 66.47 219.13 76.8 227.18"/><line class="cls-4" x1="51.89" y1="252.16" x2="51.42" y2="342.25"/><line class="cls-4" x1="97.8" y1="226.55" x2="97.34" y2="315.16"/><path class="cls-1" d="M93.89,192.15l-16.61,9.59.24-8.6c7.24-4.23,11.85-7.59,12.06-17.82.22-10.63-6.68-19.42-15.38-19.6S58.25,164,58,174.67l8.28-4.5a9.77,9.77,0,0,1,2.43-4.63c.51-.53,2.55-2.69,5.32-2.81,4.08-.19,7.47,4.15,8.6,7.77a12.8,12.8,0,0,1-1.26,9.87,14.43,14.43,0,0,1-8.52,6.69l-1.18.69q-.21,8.73-.43,17.46l-8.75,5-4.5,2.6,4.36,3.59L91.8,199.67l3.06-6.34Z"/><line class="cls-4" x1="86.41" y1="187.73" x2="96.03" y2="193.31"/><polyline class="cls-4" points="95.66 192.6 76.8 227.18 51.65 207.85"/><path class="cls-1" d="M165.88,43.52a3.58,3.58,0,0,1,5.37,3.11,8.23,8.23,0,0,1-4.12,7.13"/><path class="cls-1" d="M167.13,53.76,11.73,143.27a3.59,3.59,0,0,1-5.38-3.11h0A8.24,8.24,0,0,1,10.48,133l155.4-89.51a3.58,3.58,0,0,1,5.37,3.11A8.23,8.23,0,0,1,167.13,53.76Z"/><polygon class="cls-1" points="194.66 214.16 194.12 195.78 153.96 218.82 153.96 237.2 194.66 214.16"/><polygon class="cls-1" points="187.12 80.02 186.79 68.66 161.96 82.91 161.96 94.27 187.12 80.02"/><line class="cls-1" x1="193.79" y1="146.93" x2="128.06" y2="184.64"/><line class="cls-1" x1="193.79" y1="175.42" x2="128.06" y2="213.12"/><line class="cls-1" x1="193.79" y1="161.18" x2="128.06" y2="198.88"/><line class="cls-1" x1="193.79" y1="132.69" x2="128.06" y2="170.39"/><polyline class="cls-1" points="135.98 100.38 138.08 99.17 141.87 105.73 151.13 100.48 151.03 90.05 152.46 89.37"/><path class="cls-1" d="M144.87,110c-.54.92-1.44,1.4-2,1.08s-.59-1.32-.05-2.24,1.44-1.4,2-1.08S145.41,109.11,144.87,110Z"/><path class="cls-1" d="M151,106.64c-.54.92-1.43,1.4-2,1.08s-.58-1.32,0-2.24,1.44-1.4,2-1.08S151.52,105.72,151,106.64Z"/></g></g></svg>