<svg xmlns="http://www.w3.org/2000/svg" xmlns:xlink="http://www.w3.org/1999/xlink" viewBox="0 0 88.01 131.44"><defs><style>.cls-1,.cls-3{stroke:#fff;stroke-miterlimit:10;}.cls-2{fill:#fff;}.cls-3{fill:none;}.cls-4{clip-path:url(#clip-path);}</style><clipPath id="clip-path"><path class="cls-1" d="M46.17,47.7A11.25,11.25,0,0,0,43,46.48c-.41.65-.82,1.31-1.21,2-8.36,14.47-8.07,30.29.66,35.32A11.07,11.07,0,0,0,45.61,85c.42-.65.82-1.31,1.22-2C55.18,68.55,54.89,52.73,46.17,47.7Z"/></clipPath></defs><title>Product matching</title><g id="Layer_2" data-name="Layer 2"><g id="Layer_1-2" data-name="Layer 1"><polygon class="cls-1" points="87.51 81.31 87.51 1.58 0.5 50.85 0.5 130.58 87.51 81.31"/><path class="cls-2" d="M41.82,48.47c.39-.68.8-1.34,1.21-2-8.64-2-20.37,5.47-27.78,18.31-8.36,14.47-8.07,30.29.65,35.32,8.31,4.8,21.28-1.93,29.71-15.1a11.07,11.07,0,0,1-3.13-1.22C33.75,78.76,33.46,62.94,41.82,48.47Z"/><path class="cls-3" d="M41.82,48.47c.39-.68.8-1.34,1.21-2-8.64-2-20.37,5.47-27.78,18.31-8.36,14.47-8.07,30.29.65,35.32,8.31,4.8,21.28-1.93,29.71-15.1a11.07,11.07,0,0,1-3.13-1.22C33.75,78.76,33.46,62.94,41.82,48.47Z"/><path class="cls-2" d="M72.74,31.37C64.43,26.58,51.47,33.31,43,46.48a11.25,11.25,0,0,1,3.14,1.22c8.72,5,9,20.85.66,35.32-.4.68-.8,1.34-1.22,2C54.25,87,66,79.54,73.4,66.7,81.75,52.22,81.46,36.41,72.74,31.37Z"/><path class="cls-3" d="M72.74,31.37C64.43,26.58,51.47,33.31,43,46.48a11.25,11.25,0,0,1,3.14,1.22c8.72,5,9,20.85.66,35.32-.4.68-.8,1.34-1.22,2C54.25,87,66,79.54,73.4,66.7,81.75,52.22,81.46,36.41,72.74,31.37Z"/><path d="M46.17,47.7A11.25,11.25,0,0,0,43,46.48c-.41.65-.82,1.31-1.21,2-8.36,14.47-8.07,30.29.66,35.32A11.07,11.07,0,0,0,45.61,85c.42-.65.82-1.31,1.22-2C55.18,68.55,54.89,52.73,46.17,47.7Z"/><g class="cls-4"><line class="cls-1" x1="87.46" y1="75.41" x2="17.07" y2="34.57"/><line class="cls-1" x1="87.46" y1="69.73" x2="17.07" y2="28.88"/><line class="cls-1" x1="87.46" y1="64.04" x2="17.07" y2="23.19"/><line class="cls-1" x1="87.46" y1="92.48" x2="17.07" y2="51.64"/><line class="cls-1" x1="87.46" y1="86.79" x2="17.07" y2="45.95"/><line class="cls-1" x1="87.46" y1="103.86" x2="17.07" y2="63.02"/><line class="cls-1" x1="87.46" y1="98.17" x2="17.07" y2="57.33"/><line class="cls-1" x1="87.46" y1="81.1" x2="17.07" y2="40.26"/><line class="cls-1" x1="87.46" y1="58.35" x2="17.07" y2="17.5"/><line class="cls-1" x1="87.46" y1="52.66" x2="17.07" y2="11.81"/><line class="cls-1" x1="87.46" y1="46.97" x2="17.07" y2="6.12"/><line class="cls-1" x1="87.46" y1="41.28" x2="17.07" y2="0.43"/></g><path class="cls-3" d="M46.17,47.7A11.25,11.25,0,0,0,43,46.48c-.41.65-.82,1.31-1.21,2-8.36,14.47-8.07,30.29.66,35.32A11.07,11.07,0,0,0,45.61,85c.42-.65.82-1.31,1.22-2C55.18,68.55,54.89,52.73,46.17,47.7Z"/></g></g></svg>