<svg xmlns="http://www.w3.org/2000/svg" xmlns:xlink="http://www.w3.org/1999/xlink" viewBox="0 0 88.64 126.41"><defs><style>.cls-1{fill:none;}.cls-2{stroke:#fff;stroke-miterlimit:10;}.cls-3{fill:#fff;}.cls-4{isolation:isolate;}.cls-5{clip-path:url(#clip-path);}.cls-6{clip-path:url(#clip-path-2);}.cls-7{clip-path:url(#clip-path-3);}</style><clipPath id="clip-path"><polygon class="cls-1" points="27.06 32.63 27.08 26.52 29.49 27.92 29.47 34.02 27.06 32.63"/></clipPath><clipPath id="clip-path-2"><polygon class="cls-1" points="5.94 45.7 5.96 39.47 9.86 41.73 9.84 47.95 5.94 45.7"/></clipPath><clipPath id="clip-path-3"><polygon class="cls-1" points="29.98 80.97 30 74.62 33.95 76.9 33.93 83.24 29.98 80.97"/></clipPath></defs><title>Tutorial icon</title><g id="Layer_2" data-name="Layer 2"><g id="Layer_1-2" data-name="Layer 1"><polygon class="cls-2" points="6.74 83.98 6.74 0.87 78.72 42.42 78.72 125.54 6.74 83.98"/><polygon class="cls-2" points="41.83 40.06 41.83 31.44 84.93 56.33 84.93 64.95 41.83 40.06"/><polygon class="cls-2" points="20.97 54.11 20.97 45.48 64.08 70.37 64.08 78.99 20.97 54.11"/><polygon class="cls-2" points="45.03 89.79 45.03 81.17 88.14 106.06 88.14 114.68 45.03 89.79"/><ellipse class="cls-3" cx="28.8" cy="31.08" rx="6.63" ry="11" transform="translate(-11.68 18.57) rotate(-30)"/><g class="cls-4"><g class="cls-5"><path d="M29.49,27.92l-.86-.5c-.11.86-.77.78-1.5.35l-.06,0v.93l1.34.78V33.4l1.07.62,0-6.1"/></g></g><ellipse class="cls-3" cx="7.95" cy="44.59" rx="6.63" ry="11" transform="translate(-21.23 9.95) rotate(-30)"/><g class="cls-4"><g class="cls-6"><path d="M8,40.66c-1.27-.74-2-.07-1.93,1.35l1,.6c0-.65.21-1.29.85-.92a1.67,1.67,0,0,1,.79,1.4c0,.75-.65.75-1.12.85-.92.18-1.67.35-1.69,1.76L9.84,48V46.88L7.34,45.43a3,3,0,0,1,1.53-.51,1.12,1.12,0,0,0,1-1.3,3.68,3.68,0,0,0-1.82-3"/></g></g><ellipse class="cls-3" cx="32.01" cy="79.21" rx="6.63" ry="11" transform="translate(-35.32 26.62) rotate(-30)"/><g class="cls-4"><g class="cls-7"><path d="M32,75.76c-1.1-.64-1.8-.17-1.84,1l1,.59c0-.63.28-.93.82-.62A1.53,1.53,0,0,1,32.72,78c0,.61-.51.47-.95.21l-.18-.11V79l.05,0a1.86,1.86,0,0,1,1.18,1.6c0,.57-.39.73-.87.45A2,2,0,0,1,31,79.34l-1-.6a3.87,3.87,0,0,0,2,3.36c1.05.61,2,.43,2-.86A2.57,2.57,0,0,0,33,79.31h0c.49.12.75-.25.75-.82A3.58,3.58,0,0,0,32,75.76"/></g></g></g></g></svg>