<svg xmlns="http://www.w3.org/2000/svg" viewBox="0 0 75.49 113.69"><defs><style>.cls-1{fill:#fff;}.cls-1,.cls-2{stroke:#fff;stroke-miterlimit:10;}</style></defs><title>Video icon</title><g id="Layer_2" data-name="Layer 2"><g id="Layer_1-2" data-name="Layer 1"><path class="cls-1" d="M70.11.93,4.16,38.24A7.22,7.22,0,0,0,.5,44.51v65.4a3.26,3.26,0,0,0,4.9,2.83l66-38.09A7.21,7.21,0,0,0,75,68.41V3.77A3.27,3.27,0,0,0,70.11.93Z"/><path class="cls-2" d="M30.87,48.39V68.86a2.36,2.36,0,0,0,3.92,1.77l16.38-14.4a2.37,2.37,0,0,0-.74-4L34.05,46.18A2.36,2.36,0,0,0,30.87,48.39Z"/></g></g></svg>