<svg xmlns="http://www.w3.org/2000/svg" xmlns:xlink="http://www.w3.org/1999/xlink" viewBox="0 0 218.7 148.48"><defs><style>.cls-1{fill:none;}.cls-2{isolation:isolate;}.cls-3{clip-path:url(#clip-path);}.cls-4{fill:#fff;}</style><clipPath id="clip-path" transform="translate(-20.36 -10.42)"><polygon class="cls-1" points="0 66.78 114.92 0 277.38 93.8 162.46 160.58 0 66.78"/></clipPath></defs><title>White cards</title><g id="Layer_2" data-name="Layer 2"><g id="Layer_1-2" data-name="Layer 1"><g class="cls-2"><g class="cls-3"><polyline class="cls-4" points="135.38 34.73 76.64 0.82 1.41 44.54 60.15 78.45 78.39 67.85 71.45 57.97 111.57 48.57 135.38 34.73"/><polyline points="136.8 34.73 76.64 0 0 44.54 60.16 79.27 78.81 68.44 78.39 67.85 60.15 78.45 1.41 44.54 76.64 0.82 135.38 34.73 111.57 48.57 113.96 48.01 136.8 34.73"/><polyline class="cls-4" points="171.6 35.13 72.75 58.29 102.73 100.93 160.85 69.63 183.97 84.03 202.86 79.6 171.6 35.13"/><polyline points="172.15 34.38 113.96 48.01 111.57 48.57 71.45 57.97 78.39 67.85 78.81 68.44 101.94 101.35 102.73 100.93 72.75 58.29 171.6 35.13 202.86 79.6 183.97 84.03 184.7 84.48 204.16 79.92 172.15 34.38"/><polyline class="cls-4" points="160.8 70.45 82.74 112.48 139.23 147.66 217.28 105.63 160.8 70.45"/><path d="M159.59,158.08,103.1,122.9l78.06-42,56.48,35.19-78,42m21.62-78-58.13,31.3-.78.42-20.61,11.1,57.85,36,79.51-42.82-34-21.17-.73-.45-23.11-14.4" transform="translate(-20.36 -10.42)"/></g></g></g></g></svg>