<svg xmlns="http://www.w3.org/2000/svg" viewBox="0 0 47.24 63.3"><defs><style>.cls-1{fill:#fff;stroke:#fff;stroke-miterlimit:10;}</style></defs><title>White piece</title><g id="Layer_2" data-name="Layer 2"><g id="Layer_1-2" data-name="Layer 1"><path class="cls-1" d="M42.28,44.29c-2.14-1.87-3.27-1.41-7.4-3.7A28.51,28.51,0,0,1,30,37.2,4.47,4.47,0,0,1,28.4,34l-.72-23.4C30.25,9.65,32,7.88,32,5.85,32,2.89,28.32.5,23.78.5s-8.23,2.39-8.23,5.35c0,2.05,1.79,3.83,4.4,4.73l-.42,22.83a4.46,4.46,0,0,1-1.36,3.13,26.75,26.75,0,0,1-5.5,4.05c-4.05,2.3-5.17,1.83-7.4,3.7A14.93,14.93,0,0,0,.59,52.9a4.48,4.48,0,0,0,2.32,4.88,45.38,45.38,0,0,0,20.87,5,45.16,45.16,0,0,0,20.55-5.08A4.47,4.47,0,0,0,46.68,53,14.48,14.48,0,0,0,42.28,44.29Z"/></g></g></svg>