<svg xmlns="http://www.w3.org/2000/svg" xmlns:xlink="http://www.w3.org/1999/xlink" viewBox="0 0 90.68 115.66"><defs><style>.cls-1{opacity:0.5;fill:url(#linear-gradient);}.cls-2{stroke:#fff;stroke-miterlimit:10;}</style><linearGradient id="linear-gradient" y1="55.85" x2="86.59" y2="55.85" gradientUnits="userSpaceOnUse"><stop offset="0" stop-color="#fff"/><stop offset="1"/></linearGradient></defs><title>Facebook</title><g id="Layer_2" data-name="Layer 2"><g id="Layer_1-2" data-name="Layer 1"><path class="cls-1" d="M23.38,111.71a24,24,0,0,1-11.69-3.06A22.2,22.2,0,0,1,0,89.12V53.43A37.45,37.45,0,0,1,19.47,20.9L51.52,3.06a23.86,23.86,0,0,1,23.38,0A22.17,22.17,0,0,1,86.59,22.58V58.27A37.44,37.44,0,0,1,67.12,90.8L35.07,108.65A24,24,0,0,1,23.38,111.71ZM63.21,8.15a15.37,15.37,0,0,0-7.47,1.95L23.69,28A29.32,29.32,0,0,0,8.44,53.43V89.12a14.17,14.17,0,0,0,7.47,12.48,15.28,15.28,0,0,0,14.94,0L62.9,83.75A29.31,29.31,0,0,0,78.15,58.27V22.58A14.18,14.18,0,0,0,70.68,10.1,15.31,15.31,0,0,0,63.21,8.15Z"/><path class="cls-2" d="M27,115.16a24.06,24.06,0,0,1-11.69-3A22.2,22.2,0,0,1,3.59,92.58V56.89A37.44,37.44,0,0,1,23.06,24.36L55.11,6.52a23.86,23.86,0,0,1,23.38,0A22.17,22.17,0,0,1,90.18,26V61.73A37.44,37.44,0,0,1,70.71,94.26l-32,17.85A24.09,24.09,0,0,1,27,115.16Z"/><path class="cls-2" d="M70.08,39.78l3.86-1.93V21.94l-13.19,6.6A22.09,22.09,0,0,0,48.54,48.29V58.51l-8.4,4.2V78.62l8.4-4.2s-.88,31.82,0,31.82l15.91-8.4V66.46l9.49-4.74V45.81l-9.49,4.74V48.89A10.19,10.19,0,0,1,70.08,39.78Z"/></g></g></svg>