<svg xmlns="http://www.w3.org/2000/svg" viewBox="0 0 95.61 151.97"><defs><style>.cls-1,.cls-2{stroke:#fff;stroke-miterlimit:10;}.cls-2{fill:#fff;}</style></defs><title>Finish Line</title><g id="Layer_2" data-name="Layer 2"><g id="Layer_1-2" data-name="Layer 1"><polygon class="cls-1" points="16.27 64.59 16.27 46.39 0.5 55.49 0.5 73.7 16.27 64.59"/><polygon class="cls-2" points="16.27 83.05 16.27 64.85 0.5 73.95 0.5 92.16 16.27 83.05"/><polygon class="cls-1" points="16.27 100.85 16.27 82.65 0.5 91.75 0.5 109.96 16.27 100.85"/><polygon class="cls-2" points="32.04 55.49 32.04 37.28 16.27 46.39 16.27 64.59 32.04 55.49"/><polygon class="cls-1" points="32.04 73.95 32.04 55.74 16.27 64.85 16.27 83.05 32.04 73.95"/><polygon class="cls-2" points="32.04 91.75 32.04 73.54 16.27 82.65 16.27 100.85 32.04 91.75"/><polygon class="cls-1" points="47.81 46.39 47.81 28.18 32.04 37.28 32.04 55.49 47.81 46.39"/><polygon class="cls-2" points="47.81 64.85 47.81 46.64 32.04 55.74 32.04 73.95 47.81 64.85"/><polygon class="cls-1" points="47.81 82.65 47.81 64.44 32.04 73.54 32.04 91.75 47.81 82.65"/><polygon class="cls-2" points="63.58 37.28 63.58 19.07 47.81 28.18 47.81 46.39 63.58 37.28"/><polygon class="cls-1" points="63.58 55.74 63.58 37.53 47.81 46.64 47.81 64.84 63.58 55.74"/><polygon class="cls-2" points="63.58 73.54 63.58 55.33 47.81 64.44 47.81 82.64 63.58 73.54"/><polygon class="cls-1" points="79.34 28.18 79.34 9.97 63.58 19.07 63.58 37.28 79.34 28.18"/><polygon class="cls-2" points="79.34 46.64 79.34 28.43 63.58 37.53 63.58 55.74 79.34 46.64"/><polygon class="cls-1" points="79.34 64.44 79.34 46.23 63.58 55.33 63.58 73.54 79.34 64.44"/><polygon class="cls-2" points="95.11 19.07 95.11 0.87 79.34 9.97 79.34 28.18 95.11 19.07"/><polygon class="cls-1" points="95.11 37.53 95.11 19.32 79.34 28.43 79.34 46.64 95.11 37.53"/><polygon class="cls-2" points="95.11 55.33 95.11 37.13 79.34 46.23 79.34 64.44 95.11 55.33"/><polygon class="cls-2" points="19.79 84.84 19.79 151.11 24.1 148.62 24.1 82.36 19.79 84.84"/><polygon class="cls-2" points="79.4 58.54 79.4 124.81 83.72 122.32 83.72 56.05 79.4 58.54"/></g></g></svg>