<svg xmlns="http://www.w3.org/2000/svg" viewBox="0 0 109.07 130.17"><defs><style>.cls-1,.cls-2{stroke:#fff;stroke-miterlimit:10;}.cls-2{fill:#fff;}</style></defs><title>Hare</title><g id="Layer_2" data-name="Layer 2"><g id="Layer_1-2" data-name="Layer 1"><path class="cls-1" d="M73.91,79.48a12.44,12.44,0,0,1-.48-7C75.15,65,84.3,60.24,89.58,62.67c3.24,1.49,4.37,5.43,4.67,6.48.6,2.09.24,3.51-.91,7.9-.42,1.6-1,3.61-1.58,6.19-.79,3.24-1.18,4.86-1.53,6.59-1.89,9.41-1,11.49-3.06,13.18-2.4,2-4.68,0-8.81,2.71-2,1.29-1.92,1.79-3.74,3.11-3.58,2.59-7.74,2.93-9.29.78-1.43-2,.72-6.43,3.65-8.58.25-.18.47-.32.66-.43,0,0,.64-.4,1.32-.75,1.59-.82,8.57-2.15,11.15-5,.91-1,1.9-2.84,1.53-6.59l-.39,0"/><path class="cls-1" d="M44.31,109.29a72.46,72.46,0,0,0,4.51-20.9l-4.65-1.07c-2.91,15.29-4.06,19.28-4.51,19.45a6.83,6.83,0,0,0-.84.35,8.92,8.92,0,0,0-.86.48c-3.23,2-5.63,6.06-5.35,9s3.11,3.71,6.34,1.69C39.51,118,41.58,116.36,44.31,109.29Z"/><path class="cls-1" d="M51.72,119.51a68.6,68.6,0,0,0,4.3-20l-4.64-1.08c-1,13.12-2.73,17.37-4.31,18.56-.54.41-.79.24-1.7.82-2.66,1.69-5.61,6.31-5.35,9,.27,3,3.11,3.72,6.34,1.69C48.88,127,50.32,123.14,51.72,119.51Z"/><path class="cls-2" d="M101,61.19c-3.76-11.1-21.29-17-33.4-13.33-11,3.29-10.67,12.22-24,17.72-13.7,5.66-23.6.17-26.15,5.08-2.84,5.47,10,17,15.41,22,4.41,4,6.61,6,9.68,7.46,14.6,6.83,31.91-3,36-5.54C86.84,89.45,105.57,74.67,101,61.19Z"/><path class="cls-2" d="M30.14,81.46C21,92.2,5.65,96.66,1.52,91.89c-1.78-2.06-1-6.84.58-16.4C3.39,67.71,4,63.82,5.87,60.78c5.44-9,19.64-17,29.32-11.27,7.25,4.29,8.27,14.11,8.44,16.07"/><path class="cls-1" d="M87.41,80.36a16.67,16.67,0,0,1-.2-8.24c2-8.75,11.46-14.69,16.69-12.06,3.2,1.62,4.19,6.19,4.45,7.41.53,2.42.11,4.09-1.23,9.27-.49,1.9-1.11,4.26-1.84,7.31-.92,3.82-1.38,5.73-1.8,7.77-2.28,11.09-1.46,13.49-3.61,15.55-2.5,2.4-4.73.23-9,3.51-2.08,1.6-2,2.18-3.9,3.8-3.71,3.16-7.92,3.73-9.41,1.28-1.36-2.26,1-7.56,4-10.19a7.21,7.21,0,0,1,.68-.53s.67-.49,1.36-.93c1.64-1,8.73-2.85,11.45-6.24,1-1.19,2-3.4,1.8-7.77-.12,0-.26,0-.39,0"/><path class="cls-1" d="M34.2,51.62,31.71,10.93A4.68,4.68,0,0,0,31,8.73L27.46,3.14C25.94.76,23,1.3,22.1,4.13L17.5,19.07a4.9,4.9,0,0,0,0,2.91L27,51.81"/><path class="cls-1" d="M36.69,54.32l6-42.61a4.93,4.93,0,0,0-.24-2.35L40.06,2.85c-1-2.78-4-3.18-5.41-.73l-7.41,13a4.73,4.73,0,0,0-.56,2.82l3.81,36.14"/></g></g></svg>