<svg xmlns="http://www.w3.org/2000/svg" xmlns:xlink="http://www.w3.org/1999/xlink" viewBox="0 0 63.38 81.06"><defs><style>.cls-1{opacity:0.5;fill:url(#linear-gradient);}.cls-2{fill:#fff;}.cls-3{fill:none;stroke:#fff;stroke-miterlimit:10;}</style><linearGradient id="linear-gradient" y1="40.53" x2="63.38" y2="40.53" gradientUnits="userSpaceOnUse"><stop offset="0" stop-color="#fff"/><stop offset="1"/></linearGradient></defs><title>Hare Heart</title><g id="Layer_2" data-name="Layer 2"><g id="Layer_1-2" data-name="Layer 1"><path class="cls-1" d="M63.38,42.09V4.79A4.79,4.79,0,0,0,56.2.65L5.09,30.16A10.16,10.16,0,0,0,0,39v37.3a4.79,4.79,0,0,0,7.18,4.14l16.06-9.27,10,5.42L44.8,58.69,58.29,50.9A10.17,10.17,0,0,0,63.38,42.09Z"/><path class="cls-2" d="M37.87,30.37a4.94,4.94,0,0,1,3.64,2.72c.48.95.83,2.44,0,5.13-2,6.44-9.15,14.42-10.87,16.3a24.61,24.61,0,0,1-5.43-2.71c-2.85-1.89-4.68-3.1-5.44-5.44-1.23-3.78,1.36-7.31,1.73-7.79.88-1.16,2.37-3.16,4.74-3.13,2.62,0,4.23,2.5,4.4,2.77a9.81,9.81,0,0,1,1.66-4.3C33,33,35,30,37.87,30.37Z"/><line class="cls-3" x1="52.75" y1="69.2" x2="52.75" y2="69.2"/></g></g></svg>