<svg xmlns="http://www.w3.org/2000/svg" xmlns:xlink="http://www.w3.org/1999/xlink" viewBox="0 0 120.64 153.92"><defs><style>.cls-1{opacity:0.5;fill:url(#linear-gradient);}.cls-2,.cls-3{stroke:#fff;stroke-miterlimit:10;}.cls-3{fill:none;}</style><linearGradient id="linear-gradient" x1="-11685.72" y1="74.41" x2="-11570.36" y2="74.41" gradientTransform="matrix(-1, 0, 0, 1, -11565.08, 0)" gradientUnits="userSpaceOnUse"><stop offset="0" stop-color="#fff"/><stop offset="1"/></linearGradient></defs><title>Instagram</title><g id="Layer_2" data-name="Layer 2"><g id="Layer_1-2" data-name="Layer 1"><path class="cls-1" d="M73.92,144.74,31.22,121A49.89,49.89,0,0,1,5.28,77.63V30.09a29.57,29.57,0,0,1,15.57-26A31.82,31.82,0,0,1,52,4.07L94.69,27.85a49.86,49.86,0,0,1,26,43.33v47.55a29.55,29.55,0,0,1-15.57,26,31.84,31.84,0,0,1-31.15,0ZM26.47,13.46a18.9,18.9,0,0,0-9.95,16.63V77.63a39.09,39.09,0,0,0,20.32,34l42.7,23.77a20.32,20.32,0,0,0,19.9,0,18.87,18.87,0,0,0,10-16.62V71.18A39.06,39.06,0,0,0,89.07,37.24L46.38,13.46a20.36,20.36,0,0,0-19.91,0Z"/><path class="cls-2" d="M69.14,149.35l-42.7-23.77A49.89,49.89,0,0,1,.5,82.24V34.69a29.55,29.55,0,0,1,15.57-26,31.82,31.82,0,0,1,31.15,0l42.7,23.77a49.89,49.89,0,0,1,25.94,43.34v47.55a29.55,29.55,0,0,1-15.57,26,31.84,31.84,0,0,1-31.15,0Z"/><path class="cls-3" d="M21.69,18.07a18.88,18.88,0,0,0-10,16.62V82.24a39.08,39.08,0,0,0,20.33,34L74.76,140a20.34,20.34,0,0,0,19.91,0,18.88,18.88,0,0,0,10-16.62V75.79A39.08,39.08,0,0,0,84.29,41.84L41.6,18.07a20.36,20.36,0,0,0-19.91,0Z"/><path class="cls-2" d="M36.77,91.47c-4.58-7.65-6.91-16-6.56-23.61.39-8.47,4-15,10.22-18.49s13.92-3.2,21.72.71c7,3.49,13.34,9.63,17.92,17.29,10.09,16.84,8.48,35.34-3.66,42.1h0a19.51,19.51,0,0,1-9.56,2.41C56.28,111.88,44.42,104.24,36.77,91.47Zm34,8.61c6.34-3.54,6.13-16.29-.46-27.29C66.86,67,62,62.21,57,59.7c-2.47-1.24-7.18-3-10.9-.94s-4.49,6.89-4.62,9.58c-.25,5.45,1.6,11.91,5.07,17.71,6.59,11,17.93,17.56,24.28,14Z"/><ellipse class="cls-2" cx="33.99" cy="35.56" rx="5.12" ry="7.88" transform="translate(-13.73 23.6) rotate(-32.22)"/></g></g></svg>