<svg xmlns="http://www.w3.org/2000/svg" xmlns:xlink="http://www.w3.org/1999/xlink" viewBox="0 0 873.35 547.54"><defs><style>.cls-1,.cls-3{stroke:#fff;stroke-miterlimit:10;}.cls-2{fill:url(#linear-gradient);}.cls-3{fill:none;}.cls-4{fill:url(#linear-gradient-2);}.cls-5{fill:url(#linear-gradient-3);}.cls-6{fill:url(#linear-gradient-4);}</style><linearGradient id="linear-gradient" x1="34.64" y1="358.32" x2="144.65" y2="358.32" gradientUnits="userSpaceOnUse"><stop offset="0" stop-color="#fff"/><stop offset="1" stop-color="#009ad7"/></linearGradient><linearGradient id="linear-gradient-2" x1="104.77" y1="140.21" x2="237.66" y2="140.21" xlink:href="#linear-gradient"/><linearGradient id="linear-gradient-3" x1="497.45" y1="442.93" x2="823.79" y2="442.93" xlink:href="#linear-gradient"/><linearGradient id="linear-gradient-4" x1="169.58" y1="458.69" x2="473.54" y2="458.69" xlink:href="#linear-gradient"/></defs><title>Racetrack</title><g id="Layer_2" data-name="Layer 2"><g id="Layer_1-2" data-name="Layer 1"><path class="cls-1" d="M522.38,472.56l-.13-.08c-51.42,33.13-124.61,53.85-205.83,53.85-75.65,0-144.33-18-195-47.2L97.48,493l24-13.85C68,448.23,34.64,404.74,34.64,356.56c0-46.38,30.89-88.41,80.93-119l-24.7-14.26C35,257.61.5,304.66.5,356.56.5,461.76,142,547,316.65,547c91,0,173-23.17,230.68-60.25l-.91-.52-.15.08Z"/><path class="cls-1" d="M68.79,356.56c0,42.9,29.1,81.62,75.86,109.19l24.93-14.39c-41-23.79-66.65-57.46-66.65-94.8,0-35.52,23.19-67.72,60.78-91.25l-24.9-14.38C95.48,278.23,68.79,315.48,68.79,356.56Z"/><path class="cls-1" d="M102.93,356.56c0,37.34,25.61,71,66.65,94.8l23.95-13.83c-35.56-20.14-57.82-49-57.82-81,0-30.19,19.81-57.54,51.89-77.45l-23.89-13.8C126.12,288.84,102.93,321,102.93,356.56Z"/><path class="cls-2" d="M68.79,356.56c0-41.08,26.69-78.33,70-105.63l-23.24-13.42c-50,30.64-80.93,72.67-80.93,119.05,0,48.18,33.32,91.67,86.83,122.57l23.18-13.38C97.89,438.18,68.79,399.46,68.79,356.56Z"/><path class="cls-3" d="M237.66,149.48c0,44.78-28.79,85.5-75.8,115.83l24.94,14.41c53-34.07,85.47-79.86,85.47-130.24,0-60.28-46.48-114-119-148.91L128.07,15.1C194.73,46.15,237.66,94.79,237.66,149.48Z"/><path class="cls-3" d="M168.44,149.48c0,33.77-20.93,64.54-55.29,87.71l25.14,14.52c40.22-27,64.76-62.83,64.76-102.23,0-49.39-38.58-93.26-98.28-120.92L79.24,43.29C133.24,67,168.44,105.7,168.44,149.48Z"/><path class="cls-3" d="M135.23,149.48c0,28.37-17.49,54.23-46.22,73.77l24.14,13.94c34.36-23.17,55.29-53.94,55.29-87.71,0-43.78-35.2-82.52-89.2-106.19L54.59,57.53C103.18,77.28,135.23,111.08,135.23,149.48Z"/><path class="cls-4" d="M237.66,149.48c0-54.69-42.93-103.33-109.59-134.38l-23.3,13.46c59.7,27.66,98.28,71.53,98.28,120.92,0,39.4-24.54,75.28-64.76,102.23l23.57,13.6C208.87,235,237.66,194.26,237.66,149.48Z"/><path class="cls-3" d="M451,459.17l.14-.09-23.24-13.42-.14.09Z"/><path class="cls-3" d="M675.15,373.9c-88.38,0-168.27,21.86-225.64,57.08l24,13.85.71.41c51.1-31.25,122.14-50.63,200.71-50.63,64.84,0,124.56,13.2,172.17,35.38l25.19-14.54C818.22,389.45,749.7,373.9,675.15,373.9Z"/><path class="cls-3" d="M474.21,445.24l23.24,13.42c44.94-28.27,107.73-45.83,177.23-45.83,56,0,107.65,11.4,149.11,30.61L847.09,430c-47.61-22.18-107.33-35.38-172.17-35.38C596.35,394.61,525.31,414,474.21,445.24Z"/><path class="cls-3" d="M522.35,473l23.89,13.8c32.64-20.21,77.92-32.74,128-32.74,36.74,0,70.9,6.75,99.38,18.33l24.66-14.24c-34.9-15.29-77.64-24.3-123.82-24.3C614.87,433.88,561,448.88,522.35,473Z"/><path class="cls-1" d="M316.19,508.11c-66.61,0-127.07-16.13-171.54-42.36l-23.18,13.38c50.62,29.23,119.3,47.2,195,47.2,81.22,0,154.41-20.72,205.83-53.85l-23.57-13.61C453.45,489.13,388.44,508.11,316.19,508.11Z"/><path class="cls-1" d="M498.68,458.87l-1.2-.69-23.24-13.42-.7-.4c-39,26.23-95.13,42.69-157.59,42.69-56.69,0-108.2-13.57-146.37-35.69l-24.93,14.39c44.47,26.23,104.93,42.36,171.54,42.36C388.44,508.11,453.45,489.13,498.68,458.87Z"/><path class="cls-5" d="M674.68,412.83c-69.5,0-132.29,17.56-177.23,45.83l1.19.69L522.21,473l.14.07c38.66-24.15,92.52-39.15,152.1-39.15,46.18,0,88.92,9,123.82,24.3l25.52-14.74C782.33,424.23,730.68,412.83,674.68,412.83Z"/><path class="cls-6" d="M449.68,430.42l-.14-.09c-33,22.41-80.69,36.51-133.81,36.51-47.17,0-90.1-11.12-122.2-29.31l-23.95,13.83c38.17,22.12,89.68,35.69,146.37,35.69,62.46,0,118.63-16.46,157.59-42.69l-24-13.86Z"/></g></g></svg>