<svg xmlns="http://www.w3.org/2000/svg" xmlns:xlink="http://www.w3.org/1999/xlink" viewBox="0 0 151.58 193.87"><defs><style>.cls-1{opacity:0.5;fill:url(#linear-gradient);}.cls-2{fill:#fff;}.cls-3{fill:none;stroke:#fff;stroke-miterlimit:10;}</style><linearGradient id="linear-gradient" y1="96.94" x2="151.58" y2="96.94" gradientUnits="userSpaceOnUse"><stop offset="0" stop-color="#fff"/><stop offset="1"/></linearGradient></defs><title>Tortoise Heart</title><g id="Layer_2" data-name="Layer 2"><g id="Layer_1-2" data-name="Layer 1"><path class="cls-1" d="M0,100.67V11.46A11.44,11.44,0,0,1,17.16,1.55L139.41,72.13A24.34,24.34,0,0,1,151.58,93.2v89.21a11.44,11.44,0,0,1-17.17,9.91L96,170.14l-23.8,13L44.44,140.37,12.17,121.74A24.32,24.32,0,0,1,0,100.67Z"/><path class="cls-2" d="M61,72.64a11.81,11.81,0,0,0-8.7,6.5c-1.15,2.27-2,5.84,0,12.27,4.77,15.41,21.89,34.5,26,39a60,60,0,0,0,13-6.5c6.81-4.51,11.18-7.4,13-13,2.95-9-3.26-17.49-4.14-18.65-2.1-2.77-5.65-7.54-11.32-7.47-6.27.07-10.13,6-10.54,6.62a23.35,23.35,0,0,0-4-10.29C72.74,78.84,67.82,71.82,61,72.64Z"/><line class="cls-3" x1="25.41" y1="165.51" x2="25.41" y2="165.51"/></g></g></svg>