<svg xmlns="http://www.w3.org/2000/svg" viewBox="0 0 112.24 82.6"><defs><style>.cls-1{fill:#fff;}.cls-1,.cls-2{stroke:#fff;stroke-miterlimit:10;}</style></defs><title>Tortoise</title><g id="Layer_2" data-name="Layer 2"><g id="Layer_1-2" data-name="Layer 1"><path class="cls-1" d="M31.42,42.16h-10c.25.75,3.53,11,.93,15.18a15.2,15.2,0,0,1-.93,1.31c-2.55,3.15-5.05,3.1-5.26,4.36-.27,1.66,3.59,4.58,7.61,4.58,4.2,0,6.91-3.67,7.62-4.58C37.38,55.23,31.88,43.13,31.42,42.16Z"/><path class="cls-1" d="M88,42.86l-6.81,6.27c.68.4,9.87,5.89,10.91,10.59.18.82.26,1.54.26,1.54.39,3.92-1.36,5.46-.64,6.52.93,1.39,5.55,1.12,8.3-1.41s2.23-7,2.09-8.16C100.91,48.74,89,43.29,88,42.86Z"/><path class="cls-1" d="M68.5,56.35l-6.81,6.27c.68.4,9.87,5.89,10.92,10.59a14.7,14.7,0,0,1,.25,1.54c.4,3.92-1.35,5.46-.64,6.52.94,1.39,5.56,1.12,8.31-1.41s2.23-7,2.09-8.16C81.43,62.23,69.48,56.78,68.5,56.35Z"/><path class="cls-1" d="M78.62,62.07l9.84-9a32.07,32.07,0,0,0,9.68,8,36.65,36.65,0,0,0,10.75,3.75,79.21,79.21,0,0,1-11.72.49A66.62,66.62,0,0,1,78.62,62.07Z"/><path class="cls-1" d="M35.6,20.48l-8.34-8.34c-5.58-5.58-5.93-6.82-8.34-8.33C13.11.16,4-.92,1.32,2.88c-1.93,2.74,0,7.2.93,9.26.5,1.14,3,6.86,8.34,8.34,3.89,1.08,5.06-1.16,8.33,0,5,1.76,5.12,7.87,8.34,8.34C29,29.07,31.66,27.63,35.6,20.48Z"/><path class="cls-2" d="M101.33,52.73C97.63,65.84,74,72.22,55.77,68.27c-15.57-3.38-36.79-16.4-35-33,1.29-12.15,15.82-20,24.1-22.7a41.61,41.61,0,0,1,25.33,0C84.63,17,92.41,27.63,95.51,32.82,99.14,38.91,103.27,45.82,101.33,52.73Z"/></g></g></svg>