<?xml version="1.0" encoding="utf-8"?>
<!-- Generator: Adobe Illustrator 23.1.1, SVG Export Plug-In . SVG Version: 6.00 Build 0)  -->
<svg version="1.1" id="Layer_1" xmlns="http://www.w3.org/2000/svg" xmlns:xlink="http://www.w3.org/1999/xlink" x="0px" y="0px"
	 viewBox="0 0 100 100" style="enable-background:new 0 0 100 100;" xml:space="preserve">
<g>
	<path d="M74.91,38.35L50.77,70.04h-1.53L25.09,38.35h1.76L50,68.81l23.15-30.47H74.91z"/>
</g>
<g>
	<path d="M26.41,26.82c-0.56-0.23-1-0.53-1.3-0.9l0.18-0.16c0.29,0.34,0.7,0.62,1.23,0.84c0.53,0.22,1.1,0.33,1.69,0.33
		c0.92,0,1.61-0.18,2.08-0.55c0.47-0.37,0.7-0.84,0.7-1.42c0-0.46-0.12-0.82-0.37-1.09c-0.24-0.27-0.55-0.47-0.9-0.61
		c-0.36-0.13-0.84-0.27-1.45-0.42c-0.65-0.16-1.16-0.31-1.54-0.46c-0.38-0.15-0.7-0.38-0.97-0.68c-0.27-0.31-0.4-0.72-0.4-1.23
		c0-0.4,0.11-0.78,0.32-1.11c0.21-0.34,0.54-0.61,0.99-0.81c0.45-0.2,1-0.3,1.66-0.3c0.47,0,0.94,0.07,1.39,0.22
		c0.46,0.15,0.85,0.34,1.18,0.59l-0.14,0.2c-0.35-0.25-0.73-0.44-1.16-0.58c-0.43-0.13-0.85-0.2-1.26-0.2
		c-0.88,0-1.56,0.19-2.02,0.56c-0.46,0.38-0.7,0.85-0.7,1.43c0,0.46,0.12,0.82,0.37,1.09c0.24,0.27,0.55,0.48,0.91,0.61
		c0.36,0.13,0.85,0.28,1.47,0.43c0.64,0.16,1.15,0.31,1.53,0.46c0.38,0.15,0.7,0.37,0.96,0.67c0.26,0.3,0.39,0.7,0.39,1.21
		c0,0.4-0.11,0.78-0.33,1.11c-0.22,0.34-0.55,0.6-1.01,0.8c-0.45,0.2-1.01,0.3-1.69,0.3C27.58,27.17,26.98,27.05,26.41,26.82z"/>
	<path d="M34.95,26.58c-0.69-0.39-1.23-0.92-1.63-1.6c-0.4-0.68-0.59-1.44-0.59-2.28c0-0.84,0.2-1.6,0.59-2.28
		c0.4-0.68,0.94-1.21,1.63-1.6c0.69-0.39,1.46-0.58,2.31-0.58c0.6,0,1.16,0.09,1.68,0.28s0.96,0.47,1.33,0.84l-0.15,0.18
		c-0.74-0.71-1.69-1.06-2.86-1.06c-0.8,0-1.53,0.19-2.18,0.56c-0.65,0.37-1.17,0.88-1.54,1.52c-0.38,0.64-0.56,1.36-0.56,2.14
		c0,0.78,0.19,1.5,0.56,2.14c0.38,0.64,0.89,1.15,1.54,1.52c0.65,0.37,1.38,0.56,2.18,0.56c1.15,0,2.11-0.36,2.86-1.07l0.15,0.18
		c-0.37,0.37-0.82,0.65-1.34,0.85c-0.52,0.19-1.08,0.29-1.67,0.29C36.41,27.17,35.64,26.97,34.95,26.58z"/>
	<path d="M48.93,27.13l-2.25-3.12c-0.29,0.06-0.64,0.09-1.04,0.09H42.9v3.03h-0.25v-8.85h3c1.09,0,1.94,0.26,2.55,0.77
		c0.62,0.51,0.92,1.22,0.92,2.14c0,0.71-0.19,1.3-0.57,1.78c-0.38,0.48-0.91,0.8-1.61,0.98l2.3,3.19H48.93z M45.67,23.85
		c1.03,0,1.82-0.23,2.37-0.7c0.55-0.46,0.83-1.12,0.83-1.97c0-0.85-0.28-1.51-0.83-1.97c-0.55-0.46-1.34-0.7-2.37-0.7H42.9v5.34
		H45.67z"/>
	<path d="M52.99,26.58c-0.69-0.39-1.24-0.92-1.63-1.6c-0.4-0.68-0.59-1.44-0.59-2.28c0-0.84,0.2-1.6,0.59-2.28
		c0.4-0.68,0.94-1.21,1.63-1.6c0.69-0.39,1.46-0.58,2.31-0.58c0.85,0,1.62,0.19,2.31,0.58c0.69,0.39,1.23,0.92,1.63,1.6
		c0.4,0.68,0.59,1.44,0.59,2.28c0,0.84-0.2,1.6-0.59,2.28c-0.4,0.68-0.94,1.21-1.63,1.6c-0.69,0.39-1.46,0.58-2.31,0.58
		C54.45,27.17,53.68,26.97,52.99,26.58z M57.48,26.38c0.65-0.37,1.17-0.87,1.54-1.52c0.38-0.65,0.56-1.36,0.56-2.16
		c0-0.79-0.19-1.51-0.56-2.16c-0.37-0.64-0.89-1.15-1.54-1.52s-1.38-0.55-2.18-0.55c-0.8,0-1.53,0.18-2.18,0.55
		c-0.65,0.37-1.17,0.87-1.54,1.52c-0.38,0.65-0.56,1.36-0.56,2.16c0,0.79,0.19,1.51,0.56,2.16c0.37,0.64,0.89,1.15,1.54,1.52
		c0.65,0.37,1.38,0.55,2.18,0.55C56.1,26.93,56.83,26.74,57.48,26.38z"/>
	<path d="M62.27,18.28h0.25v8.61h5.27v0.24h-5.53V18.28z"/>
	<path d="M69.6,18.28h0.25v8.61h5.27v0.24H69.6V18.28z"/>
</g>
</svg>
